/* XPM */
static const char *Monkey_xpm[] = {
/* width height num_colors chars_per_pixel */
"    50    50      256            2",
/* colors */
"`` c #290904",
"`. c #89776c",
"`# c #ccb064",
"`a c #ba770d",
"`b c #5c3e24",
"`c c #dcca94",
"`d c #c1932c",
"`e c #807776",
"`f c #5e190c",
"`g c #dcaf44",
"`h c #8c4028",
"`i c #b49254",
"`j c #949390",
"`k c #602c1a",
"`l c #d49415",
"`m c #6c5a54",
"`n c #a0927c",
"`o c #d4ae72",
"`p c #b3b0ab",
"`q c #9c5a14",
"`r c #40221c",
"`s c #a3a39c",
"`t c #c3beb4",
"`u c #7c420c",
"`v c #762c17",
"`w c #daa425",
"`x c #b47634",
"`y c #b46204",
"`z c #460d05",
"`A c #ebcc82",
"`B c #947674",
"`C c #c4a260",
"`D c #744f21",
"`E c #bdb1a3",
"`F c #dcbe7e",
"`G c #8c5a41",
"`H c #e7c061",
"`I c #5c2314",
"`J c #ba862c",
"`K c #aa8c68",
"`L c #9c99a4",
"`M c #cb9f47",
"`N c #49170d",
"`O c #b7a584",
"`P c #a3a5a6",
"`Q c #e8b038",
"`R c #7a3719",
"`S c #d9a337",
"`T c #8c8984",
"`U c #ac761c",
"`V c #d0cbbb",
"`W c #5f3929",
"`X c #c29446",
"`Y c #d5992f",
"`Z c #773f2f",
"`0 c #e5bf74",
"`1 c #946a3c",
"`2 c #b4b6ae",
"`3 c #c47a05",
"`4 c #846c60",
"`5 c #a19c92",
"`6 c #ecda9c",
"`7 c #ccc6bd",
"`8 c #cea458",
".` c #54190b",
".. c #acaab1",
".# c #dcd8cb",
".a c #33120a",
".b c #6c2c17",
".c c #bcb9bc",
".d c #6c2512",
".e c #a47956",
".f c #93510e",
".g c #b98740",
".h c #e4d2a9",
".i c #958982",
".j c #76503e",
".k c #6e1d0c",
".l c #dbaf5c",
".m c #8a92b8",
".n c #e4aa3e",
".o c #dcd2ca",
".p c #684c46",
".q c #d99c0f",
".r c #dab872",
".s c #9c6a1c",
".t c #c4c6be",
".u c #e4be84",
".v c #b48654",
".w c #b49e8c",
".x c #805c34",
".y c #aeafbd",
".z c #54321c",
".A c #f0d48c",
".B c #843a22",
".C c #d4d2cb",
".D c #7c4630",
".E c #9f7247",
".F c #8480a0",
".G c #84321c",
".H c #cd890f",
".I c #a4aaae",
".J c #dcaa42",
".K c #8388b4",
".L c #cca96f",
".M c #e4b971",
".N c #cc942c",
".O c #601e0e",
".P c #c49954",
".Q c #985c2c",
".R c #c3c1bf",
".S c #79321a",
".T c #beb8aa",
".U c #d1ccc5",
".V c #cc9740",
".W c #ac9d8d",
".X c #8c503c",
".Y c #948d8f",
".Z c #84503e",
".0 c #dcb75a",
".1 c #815c4e",
".2 c #390a04",
".3 c #693f2f",
".4 c #e4a20c",
".5 c #b07008",
".6 c #642413",
".7 c #4b1e12",
".8 c #e4b45c",
"#` c #d7a447",
"#. c #a08664",
"## c #512412",
"#a c #c1ae8a",
"#b c #a9773c",
"#c c #ac9a64",
"#d c #828280",
"#e c #814717",
"#f c #c48611",
"#g c #ac9ea4",
"#h c #c4a67c",
"#i c #bc7f12",
"#j c #dcd6ac",
"#k c #996311",
"#l c #8c6454",
"#m c #949bb6",
"#n c #d4c094",
"#o c #916c5c",
"#p c #ac9484",
"#q c #6c391c",
"#r c #aca59a",
"#s c #845234",
"#t c #f4e2a4",
"#u c #3c130c",
"#v c #bc9a58",
"#w c #e4ba4c",
"#x c #522d1c",
"#y c #947764",
"#z c #ac6a24",
"#A c #9c9ebc",
"#B c #b4a79c",
"#C c #9c7668",
"#D c #9c5614",
"#E c #c48c38",
"#F c #a48678",
"#G c #9c7264",
"#H c #cc8d21",
"#I c #8c8eb3",
"#J c #ccb284",
"#K c #c6800b",
"#L c #7f6258",
"#M c #a9803f",
"#N c #844023",
"#O c #84472e",
"#P c #bc7107",
"#Q c #54100c",
"#R c #f4c65c",
"#S c #958177",
"#T c #996531",
"#U c #543934",
"#V c #e4aa2c",
"#W c #bc8234",
"#X c #daceaa",
"#Y c #9c9590",
"#Z c #7b3925",
"#0 c #d89c1e",
"#1 c #d4b987",
"#2 c #8c807c",
"#3 c #a4661c",
"#4 c #5c463c",
"#5 c #949a9c",
"#6 c #c4aa74",
"#7 c #ac9254",
"#8 c #d49e36",
"a` c #9c722c",
"a. c #6c4639",
"a# c #8c482a",
"aa c #ac865c",
"ab c #8c7874",
"ac c #843e2c",
"ad c #9495b9",
"ae c #bc7e2c",
"af c #6c3a34",
"ag c #ccb67c",
"ah c #541e10",
"ai c #6c321f",
"aj c #cc9a2c",
"ak c #8c5639",
"al c #c48e24",
"am c #acaa99",
"an c #5c321c",
"ao c #dcaa2c",
"ap c #ac6a14",
"aq c #9f9e9e",
"ar c #e8c678",
"as c #80726c",
"at c #d1aa5d",
"au c #945614",
"av c #7a564a",
"aw c #b78e51",
"ax c #cf8e14",
"ay c #dcc68c",
"az c #917261",
"aA c #b89668",
"aB c #9193a4",
"aC c #7a4022",
"aD c #e7cd91",
"aE c #bfa36f",
"aF c #8e5b4e",
"aG c #a1a4b9",
"aH c #e4b147",
"aI c #b3b6c1",
"aJ c #a46e34",
"aK c #79483e",
"aL c #7c82b4",
"aM c #af711b",
"aN c #b89b68",
"aO c #74625c",
"aP c #491208",
"aQ c #ecc65c",
"aR c #bc8e3c",
"aS c #998e81",
"aT c #848eb4",
"aU c #370e07",
"aV c #2c0e04",
"aW c #583e38",
"aX c #dcb64c",
"aY c #8c8e8c",
"aZ c #947248",
"a0 c #e4dab4",
"a1 c #a47e4c",
"a2 c #e4c68c",
"a3 c #cc9e54",
"a4 c #845647",
"a5 c #e4ba61",
"a6 c #3c1a17",
"a7 c #947e5c",
"a8 c #ccb27c",
/* pixels */
".C.U.C.U.C.#.#.#.#.#.#.#.#.#.#.#.#.#.#.#.#.#.#.#.#.#.#.#.#.#.#.#.#.#.#.#.#.#.#.#.#.#.#.#.o.C.U.C.C.U",
".C.C.C.o.U.c.caI...y.y.y...y.y.y.y.y.y.y.y.y.y.y.y.y.y.y.y.y.y.y.y.y.y.y.y.y.y.y.y.yaI.c.R.U.C.C.U.C",
".U.C.U.U.y#A.m#IaL.KaL.K.KaL.KaL.KaLaL.KaL.KaLaLaL.KaLaL.KaL.KaL.KaL.KaL.KaLaL.KaLaL#I#I#AaI`7.U.o.C",
".C.C.R#AaT.K#A...y.c.c.c.c.caI.y.....y.yaI.y.y...I....#g`P#gaGaG.I.yaIaI.y..`P......aG#A.K.K#A.t.C.U",
".C.U.y.K.K...c.U.C.#.#.#.#.o.U.U.C`7.T#B.w#B`E.T.T`E.c.R.R.t`V`V`V`VaD.ha0`V`7`t`7.R.R.caG.KaT.y.U.C",
".#.c#A#I...C.C.C.U.C.U.U`7.R.c`t.c.W#F#G#o.eaE.L`O#p`n`E.c.t#X#jaD`ca2aD`6a0`7`p`p`t.R.U.U..#I#A.c.#",
".#aI#I#A.R.C.#.C.C.U.U`7.R.c.c.W#o.Z`G.e.g`8.M`A.r.v.E#CaE`F`FaraD`AaD.A.A#t#j`p#r.c.R`V.C.c#A#IaI.#",
".#aI.K.y.U.U.C.U.U.U.U.R.R.c`E`K#T.Q#batarar.r`H.M.V.Q.X`x#`.8.8a5ar`AaDaD.A`A#B`s`p`t`7`7.U.y.KaI.#",
".#.y.KaI.o.U.U.U.U.U`7.R`t`t#6`8`8.l`0`Aarat.gal.n`Y#z#e.f#E.l#`.N.8a5`Har`H.r#r`s`p`t.R.U.UaI.K.y.#",
".#.y#IaI.#.C.U.U.U.U.R.c`t#1.0.0#waQ#R#waH.NaM`aax`l#i`q.f.g`0`XaM.NaH#w#waH.l.Waq`p.T.R`7.CaI.K.y.#",
".#.y.K.c.#.U.C.U.U`7.R.c#a.0`Hat`Xaj`w#Hax#f`a`a`3#K.Hal.5#8aDa1`u#3`J`Y#8at#J`5aqam.c.R`V.o.c.K.y.#",
".#.y.K.c.#.U.U.U`7.t.c.W.P.J#V`J.s`U#K#K`3#K#K`3`3#Kax`YalaH.uavaP`I`R`q#EaE`5`L`s`p`t.R`V.C.c.K.y.#",
".#.y#I.c.o.U.U`7.R.R#B#F#M#Hax`a#k.5`3`3`3#K`a#K.H`l`l#8.V.v`1#x.2.`.k#O.v`5`jaq#r`p`t.R`V.C.c.K.y.#",
".#.y.KaI.#.U.U.R.c.c`p`KaJaM#i`a#P#P`3#i#K#i#i.H`l.q#``8.e.3aV#u`f.6`R`G#F`jaSaqam.c`t.R.U.oaI#I.y.#",
".#.y.KaI.o`7.R`t.caI`t`o`xau`a.H#P`a`a#i.H`l.q`w`Y`dat.L.j.aaU`N`I.b#O#l`TaY`5`s`p.T.R`7.U.C.c.K.y.#",
".#.y#I.y`V`t.R`t.T`E.Ta2.g.faM.H#K#K#f.H`l#0ajaj`M`#`0aE`W```N.`.Oai.X#y`T`j`5am`p`t.t`V.U.#aI.K.y.#",
".#.y.K.y`7.c.tay.l`C.L#J`X#zae.V.V.N.N`Y`S#8aR`X`#ar`o.E#x.2aP.`.O`k`G#S.i`j`sam.c.R`7.U.U.#.c.K.y.#",
".#.y.K...U`Vaya5.J`d.g.Pat.l#8a3#`a3.V`X`X.Vat.0`F.LaZanaP`z`f`f.O`vaF#S.Y#5#r`p`t.t`V.U.U.#aI#I.y.#",
".#.caG.c`caDaQaH#``Y`Ja`a1`i#M#b#bawawa3a3#`a5arat`1anaU.2`N`f.O.d#Z#l#2`j`5#r`2`t`7.U.U.U.#aI.K.y.#",
".C.U`tay`H#w`Q`g.l.J`J`D#x#x.z.z`b.x`J`X.V`M.P.g#T#xaPaP`z`N.O.6`v.B#l.i.Y`5`P.T.c`7.U.U.U.#.c.K.y.#",
".U.U`7.l#V`w`S.J.l#8#3`k``.2aV.a#u###q`D`D`DaC#q`kaU.2aPaP.`.6.d.d#ZaF#S`jaq`s`p.R.t`7.U.U.#aI.K.y.#",
".C.U#n`S.q#0`S.n.n#W#e.`#u#uaUaUaPaPaP#u.aaU.2aU.2aVaU`f.O.d.d.b.d.S.X#G#Yaq`s`p.T.R`7.U.U.C.c.KaI.#",
".C`V#n#``Y`w#8#`#8#z`R.d.O.``N.`.`.d`faPaPaP#QaP.2`z`f.b`v.S`v.S.S.S.BaF`B`5aqam`p`t.R.t.U.C.c.K.y.#",
".o.t`E#a.L#v`X`X.g#T.S.d.k.d.k.6.b.d.O.`.``f.`#Q.``f.d`v.S.S.S.B#Z`v`v#Z.j`B`s`p`2`p`t.R`V.C.c.K.y.#",
".#.c#A`p`p#Y`n`KaaaZa4aC#Z`R`v`v`v.O.k.O.d.O`f`f.d`v.S.S`R`R.B#N#Z`v`R`v.6a.`B`5..`p.T`t.t`VaI.K.y.#",
".#aI#I...c#B`s`5#Y`naS#S#2#o#s.S`v.d.d`v`v.G`v.G`v.G#N#N#N#N#N#O#N`R#N#Zah`N#x.p#2`p`p`p`t`VaI.K.y.o",
".#aI#I..`t`2`pam`P`P`P`Paq`j#Sak.S.d.S.G.G.S.G.G.B#N#N#NaCaC#N#Na#a#aC`k.7aPaUa6#U`4`5`2.c.R`p.K...#",
".#.y#IaI`7.c.T`p`pamamam`saq.IaSak#Z`v.b`v.d.b`v.B`h.B`R.S.S.S#Z#N.B.d.`aP`N`N#u.2.7#L`5`p`t...K...C",
".#.y#I.y`V`7`t`t.c.c`p`p`pam#r`p#g#O.O`N.`.O.d.B`h#N`R.b.d`v`v.O`f.kah#Q`zaPa6#u`z#Qaha4.w.TaGaL...U",
".#.y.K.c.U.U.R`7.R`t`t.c.T`p#raI.T.1.``N`f.O`v.S.S.S.6.d.d.6.6aiafaf#4af`W.O#Q`f`f#Q`f.f`X`#.WaTaG`t",
".#.y.K.c.#.U.U`7`V`7.t.R`t.c`p.c...1.b.6.d`v.d.d.O.d.d.6.OaP`N.p`B#2`eas`4aK.d`v.6.d#D#f`l.4`M#Y...T",
".#.y#IaI.#.U.U.U.U.U`7`7`7`t`2.cam#L`kah`k`v.d.d`v.6`k`ka6``.a.z#L`TaY`T`T#S#laf.S.f#P.H`l.q.4`8ag#n",
".#.y.K.c.#.U.U.C.U.U.U.U.t.R.c.R`p#L##ah`I`v`v`v#Z.D#L`m`raVa6aha.#2aY`T.Yaq#5#L#saM#K.H.q.q`w`Q`H#n",
".#.y#I.c.#.U.C.C.U.C.U.U.U`7.T.t`pavah.O`I.b.S.S#O`.`5.Y#4.7`k.6.Das#d`j`j#Y`L`5aw#P`a.H.q`wao#wagam",
".#.y.K.c.#.U.C.U.C.U.C.U`V.t`t.t...j.O.6`k.6an`R`G`T#5`j`.a.`k.7`r#U`eaq`5`j`s.TaA`y#P`l`wao.0a8`O`s",
".#.y.K.c.#.U.C.C.U.C.U.U.U`7`t.RamaK.O.b.b`I.6.DaZ#d#d`T`5az`raV``.aaO`saq`5`s.caAap#K.V`C`##6`s`L`5",
".#.y.K.c.#.C.U.C.C.U.C.U.U.U`t.c`5.3`f.6`I#Q.6#s#S`T#daS.I#2.z`NaUaU.paYaqaq`s...waw#c.W`O`5#Y.K`L#r",
".#.y#I.c.o.C.U.C.U.o.C.U.U`V.R`pab`k`z.`.`.`.baF`T`T`T`j`P#YaOanaP`N`bas#Y`s#ramam`O#raqaq`5#5aL`L`p",
".#.y.K.c.#.C.U.o.C.U.C.U`V.U.t.W.1##`zaP`N.O`R`4`j`j`j`5`5am`na.aP.7`k.1`j`s`s..`pamamamam`paq.KaG.T",
".#.y.K.c.#.C.U.C.U.C.C`V.U.t.t.W#s.b`f.`.O.d#q`4`j`j#Y`saq..`sa.aP`I.O#q.i.I#r`p`p`p.c`p.c.T...KaG`7",
".#.y#IaI.#.C.U.C.C.U.U.U`7.t.taEaM`qau.f.f#D.s#S`j`j`5`5`s`2..av.`.6.6`Z.iam`s`p.T.c`t`t`t.t...K..`V",
".#.y.KaI.o.U.C.U.o.U.C.U`7.R`7`o.Nax.Naxal`l.JaE`j`jaq`s`s.c`2#L.b`v`v`DaS`P`s`p.T`t.R.R`7`V.y.K...C",
".#aI.K.y`7.C.U.C.C.U.U.U.R`t#n`o#8`w`S#``S#8#0.P.W#5aqam`5#r.Wa4.b`u`hak.Y`s#r`2`t.R`7`V.U.t...K.y.#",
".#aI#I#A.R.o.#.U.C.U.U`V.R.c#1.8.lat.l.l.l#`#H`daN`n#2abaz#C#oaC`k`R.B.X.iaqam`p`t.R`V.U.C.R#A#IaI.#",
".#.c#A#I...C.o.U.C.U.C.U.R`t`F.u`0.u`F.M`F.lat`M#7az.j.b`RaC#N`k`I.b`v#s.i`P#r`2`t`7`7.C.UaG#I#A.c.#",
".C.U.y.K.KaG.R.U.o.#.#.#`V`7`ca2.M.r.rat`8a3`C#ca7#s.S.d`f.k`v.S`k.O.6.ZaSaqam`t.R`7`7.caG#I.K.y.U.U",
".U.C`7#A.K#I#A.yaI.c.caI..`p`VaD`0.M.la3.v`KaS`j`e#Z.6`kaf`R`v#Zai.`.6avaYaqaq`P.y...y#A.K.K#A.R.C.C",
".C.U.C`7.yad#I.KaL.K.K.KaL#I.c#Xa2.r`oaE.Y.KaLaT.FaK`za6#L`4`k.6.d`I##.p.F.maL.KaL.K.K#I#maI`7.C.U.C",
".C.U.o.C.U.RaIaI.y....aGaG..aI`t.T#a.waq`L#IaY#m.YaF.6.7aW#U`r.`.6`IahaW.F#madaqaGaG.yaI.c.U.C.o.C.U",
".C.C.U.C.C.o.#.#.#.#.#.#.o.U.c`p#r`P`L#Y`5#Y#Y`s`5aFac.6aU``.aah.O`I`N#U.i`sam.T`7`V.o.o.#.U.U.C.U.C"
};
