/* XPM */
static char * align_xpm[] = {
"32 32 16 1",
" 	c #FFFFFF",
".	c #888888",
"+	c #DDDDDD",
"@	c #BBBBBB",
"#	c #999999",
"$	c #CCCCCC",
"%	c #000000",
"&	c #444444",
"*	c #666666",
"=	c #777777",
"-	c #111111",
";	c #333333",
">	c #555555",
",	c #222222",
"'	c #EEEEEE",
")	c #AAAAAA",
"                                ",
"                                ",
"                                ",
"                                ",
"                                ",
"                                ",
"                                ",
"                                ",
"                                ",
"   ...+  @.# ..+                ",
"  $%%%.  .%& %%@                ",
"  #%%%*  .%& %%@                ",
"  =%-%;  .%&                    ",
"  &%&%%  .%& &&$ =%>#&# &&$,,'  ",
"  %%#%%@ .%& %%@@%%%,%. %%&%%.  ",
" $%%$,%. .%& %%@=%-=%%. %%%%%&  ",
" .%% &%> .%& %%@&%* ,%. %%.*%&  ",
" *%-.&%, .%& %%@&%. &%. %%@.%&  ",
" ;%%%%%%'.%& %%@&%. &%. %%@.%&  ",
" %%%%%%%@.%& %%@*%;'-%. %%@.%&  ",
"@%%;&&%%..%& %%@#%%%%%. %%@.%&  ",
".%%$  -%>.%& %%@ ,%-;%. %%@.%&  ",
"*%%   &%,.%& %%@ +.$&%. %%@.%&  ",
"                .&. ;%.         ",
"                .%%=%%)         ",
"                +%%%%-'         ",
"                 #-%,$          ",
"                                ",
"                                ",
"                                ",
"                                ",
"                                "};
