/* XPM */
static char * CH_LT_xpm[] = {
"32 32 565 2",
"  	c #A08906",
". 	c #5D5942",
"+ 	c #8D8E9A",
"@ 	c #C3C3C4",
"# 	c #C5C5C5",
"$ 	c #C1C1C1",
"% 	c #C0C0C2",
"& 	c #7A7B7D",
"* 	c #564B13",
"= 	c #A98E00",
"- 	c #645509",
"; 	c #626262",
"> 	c #ADAEB3",
", 	c #BEBDBE",
"' 	c #B8B8B8",
") 	c #BABABA",
"! 	c #BDBDBD",
"~ 	c #BFBFBF",
"{ 	c #C2C2C2",
"] 	c #C8A900",
"^ 	c #99840D",
"/ 	c #5F5D50",
"( 	c #9496A1",
"_ 	c #C6C6C6",
": 	c #C6C6C5",
"< 	c #C3C3C3",
"[ 	c #B3B4B5",
"} 	c #676664",
"| 	c #4D420E",
"1 	c #9E8600",
"2 	c #635713",
"3 	c #5F5F62",
"4 	c #A2A3A8",
"5 	c #B1B1B1",
"6 	c #B0AFAF",
"7 	c #AFAFAF",
"8 	c #B5B5B5",
"9 	c #403708",
"0 	c #B19500",
"a 	c #9B8408",
"b 	c #545244",
"c 	c #81838F",
"d 	c #C7C6C6",
"e 	c #BCBCBC",
"f 	c #B7B7B6",
"g 	c #B7B7B7",
"h 	c #A2A3A9",
"i 	c #57585E",
"j 	c #4E430D",
"k 	c #A48900",
"l 	c #5B4F0C",
"m 	c #575758",
"n 	c #909195",
"o 	c #95969A",
"p 	c #9F9FA0",
"q 	c #A2A2A2",
"r 	c #A5A5A5",
"s 	c #ABABAB",
"t 	c #B3B3B3",
"u 	c #B9B9B9",
"v 	c #555862",
"w 	c #3A3313",
"x 	c #9F8703",
"y 	c #272419",
"z 	c #71737F",
"A 	c #BBBBBC",
"B 	c #A8A8A8",
"C 	c #A1A1A1",
"D 	c #A1A1A0",
"E 	c #8E8E94",
"F 	c #4A4B50",
"G 	c #594C0B",
"H 	c #A38800",
"I 	c #36373D",
"J 	c #464645",
"K 	c #6B6C6E",
"L 	c #929293",
"M 	c #979797",
"N 	c #9C9C9C",
"O 	c #A4A4A4",
"P 	c #ACACAC",
"Q 	c #C0C0C0",
"R 	c #B9BABD",
"S 	c #626470",
"T 	c #342E10",
"U 	c #AE9200",
"V 	c #9E8500",
"W 	c #262316",
"X 	c #6C6F7A",
"Y 	c #A8A8AA",
"Z 	c #9F9F9E",
"` 	c #929292",
" .	c #8B8B8B",
"..	c #8B8A8A",
"+.	c #7B7B80",
"@.	c #484747",
"#.	c #53480C",
"$.	c #675700",
"%.	c #322B03",
"&.	c #705D03",
"*.	c #282517",
"=.	c #686A70",
"-.	c #8E8F8F",
";.	c #8E8E8E",
">.	c #959595",
",.	c #9E9E9E",
"'.	c #B2B2B2",
").	c #BBBBBB",
"!.	c #C9C9C9",
"~.	c #BFBFC1",
"{.	c #636672",
"].	c #2C2712",
"^.	c #AB8F00",
"/.	c #A48B01",
"(.	c #45422F",
"_.	c #5C5E6B",
":.	c #8D8E8E",
"<.	c #898888",
"[.	c #7E7D7D",
"}.	c #7A7A79",
"|.	c #7C7D7D",
"1.	c #6F7175",
"2.	c #33343B",
"3.	c #2F2805",
"4.	c #B19900",
"5.	c #EDD001",
"6.	c #776500",
"7.	c #323333",
"8.	c #717277",
"9.	c #868584",
"0.	c #878787",
"a.	c #909090",
"b.	c #9B9B9B",
"c.	c #A6A6A6",
"d.	c #626371",
"e.	c #2F2A10",
"f.	c #B49900",
"g.	c #A78F03",
"h.	c #242110",
"i.	c #464854",
"j.	c #7C7C7D",
"k.	c #797A7B",
"l.	c #707478",
"m.	c #6F777D",
"n.	c #687381",
"o.	c #3C444F",
"p.	c #594A04",
"q.	c #E8C900",
"r.	c #FFF504",
"s.	c #E5CC02",
"t.	c #4B3F07",
"u.	c #343740",
"v.	c #747477",
"w.	c #7F7F7E",
"x.	c #848484",
"y.	c #999999",
"z.	c #A7A7A7",
"A.	c #C3C3C2",
"B.	c #B0B0B1",
"C.	c #545660",
"D.	c #2E290D",
"E.	c #AD9200",
"F.	c #A38A00",
"G.	c #221E0D",
"H.	c #3B3F4D",
"I.	c #6B737D",
"J.	c #697785",
"K.	c #607386",
"L.	c #5E7791",
"M.	c #4A637D",
"N.	c #1D1F1E",
"O.	c #6C5A03",
"P.	c #DBBF00",
"Q.	c #FFEB04",
"R.	c #C8AD00",
"S.	c #26210C",
"T.	c #444A58",
"U.	c #77797C",
"V.	c #7D7D7C",
"W.	c #838383",
"X.	c #ADADAD",
"Y.	c #98989A",
"Z.	c #474955",
"`.	c #25210C",
" +	c #A78D00",
".+	c #A58B00",
"++	c #231F0C",
"@+	c #2D3B52",
"#+	c #57738F",
"$+	c #527698",
"%+	c #4A7298",
"&+	c #47749E",
"*+	c #36618E",
"=+	c #1C3349",
"-+	c #37300B",
";+	c #F9D701",
">+	c #A18800",
",+	c #2B2E29",
"'+	c #5D6676",
")+	c #787B7C",
"!+	c #7B7B7A",
"~+	c #BDBDC0",
"{+	c #BEBEBE",
"]+	c #AEAEAE",
"^+	c #9F9F9F",
"/+	c #838485",
"(+	c #3F414E",
"_+	c #AB9100",
":+	c #B59800",
"<+	c #27240F",
"[+	c #213C62",
"}+	c #4071A1",
"|+	c #3C74A8",
"1+	c #3771A7",
"2+	c #3976AF",
"3+	c #306AA4",
"4+	c #173B66",
"5+	c #141618",
"6+	c #7D6802",
"7+	c #E3BF00",
"8+	c #7A6908",
"9+	c #3D454B",
"0+	c #67717E",
"a+	c #78797A",
"b+	c #888888",
"c+	c #969696",
"d+	c #6D6E70",
"e+	c #ABABAD",
"f+	c #989897",
"g+	c #888989",
"h+	c #828281",
"i+	c #757779",
"j+	c #363E4F",
"k+	c #29240C",
"l+	c #B79800",
"m+	c #AC9000",
"n+	c #211F11",
"o+	c #123A6B",
"p+	c #2C6EAD",
"q+	c #2B72B4",
"r+	c #276EB1",
"s+	c #2A72B4",
"t+	c #2B70B2",
"u+	c #1F5796",
"v+	c #142C42",
"w+	c #50450B",
"x+	c #997D00",
"y+	c #42380D",
"z+	c #454E57",
"A+	c #6D737A",
"B+	c #797879",
"C+	c #818181",
"D+	c #9D9D9D",
"E+	c #564C0F",
"F+	c #61615D",
"G+	c #96979F",
"H+	c #989898",
"I+	c #848483",
"J+	c #787878",
"K+	c #74787C",
"L+	c #637384",
"M+	c #273955",
"N+	c #221F0F",
"O+	c #A88C00",
"P+	c #272311",
"Q+	c #083368",
"R+	c #1E6BB4",
"S+	c #2170BC",
"T+	c #1F6CB5",
"U+	c #2270B8",
"V+	c #2874BC",
"W+	c #2466AA",
"X+	c #1A4069",
"Y+	c #292919",
"Z+	c #3C3107",
"`+	c #27281D",
" @	c #5A646E",
".@	c #76787C",
"+@	c #7D7C7B",
"@@	c #B6B6B6",
"#@	c #B59900",
"$@	c #63550B",
"%@	c #50514F",
"&@	c #82838A",
"*@	c #858484",
"=@	c #757576",
"-@	c #6B737C",
";@	c #60778C",
">@	c #4D7296",
",@	c #1B3C68",
"'@	c #1F1D13",
")@	c #A88B00",
"!@	c #BC9900",
"~@	c #2E290F",
"{@	c #053369",
"]@	c #1C6BB6",
"^@	c #2071BD",
"/@	c #1E6CB5",
"(@	c #1F6CB6",
"_@	c #2672B9",
":@	c #2A6EAF",
"<@	c #285A8E",
"[@	c #34526C",
"}@	c #465F74",
"|@	c #607181",
"1@	c #6F7579",
"2@	c #787877",
"3@	c #5B4E06",
"4@	c #B89B00",
"5@	c #786709",
"6@	c #474745",
"7@	c #727279",
"8@	c #777A7C",
"9@	c #677380",
"0@	c #58738D",
"a@	c #4A769E",
"b@	c #3871A8",
"c@	c #103E73",
"d@	c #1C1C18",
"e@	c #A08703",
"f@	c #BD9C00",
"g@	c #2E280F",
"h@	c #05346B",
"i@	c #1C6AB5",
"j@	c #2071BC",
"k@	c #266FB5",
"l@	c #3272B1",
"m@	c #3C70A4",
"n@	c #4F759A",
"o@	c #5F7489",
"p@	c #6B737B",
"q@	c #757676",
"r@	c #80807F",
"s@	c #4D4E51",
"t@	c #564B0F",
"u@	c #B89A00",
"v@	c #6C5D08",
"w@	c #414141",
"x@	c #656B77",
"y@	c #687989",
"z@	c #557695",
"A@	c #4575A3",
"B@	c #3574AE",
"C@	c #276EB2",
"D@	c #094588",
"E@	c #1E343D",
"F@	c #A68E06",
"G@	c #B89800",
"H@	c #2C250F",
"I@	c #053166",
"J@	c #1D6AB5",
"K@	c #1E6CB6",
"L@	c #216DB5",
"M@	c #2C70B0",
"N@	c #3A71A5",
"O@	c #487298",
"P@	c #5A738B",
"Q@	c #69747E",
"R@	c #737576",
"S@	c #A6A7AB",
"T@	c #4D4F56",
"U@	c #4C400A",
"V@	c #B19400",
"W@	c #6F5F08",
"X@	c #424541",
"Y@	c #506071",
"Z@	c #354B63",
"`@	c #284866",
" #	c #214C72",
".#	c #1B5082",
"+#	c #185A97",
"@#	c #084181",
"##	c #1F3238",
"$#	c #A68A00",
"%#	c #AE8E00",
"&#	c #28230C",
"*#	c #042751",
"=#	c #165591",
"-#	c #1D66AA",
";#	c #1F6DB6",
">#	c #276CAE",
",#	c #316697",
"'#	c #395C7C",
")#	c #455A6F",
"!#	c #56616C",
"~#	c #6A6C6E",
"{#	c #7C7B7B",
"]#	c #8A8A8A",
"^#	c #9A9A9A",
"/#	c #BCBCBB",
"(#	c #9D9EA2",
"_#	c #474850",
":#	c #4A3F09",
"<#	c #A98F00",
"[#	c #534808",
"}#	c #0F1112",
"|#	c #060503",
"1#	c #000000",
"2#	c #040E17",
"3#	c #0C2B48",
"4#	c #06284E",
"5#	c #101110",
"6#	c #3C3302",
"7#	c #1E1900",
"8#	c #030301",
"9#	c #01050A",
"0#	c #081F35",
"a#	c #0B2E51",
"b#	c #0E2945",
"c#	c #112232",
"d#	c #080E13",
"e#	c #07090C",
"f#	c #14171A",
"g#	c #38393A",
"h#	c #686767",
"i#	c #8E8F92",
"j#	c #3B3D41",
"k#	c #231E06",
"l#	c #363636",
"m#	c #7D7D7D",
"n#	c #AAAAAA",
"o#	c #4B4B4E",
"p#	c #020609",
"q#	c #0F3556",
"r#	c #1B5E98",
"s#	c #2072B8",
"t#	c #1C619D",
"u#	c #113A5E",
"v#	c #02070C",
"w#	c #010305",
"x#	c #113D63",
"y#	c #144772",
"z#	c #154A78",
"A#	c #061522",
"B#	c #081B2C",
"C#	c #103758",
"D#	c #696969",
"E#	c #B0B0B0",
"F#	c #7F7F7F",
"G#	c #111111",
"H#	c #237BC6",
"I#	c #2D9EFF",
"J#	c #237DC9",
"K#	c #061420",
"L#	c #2A93ED",
"M#	c #0E304D",
"N#	c #124067",
"O#	c #2582D2",
"P#	c #5B5B5B",
"Q#	c #5D5D5D",
"R#	c #1E6AAB",
"S#	c #2B95F1",
"T#	c #1C64A1",
"U#	c #02060A",
"V#	c #288CE2",
"W#	c #0D2C47",
"X#	c #113D62",
"Y#	c #237BC7",
"Z#	c #A3A3A3",
"`#	c #343434",
" $	c #092034",
".$	c #2C9CFC",
"+$	c #2C9AF8",
"@$	c #123E64",
"#$	c #040C14",
"$$	c #0E3250",
"%$	c #2B97F3",
"&$	c #2D9DFD",
"*$	c #2685D7",
"=$	c #030B11",
"-$	c #010406",
";$	c #288BE1",
">$	c #0B2841",
",$	c #10395C",
"'$	c #5F5F5F",
")$	c #939393",
"!$	c #0E0E0E",
"~$	c #144671",
"{$	c #0C2B45",
"]$	c #0B263E",
"^$	c #010203",
"/$	c #2071B6",
"($	c #1B5F99",
"_$	c #2278C1",
":$	c #656565",
"<$	c #1A5C94",
"[$	c #1A5A92",
"}$	c #02070B",
"|$	c #6D6E6D",
"1$	c #1B609B",
"2$	c #19588E",
"3$	c #2D9DFE",
"4$	c #6A6A6C",
"5$	c #C4C4C4",
"6$	c #070707",
"7$	c #164D7C",
"8$	c #1C63A0",
"9$	c #154875",
"0$	c #071827",
"a$	c #0B2840",
"b$	c #19578C",
"c$	c #45464C",
"d$	c #C4C5C6",
"e$	c #2D2D2D",
"f$	c #040F18",
"g$	c #2788DB",
"h$	c #2B97F4",
"i$	c #081D2E",
"j$	c #10385B",
"k$	c #28261F",
"l$	c #A4A6B0",
"m$	c #CACACB",
"n$	c #595959",
"o$	c #247FCD",
"p$	c #288BE0",
"q$	c #1F6BAD",
"r$	c #2684D5",
"s$	c #010508",
"t$	c #0D2D48",
"u$	c #514505",
"v$	c #6D6C66",
"w$	c #BCBDC2",
"x$	c #C8C8C7",
"y$	c #898989",
"z$	c #0C2B46",
"A$	c #2A95F0",
"B$	c #2C9BFA",
"C$	c #0F3353",
"D$	c #2992EB",
"E$	c #0D2E4B",
"F$	c #123F66",
"G$	c #2581D0",
"H$	c #5D4D00",
"I$	c #838382",
"J$	c #BEBEC0",
"K$	c #5C5C5C",
"L$	c #092135",
"M$	c #2580CF",
"N$	c #2686D8",
"O$	c #1E6BAC",
"P$	c #0C2A43",
"Q$	c #1D64A2",
"R$	c #19598F",
"S$	c #242113",
"T$	c #2F2500",
"U$	c #24221A",
"V$	c #9E9F9F",
"W$	c #4E4E4E",
"X$	c #383839",
"Y$	c #828387",
"Z$	c #262624",
"`$	c #252524",
" %	c #A4A4A3",
".%	c #A9A9A9",
"+%	c #6F6F6F",
"@%	c #252525",
"#%	c #181818",
"$%	c #565656",
"%%	c #232323",
"&%	c #141414",
"*%	c #535353",
"=%	c #515151",
"-%	c #373737",
";%	c #BEBFBF",
">%	c #A6A6A8",
"  . + @ # $ $ # % & * = - ; > , ' ' ) ! ~ $ $ $ $ $ $ $ $ $ $ { ",
"] ^ / ( _ : $ $ < [ } | 1 2 3 4 5 6 7 5 8 ) ! $ { $ $ $ $ $ $ $ ",
"9 0 a b c @ d e f g h i j k l m n o p q r s t u ~ { $ $ $ $ $ $ ",
"v w 0 x y z A f B C D E F G H j I J K L M N O P 8 e Q $ $ $ $ $ ",
"R S T U V W X Y Z `  ...+.@.#.$.%.&.*.=.-.;.>.,.B '.).Q $ $ $ $ ",
"!.~.{.].^./.(._.:.<.[.}.|.1.2.3.4.5.6.7.8.9.0.a.b.c.5 ) $ $ $ $ ",
"{ !.~.d.e.f.g.h.i.j.k.l.m.n.o.p.q.r.s.t.u.v.w.x.;.y.z.'.! { $ $ ",
"$ { A.B.C.D.E.F.G.H.I.J.K.L.M.N.O.P.Q.R.S.T.U.V.W.;.b.B 8 ~ { $ ",
"# Q 8 X.Y.Z.`. +.+++@+#+$+%+&+*+=+-+0 ;+>+,+'+)+!+x.a.,.P ) { { ",
"~+{+]+^+>./+(+++_+:+<+[+}+|+1+2+3+4+5+6+7+8+9+0+a+V.b+c+O t ~ { ",
"d+e+6 f+g+h+i+j+k+l+m+n+o+p+q+r+s+t+u+v+w+x+y+z+A+B+C+;.D+X.).$ ",
"E+F+G+H+I+J+K+L+M+N+O+m+P+Q+R+S+T+U+V+W+X+Y+Z+`+ @.@+@b+M B @@~ ",
"#@$@%@&@*@=@-@;@>@,@'@)@!@~@{@]@^@/@(@_@:@<@[@}@|@1@2@W.` q '.! ",
"3@4@5@6@7@8@9@0@a@b@c@d@e@f@g@h@i@j@/@/@k@l@m@n@o@p@q@r@;.,.7 e ",
"s@t@u@v@w@x@y@z@A@B@C@D@E@F@G@H@I@J@^@K@L@M@N@O@P@Q@R@[. .N X.) ",
"S@T@U@V@W@X@Y@Z@`@ #.#+#@###$#%#&#*#=#-#;#>#,#'#)#!#~#{#]#^#P u ",
"/#(#_#:#<#[#}#|#1#1#1#2#3#4#5#6#7#8#9#0#a#b#c#d#e#f#g#h#b+^#P u ",
"@@]+i#j#k#1#1#1#1#1#1#1#1#1#1#1#1#1#1#1#1#1#1#1#1#1#1#l#m#b.X.) ",
"g n#M o#1#1#p#q#r#s#t#u#v#1#1#w#x#y#z#A#1#1#B#y#y#C#1#1#D#,.E#e ",
") P F#G#1#A#H#I#I#I#I#I#J#K#1#v#L#I#I#M#1#1#N#I#I#O#1#1#P#C '.! ",
"e P Q#1#1#R#I#I#I#S#I#I#I#T#1#U#V#I#I#W#1#1#X#I#I#Y#1#1#P#c.8 ~ ",
"~ Z#`#1# $.$I#+$@$#$$$%$&$*$=$-$;$I#I#>$1#1#,$I#I#Y#1#1#'$s ) $ ",
"$ )$!$1#~$I#I#s#1#1#1#{$]$=$^$U#;$I#I#/$($r#_$I#I#Y#1#1#:$'.{+$ ",
"$  .1#1#<$I#I#[$1#1#1#1#1#1#1#}$;$I#I#I#I#I#I#I#I#Y#1#1#|$u $ $ ",
"$  .1#1#1$I#I#2$1#1#1#1#1#1#1#}$;$I#I#I#3$3$I#I#I#Y#1#1#4$5$$ $ ",
"$ >.6$1#7$I#I#8$1#1#1#u#9$0$w#U#;$I#I#z#>$a$b$I#I#Y#1#1#c$d$# $ ",
"$ z.e$1#W#I#I#;$A#1#f$g$I#h$i$^$;$I#I#a$1#1#j$I#I#Y#1#1#k$l$m${ ",
"$ u n$1#-$o$I#I#p$q$g$I#I#r$-$s$;$I#I#t$1#1#X#I#I#Y#1#1#u$v$w$x$",
"$ Q y$1#1#z$A$I#I#I#I#I#B$C$1#v#D$I#I#E$1#1#F$I#I#G$1#1#H$* I$J$",
"$ $ 5 K$1#1#L$1$M$V#N$O$P$1#1#s$Q$s#s# $1#1#W#s#s#R$1#1#S$T$U$V$",
"$ $ Q r W$1#1#1#1#1#1#1#1#1#1#1#1#1#1#1#1#1#1#1#1#1#1#X$Y$Z$`$ %",
"{ $ $ ~ .%+%@%1#1#1#1#1##%$%Q#%%1#1#1#&%*%=%G#1#1#1#-%;.;%>%z.{+"};
