/* XPM */
static char * image_name[]={
"45 45 164 2",
"  	c #E8E8E8",
". 	c #F0F0F0",
"X 	c #F7F7F7",
"o 	c #D9D9D9",
"O 	c #C7C7C7",
"+ 	c #A1A1A1",
"@ 	c #787878",
"# 	c #616161",
"$ 	c #4F4F4F",
"% 	c #474747",
"& 	c #575757",
"* 	c #707070",
"= 	c #828282",
"- 	c #999999",
"; 	c #B8B8B8",
": 	c #A8A8A8",
"> 	c #303030",
", 	c #292929",
"< 	c #404040",
"1 	c #878787",
"2 	c #8F8F8F",
"3 	c #B0B0B0",
"4 	c #1F1F1F",
"5 	c #171717",
"6 	c #383838",
"7 	c #696969",
"8 	c #C2C2C2",
"9 	c #E0E0E0",
"0 	c #0F0F0F",
"q 	c #EBEBEB",
"w 	c #CFCFCF",
"e 	c #F5F5F5",
"r 	c #E0FFFF",
"t 	c #F0F8FF",
"y 	c #8A8A8A",
"u 	c #B0E2FF",
"i 	c #87CEFA",
"p 	c #9BEFF2",
"a 	c #729FFF",
"s 	c #49D4F0",
"d 	c #72D5CD",
"f 	c #AFEEEE",
"g 	c #7C98D3",
"h 	c #88A8D0",
"j 	c #91D2DE",
"k 	c #CCCCCC",
"l 	c #B6E2CE",
"z 	c #5F929E",
"x 	c #F2F2F2",
"c 	c #88B0E0",
"v 	c #D4D4D4",
"b 	c #1A1A1A",
"n 	c #3870A0",
"m 	c #6A6A8D",
"M 	c #90B8D8",
"N 	c #525252",
"B 	c #285080",
"V 	c #2F4F4F",
"C 	c #E5E5E5",
"Z 	c #88B8E0",
"A 	c #9E9E9E",
"S 	c #285888",
"D 	c #666666",
"F 	c #80B0D8",
"G 	c #32BFC1",
"H 	c #5470AA",
"J 	c #90B8E0",
"K 	c #949494",
"L 	c #9B7071",
"P 	c #141414",
"I 	c #4A4A4A",
"U 	c #80A0C0",
"Y 	c #9C9C9C",
"T 	c #A6A6A6",
"R 	c #DEDEDE",
"E 	c #285880",
"W 	c #80B0E0",
"Q 	c #6B6B6B",
"! 	c #708090",
"~ 	c #3070A8",
"^ 	c #8C8C8C",
"/ 	c #DBDBDB",
"( 	c #B3B3B3",
") 	c #5C5C5C",
"_ 	c #C4C4C4",
"` 	c #969696",
"' 	c #509F69",
"] 	c #2B2B2B",
"[ 	c #1E90FF",
"{ 	c #384B66",
"} 	c #A3A3A3",
"| 	c #D6D6D6",
" .	c #636363",
"..	c #ABABAB",
"X.	c #55562F",
"o.	c #2870B0",
"O.	c #2F2F64",
"+.	c #EDEDED",
"@.	c #2870B8",
"#.	c #B5B5B5",
"$.	c #2070B8",
"%.	c #545454",
"&.	c #20B2AA",
"*.	c #2068B8",
"=.	c #1868B8",
"-.	c #4D4D4D",
";.	c #757575",
":.	c #3078A8",
">.	c #1868B0",
",.	c #B8B8C0",
"<.	c #3078A0",
"1.	c #1C1C1C",
"2.	c #307098",
"3.	c #1878D8",
"4.	c #1068B0",
"5.	c #778899",
"6.	c #1878D0",
"7.	c #286890",
"8.	c #454545",
"9.	c #347766",
"0.	c #1070C8",
"q.	c #0860B0",
"w.	c #B0B8C0",
"e.	c #1068C0",
"r.	c #424242",
"t.	c #121212",
"y.	c #262626",
"u.	c #1860A8",
"i.	c #E3E3E3",
"p.	c #88B0D8",
"a.	c #1068A8",
"s.	c #105888",
"d.	c #0878E0",
"f.	c #0060B8",
"g.	c #386088",
"h.	c #0860C0",
"j.	c #004088",
"k.	c #0868B0",
"l.	c #333333",
"z.	c #085088",
"x.	c #0070D0",
"c.	c #222298",
"v.	c #0070E0",
"b.	c #084880",
"n.	c #2E2E2E",
"m.	c #0058A0",
"M.	c #004888",
"N.	c #386080",
"B.	c #2078D0",
"V.	c #232375",
"C.	c #005098",
"Z.	c #004890",
"A.	c #004080",
"S.	c #0058A8",
"D.	c #0078E8",
"F.	c #0060C0",
"G.	c #242424",
"H.	c #0068C8",
"J.	c #0078F0",
"K.	c #0068D0",
"L.	c #0070D8",
"P.	c #0060B0",
"I.	c #005090",
"U.	c #080808",
"                                  . . . . . . . . .                                       ",
"                              X X .   o O O O O o   . . .                                 ",
"                          X . O + @ # $ % $ & # * = - ; o   .                             ",
"                      .   : & > , , , > < % & * = 1 2 2 2 : O                             ",
"                  X . 3 $ 4 5 5 5 , 6 % # 7 7 7 # # * 2 3 8 ; ; o .                       ",
"                X 9 @ , 4 0 5 < @ : o . X X X X q w + = # @ 3 o O O 9                     ",
"              X 8 $ 4 4 0 < + 9 X X X e r r r t e X X X o - # 1 o o O o .                 ",
"            X 8 6 4 5 4 y   X X r u u i i i i i i u u r X X 9 y # ;   O 9                 ",
"          X O 6 4 0 6 8 X t r p i a a a a a a a a a s d p r r e ; # 3   O o               ",
"        X o < 4 0 % o t r p d a a a a a a a a a a a a a a d p r r O 7 :   O               ",
"        . 7 5 5 < o r f i a a a a a a g h w j a a a a a a a a i f r k 7 ; 9 O             ",
"      X + 4 4 , l f p d a a a a a a z 3 w q x o c a a a a a a a d p f l 7 v O w           ",
"    . 9 6 4 b - f p s a a a a a a n m O ;   X e M a a a a g g a a d p f 2 = 9 ;           ",
"    X 2 5 5 N p i d a a a a a a a B V o X   X e h a a g z o C Z a a d i j 7 ; 8 O .       ",
"  . 9 % 5 4 A i s a a a a a g g a S D l 3 o X X v F G H v X e J a a a s d K L w :         ",
"  X : 4 P I j s a a a a z - o   U m Y A T R X X X l E - . X x W a a a a s d Q ; + O .     ",
"  X @ 5 b ! s a a a a ~ ^ Y / X   - - ( ) _ X X X O ` ;   X x g a a a a a a ' 2 + : .     ",
".   $ 0 ] z a a a a [ { Y } | X . Y  .m $ 8 X X X | ( ; 9 X x g [ a a a a a z L ..1       ",
"X w > 5 X.g a a a [ o.O.` + o X +.- D ! { l X X X k ....R X e g [ a a [ a a z 7 } = o .   ",
"X ; , b I g [ [ [ [ @.O.` y k X +.K  .m { l X X X l A #.9 X e g [ [ [ [ [ [ z ) Y @ O .   ",
"X + 5 4 N g [ [ [ [ $.O.- ..| X +.K  .m { l X X X l - T o X x g [ [ [ [ [ [ z %.K * ; X   ",
"X 2 5 4 %.&.[ [ [ [ *.O.2 y k X +.K  .m { l X X X l Y #.9 X x g [ [ [ [ [ [ &.N 1 * : .   ",
"X 1 5 4 $ &.[ [ [ [ =.O.` - | X q K  .m { l X X X l - + / X x g [ [ [ [ [ [ &.-.;.# : .   ",
"X 2 5 4 V :.[ [ [ [ >.O.A ../ X q ` m m { l X X X ,.} l 9 X x g [ [ [ [ [ [ <.I 7 & : .   ",
"X 3 4 1.V 2.3.[ [ [ 4.O.2 5.k X . ..m m { l X X X ,.- T / X x g [ [ [ [ [ 6.7.8. .& 8 .   ",
"X 8 , 5 > 9.0.[ [ [ q.O.A : / X . T & m V ,.X X X ,.+ w.9 X x a [ [ [ [ [ e.9.r.) # O .   ",
". o < t.y.V 4.[ [ [ u.D 3 + v X . #.2 + m w X X X k w.8 i.X e p.[ [ [ [ [ a.V 8.& 7 9 .   ",
". . 7 5 4 V s.d.[ f.g.9 X X X X X x . x . X X X X X X X X X X x p.[ [ [ d.s.V % $ = .     ",
"  X 2 5 4 ] V h.[ j.{ +.X X X X X X X X X X X X X X X X X X X X j [ [ [ k.V l.$ -.3 .     ",
"  X O , 5 4 O.z.x.c.{ | C             9 9 9 9 9 9 9 9 9 9 9 9 i.F [ [ v.b.n.6 $ $ o .     ",
"    . # 5 4 y.O.m.M.O.{ { N ) & N N N { { { { { { { { { { { { N.B.[ [ m.O.y.< < = .       ",
"    . ; 4 4 4 y.V.C.Z.A.c.c.c.c.c.c.c.c.j.j.j.j.j.j.j.j.j.c.j.S.D.[ F.V.G.n.% % O .       ",
"      . 7 5 4 4 G.V H.[ [ J.[ [ [ [ [ [ [ [ [ [ [ [ [ [ [ [ [ [ [ K.V.4 4 6 > = .         ",
"      . w > 5 4 4 4 { L.[ [ [ [ [ [ [ [ [ [ [ [ [ [ [ [ [ [ [ [ H.V.4 1.> 6 % o .         ",
"        X + 5 5 4 G.4 V.f.[ [ [ [ [ [ [ [ [ [ [ [ [ [ [ [ [ [ P.V.G.1., 6 > : X           ",
"        . X @ 5 4 4 y.4 O.Z.L.[ [ [ [ [ [ [ [ [ [ [ [ [ [ L.Z.O.1.1.4 > , 1 .             ",
"          .   7 5 4 4 4 4 1.V.C.K.J.[ [ [ [ [ [ [ [ D.H.I.O.1.4 1.4 , 4 @ .               ",
"            .   @ 4 5 4 4 G.1.1.O.V.M.S.F.F.H.f.S.Z.V.O.1.4 1.4 4 5 4 =   .               ",
"              . . + > 0 4 4 4 y.G.1.1.4 G.O.O.O.1.1.1.4 4 1.4 4 U., + X .                 ",
"                . X O & 5 5 4 4 4 4 G.1.1.4 1.1.4 1.1.b 5 5 0 0 # O X .                   ",
"                    X . 3 $ 4 5 5 5 1.4 4 4 b 5 5 5 0 0 U.0 % : . .                       ",
"                      . X   ; @ % > 4 0 0 0 0 0 0 0 , < * ; . X .                         ",
"                            X X   O + 1 @ 7 7 = = + O   X X                               ",
"                                . X X X X . . X X X X .                                   ",
"                                          . .                                             "
};
