/* XPM */
static char * constrain_xpm[] = {
"32 32 45 1",
" 	c #00297D",
".	c #51A0D4",
"+	c #FCFDFE",
"@	c #3E8CCA",
"#	c #FFFFFF",
"$	c #012E84",
"%	c #71B4DC",
"&	c #0D4AA3",
"*	c #FDFEFE",
"=	c #E3EDF5",
"-	c #A9D5ED",
";	c #3880C3",
">	c #3B86C4",
",	c #1A5BAB",
"'	c #3F8BC7",
")	c #4593CE",
"!	c #F6F9FB",
"~	c #1C58A7",
"{	c #124EA3",
"]	c #04358B",
"^	c #0B4298",
"/	c #1554A6",
"(	c #6AB0D9",
"_	c #0B4399",
":	c #3C87C6",
"<	c #1558AD",
"[	c #0F4EA6",
"}	c #6AB0DA",
"|	c #002A7F",
"1	c #002A80",
"2	c #1C1C1C",
"3	c #8E8E8E",
"4	c #2C2C2C",
"5	c #D3D3D3",
"6	c #F9F9F9",
"7	c #565656",
"8	c #3F3F3F",
"9	c #717171",
"0	c #E3E3E3",
"a	c #C0C0C0",
"b	c #A9A9A9",
"c	c #000000",
"d	c #060606",
"e	c #F0F0F0",
"f	c #0F0F0F",
"                                ",
"                 .+             ",
"               @+#+             ",
"             @+###+             ",
"           @+#####+             ",
"         @+#######+             ",
"        +#########+             ",
"        +#########+             ",
"        +#########+             ",
"        +#########+$$$%%&       ",
"        +#####*====---;>,')     ",
"        +#####!~~~~{{{]  ^/(    ",
"        +#########+%%%_,:%)     ",
"        +#########+   <[        ",
"        +#########+             ",
"        +########+}             ",
"        +######+}               ",
"        +####+}                 ",
"        +##+}                   ",
"        ++}                     ",
"        }                       ",
"                                ",
"   |11     |11    1| 11    111  ",
"################################",
"################################",
"########################2#######",
"#######3456785#9340#a4abc4######",
"######385683ad6cb97#d50ec5######",
"######45##c##45c#54#9f0#c#######",
"######73##256d6c#54#6a4#c#######",
"######e2ca5fdb#c#54#fda#8c######",
"################################"};
