/* XPM */
static char *CURVE_xpm[]={
"32 32 573 2",
"      c #631D1C",
" 0    c #772321",
" 1    c #802524",
" 2    c #812624",
" 3    c #7E2524",
" 4    c #7D2523",
" 5    c #7B2423",
" 6    c #7A2422",
" 7    c #752321",
" 8    c #732220",
" 9    c #70211F",
" a    c #6E211F",
" b    c #6C201E",
" c    c #691F1D",
" d    c #681F1D",
" e    c #661E1D",
" f    c #641E1C",
" g    c #621D1C",
" h    c #611D1B",
" i    c #5F1C1B",
" j    c #5E1C1A",
" k    c #5D1B1A",
" l    c #5C1B1A",
" m    c #5B1B1A",
" n    c #5B1B19",
" o    c #5A1A19",
" p    c #591A19",
" q    c #581919",
" r    c #722120",
" s    c #7C2523",
" t    c #7C2423",
" u    c #7B2422",
" v    c #792422",
" w    c #762321",
" x    c #712120",
" y    c #6F211F",
" z    c #6A201E",
" A    c #5D1C1A",
" B    c #5C1C1A",
" C    c #5A1B19",
" D    c #581A19",
" E    c #571919",
" F    c #571918",
" G    c #772322",
" H    c #792322",
" I    c #782322",
" J    c #742220",
" K    c #712220",
" L    c #661F1D",
" M    c #651E1C",
" N    c #631E1B",
" O    c #62211B",
" P    c #682A1C",
" Q    c #6E331C",
" R    c #79431E",
" S    c #7D4A1F",
" T    c #804F1F",
" U    c #85571D",
" V    c #875B1E",
" W    c #81531B",
" X    c #78481A",
" Y    c #6F3D1A",
" Z    c #6D3A18",
" &    c #652F18",
"0     c #602818",
"00    c #591E18",
"01    c #752221",
"02    c #742221",
"03    c #722220",
"04    c #6D211F",
"05    c #6B201E",
"06    c #69201D",
"07    c #671F1D",
"08    c #621E1B",
"09    c #66241C",
"0a    c #783C20",
"0b    c #915E26",
"0c    c #B89233",
"0d    c #CDAF3C",
"0e    c #CDB13B",
"0f    c #D2B83F",
"0g    c #D3B940",
"0h    c #CDB33B",
"0i    c #CCB238",
"0j    c #CAB138",
"0k    c #C1A82F",
"0l    c #BDA52D",
"0m    c #B7A02A",
"0n    c #B29B24",
"0o    c #B09920",
"0p    c #A8911B",
"0q    c #775015",
"0r    c #702120",
"0s    c #631E1C",
"0t    c #68271D",
"0u    c #8E592B",
"0v    c #C9A74C",
"0w    c #E7CF69",
"0x    c #F4E379",
"0y    c #F9EE86",
"0z    c #FBF68B",
"0A    c #FBF685",
"0B    c #FAF47D",
"0C    c #F9EE73",
"0D    c #F8E76B",
"0E    c #F7E062",
"0F    c #F0D658",
"0G    c #E5CA4D",
"0H    c #DEC346",
"0I    c #D3B93E",
"0J    c #CAB037",
"0K    c #C6AD34",
"0L    c #A58E29",
"0M    c #724B1C",
"0N    c #6E201F",
"0O    c #6D201F",
"0P    c #691F1E",
"0Q    c #62201B",
"0R    c #844C25",
"0S    c #CCAB50",
"0T    c #F5E792",
"0U    c #FDF9CE",
"0V    c #FBF7CA",
"0W    c #FBF3A9",
"0X    c #FAF399",
"0Y    c #F8EB81",
"0Z    c #F5E174",
"0&    c #EED766",
"1     c #EDD161",
"10    c #E9C958",
"11    c #F0D25F",
"12    c #EDCE58",
"13    c #E9C956",
"14    c #E7C853",
"15    c #E1C14C",
"16    c #DFC148",
"17    c #D9BC43",
"18    c #967E2B",
"19    c #65381D",
"1a    c #6A1F1E",
"1b    c #621D1B",
"1c    c #61211A",
"1d    c #9A6A2B",
"1e    c #E9D274",
"1f    c #FDF8D2",
"1g    c #F8EFC5",
"1h    c #ECD680",
"1i    c #D4B84F",
"1j    c #C9AF3D",
"1k    c #C3AA35",
"1l    c #BEA731",
"1m    c #BBA630",
"1n    c #BFA633",
"1o    c #BBA333",
"1p    c #C2A836",
"1q    c #C9B039",
"1r    c #C6AE37",
"1s    c #CEB33B",
"1t    c #D0B43D",
"1u    c #D4B540",
"1v    c #D5B442",
"1w    c #C0A93A",
"1x    c #717319",
"1y    c #452612",
"1z    c #671E1D",
"1A    c #601D1B",
"1B    c #5F201A",
"1C    c #956627",
"1D    c #EBD576",
"1E    c #FDF8D0",
"1F    c #ECDC8E",
"1G    c #C4A843",
"1H    c #AF9526",
"1I    c #A28F1B",
"1J    c #978A19",
"1K    c #94851D",
"1L    c #968323",
"1M    c #968027",
"1N    c #98802B",
"1O    c #9A802E",
"1P    c #9D8330",
"1Q    c #A28632",
"1R    c #A78B33",
"1S    c #AA8E33",
"1T    c #AD9233",
"1U    c #B39934",
"1V    c #B59A35",
"1W    c #A08F28",
"1X    c #65610E",
"1Y    c #2A140A",
"1Z    c #591B19",
"1&    c #78441C",
"2     c #D7BC4C",
"20    c #FCF6CD",
"21    c #F1E292",
"22    c #B39833",
"23    c #988017",
"24    c #8D7E0F",
"25    c #837C0E",
"26    c #807714",
"27    c #82751A",
"28    c #82731E",
"29    c #847220",
"2a    c #857320",
"2b    c #877323",
"2c    c #897327",
"2d    c #8C7529",
"2e    c #8F762A",
"2f    c #92782C",
"2g    c #947A2C",
"2h    c #967B2D",
"2i    c #9C7F30",
"2j    c #89781B",
"2k    c #5C4F0A",
"2l    c #200B08",
"2m    c #601C1B",
"2n    c #571A18",
"2o    c #5A1F18",
"2p    c #A48226",
"2q    c #E8D979",
"2r    c #FEFCDF",
"2s    c #E0CD5E",
"2t    c #9E851F",
"2u    c #7E6B0F",
"2v    c #7F720A",
"2w    c #827B0C",
"2x    c #847D0F",
"2y    c #877D11",
"2z    c #877D12",
"2A    c #897C11",
"2B    c #887B0F",
"2C    c #877811",
"2D    c #867512",
"2E    c #877713",
"2F    c #857913",
"2G    c #877817",
"2H    c #87781A",
"2I    c #87771B",
"2J    c #86751D",
"2K    c #706810",
"2L    c #332308",
"2M    c #1E0908",
"2N    c #561A18",
"2O    c #541A17",
"2P    c #683617",
"2Q    c #B69D2A",
"2R    c #EBDF81",
"2S    c #FEFDEA",
"2T    c #ECDA6F",
"2U    c #B69F29",
"2V    c #8B7912",
"2W    c #7B690B",
"2X    c #8D7A0D",
"2Y    c #86740D",
"2Z    c #705D0C",
"2&    c #56440A",
"3     c #3A2809",
"30    c #301E08",
"31    c #2D1B08",
"32    c #311F08",
"33    c #352308",
"34    c #443209",
"35    c #57450B",
"36    c #65530B",
"37    c #705E0C",
"38    c #5C5009",
"39    c #210D08",
"3a    c #551917",
"3b    c #531917",
"3c    c #521916",
"3d    c #6B3E16",
"3e    c #AB9527",
"3f    c #E1CF60",
"3g    c #FDFCDF",
"3h    c #FDF9CC",
"3i    c #E4CF5F",
"3j    c #C9B12F",
"3k    c #A79119",
"3l    c #66520D",
"3m    c #1B0A07",
"3n    c #190806",
"3o    c #180706",
"3p    c #190706",
"3q    c #190707",
"3r    c #190807",
"3s    c #1A0807",
"3t    c #1B0807",
"3u    c #1D0A07",
"3v    c #1F0B08",
"3w    c #200C08",
"3x    c #1D0808",
"3y    c #541917",
"3z    c #521917",
"3A    c #511816",
"3B    c #4F1816",
"3C    c #684213",
"3D    c #9A831C",
"3E    c #CAB23B",
"3F    c #F6EE98",
"3G    c #FEFDEE",
"3H    c #FDFBDA",
"3I    c #F6EB8A",
"3J    c #E1CA55",
"3K    c #BCA432",
"3L    c #735E19",
"3M    c #342209",
"3N    c #1A0906",
"3O    c #1C0807",
"3P    c #1C0808",
"3Q    c #551918",
"3R    c #501816",
"3S    c #4E1816",
"3T    c #4D1715",
"3U    c #5C3411",
"3V    c #8E7C16",
"3W    c #A58D2B",
"3X    c #BFA73E",
"3Y    c #EFE07B",
"3Z    c #FCFACC",
"3&    c #FEFEEF",
"4     c #FDFAD7",
"40    c #F4E88C",
"41    c #AB9734",
"42    c #7D7113",
"43    c #2B1B08",
"44    c #511817",
"45    c #4E1716",
"46    c #4C1715",
"47    c #4B1715",
"48    c #4D1E13",
"49    c #76660E",
"4a    c #8A7821",
"4b    c #9C862B",
"4c    c #B59C33",
"4d    c #D4C158",
"4e    c #F6EE91",
"4f    c #FBF9CB",
"4g    c #D6D3AF",
"4h    c #7D701F",
"4i    c #77671B",
"4j    c #37210E",
"4k    c #280C0B",
"4l    c #2A0D0B",
"4m    c #270C0B",
"4n    c #240B0A",
"4o    c #200A09",
"4p    c #521817",
"4q    c #4A1715",
"4r    c #491614",
"4s    c #481713",
"4t    c #594508",
"4u    c #746E0F",
"4v    c #80721C",
"4w    c #937F27",
"4x    c #A59226",
"4y    c #B49D36",
"4z    c #C4B34E",
"4A    c #7B852A",
"4B    c #696418",
"4C    c #6E6216",
"4D    c #442011",
"4E    c #3B1310",
"4F    c #3C1310",
"4G    c #3B1210",
"4H    c #3C1210",
"4I    c #38110F",
"4J    c #300F0D",
"4K    c #1D0908",
"4L    c #4B1615",
"4M    c #481614",
"4N    c #451513",
"4O    c #36180B",
"4P    c #554C05",
"4Q    c #6A650F",
"4R    c #746A16",
"4S    c #827320",
"4T    c #8D7C24",
"4U    c #8C831C",
"4V    c #50690A",
"4W    c #48680B",
"4X    c #51620D",
"4Y    c #52361B",
"4Z    c #3F1812",
"4&    c #3D1311",
"5     c #431814",
"50    c #6F4130",
"51    c #51231B",
"52    c #270B0B",
"53    c #1F0908",
"54    c #4A1614",
"55    c #461513",
"56    c #33100E",
"57    c #1E0D07",
"58    c #483C06",
"59    c #655F10",
"5a    c #675E16",
"5b    c #6E6417",
"5c    c #716815",
"5d    c #666408",
"5e    c #646607",
"5f    c #45530B",
"5g    c #7B8B33",
"5h    c #8D8C46",
"5i    c #513619",
"5j    c #3C1410",
"5k    c #673B2B",
"5l    c #EEB77E",
"5m    c #915737",
"5n    c #401411",
"5o    c #401312",
"5p    c #3F1312",
"5q    c #2E0E0D",
"5r    c #220A09",
"5s    c #471514",
"5t    c #441513",
"5u    c #3A1210",
"5v    c #1B0A06",
"5w    c #3D3006",
"5x    c #61580C",
"5y    c #645D14",
"5z    c #68630F",
"5A    c #696509",
"5B    c #595408",
"5C    c #221307",
"5D    c #211309",
"5E    c #4A4318",
"5F    c #888D3B",
"5G    c #5F4C24",
"5H    c #3D1411",
"5I    c #4F1E14",
"5J    c #904B28",
"5K    c #5D2616",
"5L    c #3F1311",
"5M    c #411312",
"5N    c #3E1211",
"5O    c #431412",
"5P    c #3E1311",
"5Q    c #231306",
"5R    c #372A07",
"5S    c #605709",
"5T    c #6C640B",
"5U    c #322309",
"5V    c #180806",
"5W    c #1F0A08",
"5X    c #3C2711",
"5Y    c #828937",
"5Z    c #482E14",
"5&    c #3D1310",
"6     c #401410",
"60    c #421312",
"61    c #401412",
"62    c #1D0D06",
"63    c #231307",
"64    c #1B0907",
"65    c #483E18",
"66    c #5C601B",
"67    c #3D1211",
"68    c #421412",
"69    c #4C1615",
"6a    c #4A1615",
"6b    c #481514",
"6c    c #441413",
"6d    c #2C0D0C",
"6e    c #2D200E",
"6f    c #5D651B",
"6g    c #431413",
"6h    c #411412",
"6i    c #2D200F",
"6j    c #54611B",
"6k    c #34120E",
"6l    c #4A4320",
"6m    c #383C12",
"6n    c #491514",
"6o    c #461514",
"6p    c #26160E",
"6q    c #5D6721",
"6r    c #211708",
"6s    c #35100F",
"6t    c #4F1A15",
"6u    c #271711",
"6v    c #676D35",
"6w    c #2F330F",
"6x    c #5D2218",
"6y    c #AB5727",
"6z    c #784A21",
"6A    c #654020",
"6B    c #54281A",
"6C    c #491B16",
"6D    c #461714",
"6E    c #2D0D0C",
"6F    c #1B0908",
"6G    c #25140F",
"6H    c #4B4229",
"6I    c #768052",
"6J    c #333B10",
"6K    c #1C0B07",
"6L    c #200909",
"6M    c #391110",
"6N    c #72301C",
"6O    c #A55723",
"6P    c #6E721D",
"6Q    c #83932D",
"6R    c #9AA43E",
"6S    c #AEAA51",
"6T    c #9A913C",
"6U    c #867532",
"6V    c #7C5F37",
"6W    c #66321F",
"6X    c #603B1F",
"6Y    c #52321E",
"6Z    c #392818",
"6&    c #372816",
"7     c #3D3117",
"70    c #50452B",
"71    c #676536",
"72    c #808D48",
"73    c #5D7129",
"74    c #262509",
"75    c #210E09",
"76    c #1E0A08",
"77    c #330F0E",
"78    c #421313",
"79    c #501A14",
"7a    c #4B1D13",
"7b    c #462313",
"7c    c #463412",
"7d    c #494715",
"7e    c #4F5B16",
"7f    c #5D691E",
"7g    c #908331",
"7h    c #CF783B",
"7i    c #928235",
"7j    c #8C9A43",
"7k    c #8B9948",
"7l    c #83943F",
"7m    c #6B8627",
"7n    c #597025",
"7o    c #3A5011",
"7p    c #28280B",
"7q    c #1D0E08",
"7r    c #844B2C",
"7s    c #8B4E2E",
"7t    c #290F0A",
"7u    c #3F1211",
"7v    c #431313",
"7w    c #431513",
"7x    c #431613",
"7y    c #612B1B",
"7z    c #9C4F28",
"7A    c #59280F",
"7B    c #412411",
"7C    c #3E2211",
"7D    c #2B1B0B",
"7E    c #1F1108",
"7F    c #1D0D08",
"7G    c #1C0A07",
"7H    c #2C120D",
"7I    c #C06E3E",
"7J    c #C9713D",
"7K    c #37140A",
"7L    c #250B0A",
"7M    c #491515",
"7N    c #461413",
"7O    c #451413",
"7P    c #36100F",
"7Q    c #431C10",
"7R    c #692E15",
"7S    c #230B08",
"7T    c #1E0808",
"7U    c #210A09",
"7V    c #3B1110",
"7W    c #461414",
"7X    c #300E0D",
"   0 1 2 1 3 4 5 6 0 7 8 9 a b c d e f g h i j k l m n o p p p q",
" r 4 4 s t u v w 7 8 x y b z c e f   h i j A B n C C p D D E F F",
" G H v I 0 7 J K 9 a b z d L M N h O P Q R S T U V W X Y Z &0 00",
"010102 J03 x y04050607 M f08090a0b0c0d0e0f0g0h0i0j0k0l0m0n0o0p0q",
" r x0r y a b z c07 M0s080t0u0v0w0x0y0z0A0B0C0D0E0F0G0H0I0J0K0L0M",
"0N0O b050P d M M N h0Q0R0S0T0U0V0W0X0Y0Z0&1 10111213141516171819",
"1a0P d07 M f1b h j1c1d1e1f1g1h1i1j1k1l1m1n1o1p1q1r1s1t1u1v1w1x1y",
"1z e M0s1b1A j A1B1C1D1E1F1G1H1I1J1K1L1M1N1O1P1Q1R1S1T1U1V1W1X1Y",
"   g h i j B n1Z1&2 202122232425262728292a2b2c2d2e2f2g2h2i2j2k2l",
"2m i j B C1Z2n2o2p2q2r2s2t2u2v2w2x2y2z2A2B2C2D2E2F2G2H2I2J2K2L2M",
" j k n1Z2n2N2O2P2Q2R2S2T2U2V2W2X2Y2Z2&3 30313132333435363738392M",
" n C D2N3a3b3c3d3e3f3g3h3i3j3k3l313m3n3o3p3q3r3s3s3t3t3u3v3w3x3x",
" D2n2N3y3z3A3B3C3D3E3F3G3H3I3J3K3L3M3N3o3o3p3q3r3s3s3t3t3O3P3x3x",
"2N3Q3y3z3R3S3T3U3V3W3X3Y3Z3&4 404142433n3r3r3q3q3s3s3s3t3O3P3x3x",
"3y3b443R45464748494a4b4c4d4e4f4g4h4i4j4k4l4m4n4o3O3t3s3t3t3P3x3x",
"4p443R45464q4r4s4t4u4v4w4x4y4z4A4B4C4D4E4F4G4F4H4I4J4o4K3O3P3x3x",
"3A3R45464L4r4M4N4O4P4Q4R4S4T4U4V4W4X4Y4Z4E4F4&5 50514&4I52534K3x",
"3B453T47544M554N565758595a5b5c5d5e5f5g5h5i5j4F5k5l5m5n5o5p4H5q5r",
"453T46544M5s4N5t5u3t5v5w5x5y5z5A5B5C5D5E5F5G5H5I5J5K5L5o5M5M5M5N",
"3T464L4r4M554N5O5P4K3p3n5Q5R5S5T5U5V3o5W5X5Y5Z5&6 5L5L5p5o5M605O",
"464L544M5s4N5t5O614m3q3p3o5V62633r3o3o3o6465665j675P5L5L5o5M6068",
"696a4r6b5s4N6c68616d3s3q3p3o3o3o3o3o3o3p3q6e6f5j675P5P5L5o5M6060",
"4L6a6b5s554N6g686h4I3O3q3q3q3p3p3p3p3q3q3q6i6j6k675P5P5L5o5M5M60",
"6a4r6b5s556c6g686h5P4n3s3r3q3q3q3q3q3q3r3s6l6m4m4G5N5P5L5o5M5M60",
"6a6n6b6o4N6c6g686h5L5q3t3s3s3r3r3r3r3s3s6p6q6r4K6s5N5L5p5o5M5M60",
"6a6t4r5s4N6c6g685M5o4G2M3s3s3s3s3s3s3s6u6v6w643O4k675L5p5o5M5M60",
"6x6y6z6A6B6C6D6g685M5L6E3t3s3s3t6F6G6H6I6J6K3t3O6L6M5L5o5o5M6060",
"6N6O6P6Q6R6S6T6U6V6W6X6Y6Z6&7 707172737475763O3P2M775p5o5M5M6078",
"6a797a7b7c7d7e7f7g7h7i7j7k7l7m7n7o7p7q767r7s7t3x2M6E7u5o5M5M607v",
"6n6b5s5s555t7w7x7y7z7A7B7C7D7E7F7G3P3P7H7I7J7K3x3x7L5N5M5M60787v",
"7M6b5s5s7N7O6c6g6g4N5O5M5o7P533x3x3x3x537Q7R7S7T2M7U7V5M60607v7v",
"7M6b6b5s7W7O6c6c6g60605M5M5N523x3x3x3x3x2M53532M2M6L7X5M607v7v7v"};
