/* XPM */
static const char *DeadLine_xpm[] = {
/* width height num_colors chars_per_pixel */
"    32    32      256            2",
/* colors */
"`` c #e9e9ec",
"`. c #9a9aaf",
"`# c #82829d",
"`a c #85859e",
"`b c #84859e",
"`c c #8687a0",
"`d c #8888a0",
"`e c #86869f",
"`f c #9595aa",
"`g c #eaeaed",
"`h c #9091a5",
"`i c #060640",
"`j c #090942",
"`k c #0b0b44",
"`l c #070640",
"`m c #070740",
"`n c #080842",
"`o c #080841",
"`p c #0c0c44",
"`q c #02023d",
"`r c #797996",
"`s c #787892",
"`t c #0c0c45",
"`u c #272758",
"`v c #1e1e52",
"`w c #4e4e76",
"`x c #41416c",
"`y c #2b2b5b",
"`z c #42426d",
"`A c #45456f",
"`B c #2e2e5e",
"`C c #2b2b5c",
"`D c #1b1b4f",
"`E c #19194e",
"`F c #101047",
"`G c #57577c",
"`H c #7a7a94",
"`I c #42426c",
"`J c #2d2d5d",
"`K c #666688",
"`L c #7c7c98",
"`M c #6d6d8e",
"`N c #8989a3",
"`O c #777794",
"`P c #747492",
"`Q c #222254",
"`R c #17174c",
"`S c #5a5a7f",
"`T c #0e0e46",
"`U c #18184d",
"`V c #16164c",
"`W c #28285a",
"`X c #242456",
"`Y c #242457",
"`Z c #212154",
"`0 c #1f1f53",
"`1 c #252557",
"`2 c #1a1a4f",
"`3 c #787992",
"`4 c #17174d",
"`5 c #777891",
"`6 c #15154c",
"`7 c #18184e",
"`8 c #30305d",
".` c #1c1c50",
".. c #121249",
".# c #14144a",
".a c #13134a",
".b c #15154b",
".c c #333360",
".d c #585879",
".e c #47476d",
".f c #4c4c70",
".g c #555576",
".h c #414169",
".i c #4a4a6f",
".j c #363661",
".k c #12124a",
".l c #31315e",
".m c #515174",
".n c #45456c",
".o c #43436a",
".p c #3a3a64",
".q c #373762",
".r c #2e2e5c",
".s c #48486d",
".t c #3f3f67",
".u c #111148",
".v c #4f4f72",
".w c #46466c",
".x c #5f5f7d",
".y c #5a5a79",
".z c #4f4f73",
".A c #61617e",
".B c #656582",
".C c #646481",
".D c #3b3b65",
".E c #393964",
".F c #14144b",
".G c #424269",
".H c #49496f",
".I c #636380",
".J c #46466d",
".K c #666682",
".L c #6a6a85",
".M c #48486e",
".N c #101048",
".O c #0a0a44",
".P c #6d6d86",
".Q c #535375",
".R c #32325f",
".S c #4e4e71",
".T c #353561",
".U c #77778d",
".V c #656581",
".W c #0d0d46",
".X c #30305e",
".Y c #72728a",
".Z c #1e1e51",
".0 c #2b2b5a",
".1 c #44446b",
".2 c #73738a",
".3 c #90909e",
".4 c #292959",
".5 c #0b0b45",
".6 c #828295",
".7 c #77778e",
".8 c #505073",
"#` c #3d3d66",
"#. c #58597e",
"## c #1d1d51",
"#a c #595979",
"#b c #9393a0",
"#c c #1a1a4e",
"#d c #262657",
"#e c #78788e",
"#f c #717189",
"#g c #61617f",
"#h c #9d9da7",
"#i c #4c4c71",
"#j c #4d4d71",
"#k c #60607e",
"#l c #45456b",
"#m c #63637f",
"#n c #58587d",
"#o c #383863",
"#p c #2f2f5d",
"#q c #6b6b85",
"#r c #9595a2",
"#s c #525274",
"#t c #383862",
"#u c #4b4b6f",
"#v c #1b1b50",
"#w c #4e4e72",
"#x c #8f8f9e",
"#y c #111149",
"#z c #0f0f47",
"#A c #5e5e7d",
"#B c #646480",
"#C c #585878",
"#D c #2c2c5b",
"#E c #5a5a7a",
"#F c #7e7e92",
"#G c #202053",
"#H c #6f6f88",
"#I c #75758c",
"#J c #131349",
"#K c #5d5d7c",
"#L c #afafb3",
"#M c #62627f",
"#N c #7b7b90",
"#O c #6f6f89",
"#P c #838395",
"#Q c #42426a",
"#R c #76768d",
"#S c #2e2e5d",
"#T c #2d2d5c",
"#U c #404069",
"#V c #9e9ea8",
"#W c #3b3b64",
"#X c #7c7c90",
"#Y c #404068",
"#Z c #5b5b7b",
"#0 c #8e8e9d",
"#1 c #343461",
"#2 c #1f1f52",
"#3 c #47476c",
"#4 c #878798",
"#5 c #575778",
"#6 c #848496",
"#7 c #3f3f68",
"#8 c #8b8b9b",
"a` c #393963",
"a. c #73738b",
"a# c #282858",
"aa c #888899",
"ab c #676783",
"ac c #0e0e47",
"ad c #6e6e87",
"ae c #49496e",
"af c #79798f",
"ag c #8d8d9c",
"ah c #3e3e67",
"ai c #44446a",
"aj c #2a2a59",
"ak c #3c3c65",
"al c #212153",
"am c #9696a2",
"an c #6d6d87",
"ao c #5b5b7a",
"ap c #4a4a6e",
"aq c #343460",
"ar c #565677",
"as c #7e7e93",
"at c #565678",
"au c #91919f",
"av c #58597d",
"aw c #757690",
"ax c #55567b",
"ay c #7d7e96",
"az c #626385",
"aA c #cfd0d4",
"aB c #6b6b89",
"aC c #4d4d73",
"aD c #4e4f75",
"aE c #4e4f74",
"aF c #4e4e74",
"aG c #4d4e74",
"aH c #4c4d73",
"aI c #606182",
"aJ c #c7cad3",
"aK c #000000",
"aL c #000000",
"aM c #000000",
"aN c #000000",
"aO c #000000",
"aP c #000000",
"aQ c #000000",
"aR c #000000",
"aS c #000000",
"aT c #000000",
"aU c #000000",
"aV c #000000",
"aW c #000000",
"aX c #000000",
"aY c #000000",
"aZ c #000000",
"a0 c #000000",
"a1 c #000000",
"a2 c #000000",
"a3 c #000000",
"a4 c #000000",
"a5 c #000000",
"a6 c #000000",
"a7 c #000000",
"a8 c #000000",
/* pixels */
"```.`#`a`b`c`d`d`d`d`d`d`d`d`d`d`d`d`d`d`d`d`d`d`d`d`d`d`d`e`f`g",
"`h`i`j`k`l`m`n`j`i`i`o`n`k`p`p`p`p`p`p`p`p`p`p`p`p`p`p`p`p`k`q`r",
"`s`t`u`v`w`x`y`u`z`A`B`C`D`E`E`E`E`E`E`E`E`E`E`E`E`E`E`E`E`E`F`G",
"`H`k`I`J`K`L`#`M`N`O`P`L`Q`R`E`E`E`E`E`E`E`E`E`E`E`E`E`E`E`E`F`S",
"`H`T`U`V`W`X`Y`X`X`Z`0`1`2`E`E`E`E`E`E`E`E`E`E`E`E`E`E`E`E`E`F`S",
"`3`T`E`E`V`R`R`R`R`4`4`V`E`E`E`E`E`E`E`E`E`E`E`E`E`E`E`E`E`E`F`S",
"`5`T`E`E`E`E`E`E`E`E`E`E`E`E`6`V`7`E`E`E`E`E`E`E`E`E`E`E`E`E`F`S",
"`5`T`E`E`E`E`E`E`E`E`E`E`E`V`8`8.`...#.a.a.b`7`E`E`E`E`E`E`E`F`S",
"`5`T`E`E`E`E`E`E`E`E`E`E.b.c.d.e.f.g.h.e.i.j.``U`E`E`E`E`E`E`F`S",
"`5`T`E`E`E`E`E`E`E`E`E.k.l.m.n.o.p.q.r.s.g.t.g`4`E`E`E`E`E`E`F`S",
"`5`T`E`E`E`E`E`E`E`E.u.q.v.w.x.y.z.u.A.x.B.C.D.E.F`E`E`E`E`E`F`S",
"`5`T`E`E`E`E`E`E`E...q.G.H.I.J.K`V.L.M.N.O.P.Q`8`6`E`E`E`E`E`F`S",
"`5`T`E`E`E`E`E`E.a.R.Q.S.P.T.U.a.V.U.W.F.X.Y.Q.Z`7`E`E`E`E`E`F`S",
"`5`T`E`E`E`E`E`V.0.g.1.2.X.3.4.5.6.S...F.7.8#`.#`E`E`E`E`E`E`F#.",
"`5`T`E`E`E`E`7###a.w#b#c#d#e#f#g#h#i`k#j#k#l#m`4`E.a`4`E`E`E`F#n",
"`5`T`E`E`E`7#c.A#o#p#q#e.p.W`Q.8.g`U.`#r#s.p.v#t.e#u`Q`U`E`E`F#n",
"`5`T`E`E`E`E`E#v#w#s.r`8#x.8.N#y#z`4`D#o#A#f.K#B#C.8.p.F`E`E`F#n",
"`5`T`E`E`E`E`E`U.u#D#E`D#F.r`V`U#c`U`4`4#G#v.`.r.Y#H.f.#`E`E`F#n",
"`5`T`E`E`E`E`E`E.##a`U#I.g.N#J#K#L#M`k#e#N#O#P#Q.`#R#s#S`V`E`F#n",
"`5`T`E`E`E`E`E#y.Q#T.g#I#y`E.a#U#V#W#p#X#Y.e.8#P`k#N#Z.l`6`E`F#n",
"`5`T`E`E`E`E`V`8.o.T#0.Z`V`E.F#1#e#2.Y.8#Y#3.8#4#G#Z#q#a`E`E`F#n",
"`5`T`E`E`E`U`4#5#2#6#7#y`E`E.F#`.f#d#8a`#Y.N#oa..Qa#aa.t#D`V`F#n",
"`5`T`E`E`E.u.v#2ab.Kac`E`E`E`6.T.qad#Eae`D`Vae.Q#P`kaf.m.M.k`F#n",
"`5`T`E`E.a.h#o.o#0`U`4`E`E`E`E`6#Dag.R.o.F.aahai#Kaj`8ak#Kal#z#n",
"`5`T`E`4`Q.M.ram.X.a`E`E`E`E`E`Tanaoap#S`V`4`X.g#`.e#`.faq#G#z#n",
"`5`T`E`Var#dasat#z`E`E`E`E`E`6#pau.R.v.F`E`E`R`4`E.F.b.a.b`U`Fav",
"`5`T`E`E`4.E.L.k`E`E`E`E`E`E.##Q.8#o.R.b`E`E`E`E`E`E`E`E`E`E`Fav",
"`5`T`E`E`7`E.a`7`E`E`E`E`E`E`E`4.a.D`2`E`E`E`E`E`E`E`E`E`E`E`Fav",
"`5`T`E`E`E`E`E`E`E`E`E`E`E`E`E`E`E.b`7`E`E`E`E`E`E`E`E`E`E`E`Fav",
"aw`T`E`E`E`E`E`E`E`E`E`E`E`E`E`E`E`E`E`E`E`E`E`E`E`E`E`E`E`E`Fax",
"ay`i........................................................`iaz",
"aAaBaCaDaEaEaEaEaEaEaEaEaEaEaEaFaFaFaFaFaGaGaGaGaGaGaGaGaGaHaIaJ"
};
