/* XPM */
static char * delete lightlink_xpm[] = {
"32 36 177 2",
"  	c #FFFFFF",
". 	c #DFDFDF",
"+ 	c #383838",
"@ 	c #171717",
"# 	c #111111",
"$ 	c #A8A8A8",
"% 	c #FDFDFD",
"& 	c #F8F8F8",
"* 	c #FCFCFC",
"= 	c #FEFEFE",
"- 	c #D8D8D8",
"; 	c #0C0C0C",
"> 	c #8D8D8D",
", 	c #B1B1B1",
"' 	c #070707",
") 	c #C9C9C9",
"! 	c #1B1B1B",
"~ 	c #A1A1A1",
"{ 	c #292929",
"] 	c #E8E8E8",
"^ 	c #D9D9D9",
"/ 	c #0E0E0E",
"( 	c #949494",
"_ 	c #B9B9B9",
": 	c #050505",
"< 	c #E3E3E3",
"[ 	c #EBEBEB",
"} 	c #B5B5B5",
"| 	c #C7C7C7",
"1 	c #F6F6F6",
"2 	c #161616",
"3 	c #6F6F6F",
"4 	c #181818",
"5 	c #EEEEEE",
"6 	c #DBDBDB",
"7 	c #B6B6B6",
"8 	c #CDCDCD",
"9 	c #080808",
"0 	c #CACACA",
"a 	c #4F4F4F",
"b 	c #2C2C2C",
"c 	c #252525",
"d 	c #CBCBCB",
"e 	c #4E4E4E",
"f 	c #DADADA",
"g 	c #2D2D2D",
"h 	c #060606",
"i 	c #323232",
"j 	c #C8C8C8",
"k 	c #2A2A2A",
"l 	c #232323",
"m 	c #A9A9A9",
"n 	c #959595",
"o 	c #242424",
"p 	c #8C8C8C",
"q 	c #2E2E2E",
"r 	c #EFEFEF",
"s 	c #CFCFCF",
"t 	c #212121",
"u 	c #C6C6C6",
"v 	c #B4B4B4",
"w 	c #272727",
"x 	c #8A8A8A",
"y 	c #F4F4F4",
"z 	c #444444",
"A 	c #0D0D0D",
"B 	c #9E9E9E",
"C 	c #4B4B4B",
"D 	c #1F1F1F",
"E 	c #3F3F3F",
"F 	c #CECECE",
"G 	c #F2F2F2",
"H 	c #464646",
"I 	c #090909",
"J 	c #A5A5A5",
"K 	c #E4E4E4",
"L 	c #969696",
"M 	c #0A0A0A",
"N 	c #4C4C4C",
"O 	c #9D9D9D",
"P 	c #121212",
"Q 	c #7F7F7F",
"R 	c #404040",
"S 	c #3D3D3D",
"T 	c #C3C3C3",
"U 	c #9B9B9B",
"V 	c #222222",
"W 	c #0B0B0B",
"X 	c #B2B2B2",
"Y 	c #939393",
"Z 	c #BBBBBB",
"` 	c #989898",
" .	c #F3F3F3",
"..	c #616161",
"+.	c #343434",
"@.	c #878787",
"#.	c #515151",
"$.	c #D5D5D5",
"%.	c #E6E6E6",
"&.	c #929292",
"*.	c #0F0F0F",
"=.	c #DDDDDD",
"-.	c #101010",
";.	c #9A9A9A",
">.	c #F7F7F7",
",.	c #727272",
"'.	c #AFAFAF",
").	c #CCCCCC",
"!.	c #202020",
"~.	c #6A6A6A",
"{.	c #FAFAFA",
"].	c #EDEDED",
"^.	c #595959",
"/.	c #F9F9F9",
"(.	c #FBFBFB",
"_.	c #E0E0E0",
":.	c #E7E7E7",
"<.	c #000000",
"[.	c #7E7E7E",
"}.	c #656565",
"|.	c #8B8B8B",
"1.	c #858585",
"2.	c #676767",
"3.	c #151515",
"4.	c #C0C0C0",
"5.	c #999999",
"6.	c #D3D3D3",
"7.	c #D4D4D4",
"8.	c #B8B8B8",
"9.	c #545454",
"0.	c #555555",
"a.	c #F5F5F5",
"b.	c #A2A2A2",
"c.	c #848484",
"d.	c #424242",
"e.	c #E9E9E9",
"f.	c #666666",
"g.	c #E5E5E5",
"h.	c #6E6E6E",
"i.	c #505050",
"j.	c #909090",
"k.	c #191919",
"l.	c #BCBCBC",
"m.	c #A0A0A0",
"n.	c #6D6D6D",
"o.	c #3A3A3A",
"p.	c #717171",
"q.	c #BEBEBE",
"r.	c #919191",
"s.	c #363636",
"t.	c #282828",
"u.	c #868686",
"v.	c #636363",
"w.	c #393939",
"x.	c #898989",
"y.	c #D6D6D6",
"z.	c #565656",
"A.	c #BFBFBF",
"B.	c #C5C5C5",
"C.	c #020202",
"D.	c #B3B3B3",
"E.	c #1A1A1A",
"F.	c #7D7D7D",
"G.	c #ACACAC",
"H.	c #484848",
"I.	c #474747",
"J.	c #D0D0D0",
"K.	c #DCDCDC",
"L.	c #686868",
"M.	c #A3A3A3",
"N.	c #F1F1F1",
"O.	c #5D5D5D",
"P.	c #D2D2D2",
"Q.	c #737373",
"R.	c #B0B0B0",
"S.	c #6B6B6B",
"T.	c #7B7B7B",
"                                                                ",
"                                                                ",
"                                                                ",
"                                                                ",
"                                                                ",
"                                                                ",
"                                                                ",
"  . + @ # $             % & %             * & =                 ",
"  - ; > , ' .           ) ! )             ~ { ]                 ",
"  ^ / ( _ : < [ } | 1   ) 2 )   1 | } ] * 3 4 ~ 5   6 7 8       ",
"  ^ / ( _ 9 0 a b c >   d 2 d   > c b e f g h i j 5 k i l m     ",
"  ^ / ( _ / n o   p q r s 2 s r q p   t u v w 5   x / y 3 z     ",
"  ^ / ( _ A B A C D E r s 2 F G H t H I j J t K   L M N I a     ",
"  ^ / ( _ A O P Q , f   0 2 F G R S $ T & U V K   L W ( X f     ",
"  - A Y Z I ` D  .$ ..1 8 2 s G +.@.  #.$.~ l %.  &.*. .@.3     ",
"  =.k -.A ;.>.,.P o '.  ).!.).  } { # ~.{.].^.I _   e 2 b d     ",
"      * /.=   = & (.    = * =   = =         % & %     /.(.      ",
"  >.0 K                           _.)./.          :.0 (.        ",
"  $.<.[.    = ).Z       ]., ].    }.<._.          |.; r         ",
"  ^ / 1.    % 2.S       T 3.T     4.5.y           n / r         ",
"  ^ / 1.    6.t ; ..7.  ) 2 )     8.p y G ~.9.0.=.O *.a.b.c.    ",
"  ^ / 1.    %.d.D '.e.  ) 2 )     f.' :.g.<.h.i.C j.k.l.4 m.    ",
"  ^ / 1.    % n.o.      ) 2 )     p.k.e.< ' q.r.t 1.P k.[.      ",
"  ^ / 1.    % 2.s.      ) 2 )     p.k.e.< : _ r.t.@./ o.=       ",
"  ^ *.u.    * v.w.      ) 2 )     p.k.e.< : _ r.t.@.# 2 x.      ",
"  y.' z.T } >.1.l A.5   B.2 B.    2.M :.K C.D.|.E.F.! D.E.G.    ",
"  ] ,.H.d.I.5 a.p.e J.  K.L.K.    M.~.N.].O.P.8.Q.R.S.>.` T.    ",
"                                                                ",
"                                                                ",
"                                                                ",
"                                                                ",
"                                                                ",
"                                                                ",
"                                                                ",
"                                                                ",
"                                                                "};
