/* XPM */
static char * Delete Llink_xpm[] = {
"32 32 13 1",
" 	c #263045",
".	c #8B919C",
"+	c #FFFFFF",
"@	c #9A9EA8",
"#	c #7D838F",
"$	c #E2E3E6",
"%	c #434C5E",
"&	c #A8ACB5",
"*	c #C5C8CD",
"=	c #F1F1F3",
"-	c #606777",
";	c #B7BAC1",
">	c #D4D6DA",
"                                ",
"                                ",
"                                ",
"                                ",
"                                ",
"     .+       +.       @#       ",
"     .+       +.       +.       ",
"  @++$+ %+++# +. &++* &++ #++$% ",
"  +.%=+ =& &= +.#+%%+#-+; +# $; ",
" .+  .+ +++++ +.*++++* +..+++++ ",
" .+  .+ +.... +.*$...- +..+...# ",
"  +.%=+ =* &+ +.#+-%+. +. +. $* ",
"  #++$+ #+++# +. *++>  >+-@+++% ",
"                                ",
"                                ",
"                                ",
"                                ",
"                                ",
"                                ",
"  +.      .+ +.       +         ",
"  +.      .+          +         ",
"  +.      .+ >##$+++  + #=%     ",
"  +.      .+ +..+#%+# +#+#      ",
"  +.      .+ +..+  +. ++*       ",
"  +.      .+ +..+  +. +@+-      ",
"  +.      .+ +..+  +. + ;+      ",
"  +++++   .+ +..+  +. +  +;     ",
"                                ",
"                                ",
"                                ",
"                                ",
"                                "};
