/* XPM */
static char * image_name[]={
"45 45 161 2",
"  	c #E8E8E8",
". 	c #F0F0F0",
"X 	c #F7F7F7",
"o 	c #D9D9D9",
"O 	c #C7C7C7",
"+ 	c #A1A1A1",
"@ 	c #787878",
"# 	c #616161",
"$ 	c #4F4F4F",
"% 	c #474747",
"& 	c #575757",
"* 	c #707070",
"= 	c #828282",
"- 	c #999999",
"; 	c #B8B8B8",
": 	c #A8A8A8",
"> 	c #303030",
", 	c #292929",
"< 	c #1F1F1F",
"1 	c #404040",
"2 	c #878787",
"3 	c #8F8F8F",
"4 	c #B0B0B0",
"5 	c #171717",
"6 	c #383838",
"7 	c #696969",
"8 	c #C2C2C2",
"9 	c #E0E0E0",
"0 	c #0F0F0F",
"q 	c #EBEBEB",
"w 	c #CFCFCF",
"e 	c #F5F5F5",
"r 	c #E0FFFF",
"t 	c #F0F8FF",
"y 	c #8A8A8A",
"u 	c #B0E2FF",
"i 	c #87CEFA",
"p 	c #72D5CD",
"a 	c #729FFF",
"s 	c #9BEFF2",
"d 	c #5C5C5C",
"f 	c #80B8F0",
"g 	c #AFEEEE",
"h 	c #7C98D3",
"j 	c #5F929E",
"k 	c #B6E2CE",
"l 	c #91D2DE",
"z 	c #CCCCCC",
"x 	c #5470AA",
"c 	c #384B66",
"v 	c #666666",
"b 	c #1A1A1A",
"n 	c #969696",
"m 	c #49D4F0",
"M 	c #3870A8",
"N 	c #2F2F64",
"B 	c #525252",
"V 	c #B8B8C0",
"C 	c #B0E0E6",
"Z 	c #242424",
"A 	c #9E9E9E",
"S 	c #3068A0",
"D 	c #D4D4D4",
"F 	c #B3B37E",
"G 	c #121212",
"H 	c #4A4A4A",
"J 	c #285890",
"K 	c #545454",
"L 	c #D6D6D6",
"P 	c #20B2AA",
"I 	c #A8B8D0",
"U 	c #6B6B6B",
"Y 	c #708090",
"T 	c #185080",
"R 	c #DEDEDE",
"E 	c #1E90FF",
"W 	c #509F69",
"Q 	c #2B2B2B",
"! 	c #2F4F4F",
"~ 	c #306898",
"^ 	c #A3A3A3",
"/ 	c #F2F2F2",
"( 	c #9B7071",
") 	c #ABABAB",
"_ 	c #55562F",
"` 	c #2070B0",
"' 	c #185890",
"] 	c #9C9C9C",
"[ 	c #A8B8C8",
"{ 	c #E5E5E5",
"} 	c #EDEDED",
"| 	c #80B8E8",
" .	c #2078C0",
"..	c #778899",
"X.	c #B0B0C0",
"o.	c #949494",
"O.	c #ADADAD",
"+.	c #4D4D4D",
"@.	c #757575",
"#.	c #3078A8",
"$.	c #1870C8",
"%.	c #6A6A8D",
"&.	c #5E5E5E",
"*.	c #3078A0",
"=.	c #1C1C1C",
"-.	c #307098",
";.	c #1878D8",
":.	c #232375",
">.	c #B5B5B5",
",.	c #8C8C8C",
"<.	c #1878D0",
"1.	c #286890",
"2.	c #454545",
"3.	c #636363",
"4.	c #347766",
"5.	c #1070C8",
"6.	c #1068C8",
"7.	c #C4C4C4",
"8.	c #E3E3E3",
"9.	c #1070C0",
"0.	c #424242",
"q.	c #262626",
"w.	c #1068B0",
"e.	c #0868C8",
"r.	c #A6A6A6",
"t.	c #B0B8C0",
"y.	c #1060A8",
"u.	c #105888",
"i.	c #0878D8",
"p.	c #1068C0",
"a.	c #105080",
"s.	c #0860B8",
"d.	c #0068C8",
"f.	c #185088",
"g.	c #0868B8",
"h.	c #084888",
"j.	c #0870D8",
"k.	c #0050A8",
"l.	c #0078F8",
"z.	c #0078E0",
"x.	c #084880",
"c.	c #2E2E2E",
"v.	c #0058A8",
"b.	c #0050A0",
"n.	c #0078F0",
"m.	c #004890",
"M.	c #084080",
"N.	c #0068C0",
"B.	c #0058B8",
"V.	c #0060C8",
"C.	c #0060C0",
"Z.	c #0070D0",
"A.	c #0060B8",
"S.	c #0060B0",
"D.	c #0070D8",
"F.	c #005098",
"G.	c #0068D0",
"H.	c #0078E8",
"J.	c #005090",
"K.	c #005088",
"L.	c #080808",
"                                  . . . . . . . . .                                       ",
"                              X X .   o O O O O o   . . .                                 ",
"                          X . O + @ # $ % $ & # * = - ; o . .                             ",
"                      .   : & > , , < > 1 % & * = 2 3 3 - : O                             ",
"                  X . 4 $ < 5 5 5 , 6 % # 7 7 7 # # * 2 4 8 ; ; o .                       ",
"                X 9 @ , < 0 5 1 @ : o . X X X X q w : @ # @ 4 o O O                       ",
"              X 8 $ < < 0 1 + 9 X X X e r r r t e X X X o - # 2 o o O 9                   ",
"            X 8 6 < 5 < y   X X r u u i i i i i i u u r X X 9 y # ;   O o .               ",
"          X O 6 < 0 6 8 X t r i p a a a a a a a a a a i s r r X ; d 4   O 9 .             ",
"        X o 1 < 0 % o t r s p a a f a a a a a a a a a a a p s r t O 7 :   O 9             ",
"        . 7 5 5 1 o r g i h j k q   l a a a a a a a a a a a a i g r z 7 ; 9 O             ",
"      X + 5 < , k g s p a x c 8 X X l a a a a a a a a a a a a a i s g k v o w w           ",
"    . 9 6 < b n g s m a a M N ; X X l a a a a a a a a a a a a a a p s g 3 = 9 ;           ",
"    X 3 5 5 B s i p a a a M N V X X C a a a a a a a a a a a a a a a p i l 7 ; 8 O .       ",
"  . 9 % 5 Z A i m a a a a S c D X X D a a a a a a a a a a a a a a a a m p n F w :         ",
"  X : < G H l m a a a a a J K 9 X X L a a a a a a a P I C a a a a a a a m p U ; + O .     ",
"  X @ 5 b Y m a a a a a a T $ 9 X X R a a a a a E S + e X C a a a a a a a a W 3 : : .     ",
".   $ 0 Q j a a a a a a a c ! 9 X X 9 a E a a E ~ ^ / X X e l a a a a a a a j ( ) 2   .   ",
"X w > 5 _ h a a a a a a E c c 9 X X q a E a E ` c w X X X X 9 a E a a a a a j U ^ @ o .   ",
"X ; , b H h E E E E E E E c &   X X / h E E E ' N z X X X X 9 a E E E E E E j d ] @ O .   ",
"X + 5 < B h E E E E E E h 4 8 X X X X L l C C [ ) { X X X X } C l | E E E E j K 3 @ ; X   ",
"X 3 5 < & P E E E E E c 3 X X X X X X X X X X X X X X X X X X X X C E E E E P B 2 * : .   ",
"X 2 5 < $ P E E E E  .N ..X + 4 ^ ) - X.k - : + : ^ D o.O.n 4 o.  C E E E E P +.@.# : .   ",
"X 3 5 < ! #.E E E E $.N 2 X %.2 %.%.# 2 A 7 Y 7 %.%.k # Y K Y &.9 C E E E E *.H 7 & : .   ",
"X 4 < =.! -.;.E E E $.:.2 X o.^ - 3 ..) >.,.A y - - z 2 + Y - ..q C E E E <.1.2.3.& 8 .   ",
"X 8 > 5 > 4.5.E E E 6.:.2 X ..- Y 3 Y - : Y ,.Y ,.,.7.%.o.U 3 %.8.l E E E 9.4.0.d # w .   ",
". o % 5 q.! w.E E E e.N Y X A : - r.n : t.o.: - + ] w 3 : 2 ^ ,.} l E E E y.! 2.& 7 9 .   ",
". . 7 5 < ! u.i.E E p.&.+ X Y n Y ..%.n : Y o.%.....7.%.,.%.,.%.{ l E E i.a.! % $ = .     ",
"  X 3 5 < Q ! s.E d.f.w . X . . . . . . . . . . . . e . . . . . X l E E g.! > $ % 4 X     ",
"  X O , 5 < N h.j.k.N 9 X X X X X X X X X X X X X X X X X X X X X C l.z.x.c.6 $ $ o .     ",
"    . # 5 < q.N v.b.N + t.>.>.>.>.>.>.>.>.>.>.>.>.>.>.>.>.>.>.>.k h n.v.N q.1 1 = .       ",
"    . ; < < < q.:.m.:.:.:.:.:.:.:.:.:.:.:.:.:.:.:.:.:.:.:.:.N N M.j.N.:.Z c.% % O .       ",
"      . 7 5 < < Z :.b.B.B.B.B.B.B.B.B.B.B.B.B.B.B.B.B.B.B.B.B.B.V.C.:.< < 6 > = .         ",
"      . w > 5 < Z < c Z.E E E E E E E E E E E E E E E E E E E E d.:.< =.> 6 % o .         ",
"        X + 5 5 < Z < :.A.E E E E E E E E E E E E E E E E E E S.:.Z =., > > 4 X           ",
"        . X @ 5 < < Z < N m.D.E E E E E E E E E E E E E E D.m.N =.=.< > , 2 X             ",
"          .   7 5 < < < < =.:.F.G.n.E E E E E E E E H.d.J.N =.< =.< , < @ .               ",
"            .   @ < 5 < < Z =.=.N :.K.v.C.N.d.A.v.m.:.N =.< =.< < 5 < =   .               ",
"              . . + > 0 < < < q.< =.=.< < N N N =.=.=.< < =.< < L., + X .                 ",
"                . X O & 5 5 < < < < Z =.=.b =.=.< =.=.b 5 5 0 0 # O X .                   ",
"                    X   4 $ < 5 5 5 =.< < b b 5 5 5 0 0 L.0 % : . X                       ",
"                      . X   ; @ % > < 0 0 0 0 0 0 0 < 1 * ; . X .                         ",
"                            X X   O + 2 @ 7 7 @ = + O   X X                               ",
"                                . X X X X . . X X X X .                                   ",
"                                          . .                                             "
};
