/* XPM */
static char * KBI_Materials_Attributes_Transfert_Grey_xpm[] = {
"32 32 345 2",
"  	c None",
". 	c #959595",
"+ 	c #939393",
"@ 	c #929292",
"# 	c #909090",
"$ 	c #8F8F8F",
"% 	c #8E8E8E",
"& 	c #848484",
"* 	c #838383",
"= 	c #757575",
"- 	c #747474",
"; 	c #696969",
"> 	c #676767",
", 	c #686767",
"' 	c #656565",
") 	c #686868",
"! 	c #606060",
"~ 	c #5F5959",
"{ 	c #614F4F",
"] 	c #5D4646",
"^ 	c #573D3D",
"/ 	c #5B5050",
"( 	c #5D5D5D",
"_ 	c #5E5E5E",
": 	c #5A5A5A",
"< 	c #565655",
"[ 	c #4F4F4F",
"} 	c #575758",
"| 	c #575757",
"1 	c #595252",
"2 	c #693F3F",
"3 	c #753534",
"4 	c #7B3131",
"5 	c #732727",
"6 	c #68201F",
"7 	c #5E2928",
"8 	c #552E2E",
"9 	c #483535",
"0 	c #493E3E",
"a 	c #555454",
"b 	c #525353",
"c 	c #535454",
"d 	c #535453",
"e 	c #515251",
"f 	c #4E4E4F",
"g 	c #4E4E4E",
"h 	c #494949",
"i 	c #535353",
"j 	c #525252",
"k 	c #544F4F",
"l 	c #6E3C3B",
"m 	c #933130",
"n 	c #9D3635",
"o 	c #9C3736",
"p 	c #8F312F",
"q 	c #7F2826",
"r 	c #6C1D1D",
"s 	c #571515",
"t 	c #380C0C",
"u 	c #3A1F1F",
"v 	c #504E4E",
"w 	c #50504F",
"x 	c #595958",
"y 	c #5C5C5C",
"z 	c #545354",
"A 	c #4B4B4B",
"B 	c #3B3B3C",
"C 	c #353535",
"D 	c #4A4A4A",
"E 	c #4E4D4D",
"F 	c #624040",
"G 	c #983636",
"H 	c #B74A49",
"I 	c #C05554",
"J 	c #BC5554",
"K 	c #A94746",
"L 	c #923635",
"M 	c #7B2727",
"N 	c #641B1B",
"O 	c #480F0E",
"P 	c #381212",
"Q 	c #3D3333",
"R 	c #494848",
"S 	c #4D4D4D",
"T 	c #595A59",
"U 	c #616161",
"V 	c #636363",
"W 	c #626262",
"X 	c #5F6060",
"Y 	c #515352",
"Z 	c #454646",
"` 	c #363637",
" .	c #3A3A3A",
"..	c #454545",
"+.	c #4E4C4C",
"@.	c #5C3D3D",
"#.	c #833533",
"$.	c #B64847",
"%.	c #D06261",
"&.	c #DB6F6E",
"*.	c #D26A6A",
"=.	c #B45252",
"-.	c #963C3B",
";.	c #7C2A2A",
">.	c #651D1C",
",.	c #490F0F",
"'.	c #320908",
").	c #423737",
"!.	c #545454",
"~.	c #515151",
"{.	c #555555",
"].	c #616160",
"^.	c #5F5E5E",
"/.	c #646363",
"(.	c #646464",
"_.	c #5A5A59",
":.	c #3B3B3B",
"<.	c #303130",
"[.	c #393939",
"}.	c #893130",
"|.	c #BB4E4D",
"1.	c #D46768",
"2.	c #E67D7D",
"3.	c #DF7A79",
"4.	c #BE5E5E",
"5.	c #9C4242",
"6.	c #7E2D2C",
"7.	c #651E1D",
"8.	c #4B110F",
"9.	c #421918",
"0.	c #EEEDEC",
"a.	c #F7F7F7",
"b.	c #F3F3F3",
"c.	c #F9F9F9",
"d.	c #FAFAFA",
"e.	c #F8F8F8",
"f.	c #EFEFEF",
"g.	c #585959",
"h.	c #3F3E3F",
"i.	c #2B2A2B",
"j.	c #282728",
"k.	c #464646",
"l.	c #504C4C",
"m.	c #6A3A3A",
"n.	c #953533",
"o.	c #BA5050",
"p.	c #CD6464",
"q.	c #DD7877",
"r.	c #D06E6D",
"s.	c #AE5251",
"t.	c #903A3A",
"u.	c #742727",
"v.	c #5D1919",
"w.	c #440E0D",
"x.	c #2E0706",
"y.	c #200C0C",
"z.	c #383232",
"A.	c #474545",
"B.	c #565555",
"C.	c #5A5A5B",
"D.	c #5E5F5E",
"E.	c #454546",
"F.	c #3A3A3B",
"G.	c #222222",
"H.	c #1C1C1C",
"I.	c #444444",
"J.	c #4F4B4B",
"K.	c #623535",
"L.	c #812828",
"M.	c #9F3C3B",
"N.	c #AA4847",
"O.	c #B65655",
"P.	c #AE5150",
"Q.	c #97403F",
"R.	c #813030",
"S.	c #6A2221",
"T.	c #541616",
"U.	c #3E0C0B",
"V.	c #2A0605",
"W.	c #331F1F",
"X.	c #352D2D",
"Y.	c #565656",
"Z.	c #505050",
"`.	c #4C4C4E",
" +	c #595859",
".+	c #575857",
"++	c #575756",
"@+	c #545554",
"#+	c #49494A",
"$+	c #414141",
"%+	c #363636",
"&+	c #222221",
"*+	c #1E1E1E",
"=+	c #4F4C4C",
"-+	c #5B3A39",
";+	c #762A29",
">+	c #913232",
",+	c #943737",
"'+	c #993F3E",
")+	c #923B3B",
"!+	c #80302F",
"~+	c #6E2524",
"{+	c #5A1919",
"]+	c #470F0F",
"^+	c #320807",
"/+	c #290D0C",
"(+	c #FFFFFF",
"_+	c #FCFCFC",
":+	c #F4F4F4",
"<+	c #525151",
"[+	c #515050",
"}+	c #484948",
"|+	c #424242",
"1+	c #39383A",
"2+	c #2D2D2C",
"3+	c #171717",
"4+	c #1B1B1B",
"5+	c #524444",
"6+	c #5E2F30",
"7+	c #752020",
"8+	c #782525",
"9+	c #7C2A29",
"0+	c #762726",
"a+	c #692020",
"b+	c #5B1818",
"c+	c #4A1010",
"d+	c #390A0A",
"e+	c #270504",
"f+	c #190101",
"g+	c #2C2121",
"h+	c #3D3C3C",
"i+	c #474546",
"j+	c #474646",
"k+	c #424343",
"l+	c #3F3F3F",
"m+	c #393838",
"n+	c #2F2F2F",
"o+	c #222121",
"p+	c #141313",
"q+	c #313131",
"r+	c #4E4646",
"s+	c #543434",
"t+	c #611B1B",
"u+	c #631C1A",
"v+	c #661D1B",
"w+	c #601B1A",
"x+	c #551415",
"y+	c #480F0F",
"z+	c #390909",
"A+	c #290505",
"B+	c #1B0202",
"C+	c #231414",
"D+	c #423F3F",
"E+	c #434443",
"F+	c #343434",
"G+	c #313031",
"H+	c #3B3B3A",
"I+	c #383837",
"J+	c #343433",
"K+	c #2C2D2C",
"L+	c #212020",
"M+	c #131212",
"N+	c #272727",
"O+	c #4D4848",
"P+	c #4E2F2F",
"Q+	c #4C1B1A",
"R+	c #4B100F",
"S+	c #460F0E",
"T+	c #3D0B0B",
"U+	c #330807",
"V+	c #260404",
"W+	c #1C0303",
"X+	c #1F0F0F",
"Y+	c #3C3636",
"Z+	c #3B3C3C",
"`+	c #303030",
" @	c #292929",
".@	c #2A2A29",
"+@	c #262625",
"@@	c #232222",
"#@	c #1A1B1A",
"$@	c #131313",
"%@	c #3C3C3C",
"&@	c #4D4C4C",
"*@	c #4A4242",
"=@	c #44302F",
"-@	c #3E1919",
";@	c #381313",
">@	c #301010",
",@	c #290F0F",
"'@	c #220E0D",
")@	c #2A1D1D",
"!@	c #3E3838",
"~@	c #4A4949",
"{@	c #2B2B2B",
"]@	c #252525",
"^@	c #202120",
"/@	c #1D1D1D",
"(@	c #1A1A1A",
"_@	c #2D2D2D",
":@	c #484343",
"<@	c #443D3E",
"[@	c #413B3B",
"}@	c #413C3C",
"|@	c #4A4848",
"1@	c #3B3C3B",
"2@	c #ADADAD",
"3@	c #AFAFAF",
"4@	c #FBFBFB",
"5@	c #BBBBBB",
"6@	c #C6C6C6",
"7@	c #C5C5C5",
"8@	c #F0F0F0",
"9@	c #F1F1F1",
"0@	c #F6F6F6",
"a@	c #8D8D8D",
"b@	c #919191",
"c@	c #9C9C9C",
"d@	c #DADADA",
"e@	c #818181",
"f@	c #7F7F7F",
"g@	c #BDBDBD",
"h@	c #F2F2F2",
"i@	c #4C4C4C",
"j@	c #BABABA",
"k@	c #ABABAB",
"l@	c #AEAEAE",
"m@	c #D2D2D2",
"n@	c #C0C0C0",
"o@	c #585858",
"p@	c #E8E8E8",
"q@	c #DDDDDD",
"r@	c #E5E5E5",
"s@	c #474747",
"t@	c #969696",
"u@	c #898989",
"v@	c #8B8B8B",
"w@	c #787878",
"x@	c #979797",
"y@	c #434343",
"z@	c #B9B9B9",
"A@	c #797979",
"B@	c #D8D8D8",
"C@	c #C1C1C1",
"D@	c #7D7D7D",
". + . @ + @ # $ # # $ $ % $ $ $ $ # # # $ @ + + + + + + + . . . ",
"& & & & & & & & & & & & * & & & & & & & & & & & & & & & & * & & ",
"= - - = = - = = = = - = = - = = = = - - = - = - = - = = = = = = ",
"; ; ; ; ; ; ; ; > , ; ; ; ; ; ; ; ; ; ; ; ; ; > ' ) ; ; ; ; ; ; ",
"! ! ! ! ! ~ { ] ^ / ( ! ! ! ! ! ! ! ! ! ! _ : < [ } ! ! ! ! ! ! ",
"| | | 1 2 3 4 5 6 7 8 9 0 a | | | | | | b b c d e f g h h i | | ",
"j j k l m n o p q r s t u v j j j j j g w x ( ( y z A B C D j j ",
"g E F G H I J K L M N O P Q R [ [ [ S [ T U V W X T Y Z `  ...S ",
"+.@.#.$.%.&.*.=.-.;.>.,.'.).R !.~.[ {.].^./.(.V ! _.i h :.<.[.D ",
"+.@.}.|.1.2.3.4.5.6.7.8.9.0.a.b.c.d.e.f.W U U U _ g.i D h.i.j.k.",
"l.m.n.o.p.q.r.s.t.u.v.w.x.y.z.S g h A.B.C.D.D.( : {.f E.F.G.H.I.",
"J.K.L.M.N.O.P.Q.R.S.T.U.V.W.X.{.Y.Z.`. +{..+.+++@+Z.#+$+%+&+*+I.",
"=+-+;+>+,+'+)+!+~+{+]+^+/+a.(+_+:+a.b.:+i <+[+~.S }+|+1+2+3+4+..",
"E 5+6+7+8+9+0+a+b+c+d+e+f+g+E g g A |+ .h+i+k.j+k+l+m+n+o+p+q+A ",
"E r+s+t+u+v+w+x+y+z+A+B+C+D+g g g h E+F+G+H+ .B I+J+K+L+M+N+h g ",
"g g O+P+Q+R+S+T+U+V+W+X+Y+S g g g g g Z+`+ @N+.@+@@@#@$@4+%@g g ",
"g g &@*@=@-@;@>@,@'@)@!@S g g g g g g ~@$+{@]@^@/@(@H._@I.g g g ",
"g g g g S :@<@[@}@}@|@g g g g g g g g g g I.$+1@ . .$+g g g g g ",
"g g g g g g g g g g g g g g g g g g g g g g g g g g g g g g g g ",
"g g g g g g g g g g g g g g g g g g g g g g g g g g g g g g g g ",
"g g g g g g g g g g g g g g g g g g g g g g g g g g g g g g g g ",
"g (+:+:+(+g 2@3@g (+(+(+(+(+(+(+(+g (+4@5@g (+g 2@3@g g (+g g g ",
"g (+6@7@(+i 8@9@!.g g (+g g (+(+(+g (+! 0@g (+i 8@9@!.g (+g g g ",
"g (+a@a@(+$ (+(+b@g g (+g g (+g g g (+(+c@g (+$ (+(+b@g (+g g g ",
"g (+g g (+d@e@f@d@g g (+g g (+(+(+g (+g@h@& (+d@e@f@d@g (+(+(+g ",
"S S g g g g g g g g g g g g S S S S S S S g g g g g g g g g g g ",
"i@i@S S S S S S S S S S S S i@i@i@i@i@i@S S S S S S S S S S S S ",
"(+(+(+(+(+(+4@j@D k@l@D D (+m@(+D n@4@(+D (+(+(+(+(+(+i@(+4@j@(+",
"..k.(+k.k.(+o@0@A f.8@i@k.(+p@(+k.q@r@@ k.(+(+(+(+(+(+h (+: 0@s@",
"I.I.(+I.I.(+(+t@u@(+(+v@I.(+3@(+I...w@d.I.(+I.I.(+I.....(+(+x@I.",
"y@y@(+y@y@(+z@9@(+A@w@B@y@(+- (+y@(+4@C@y@(+y@y@(+(+(+y@(+z@9@D@",
"y@y@y@y@y@y@y@y@y@y@y@y@y@y@y@y@y@y@y@y@y@y@y@y@y@y@y@y@y@y@y@y@"};
