/* XPM */
static char * KBI_Connect_To_PlusMinus_Grey_xpm[] = {
"32 32 178 2",
"  	c None",
". 	c #959595",
"+ 	c #939393",
"@ 	c #929292",
"# 	c #909090",
"$ 	c #8F8F8F",
"% 	c #8E8E8E",
"& 	c #848484",
"* 	c #838383",
"= 	c #757575",
"- 	c #747474",
"; 	c #696969",
"> 	c #606060",
", 	c #8B8B8B",
"' 	c #D6D6D6",
") 	c #FAFAFA",
"! 	c #575757",
"~ 	c #B5B5B5",
"{ 	c #FFFFFF",
"] 	c #525252",
"^ 	c #818181",
"/ 	c #4E4E4E",
"( 	c #D1D1D1",
"_ 	c #D2D2D2",
": 	c #4F4F4F",
"< 	c #F9F9F9",
"[ 	c #FFE9E9",
"} 	c #FF5454",
"| 	c #FF9494",
"1 	c #FFFCFC",
"2 	c #FFA7A7",
"3 	c #FF4141",
"4 	c #FF5656",
"5 	c #DF8D8D",
"6 	c #7E7E7E",
"7 	c #FF7575",
"8 	c #DC2323",
"9 	c #D21515",
"0 	c #933030",
"a 	c #B1B1B1",
"b 	c #BC1E1E",
"c 	c #D91212",
"d 	c #CE1616",
"e 	c #BE1D1D",
"f 	c #564A4A",
"g 	c #59595A",
"h 	c #646466",
"i 	c #636465",
"j 	c #646566",
"k 	c #626466",
"l 	c #636365",
"m 	c #626464",
"n 	c #574A4A",
"o 	c #A82626",
"p 	c #DA1111",
"q 	c #F40606",
"r 	c #D51313",
"s 	c #7D3939",
"t 	c #6E7072",
"u 	c #6E6F71",
"v 	c #686A6C",
"w 	c #6D6F71",
"x 	c #636567",
"y 	c #5B5D5F",
"z 	c #6B6D6F",
"A 	c #6C6E70",
"B 	c #5F4646",
"C 	c #F50606",
"D 	c #E80B0B",
"E 	c #A03D3E",
"F 	c #6A6C6D",
"G 	c #424445",
"H 	c #5C5E5F",
"I 	c #3F4041",
"J 	c #2E2F2F",
"K 	c #666869",
"L 	c #893434",
"M 	c #D51C1C",
"N 	c #4B4C4E",
"O 	c #212223",
"P 	c #434546",
"Q 	c #5F6163",
"R 	c #292A2B",
"S 	c #262727",
"T 	c #646668",
"U 	c #6B6E70",
"V 	c #6A6C6E",
"W 	c #444547",
"X 	c #191A1A",
"Y 	c #323334",
"Z 	c #5A5C5D",
"` 	c #2A2B2C",
" .	c #545557",
"..	c #7C6567",
"+.	c #606264",
"@.	c #3C3D3F",
"#.	c #595B5D",
"$.	c #616264",
"%.	c #272728",
"&.	c #4E4F51",
"*.	c #6C6E6F",
"=.	c #833737",
"-.	c #B82020",
";.	c #E51111",
">.	c #DE1A1B",
",.	c #636466",
"'.	c #585A5C",
").	c #212222",
"!.	c #202021",
"~.	c #696A6C",
"{.	c #9D2B2B",
"].	c #EF0808",
"^.	c #E10E0E",
"/.	c #C31B1B",
"(.	c #8D494B",
"_.	c #525354",
":.	c #48494A",
"<.	c #4D4E50",
"[.	c #434445",
"}.	c #3A3B3C",
"|.	c #494A4B",
"1.	c #3E3F40",
"2.	c #666769",
"3.	c #E37F7F",
"4.	c #D71212",
"5.	c #D31414",
"6.	c #F10707",
"7.	c #E30D0D",
"8.	c #6F3F3F",
"9.	c #4A4B4D",
"0.	c #363738",
"a.	c #464749",
"b.	c #606163",
"c.	c #5B5D5E",
"d.	c #FFCFCF",
"e.	c #FF5151",
"f.	c #FF3737",
"g.	c #FD4343",
"h.	c #A82727",
"i.	c #703F3F",
"j.	c #616263",
"k.	c #6A6B6D",
"l.	c #67686A",
"m.	c #68696B",
"n.	c #4D4E4F",
"o.	c #565759",
"p.	c #606263",
"q.	c #5C5D5E",
"r.	c #FFE6E6",
"s.	c #FFBBBB",
"t.	c #4D4D4D",
"u.	c #4C4C4C",
"v.	c #F4F4F4",
"w.	c #D3D3D3",
"x.	c #C1C1C1",
"y.	c #FBFBFB",
"z.	c #484848",
"A.	c #4A4A4A",
"B.	c #C4C4C4",
"C.	c #E8E8E8",
"D.	c #4B4B4B",
"E.	c #DEDEDE",
"F.	c #E6E6E6",
"G.	c #454545",
"H.	c #464646",
"I.	c #888888",
"J.	c #AFAFAF",
"K.	c #474747",
"L.	c #F6F6F6",
"M.	c #666666",
"N.	c #F5F5F5",
"O.	c #494949",
"P.	c #7A7A7A",
"Q.	c #444444",
"R.	c #A6A6A6",
"S.	c #A5A5A5",
"T.	c #C2C2C2",
"U.	c #434343",
". + . @ + @ # $ # # $ $ % $ $ $ $ # # # $ @ + + + + + + + . . . ",
"& & & & & & & & & & & & * & & & & & & & & & & & & & & & & * & & ",
"= - - = = - = = = = - = = - = = = = - - = - = - = - = = = = = = ",
"; ; ; ; ; ; ; ; ; ; ; ; ; ; ; ; ; ; ; ; ; ; ; ; ; ; ; ; ; ; ; ; ",
"> > > > > , ' ) ' , > > > > > > > > > > > > > > > > > > > > > > ",
"! ! ! ! ~ { { { { { ~ ! ! ! ! ! ! ! ! ! ! ! ! ! ! ! ! ! ! ! ! ! ",
"] ] ] ^ { { { { { { { ^ ] ] ] ] ] ] ] ] ] ] ] ] ] ] ] ] ] ] ] ] ",
"/ / / ( { { { { { { { _ : : : : : : : : : : : : : : : : : : : : ",
"/ / / < { { { [ } | { < / / / / / / / / / / / / / / / / / / / / ",
"/ / / ( { { { 1 2 3 4 5 / / / / / / / / / / / / / / / / / / / / ",
"/ / / 6 { { { { { { 7 8 9 0 / / / / / / / / / / / / / / / / / / ",
"/ / / / a { { { { { a / b c d e f / / / g h i j k h l h m k / / ",
"/ / / / / 6 ( < ( 6 / / / n o p q r s / h t u v w t x y z A / / ",
"/ / / / / / / / / / / / / / / / B r C D E t F G H t I J K w / / ",
"/ / / / / / / / / / / / / / / / / / / L M A N O P Q R S T U / / ",
"/ / / / / / / / / / / / / / / / / / / / k V W X Y Z ` S  .A / / ",
"/ / / / / 6 ( < ( 6 / / / / / / / / / / h ..+.@.#.$.R %.&.*./ / ",
"/ / / / a { { { { { a / / / / / / / =.-.;.>.t ,.t '.).!.I ~./ / ",
"/ / / 6 { { { { { { { 6 / / / {.r ].^./.(.z _.:.<.[.}.|.1.2./ / ",
"/ / / ( { { { { { { { 3.4.5.6.7.r 8./ / m z 9.1.[.0.a.b.}.c./ / ",
"/ / / < { { { { d.e.f.g.4.h.i./ / / / / j.k.l.m.l.n.o.p.:.q./ / ",
"/ / / ( { { { r.f.e.s.( / / / / / / / / / / / / / / / / / / / / ",
"/ / / 6 { { { { { { { 6 / / / / / / / / / / / / / / / / / / / / ",
"/ / / / a { { { { { a / / / / / / / / / / / / / / / / / / / / / ",
"/ / / / / 6 ( < ( 6 / / / / / / / / / / / / / / / / / / / / / / ",
"t.t./ / { / / / / / / / / / t.t.t.t.t.t.t./ / / / / / / / / / / ",
"u.u.t.t.{ t.t.t.t.t.t.t.t.{ v.v.{ u.{ u.{ w.{ t.{ t.{ t.x.y.{ t.",
"z.A.{ { { { { A.A.A.A.A.A.{ B.B.{ A.{ A.{ C.{ A.{ D.{ u.E.F.. D.",
"G.H.H.H.{ H.H.H.H.{ { H.H.{ I.I.{ H.{ H.{ J.{ K.L.M.N.O.A.P.) K.",
"Q.Q.Q.Q.{ Q.Q.Q.Q.Q.Q.Q.Q.{ Q.Q.{ Q.{ Q.{ = { Q.R.L.S.G.{ y.T.Q.",
"U.U.U.U.U.U.U.U.U.U.U.U.U.U.U.U.U.U.U.U.U.U.U.U.U.U.U.U.U.U.U.U.",
"U.U.U.U.U.U.U.U.U.U.U.U.U.U.U.U.U.U.U.U.U.U.U.U.U.U.U.U.U.U.U.U."};
