/* XPM */
static char * KBI_Connect_To_PlusMinus_xpm[] = {
"32 32 249 2",
"  	c None",
". 	c #87B889",
"+ 	c #87B787",
"@ 	c #87B888",
"# 	c #85B687",
"$ 	c #86B888",
"% 	c #86B686",
"& 	c #84B586",
"* 	c #83B485",
"= 	c #84B584",
"- 	c #85B586",
"; 	c #82B383",
"> 	c #84B484",
", 	c #84B485",
"' 	c #85B585",
") 	c #86B687",
"! 	c #86B788",
"~ 	c #86B787",
"{ 	c #87B788",
"] 	c #88B888",
"^ 	c #88B889",
"/ 	c #79AA7A",
"( 	c #79AB7A",
"_ 	c #79AA79",
": 	c #79AB79",
"< 	c #78AA7A",
"[ 	c #699C6A",
"} 	c #699B6A",
"| 	c #699B69",
"1 	c #699C69",
"2 	c #6A9C6A",
"3 	c #6A9C69",
"4 	c #6A9B6A",
"5 	c #598D5A",
"6 	c #598D59",
"7 	c #5A8D5A",
"8 	c #598C59",
"9 	c #598C5A",
"0 	c #5A8D59",
"a 	c #5A8C59",
"b 	c #4A7E4A",
"c 	c #497F4A",
"d 	c #7BA17B",
"e 	c #D0DED0",
"f 	c #F9FAF9",
"g 	c #7AA17B",
"h 	c #497E4A",
"i 	c #3A703A",
"j 	c #3A6F3A",
"k 	c #A8C0A8",
"l 	c #FFFFFF",
"m 	c #A8BFA8",
"n 	c #3A6F3B",
"o 	c #396F3A",
"p 	c #2D622D",
"q 	c #668D66",
"r 	c #2D632D",
"s 	c #255B25",
"t 	c #C7D5C7",
"u 	c #255C25",
"v 	c #235A23",
"w 	c #F8F9F8",
"x 	c #FFE9E9",
"y 	c #FF5454",
"z 	c #FF9494",
"A 	c #C6D4C6",
"B 	c #FFFCFC",
"C 	c #FFA7A7",
"D 	c #FF4141",
"E 	c #FF5656",
"F 	c #D88F86",
"G 	c #5F875F",
"H 	c #FF7575",
"I 	c #D4251A",
"J 	c #C7180A",
"K 	c #793716",
"L 	c #9EB69E",
"M 	c #AC230E",
"N 	c #D01408",
"O 	c #C21A0B",
"P 	c #AE220E",
"Q 	c #2D5521",
"R 	c #3E613F",
"S 	c #566858",
"T 	c #546856",
"U 	c #566958",
"V 	c #536857",
"W 	c #536855",
"X 	c #556858",
"Y 	c #526855",
"Z 	c #2E5521",
"` 	c #942C12",
" .	c #D21308",
"..	c #F20703",
"+.	c #CB1609",
"@.	c #5D421A",
"#.	c #6E7072",
"$.	c #6E6F71",
"%.	c #686A6C",
"&.	c #6D6F71",
"*.	c #636567",
"=.	c #5B5D5F",
"-.	c #6B6D6F",
";.	c #696F6D",
">.	c #38511F",
",.	c #F20603",
"'.	c #E30D06",
").	c #974035",
"!.	c #6A6C6D",
"~.	c #424445",
"{.	c #5C5E5F",
"].	c #3F4041",
"^.	c #2E2F2F",
"/.	c #666869",
"(.	c #6C7070",
"_.	c #6D3C17",
":.	c #D11D18",
"<.	c #6C6E70",
"[.	c #4B4C4E",
"}.	c #212223",
"|.	c #434546",
"1.	c #5F6163",
"2.	c #292A2B",
"3.	c #262727",
"4.	c #646668",
"5.	c #6A6C6E",
"6.	c #444547",
"7.	c #191A1A",
"8.	c #323334",
"9.	c #5A5C5D",
"0.	c #2A2B2C",
"a.	c #545557",
"b.	c #6B6F6F",
"c.	c #7C6567",
"d.	c #606264",
"e.	c #3C3D3F",
"f.	c #595B5D",
"g.	c #616264",
"h.	c #272728",
"i.	c #4E4F51",
"j.	c #696E6D",
"k.	c #653F19",
"l.	c #A7250F",
"m.	c #E3120F",
"n.	c #DE1A1B",
"o.	c #636466",
"p.	c #585A5C",
"q.	c #212222",
"r.	c #202021",
"s.	c #686A6B",
"t.	c #863214",
"u.	c #EC0904",
"v.	c #D91007",
"w.	c #B41F0D",
"x.	c #824C41",
"y.	c #525354",
"z.	c #48494A",
"A.	c #4D4E50",
"B.	c #434445",
"C.	c #3A3B3C",
"D.	c #494A4B",
"E.	c #3E3F40",
"F.	c #646867",
"G.	c #DC8179",
"H.	c #CD1509",
"I.	c #C9170A",
"J.	c #ED0804",
"K.	c #DC0F07",
"L.	c #4C491C",
"M.	c #4A4B4D",
"N.	c #363738",
"O.	c #464749",
"P.	c #606163",
"Q.	c #5A5D5D",
"R.	c #FFCFCF",
"S.	c #FF5151",
"T.	c #FF3737",
"U.	c #FD4343",
"V.	c #932D12",
"W.	c #4E481C",
"X.	c #4F6752",
"Y.	c #656D67",
"Z.	c #636966",
"`.	c #636A66",
" +	c #646967",
".+	c #474F4A",
"++	c #515954",
"@+	c #5A645D",
"#+	c #444A45",
"$+	c #545F56",
"%+	c #FFE6E6",
"&+	c #FFBBBB",
"*+	c #235923",
"=+	c #235823",
"-+	c #225222",
";+	c #225322",
">+	c #235423",
",+	c #235523",
"'+	c #F2F4F2",
")+	c #F1F4F1",
"!+	c #215421",
"~+	c #225422",
"{+	c #C9D5C9",
"]+	c #235623",
"^+	c #235723",
"/+	c #B3C5B3",
"(+	c #FAFBFA",
"_+	c #194319",
":+	c #1D481D",
"<+	c #1F4B1F",
"[+	c #1F4A1F",
"}+	c #B6C4B6",
"|+	c #B5C3B5",
"1+	c #1D4A1D",
"2+	c #E3E9E3",
"3+	c #1F4C1F",
"4+	c #204E20",
"5+	c #225122",
"6+	c #D7DFD7",
"7+	c #E0E6E0",
"8+	c #7B977B",
"9+	c #133813",
"0+	c #143914",
"a+	c #153A15",
"b+	c #153B15",
"c+	c #688168",
"d+	c #143B14",
"e+	c #9AAB9A",
"f+	c #163D16",
"g+	c #F4F5F4",
"h+	c #3F603F",
"i+	c #F3F5F3",
"j+	c #1B451B",
"k+	c #1C461C",
"l+	c #597759",
"m+	c #163F16",
"n+	c #113011",
"o+	c #113111",
"p+	c #4F674F",
"q+	c #113211",
"r+	c #8E9E8E",
"s+	c #F4F6F4",
"t+	c #8C9E8C",
"u+	c #133713",
"v+	c #B1BDB1",
"w+	c #113411",
"x+	c #112D11",
"y+	c #112E11",
"z+	c #112F11",
". + @ # $ % & * = - * * ; > * , * ' - - * ) + + ! ~ { { + ] @ ^ ",
"/ ( / ( / _ / ( _ : ( / < / _ / _ / ( / _ / ( : ( : / / ( < _ ( ",
"[ } | 1 [ } [ 2 [ 3 | [ [ } 4 1 [ 4 } } [ } 1 | 1 | [ [ [ [ [ [ ",
"5 5 5 6 7 5 5 7 8 5 5 7 9 5 7 5 0 5 5 5 7 7 5 7 0 5 5 a 7 5 9 6 ",
"b b b c b d e f e g h b b b b b b h h h h b b h h b b b b h b b ",
"i j i j k l l l l l m n i n o i i j j i i i i n i i i i i j j i ",
"p p p q l l l l l l l q r r r r r r r r r r r r r r r r r r r r ",
"s s s t l l l l l l l t u u u u u u u u u u u u u u u u u u u u ",
"v v v w l l l x y z l w v v v v v v v v v v v v v v v v v v v v ",
"v v v A l l l B C D E F v v v v v v v v v v v v v v v v v v v v ",
"v v v G l l l l l l H I J K v v v v v v v v v v v v v v v v v v ",
"v v v v L l l l l l L v M N O P Q v v v R S T U V S W X Y V v v ",
"v v v v v G A w A G v v v Z `  ...+.@.v S #.$.%.&.#.*.=.-.;.v v ",
"v v v v v v v v v v v v v v v v >.+.,.'.).#.!.~.{.#.].^./.(.v v ",
"v v v v v v v v v v v v v v v v v v v _.:.<.[.}.|.1.2.3.4.;.v v ",
"v v v v v v v v v v v v v v v v v v v v V 5.6.7.8.9.0.3.a.b.v v ",
"v v v v v G A w A G v v v v v v v v v v S c.d.e.f.g.2.h.i.j.v v ",
"v v v v L l l l l l L v v v v v v v k.l.m.n.#.o.#.p.q.r.].s.v v ",
"v v v G l l l l l l l G v v v t.+.u.v.w.x.-.y.z.A.B.C.D.E.F.v v ",
"v v v A l l l l l l l G.H.I.J.K.+.L.v v Y -.M.E.B.N.O.P.C.Q.v v ",
"v v v w l l l l R.S.T.U.H.V.W.v v v v v X.Y.Z.`. +.+++@+#+$+v v ",
"v v v A l l l %+T.S.&+A v v v v v v v v v v v v v v v v v v v v ",
"v v v G l l l l l l l G v v v v v v v v v v v v v v v v v v v v ",
"v v v v L l l l l l L v v v v v v v v v v v v v v v v v v v v v ",
"v v v v v G A w A G v v v v v v v v v v v v v v v v v v v v v v ",
"*+*+v v l v v v v v v v v v *+=+=+=+=+=+*+v v v v v v v v v v v ",
"-+;+>+,+l ,+,+,+,+,+,+,+,+l '+)+l !+l ~+l {+l ]+l ^+l =+/+(+l ^+",
"_+:+l l l l l <+<+<+<+<+[+l }+|+l 1+l 1+l 2+l 3+l 4+l 5+6+7+8+4+",
"9+0+a+b+l b+b+b+b+l l b+b+l c+c+l d+l d+l e+l f+g+h+i+j+k+l+f m+",
"n+n+o+o+l o+o+o+o+o+o+o+o+l o+o+l o+l o+l p+l q+r+s+t+u+l (+v+w+",
"x+x+x+x+x+x+x+x+x+x+x+x+x+x+x+x+x+x+x+x+x+x+x+x+x+y+z+z+z+z+y+y+",
"x+x+x+x+x+x+x+x+x+x+x+x+x+x+x+x+x+x+x+x+x+x+x+x+x+x+x+x+x+x+x+x+"};
