/* XPM */
static char * KBI_Materials_Attributes_Transfert_xpm[] = {
"32 32 476 2",
"  	c None",
". 	c #87B889",
"+ 	c #87B787",
"@ 	c #87B888",
"# 	c #85B687",
"$ 	c #86B888",
"% 	c #86B686",
"& 	c #84B586",
"* 	c #83B485",
"= 	c #84B584",
"- 	c #85B586",
"; 	c #82B383",
"> 	c #84B484",
", 	c #84B485",
"' 	c #85B585",
") 	c #86B687",
"! 	c #86B788",
"~ 	c #86B787",
"{ 	c #87B788",
"] 	c #88B888",
"^ 	c #88B889",
"/ 	c #79AA7A",
"( 	c #79AB7A",
"_ 	c #79AA79",
": 	c #79AB79",
"< 	c #78AA7A",
"[ 	c #699C6A",
"} 	c #699B6A",
"| 	c #699B69",
"1 	c #699C69",
"2 	c #6A9C6A",
"3 	c #6A9C69",
"4 	c #6A9B6A",
"5 	c #598D5A",
"6 	c #598D59",
"7 	c #5A8D5A",
"8 	c #588957",
"9 	c #588A58",
"0 	c #598C5A",
"a 	c #5A8D59",
"b 	c #598A58",
"c 	c #578656",
"d 	c #588B59",
"e 	c #5A8C59",
"f 	c #4A7E4A",
"g 	c #497F4A",
"h 	c #4B7544",
"i 	c #4F673D",
"j 	c #4D5A36",
"k 	c #4A4F2F",
"l 	c #48693D",
"m 	c #477A47",
"n 	c #497E4A",
"o 	c #497B49",
"p 	c #487248",
"q 	c #466A47",
"r 	c #445E44",
"s 	c #466F46",
"t 	c #3A703A",
"u 	c #3A6F3A",
"v 	c #3E6837",
"w 	c #584D2E",
"x 	c #6B3D2A",
"y 	c #73372A",
"z 	c #6F2A23",
"A 	c #65231C",
"B 	c #55301F",
"C 	c #483921",
"D 	c #374325",
"E 	c #345029",
"F 	c #396B39",
"G 	c #396F3A",
"H 	c #3D653E",
"I 	c #455D46",
"J 	c #4E594F",
"K 	c #4F584F",
"L 	c #4F544F",
"M 	c #475547",
"N 	c #415941",
"O 	c #3A573A",
"P 	c #355B35",
"Q 	c #386938",
"R 	c #2D622D",
"S 	c #305F2C",
"T 	c #5B4428",
"U 	c #91322D",
"V 	c #9C3634",
"W 	c #9C3736",
"X 	c #8F312F",
"Y 	c #7F2826",
"Z 	c #6B1E1D",
"` 	c #561513",
" .	c #360E0A",
"..	c #2D2512",
"+.	c #2D5E2B",
"@.	c #2D632D",
"#.	c #365936",
"$.	c #4B524A",
"%.	c #585A57",
"&.	c #5D5D5D",
"*.	c #5C5C5C",
"=.	c #545454",
"-.	c #494B49",
";.	c #393C3A",
">.	c #2B392C",
",.	c #2C582C",
"'.	c #255B25",
").	c #255924",
"!.	c #474824",
"~.	c #953732",
"{.	c #B74A49",
"].	c #C05554",
"^.	c #BC5554",
"/.	c #A94746",
"(.	c #923635",
"_.	c #7B2727",
":.	c #641B1B",
"<.	c #480F0E",
"[.	c #32140B",
"}.	c #223C18",
"|.	c #235422",
"1.	c #255C25",
"2.	c #275927",
"3.	c #455245",
"4.	c #595A59",
"5.	c #616161",
"6.	c #636363",
"7.	c #626262",
"8.	c #5F6060",
"9.	c #515352",
"0.	c #454646",
"a.	c #353736",
"b.	c #274027",
"c.	c #225022",
"d.	c #245A24",
"e.	c #245822",
"f.	c #3E461F",
"g.	c #793828",
"h.	c #B64847",
"i.	c #D06261",
"j.	c #DB6F6E",
"k.	c #D26A6A",
"l.	c #B45252",
"m.	c #963C3B",
"n.	c #7C2A2A",
"o.	c #651D1C",
"p.	c #490F0F",
"q.	c #310906",
"r.	c #303C25",
"s.	c #225320",
"t.	c #2A5F2A",
"u.	c #275D27",
"v.	c #255A25",
"w.	c #3E5C3E",
"x.	c #616260",
"y.	c #5F5E5E",
"z.	c #646363",
"A.	c #646464",
"B.	c #606060",
"C.	c #5A5A59",
"D.	c #535353",
"E.	c #494949",
"F.	c #3A3B3A",
"G.	c #253525",
"H.	c #1C411C",
"I.	c #215621",
"J.	c #3F451F",
"K.	c #823329",
"L.	c #BB4E4D",
"M.	c #D46768",
"N.	c #E67D7D",
"O.	c #DF7A79",
"P.	c #BE5E5E",
"Q.	c #9C4242",
"R.	c #7E2D2C",
"S.	c #651E1D",
"T.	c #4B110F",
"U.	c #421918",
"V.	c #EEEDEC",
"W.	c #F6F7F6",
"X.	c #F0F3F0",
"Y.	c #F8F9F8",
"Z.	c #F9FAF9",
"`.	c #F7F8F7",
" +	c #EFEFEF",
".+	c #5E5E5E",
"++	c #585959",
"@+	c #4A4A4A",
"#+	c #3F3E3F",
"$+	c #292A29",
"%+	c #192B19",
"&+	c #205120",
"*+	c #275722",
"=+	c #534123",
"-+	c #933631",
";+	c #BA5050",
">+	c #CD6464",
",+	c #DD7877",
"'+	c #D06E6D",
")+	c #AE5251",
"!+	c #903A3A",
"~+	c #742727",
"{+	c #5D1919",
"]+	c #440E0D",
"^+	c #2E0706",
"/+	c #1A0D05",
"(+	c #1C3A16",
"_+	c #225822",
":+	c #235A23",
"<+	c #2B522B",
"[+	c #3F483D",
"}+	c #565555",
"|+	c #5A5A5B",
"1+	c #5E5F5E",
"2+	c #5A5A5A",
"3+	c #555555",
"4+	c #4E4E4F",
"5+	c #454546",
"6+	c #3A3A3B",
"7+	c #222222",
"8+	c #111F11",
"9+	c #1E4E1E",
"0+	c #265722",
"a+	c #4B3B1E",
"b+	c #7E2925",
"c+	c #9F3C3B",
"d+	c #AA4847",
"e+	c #B65655",
"f+	c #AE5150",
"g+	c #97403F",
"h+	c #813030",
"i+	c #6A2221",
"j+	c #541616",
"k+	c #3E0C0B",
"l+	c #2A0605",
"m+	c #2F211C",
"n+	c #1C3414",
"o+	c #2C5F2C",
"p+	c #2D612D",
"q+	c #315831",
"r+	c #3F4F40",
"s+	c #595859",
"t+	c #575857",
"u+	c #575756",
"v+	c #545554",
"w+	c #505050",
"x+	c #49494A",
"y+	c #414141",
"z+	c #363636",
"A+	c #222221",
"B+	c #132113",
"C+	c #255722",
"D+	c #40411E",
"E+	c #6F2C22",
"F+	c #913232",
"G+	c #943737",
"H+	c #993F3E",
"I+	c #923B3B",
"J+	c #80302F",
"K+	c #6E2524",
"L+	c #5A1919",
"M+	c #470F0F",
"N+	c #320807",
"O+	c #290D0C",
"P+	c #F7F7F7",
"Q+	c #FFFFFF",
"R+	c #FCFDFC",
"S+	c #F2F5F2",
"T+	c #F5F7F5",
"U+	c #F2F4F2",
"V+	c #F4F4F4",
"W+	c #525151",
"X+	c #515050",
"Y+	c #515151",
"Z+	c #4D4D4D",
"`+	c #484948",
" @	c #424242",
".@	c #39383A",
"+@	c #2D2D2C",
"@@	c #171717",
"#@	c #0E1E0E",
"$@	c #1F4F1F",
"%@	c #235922",
"&@	c #2D4E1F",
"*@	c #4B341D",
"=@	c #752020",
"-@	c #782525",
";@	c #7C2A29",
">@	c #762726",
",@	c #692020",
"'@	c #5B1818",
")@	c #4A1010",
"!@	c #390A0A",
"~@	c #270504",
"{@	c #190201",
"]@	c #1A260E",
"^@	c #285627",
"/@	c #225722",
"(@	c #244A24",
"_@	c #353B35",
":@	c #3D3C3C",
"<@	c #474546",
"[@	c #464646",
"}@	c #474646",
"|@	c #424343",
"1@	c #3F3F3F",
"2@	c #393838",
"3@	c #2F2F2F",
"4@	c #222121",
"5@	c #10140F",
"6@	c #163916",
"7@	c #285020",
"8@	c #3C3A1C",
"9@	c #5F1B18",
"0@	c #621C19",
"a@	c #661D1B",
"b@	c #601B1A",
"c@	c #551415",
"d@	c #480F0F",
"e@	c #390909",
"f@	c #290505",
"g@	c #1B0202",
"h@	c #181709",
"i@	c #1F491C",
"j@	c #215421",
"k@	c #224D22",
"l@	c #293629",
"m@	c #303130",
"n@	c #3A3B39",
"o@	c #3A3A3A",
"p@	c #3B3B3C",
"q@	c #383837",
"r@	c #343433",
"s@	c #2C2D2C",
"t@	c #212020",
"u@	c #121211",
"v@	c #132D13",
"w@	c #215521",
"x@	c #255421",
"y@	c #373518",
"z@	c #431E12",
"A@	c #4B100F",
"B@	c #460F0E",
"C@	c #3D0B0B",
"D@	c #330807",
"E@	c #260404",
"F@	c #1C0302",
"G@	c #171107",
"H@	c #1E3E18",
"I@	c #225922",
"J@	c #1F4420",
"K@	c #203520",
"L@	c #252A25",
"M@	c #272727",
"N@	c #2A2A29",
"O@	c #262625",
"P@	c #232222",
"Q@	c #1A1B1A",
"R@	c #101410",
"S@	c #0E1F0E",
"T@	c #1B461B",
"U@	c #235822",
"V@	c #264C1E",
"W@	c #2C3717",
"X@	c #341C0F",
"Y@	c #31150C",
"Z@	c #291209",
"`@	c #231008",
" #	c #1B1006",
".#	c #1A220D",
"+#	c #1E4119",
"@#	c #1F4A1F",
"##	c #1B301B",
"$#	c #1A281A",
"%#	c #1B231B",
"&#	c #161E16",
"*#	c #141C14",
"=#	c #153415",
"-#	c #1E4F1E",
";#	c #234D1E",
">#	c #22471C",
",#	c #20451A",
"'#	c #1F451B",
")#	c #1F461B",
"!#	c #225420",
"~#	c #1D4B1D",
"{#	c #1C441C",
"]#	c #1A421A",
"^#	c #99B299",
"/#	c #9CB59C",
"(#	c #FAFBFA",
"_#	c #ABC0AB",
":#	c #B8C9B8",
"<#	c #B7C9B7",
"[#	c #295F29",
"}#	c #ECF1EC",
"|#	c #EDF2ED",
"1#	c #396A39",
"2#	c #F4F7F4",
"3#	c #729572",
"4#	c #749774",
"5#	c #769876",
"6#	c #84A384",
"7#	c #D1DCD1",
"8#	c #628962",
"9#	c #618861",
"0#	c #D2DDD2",
"a#	c #ADC2AD",
"b#	c #EFF3EF",
"c#	c #678D67",
"d#	c #235923",
"e#	c #235823",
"f#	c #225222",
"g#	c #225322",
"h#	c #235423",
"i#	c #235523",
"j#	c #215321",
"k#	c #205320",
"l#	c #205420",
"m#	c #225422",
"n#	c #225522",
"o#	c #235623",
"p#	c #235723",
"q#	c #A9BAA9",
"r#	c #1F4B1F",
"s#	c #97AB97",
"t#	c #9AAE9A",
"u#	c #C8D2C8",
"v#	c #1D491D",
"w#	c #B1C0B1",
"x#	c #1E4B1E",
"y#	c #225122",
"z#	c #AABCAA",
"A#	c #133813",
"B#	c #143914",
"C#	c #153B15",
"D#	c #2C4E2C",
"E#	c #F3F5F3",
"F#	c #EBEEEB",
"G#	c #ECEFEC",
"H#	c #1D411D",
"I#	c #E2E7E2",
"J#	c #143A14",
"K#	c #D4DBD4",
"L#	c #DEE4DE",
"M#	c #748B74",
"N#	c #1B451B",
"O#	c #315631",
"P#	c #F4F6F4",
"Q#	c #163F16",
"R#	c #113011",
"S#	c #113111",
"T#	c #7A8C7A",
"U#	c #697D69",
"V#	c #6B7F6B",
"W#	c #99A699",
"X#	c #123212",
"Y#	c #536A53",
"Z#	c #113211",
"`#	c #123412",
" $	c #123612",
".$	c #133713",
"+$	c #7B8E7B",
"@$	c #113411",
"#$	c #112D11",
"$$	c #A7B1A7",
"%$	c #EEF0EE",
"&$	c #566956",
"*$	c #546854",
"=$	c #CED4CE",
"-$	c #4F644F",
";$	c #FAFAFA",
">$	c #B1BAB1",
",$	c #112F11",
"'$	c #A7B2A7",
")$	c #5A6E5A",
". + @ # $ % & * = - * * ; > * , * ' - - * ) + + ! ~ { { + ] @ ^ ",
"/ ( / ( / _ / ( _ : ( / < / _ / _ / ( / _ / ( : ( : / / ( < _ ( ",
"[ } | 1 [ } [ 2 [ 3 | [ [ } 4 1 [ 4 } } [ } 1 | 1 | [ [ [ [ [ [ ",
"5 5 5 6 7 5 5 7 8 9 5 7 0 5 7 5 a 5 5 5 7 7 5 b c d 5 e 7 5 0 6 ",
"f f f g f h i j k l m f f f f f f n n n n o p q r s f f f n f f ",
"t u t v w x y z A B C D E F G t t u u t H I J K L M N O P Q u t ",
"R R S T U V W X Y Z `  ...+.@.@.@.@.R #.$.%.&.&.*.=.-.;.>.,.@.@.",
"'.).!.~.{.].^./.(._.:.<.[.}.|.1.1.1.2.3.4.5.6.7.8.4.9.0.a.b.c.d.",
"e.f.g.h.i.j.k.l.m.n.o.p.q.r.s.t.u.v.w.x.y.z.A.6.B.C.D.E.F.G.H.I.",
"e.J.K.L.M.N.O.P.Q.R.S.T.U.V.W.X.Y.Z.`. +7.5.5.5..+++D.@+#+$+%+&+",
"*+=+-+;+>+,+'+)+!+~+{+]+^+/+(+_+:+<+[+}+|+1+1+&.2+3+4+5+6+7+8+9+",
"0+a+b+c+d+e+f+g+h+i+j+k+l+m+n+o+p+q+r+s+3+t+t+u+v+w+x+y+z+A+B+9+",
"C+D+E+F+G+H+I+J+K+L+M+N+O+P+Q+R+S+T+U+V+D.W+X+Y+Z+`+ @.@+@@@#@$@",
"%@&@*@=@-@;@>@,@'@)@!@~@{@]@^@:+:+/@(@_@:@<@[@}@|@1@2@3@4@5@6@/@",
"%@7@8@9@0@a@b@c@d@e@f@g@h@i@:+:+:+j@k@l@m@n@o@p@q@r@s@t@u@v@w@:+",
":+:+x@y@z@A@B@C@D@E@F@G@H@I@:+:+:+:+:+J@K@L@M@N@O@P@Q@R@S@T@:+:+",
":+:+U@V@W@X@Y@Z@`@ #.#+#I@:+:+:+:+:+:+w@@###$#%#&#*#8+=#-#:+:+:+",
":+:+:+:+_+;#>#,#'#)#!#:+:+:+:+:+:+:+:+:+:+-#~#{#]#]#~#:+:+:+:+:+",
":+:+:+:+:+:+:+:+:+:+:+:+:+:+:+:+:+:+:+:+:+:+:+:+:+:+:+:+:+:+:+:+",
":+:+:+:+:+:+:+:+:+:+:+:+:+:+:+:+:+:+:+:+:+:+:+:+:+:+:+:+:+:+:+:+",
":+:+:+:+:+:+:+:+:+:+:+:+:+:+:+:+:+:+:+:+:+:+:+:+:+:+:+:+:+:+:+:+",
":+Q+S+S+Q+:+^#/#:+Q+Q+Q+Q+Q+Q+Q+Q+:+Q+(#_#:+Q+:+^#/#:+:+Q+:+:+:+",
":+Q+:#<#Q+[#}#|#t.:+:+Q+:+:+Q+Q+Q+:+Q+1#2#:+Q+[#}#|#t.:+Q+:+:+:+",
":+Q+3#3#Q+4#Q+Q+5#:+:+Q+:+:+Q+:+:+:+Q+Q+6#:+Q+4#Q+Q+5#:+Q+:+:+:+",
":+Q+:+:+Q+7#8#9#0#:+:+Q+:+:+Q+Q+Q+:+Q+a#b#c#Q+7#8#9#0#:+Q+Q+Q+:+",
"d#d#:+:+:+:+:+:+:+:+:+:+:+:+d#e#e#e#e#e#d#:+:+:+:+:+:+:+:+:+:+:+",
"f#g#h#i#i#i#i#i#i#i#i#i#i#h#g#j#k#j@l#m#n#i#o#o#o#p#e#e#e#e#p#p#",
"Q+Q+Q+Q+Q+Q+(#q#r#s#t#r#@#Q+u#Q+v#w#(#Q+x#Q+Q+Q+Q+Q+Q+y#Q+(#z#Q+",
"A#B#Q+C#C#Q+D#E#H.F#G#H#C#Q+I#Q+J#K#L#M#C#Q+Q+Q+Q+Q+Q+N#Q+O#P#Q#",
"R#R#Q+S#S#Q+Q+T#U#Q+Q+V#S#Q+W#Q+S#X#Y#Z.S#Q+Z#Z#Q+`# $.$Q+Q++$@$",
"#$#$Q+#$#$Q+$$%$Q+&$*$=$#$Q+-$Q+#$Q+;$>$#$Q+#$#$Q+Q+Q+,$Q+'$%$)$",
"#$#$#$#$#$#$#$#$#$#$#$#$#$#$#$#$#$#$#$#$#$#$#$#$#$#$#$#$#$#$#$#$"};
