/* XPM */
static char * lightGirl_xpm[] = {
"35 35 379 2",
"  	c #000000",
". 	c #0F1012",
"+ 	c #1A1D20",
"@ 	c #101112",
"# 	c #101010",
"$ 	c #17191A",
"% 	c #181717",
"& 	c #010000",
"* 	c #0D0C0C",
"= 	c #53616F",
"- 	c #8297A4",
"; 	c #78838B",
"> 	c #717C87",
", 	c #788A99",
"' 	c #627A8E",
") 	c #1E2830",
"! 	c #020203",
"~ 	c #323437",
"{ 	c #91B3D0",
"] 	c #D5FCFF",
"^ 	c #E0FBFF",
"/ 	c #D4F2FF",
"( 	c #C8EDFF",
"_ 	c #91CFFF",
": 	c #446E95",
"< 	c #030508",
"[ 	c #0A0705",
"} 	c #394E61",
"| 	c #99BFDC",
"1 	c #C6E9FF",
"2 	c #B9DAFF",
"3 	c #BADBFF",
"4 	c #BCDFFF",
"5 	c #91C6F7",
"6 	c #31679C",
"7 	c #322E2C",
"8 	c #729EC6",
"9 	c #ADDDFF",
"0 	c #C0E0FF",
"a 	c #B8DAFF",
"b 	c #BEE1FF",
"c 	c #7BB9F3",
"d 	c #23578B",
"e 	c #020407",
"f 	c #39434D",
"g 	c #86B3DB",
"h 	c #B7E3FF",
"i 	c #BFDFFF",
"j 	c #B8DBFF",
"k 	c #C4E3FF",
"l 	c #BAE1FF",
"m 	c #62AAE8",
"n 	c #4D6277",
"o 	c #040506",
"p 	c #151311",
"q 	c #3B4853",
"r 	c #9ABCDA",
"s 	c #C0E5FF",
"t 	c #BADCFF",
"u 	c #B1D9FF",
"v 	c #7AB3EA",
"w 	c #4A6D8E",
"x 	c #0B0D0F",
"y 	c #010101",
"z 	c #090808",
"A 	c #404447",
"B 	c #3A4D60",
"C 	c #3E464D",
"D 	c #96AEC4",
"E 	c #BEDEF7",
"F 	c #C3E3FF",
"G 	c #98CDFF",
"H 	c #397EC4",
"I 	c #2C2B2A",
"J 	c #0C0D0E",
"K 	c #5A6A78",
"L 	c #4A8ACA",
"M 	c #76A5D6",
"N 	c #BCDEFF",
"O 	c #C1E2FF",
"P 	c #B7DAFF",
"Q 	c #B9DBFF",
"R 	c #BEDFFF",
"S 	c #A4D4FF",
"T 	c #6096CE",
"U 	c #363739",
"V 	c #312F2C",
"W 	c #1E1B18",
"X 	c #030302",
"Y 	c #060505",
"Z 	c #464C4F",
"` 	c #214E78",
" .	c #5497DB",
"..	c #A6D5FF",
"+.	c #C0E1FF",
"@.	c #C5E4FF",
"#.	c #C8E4FF",
"$.	c #BCDDFF",
"%.	c #A8CEF3",
"&.	c #89A9C3",
"*.	c #6C96BB",
"=.	c #445668",
"-.	c #08090B",
";.	c #050403",
">.	c #1B1D20",
",.	c #394F64",
"'.	c #234D74",
").	c #3989D8",
"!.	c #6DB9FF",
"~.	c #A7D3FE",
"{.	c #BADDFF",
"].	c #A7DBFF",
"^.	c #A4D8FF",
"/.	c #BBDDFF",
"(.	c #CAE6FF",
"_.	c #C0ECFF",
":.	c #67BFFF",
"<.	c #566D84",
"[.	c #0B0B0D",
"}.	c #0D0C0B",
"|.	c #1F2226",
"1.	c #1F242A",
"2.	c #1E1F1F",
"3.	c #020000",
"4.	c #090705",
"5.	c #2E363D",
"6.	c #3A75AD",
"7.	c #4983BC",
"8.	c #376DA0",
"9.	c #427AB3",
"0.	c #7DB6EF",
"a.	c #91C2F3",
"b.	c #5B8BBD",
"c.	c #497FB8",
"d.	c #8FBFEF",
"e.	c #C4E5FF",
"f.	c #9CCCFA",
"g.	c #4D86BC",
"h.	c #33373B",
"i.	c #070605",
"j.	c #0A0C0C",
"k.	c #4C555D",
"l.	c #92A5AE",
"m.	c #849FB4",
"n.	c #587490",
"o.	c #1A1E21",
"p.	c #080604",
"q.	c #030200",
"r.	c #141A1F",
"s.	c #274E73",
"t.	c #33475C",
"u.	c #0A0400",
"v.	c #3D352E",
"w.	c #6CABE0",
"x.	c #649AC9",
"y.	c #252321",
"z.	c #13181A",
"A.	c #6590B8",
"B.	c #9DD8FF",
"C.	c #5E9FE1",
"D.	c #312B23",
"E.	c #040403",
"F.	c #161515",
"G.	c #555B60",
"H.	c #ABC4D2",
"I.	c #D9FFFF",
"J.	c #BAEEFF",
"K.	c #7CBAF4",
"L.	c #4D6C8B",
"M.	c #23292F",
"N.	c #090908",
"O.	c #41464B",
"P.	c #63AEE9",
"Q.	c #517796",
"R.	c #120A06",
"S.	c #110D08",
"T.	c #5B6E80",
"U.	c #71BDFF",
"V.	c #488DCF",
"W.	c #080602",
"X.	c #020101",
"Y.	c #1A1918",
"Z.	c #4C5156",
"`.	c #B6C9D6",
" +	c #CFF6FF",
".+	c #8FC0F0",
"++	c #80B4E6",
"@+	c #91CCFE",
"#+	c #7BBDFA",
"$+	c #4A7094",
"%+	c #2D3339",
"&+	c #0A0908",
"*+	c #231F1B",
"=+	c #629FD5",
"-+	c #5B9FDE",
";+	c #203245",
">+	c #263746",
",+	c #7ABEFF",
"'+	c #73B0EA",
")+	c #484D51",
"!+	c #24272A",
"~+	c #484B4E",
"{+	c #BACBD8",
"]+	c #B9E7FF",
"^+	c #539BE2",
"/+	c #2C5782",
"(+	c #3B434D",
"_+	c #457FBC",
":+	c #86C7FB",
"<+	c #85CAFF",
"[+	c #567999",
"}+	c #30363B",
"|+	c #0A0909",
"1+	c #4A5763",
"2+	c #51A5F3",
"3+	c #43617D",
"4+	c #140E09",
"5+	c #15110E",
"6+	c #586A7B",
"7+	c #8EC9FF",
"8+	c #A3D3FF",
"9+	c #86BEF5",
"0+	c #ACD5FA",
"a+	c #D0EAFE",
"b+	c #D5EBFF",
"c+	c #A9D9FF",
"d+	c #92C1F0",
"e+	c #475666",
"f+	c #212427",
"g+	c #7E9AB5",
"h+	c #69A8E3",
"i+	c #81CAFF",
"j+	c #5E819E",
"k+	c #303439",
"l+	c #090806",
"m+	c #030202",
"n+	c #41403E",
"o+	c #4F9FED",
"p+	c #5A7998",
"q+	c #1C1C1C",
"r+	c #010100",
"s+	c #6D8193",
"t+	c #AEDFFF",
"u+	c #B9DCFF",
"v+	c #C1E1FF",
"w+	c #85B6E9",
"x+	c #576B84",
"y+	c #322F2D",
"z+	c #1D1917",
"A+	c #171514",
"B+	c #4C535A",
"C+	c #49545F",
"D+	c #7699BC",
"E+	c #73BAF9",
"F+	c #5580A8",
"G+	c #32383E",
"H+	c #0C0905",
"I+	c #090909",
"J+	c #4A6278",
"K+	c #5B80A5",
"L+	c #1F252C",
"M+	c #030201",
"N+	c #191B1C",
"O+	c #6C8298",
"P+	c #ABD7FF",
"Q+	c #C4E2FF",
"R+	c #C0DEFF",
"S+	c #BEDDFF",
"T+	c #C3DEFF",
"U+	c #CBE5FF",
"V+	c #C7E6FF",
"W+	c #B7E2FF",
"X+	c #A1D4F8",
"Y+	c #90C2E7",
"Z+	c #7DA8D0",
"`+	c #5E82A7",
" @	c #5B6B7A",
".@	c #3F3F41",
"+@	c #47494D",
"@@	c #518AC0",
"#@	c #84C7F6",
"$@	c #6687A4",
"%@	c #353638",
"&@	c #110B05",
"*@	c #191511",
"=@	c #231D18",
"-@	c #444547",
";@	c #527699",
">@	c #3B434A",
",@	c #181616",
"'@	c #67798C",
")@	c #AAD8FF",
"!@	c #BDDDFE",
"~@	c #BFE9FF",
"{@	c #AEE7FF",
"]@	c #96CEFF",
"^@	c #83A8C9",
"/@	c #7BA0BA",
"(@	c #7DB1DE",
"_@	c #87C2F7",
":@	c #97D8FF",
"<@	c #97C8ED",
"[@	c #89B5DA",
"}@	c #749ABB",
"|@	c #6AA9E4",
"1@	c #89D2FF",
"2@	c #85CEFF",
"3@	c #619DCF",
"4@	c #40607E",
"5@	c #3A424A",
"6@	c #2F2F2F",
"7@	c #3F5C77",
"8@	c #41678C",
"9@	c #5E758D",
"0@	c #3D4A56",
"a@	c #10100F",
"b@	c #110F0D",
"c@	c #495159",
"d@	c #86A7C7",
"e@	c #C1E9FF",
"f@	c #C8ECFF",
"g@	c #92B0CB",
"h@	c #7E9FBC",
"i@	c #668297",
"j@	c #374D63",
"k@	c #1D2733",
"l@	c #1C2329",
"m@	c #2A3743",
"n@	c #576C7F",
"o@	c #78A3C3",
"p@	c #70B1E9",
"q@	c #7BBCF4",
"r@	c #6CAFE7",
"s@	c #5999D7",
"t@	c #6791B9",
"u@	c #6D96B5",
"v@	c #5794CD",
"w@	c #518CC6",
"x@	c #617B96",
"y@	c #464647",
"z@	c #304559",
"A@	c #35506C",
"B@	c #324251",
"C@	c #110F0C",
"D@	c #050404",
"E@	c #161717",
"F@	c #384149",
"G@	c #687B8E",
"H@	c #6D7D8C",
"I@	c #374049",
"J@	c #212932",
"K@	c #181615",
"L@	c #171412",
"M@	c #212933",
"N@	c #1A344D",
"O@	c #223B52",
"P@	c #365269",
"Q@	c #344B63",
"R@	c #262D36",
"S@	c #212428",
"T@	c #1B2B3D",
"U@	c #1F3851",
"V@	c #283644",
"W@	c #1A1B1B",
"X@	c #090501",
"Y@	c #100B06",
"Z@	c #050200",
"`@	c #030000",
" #	c #0B0703",
".#	c #080501",
"+#	c #0C0601",
"@#	c #130D08",
"##	c #666666",
"$#	c #222222",
"%#	c #444444",
"&#	c #777777",
"*#	c #999999",
"=#	c #888888",
"-#	c #AAAAAA",
"                                                                      ",
"                                                                      ",
"                                                                      ",
"                . + @ # $ % &                                         ",
"              * = - ; > , ' ) !                                       ",
"              ~ { ] ^ / ( _ : <                                       ",
"            [ } | 1 2 3 4 5 6 <                                       ",
"            7 8 9 0 a 0 b c d e                                       ",
"            f g h i j k l m n o                                       ",
"          p q r s t i u v w x y                                       ",
"    z A B C D E t j F G H I                                           ",
"    J K L M N O P Q R S T U V W X                                     ",
"    Y Z `  ...+.i @.#.$.%.&.*.=.-.                                    ",
"  ;.>.,.'.).!.~.{.].^./.(._.:.<.[.      }.|.1.2.3.                    ",
"  4.5.6.7.8.9.0.a.b.c.d.e.f.g.h.i.  X j.k.l.m.n.o.p.                  ",
"  q.r.s.t.u.v.w.x.y.z.A.B.C.D.    E.F.G.H.I.J.K.L.M.N.                ",
"          3.O.P.Q.R.S.T.U.V.W.  X.Y.Z.`. +.+++@+#+$+%+&+              ",
"          *+=+-+;+    >+,+'+)+!+~ ~+{+]+^+/+(+_+:+<+[+}+|+            ",
"          1+2+3+4+  5+6+7+8+9+0+a+b+c+d+e+    f+g+h+i+j+k+l+          ",
"      m+n+o+p+q+r+  % s+t+u+4 O {.v+c+w+x+y+z+A+B+C+D+E+F+G+H+        ",
"      I+J+K+L+M+    N+O+P+Q+R+S+T+U+V+W+X+Y+Z+`+ @.@+@@@#@$@%@&@      ",
"  *@=@-@;@>@i.      ,@'@)@#.!@1 ~@{@]@^@/@(@_@:@<@[@}@|@1@2@3@4@5@6@  ",
"  7@8@9@0@a@r+      b@c@d@e@f@g@h@i@j@k@l@m@n@o@p@q@r@s@t@u@v@w@x@y@  ",
"  z@A@B@C@          D@E@F@G@H@I@J@K@3.      L@M@N@O@P@Q@R@S@T@U@V@W@  ",
"  X@Y@Z@                `@ #.#3.                    +#@#              ",
"                                                                      ",
"                                                                      ",
"                                                                      ",
"  ##      $#        $#$#                            $#          $#%#  ",
"  &#    %#%#  $###%#  *#%#  *#&#            %###$#  &#  $#####    &#  ",
"  &#      &#  &#$#&#  =#&#  &#              &#=#    &#    =#$#    &#  ",
"  -#%#  ##-#  &#&#&#$#=#*#  ##=#            =#-#  $#-#%#$#-#$#  %#-#$#",
"              %#&#%#                        ##=#                      ",
"                                                                      ",
"                                                                      "};
