/* XPM */
static char * light_xpm[] = {
"32 32 16 1",
" 	c #FFFFFF",
".	c #EFEFEF",
"+	c #BFBFBF",
"@	c #000000",
"#	c #303030",
"$	c #808080",
"%	c #DFDFDF",
"&	c #9F9F9F",
"*	c #8F8F8F",
"=	c #404040",
"-	c #606060",
";	c #CFCFCF",
">	c #101010",
",	c #202020",
"'	c #AFAFAF",
")	c #707070",
"                                ",
"                                ",
"                                ",
"                                ",
"                                ",
"                                ",
"                                ",
" .++.    ++.        ++.      .  ",
" +@@+    @@+        @@+     .#  ",
" +@@+    @@+        @@+    .#@  ",
" +@@+    $$%        @@+    +@@  ",
" +@@+    ++. .$+%+% @@+&&  *@@+.",
" +@@+    @@+ =@@-@$ @@=@@+ @@@@+",
" +@@+    @@+;@@@@@$ @@@@@- @@@@+",
" +@@+    @@+*@>%@@$ @@#,@= -@@$%",
" +@@+    @@+$@= =@$ @@'$@= +@@  ",
" +@@+    @@+$@= =@$ @@+$@= +@@  ",
" +@@+    @@+$@= =@$ @@+$@= +@@  ",
" +@@#==& @@+'@@&@@$ @@+$@= +@@  ",
" +@@@@@$ @@+.@@@@@$ @@+$@= +@@-.",
" +@@@@@$ @@+ )@##@$ @@+$@= .@@@+",
" ;=====& ==;..;.=@$ ==;&=)  $@>;",
"            +@,.#@$             ",
"            %@@#@@+             ",
"             =@@@#              ",
"             %-=-%              ",
"                                ",
"                                ",
"                                ",
"                                ",
"                                ",
"                                "};
