/* XPM */
static char *LMAN32~1_xpm[]={
"32 32 522 2",
"      c #CACACA",
" 0    c #C6C6C6",
" 1    c #C4C4C4",
" 2    c #C1C1C1",
" 3    c #ABABAB",
" 4    c #767676",
" 5    c #36373B",
" 6    c #1D1E24",
" 7    c #19191D",
" 8    c #26272C",
" 9    c #58585A",
" a    c #868686",
" b    c #A9A9A9",
" c    c #B6B6B6",
" d    c #BEBEBE",
" e    c #B9B9B9",
" f    c #6C6D6E",
" g    c #1F1F22",
" h    c #4D4B40",
" i    c #857F5A",
" j    c #A19663",
" k    c #A2965F",
" l    c #897E50",
" m    c #5A553E",
" n    c #191818",
" o    c #313235",
" p    c #808080",
" q    c #A3A3A3",
" r    c #BFBFBF",
" s    c #BABABA",
" t    c #444446",
" u    c #2B291F",
" v    c #AEA676",
" w    c #FAEB92",
" x    c #FCF18F",
" y    c #FFF38C",
" z    c #FFF185",
" A    c #FDEC7C",
" B    c #FBE773",
" C    c #CFBE61",
" D    c #504A30",
" E    c #0C0D10",
" F    c #676768",
" G    c #919191",
" H    c #B0B0B0",
" I    c #656567",
" J    c #3A372C",
" K    c #E0D38F",
" L    c #FFF695",
" M    c #FFEB8D",
" N    c #FFEA89",
" O    c #FFE884",
" P    c #FFE87C",
" Q    c #FFE673",
" R    c #FFE569",
" S    c #FFE860",
" T    c #F4DD58",
" U    c #665E39",
" V    c #0E0E14",
" W    c #696969",
" X    c #8B8B8B",
" Y    c #B1B1B1",
" Z    c #C0C0C0",
" &    c #A8A8A8",
"0     c #040407",
"00    c #CCBF88",
"01    c #FFF591",
"02    c #FFEA8A",
"03    c #FFE984",
"04    c #FFE87F",
"05    c #FFE676",
"06    c #FFE56D",
"07    c #FFE262",
"08    c #FFE156",
"09    c #FFE050",
"0a    c #EAD157",
"0b    c #2F2D21",
"0c    c #404043",
"0d    c #62626B",
"0e    c #93939F",
"0f    c #B6B6C6",
"0g    c #BEBECF",
"0h    c #C0C0D1",
"0i    c #BFBFCF",
"0j    c #B9BACA",
"0k    c #AFB3C5",
"0l    c #C69AA1",
"0m    c #AD919A",
"0n    c #9F9F9F",
"0o    c #ADADAD",
"0p    c #5C5D5E",
"0q    c #5D5949",
"0r    c #FCEE8E",
"0s    c #FFE985",
"0t    c #FFE677",
"0u    c #FFE56F",
"0v    c #FFE465",
"0w    c #FFE259",
"0x    c #FDDE51",
"0y    c #F4D751",
"0z    c #F7DA55",
"0A    c #918346",
"0B    c #0B0D14",
"0C    c #484749",
"0D    c #7A797D",
"0E    c #B2AFB6",
"0F    c #C9C6CD",
"0G    c #C8C5CD",
"0H    c #C7C4CB",
"0I    c #B7B4C0",
"0J    c #B3B2BE",
"0K    c #C5ADB2",
"0L    c #9D8F97",
"0M    c #595959",
"0N    c #787878",
"0O    c #2B2D31",
"0P    c #988E5F",
"0Q    c #FDF18B",
"0R    c #FFE882",
"0S    c #FFE77E",
"0T    c #FFE777",
"0U    c #FFE365",
"0V    c #FFE25B",
"0W    c #FDDF51",
"0X    c #F5D751",
"0Y    c #EBD051",
"0Z    c #ECD152",
"0&    c #B4A14F",
"1     c #1D1D1C",
"10    c #413F41",
"11    c #7B777A",
"12    c #C9C2C8",
"13    c #EBE3EA",
"14    c #ECE4EC",
"15    c #ECE4EB",
"16    c #EAE2E9",
"17    c #EAE1E9",
"18    c #F7F6F8",
"19    c #A9ACB2",
"1a    c #343434",
"1b    c #5C5C5C",
"1c    c #1E2025",
"1d    c #A1945B",
"1e    c #FDF184",
"1f    c #FFE67A",
"1g    c #FFE574",
"1h    c #FFE25A",
"1i    c #FEDF52",
"1j    c #ECD051",
"1k    c #E3C951",
"1l    c #E2C751",
"1m    c #BAA855",
"1n    c #27251F",
"1o    c #403E40",
"1p    c #646063",
"1q    c #A09CA0",
"1r    c #C7C0C6",
"1s    c #C4BEC3",
"1t    c #BEB8BD",
"1u    c #CFC8CE",
"1v    c #DED5DC",
"1w    c #DCD5DC",
"1x    c #DCD5DB",
"1y    c #D7CFD5",
"1z    c #E9E6EA",
"1A    c #AEADB7",
"1B    c #333333",
"1C    c #5B5B5B",
"1D    c #37393D",
"1E    c #8B8157",
"1F    c #FDEE7B",
"1G    c #FFE469",
"1H    c #FFE261",
"1I    c #FFE157",
"1J    c #EACF51",
"1K    c #DAC251",
"1L    c #DDC553",
"1M    c #A2924C",
"1N    c #161619",
"1O    c #454345",
"1P    c #6F6B6F",
"1Q    c #B5AFB5",
"1R    c #DAD3D9",
"1S    c #D8D2D8",
"1T    c #D7D1D8",
"1U    c #D9D3D9",
"1V    c #DBD4DB",
"1W    c #D9D1D8",
"1X    c #F0EDF3",
"1Y    c #ACACB6",
"1Z    c #747475",
"1&    c #36332B",
"2     c #F4DD72",
"20    c #FFE46A",
"21    c #FFE25D",
"22    c #FFE055",
"23    c #FCDD51",
"24    c #F3D651",
"25    c #EBCF51",
"26    c #D9C151",
"27    c #D3BB51",
"28    c #D8C156",
"29    c #6C6440",
"2a    c #15151B",
"2b    c #494749",
"2c    c #757276",
"2d    c #C2BCC3",
"2e    c #E6DFE7",
"2f    c #E7E0E8",
"2g    c #E7DFE7",
"2h    c #E5DEE6",
"2i    c #F5F2F7",
"2j    c #ACABB5",
"2k    c #0D0E14",
"2l    c #A1955A",
"2m    c #FFEC60",
"2n    c #FFE158",
"2o    c #FEDF53",
"2p    c #F9DB51",
"2q    c #F1D451",
"2r    c #E8CE51",
"2s    c #E0C751",
"2t    c #D8C051",
"2u    c #D1BA51",
"2v    c #CDB650",
"2w    c #B2A255",
"2x    c #0D0C0C",
"2y    c #515051",
"2z    c #4F4C4F",
"2A    c #7D797D",
"2B    c #C5BEC5",
"2C    c #E6DEE6",
"2D    c #E3DCE4",
"2E    c #F3EFF4",
"2F    c #ABABB5",
"2G    c #6D6E70",
"2H    c #393728",
"2I    c #E9D45E",
"2J    c #FFE250",
"2K    c #F7D951",
"2L    c #EFD351",
"2M    c #E7CC51",
"2N    c #E0C551",
"2O    c #D1B951",
"2P    c #CAB450",
"2Q    c #CEB957",
"2R    c #585339",
"2S    c #191A1E",
"2T    c #4F4D4F",
"2U    c #5B585B",
"2V    c #948F94",
"2W    c #CFC7CF",
"2X    c #E3DBE3",
"2Y    c #E5DEE5",
"2Z    c #E4DDE4",
"2&    c #F2EFF4",
"3     c #BBBBBB",
"30    c #19191F",
"31    c #857A4A",
"32    c #FCDF55",
"33    c #EED251",
"34    c #DFC551",
"35    c #D8BF51",
"36    c #CAB451",
"37    c #CCB754",
"38    c #8B804F",
"39    c #0B0C0E",
"3a    c #4B4A4B",
"3b    c #504D50",
"3c    c #777377",
"3d    c #B6B1B6",
"3e    c #E1D9E1",
"3f    c #E6E0E6",
"3g    c #E7E0E7",
"3h    c #E8E0E7",
"3i    c #E5DDE5",
"3j    c #0B0B0F",
"3k    c #C2B05E",
"3l    c #EFD350",
"3m    c #E1C651",
"3n    c #DAC151",
"3o    c #D3BC51",
"3p    c #CCB651",
"3q    c #C8B350",
"3r    c #B8A656",
"3s    c #292721",
"3t    c #121212",
"3u    c #696769",
"3v    c #A7A4A7",
"3w    c #D9D4D9",
"3x    c #DDD7DE",
"3y    c #DDD6DD",
"3z    c #E0DAE0",
"3A    c #DBD5DB",
"3B    c #E2DBE2",
"3C    c #E5DDE6",
"3D    c #4C4C50",
"3E    c #484431",
"3F    c #DEC558",
"3G    c #E0C650",
"3H    c #D7C051",
"3I    c #CBB651",
"3J    c #CBB756",
"3K    c #615B3D",
"3L    c #232429",
"3M    c #4B494B",
"3N    c #575457",
"3O    c #888787",
"3P    c #C5C6C5",
"3Q    c #EEECED",
"3R    c #DAD4DA",
"3S    c #DAD5DC",
"3T    c #DBD5DC",
"3U    c #DED8DE",
"3V    c #CCC7CD",
"3W    c #DDD7DF",
"3X    c #0E0E10",
"3Y    c #9A8C4F",
"3Z    c #E6CC54",
"3&    c #D7BF51",
"4     c #D1BB52",
"40    c #A69752",
"41    c #0F0E0F",
"42    c #4C4B4D",
"43    c #706C70",
"44    c #A4A2A4",
"45    c #CFCCCD",
"46    c #EFECEF",
"47    c #DDD8DE",
"48    c #DFDAE0",
"49    c #E4DEE5",
"4a    c #E2DDE3",
"4b    c #E5DFE5",
"4c    c #D0CAD0",
"4d    c #E0D9E0",
"4e    c #313131",
"4f    c #5F5B4B",
"4g    c #DBC45D",
"4h    c #D0B953",
"4i    c #CAB452",
"4j    c #CBB655",
"4k    c #675F3C",
"4l    c #09080B",
"4m    c #3C3A3C",
"4n    c #525052",
"4o    c #CEC8CD",
"4p    c #CEC6CD",
"4q    c #C3BCC3",
"4r    c #CAC3CA",
"4s    c #E5DDE4",
"4t    c #E0DBDE",
"4u    c #C4BDC4",
"4v    c #CBC3CB",
"4w    c #D7CFD7",
"4x    c #E9E1E9",
"4y    c #7A7A7A",
"4z    c #504B33",
"4A    c #4D4831",
"4B    c #4C4730",
"4C    c #504A35",
"4D    c #161512",
"4E    c #1E1E1F",
"4F    c #424042",
"4G    c #6B686B",
"4H    c #B3ADB3",
"4I    c #D8D3D8",
"4J    c #CBC4CB",
"4K    c #C6C0C6",
"4L    c #D2CCD2",
"4M    c #DED7DE",
"4N    c #BCBCBC",
"4O    c #606163",
"4P    c #38393C",
"4Q    c #08090E",
"4R    c #000000",
"4S    c #242223",
"4T    c #454346",
"4U    c #747474",
"4V    c #E9E7E9",
"4W    c #E5DFE3",
"4X    c #EDE5ED",
"4Y    c #E8E0E8",
"4Z    c #E9E1E8",
"4&    c #EAE3EA",
"5     c #EAE2EA",
"50    c #454545",
"51    c #3E3E3E",
"52    c #303030",
"53    c #373737",
"54    c #464547",
"55    c #565556",
"56    c #555355",
"57    c #615D61",
"58    c #959194",
"59    c #CAC6C9",
"5a    c #AEABAE",
"5b    c #A3A0A3",
"5c    c #BCB6BC",
"5d    c #DFD9E0",
"5e    c #DBD4DA",
"5f    c #DBD4DC",
"5g    c #DAD4DB",
"5h    c #DFD8DF",
"5i    c #969696",
"5j    c #8C8C8C",
"5k    c #6D6D6D",
"5l    c #4E4E4E",
"5m    c #4F4E50",
"5n    c #4C4B4C",
"5o    c #6A666A",
"5p    c #7C797D",
"5q    c #B6B0B6",
"5r    c #C2BBC2",
"5s    c #212021",
"5t    c #141414",
"5u    c #5A5859",
"5v    c #DFDBE0",
"5w    c #E1DBE1",
"5x    c #CCC7CC",
"5y    c #B4B4B4",
"5z    c #4F4F4F",
"5A    c #272727",
"5B    c #464646",
"5C    c #505050",
"5D    c #676467",
"5E    c #7C787C",
"5F    c #908B90",
"5G    c #B1ABB1",
"5H    c #D8D6D7",
"5I    c #EFEDEE",
"5J    c #DFD7DE",
"5K    c #D6D1D7",
"5L    c #DCD6DC",
"5M    c #E3DDE4",
"5N    c #E6DDE5",
"5O    c #ACACAC",
"5P    c #878787",
"5Q    c #6C6C6C",
"5R    c #626262",
"5S    c #49484A",
"5T    c #5C5A5C",
"5U    c #7D787D",
"5V    c #918C91",
"5W    c #BFB7BF",
"5X    c #E0D8E0",
"5Y    c #FCF9FB",
"5Z    c #F4F0F3",
"5&    c #DAD3DA",
"6     c #DFD9DF",
"60    c #DED9DE",
"61    c #CFCAD0",
"62    c #717171",
"63    c #3F3F3F",
"64    c #515052",
"65    c #777376",
"66    c #837F83",
"67    c #9E989E",
"68    c #D2CBD2",
"69    c #D4D0D4",
"6a    c #CFCCCF",
"6b    c #E3DEE2",
"6c    c #E2DCE2",
"6d    c #D4CFD5",
"6e    c #E0DAE1",
"6f    c #E6DDE6",
"6g    c #8E8E8E",
"6h    c #656565",
"6i    c #626264",
"6j    c #888488",
"6k    c #A59FA5",
"6l    c #CFC8CF",
"6m    c #D0CED0",
"6n    c #CFCFCE",
"6o    c #ECEAEA",
"6p    c #DCD7DD",
"6q    c #D7D2D8",
"6r    c #DBD6DB",
"6s    c #DAD5DA",
"6t    c #DBD6DC",
"6u    c #E3DEE4",
"6v    c #CFCACF",
"6w    c #DED7DF",
"6x    c #B3B3B3",
"6y    c #6B6B6B",
"6z    c #616161",
"6A    c #79777A",
"6B    c #868186",
"6C    c #9C979C",
"6D    c #C5BFC5",
"6E    c #CACAC9",
"6F    c #CDCCCC",
"6G    c #F0EDEF",
"6H    c #D9D4DA",
"6I    c #D5D0D6",
"6J    c #DAD5DB",
"6K    c #DDD6DE",
"6L    c #AAAAAA",
"6M    c #959397",
"6N    c #AAA4A9",
"6O    c #BEB8BE",
"6P    c #E1D8E1",
"6Q    c #EBE2EA",
"6R    c #DFDBDE",
"6S    c #E3DEE1",
"6T    c #EFEBEF",
"6U    c #E3DCE3",
"6V    c #D5CFD5",
"6W    c #E0DAE2",
"6X    c #E4DCE5",
"6Y    c #F3EFF5",
"6Z    c #ADADB6",
"6&    c #B5B1B8",
"7     c #D8D1D8",
"70    c #DCD5DD",
"71    c #D9D3DA",
"72    c #DCD6DD",
"73    c #DCD6DE",
"74    c #D9D3DB",
"75    c #EAE6E7",
"76    c #A2A2A8",
"77    c #757575",
"78    c #585858",
"   0 0 0 0 0 0 0 0 0 0 0 0 0 0 0 0 0 0 0 0 0 0 0 0 0 0 0 0 0 0  ",
" 1 2 2 2 3 4 5 6 7 8 9 a b c d 2 2 2 2 2 2 2 2 2 2 2 2 2 2 2 2 1",
" 0 2 e f g h i j k l m n o p q c r 2 2 2 2 2 2 2 2 2 2 2 2 2 2 0",
" 0 s t u v w x y z A B C D E F G H r 2 2 2 2 2 2 2 2 2 2 2 2 2 0",
" 0 I J K L M N O P Q R S T U V W X Y Z 2 2 2 2 2 2 2 2 2 2 2 2 0",
" &0 0001 M02030405060708090a0b0c0d0e0f0g0g0g0g0g0h0i0j0k0l0m0n0o",
"0p0q0r02 N0s040t0u0v0w0x0y0z0A0B0C0D0E0F0G0F0G0G0G0H0I0J0K0L0M0N",
"0O0P0Q030R0S0T0u0U0V0W0X0Y0Z0&1 10111213141513161716131318191a1b",
"1c1d1e P1f1g060U1h1i0X1j1k1l1m1n1o1p1q1r1s1t1u1v1w1x1x1y1z1A1B1C",
"1D1E1F1g0u1G1H1I0x0X1J1l1K1L1M1N1O1P1Q1R1S1T1U1V1V1V1V1W1X1Y1B1C",
"1Z1&2 200U21222324251l262728292a2b2c2d2e2e2f2g2e2e2e2e2h2i2j1B1C",
" Y2k2l2m2n2o2p2q2r2s2t2u2v2w2x2y2z2A2B2C2C2C2C2C2C2C2h2D2E2F1B1C",
" 02G2H2I2J2K2L2M2N2t2O2P2Q2R2S2T2U2V2W2X2X2X2X2X2X2X2Y2Z2&2j1B1C",
" 03 303132332M34352O363738393a3b3c3d3e2g2g2g2g2g3f3g3h3i2&2j1B1C",
" 0 20N3j3k3l3m3n3o3p3q3r3s3t0C3u3v3w1w3x3x3x3x3y3z3A3B3C2&2j1B1C",
" 0 2 d3D3E3F3G3H2u3I3J3K3L3M3N3O3P3Q3A3R3S3S3T3w3U3V3W2C2&2j1B1C",
" 0 2 2 Y3X3Y3Z3&2O4 4041422z434445464748494a2Y4b3f4c4d2C2&2j1B1C",
" 0 2 2 24e4f4g4h4i4j4k4l4m4n2V4o4p4q4r3i4s4t4u4v4u4w4x3i2&2j1B1C",
" 0 2 2 24y3t4z4A4B4C4D4E4F4G4H4I4J4K4L2Z2X4t4J4J4r4M2g3i2&2j1B1C",
" 0 2 2 24N X4O4P4Q4R4R4S4T4U s4V4W4X4x3h4Y4Z4&5 4x4Y2g3i2&2j1B1C",
" 0 2 2 2 b505152535455565758595a5b5c5d5e5f5f5f5g4d5h2D3i2&2j1B1C",
" 0 2 2 2 s5i5j5k5l5m5n5o5p5q5r5s5t5u3B5v5w5w5w5w3f5x4M2C2&2j1B1C",
" 0 2 2 25y5z5A5B5C0C5D5E5F5G4p5H3Q5I5J5K3A3y3y5L5M4L5h5N2&2j1B1C",
" 0 2 2 2 d5O5P5Q5R5S5T5U5V5W5X3Q5Y5Z5&5g6 6060602Z615h2C2&2j1B1C",
" 0 2 2 2 d624e1B6364656667685h696a6b4d5L3U6 6 6 6c6d6e6f2&2j1B1C",
" 0 2 2 2 Z0o6g6h506i2A6j6k6l5h6m6n6o6p6q6r6s6t6t6u6v6w2C2&2j1B1C",
" 0 2 2 2 2 Z6x6y6z6A6B6C6D4L4d6E6F6G1U3w6H6I6J1U4a5x6K2C2&2j1B1C",
" 0 2 2 2 2 2 r e6L6M6N6O6P6Q2X6R6S6T4M6U3i2Y3i3i2C6V6W6X6Y6Z1B1C",
" 0 2 2 2 2 2 2 Z4N6&7 6I5g5g3T707071721V1V1V1V1V1V733T7475761a1b",
" 0 2 2 2 2 2 2 2 2 2 b770M78787878787878787878787878787878780M0N",
" 1 2 2 2 2 2 2 2 2 2 e b0n0n0n0n0n0n0n0n0n0n0n0n0n0n0n0n0n0n0n5O",
"   0 0 0 0 0 0 0 0 0 0 0 0 0 0 0 0 0 0 0 0 0 0 0 0 0 0 0 0 0 0  "};
