/* XPM */
static char *Low_xpm[] = {
/* width height num_colors chars_per_pixel */
"    32    32      256            2",
/* colors */
"`` c #7c0204",
"`. c #847e9c",
"`# c #acbacc",
"`a c #845264",
"`b c #b40204",
"`c c #ccdae4",
"`d c #b47a84",
"`e c #dcbabc",
"`f c #b43234",
"`g c #7c1e24",
"`h c #e4e6e4",
"`i c #849abc",
"`j c #c43a3c",
"`k c #b4a6b4",
"`l c #cc1214",
"`m c #dcd6d4",
"`n c #ccced4",
"`o c #d46664",
"`p c #940204",
"`q c #cc0204",
"`r c #dcdedc",
"`s c #7c96b4",
"`t c #bcc6d4",
"`u c #dc7a7c",
"`v c #9caac4",
"`w c #dc4e4c",
"`x c #dc9e9c",
"`y c #e4cacc",
"`z c #841a1c",
"`A c #842a34",
"`B c #d43a3c",
"`C c #d40a0c",
"`D c #9c92a4",
"`E c #dcaaa4",
"`F c #8c0204",
"`G c #d4221c",
"`H c #e4dedc",
"`I c #8c96b4",
"`J c #c4ced4",
"`K c #d44244",
"`L c #840204",
"`M c #ac6a6c",
"`N c #e4bebc",
"`O c #7c262c",
"`P c #e4eeec",
"`Q c #94a6c4",
"`R c #d41a1c",
"`S c #e4d6d4",
"`T c #d4d2dc",
"`U c #d46e6c",
"`V c #9c0e14",
"`W c #d40204",
"`X c #8492b4",
"`Y c #c4c6d4",
"`Z c #dc8e8c",
"`0 c #dca29c",
"`1 c #dc3a3c",
"`2 c #d43634",
"`3 c #c40204",
"`4 c #d4d6dc",
"`5 c #bc8a8c",
"`6 c #e4b6b4",
"`7 c #e4eae4",
"`8 c #8c9ebc",
".` c #d41214",
".. c #ccd2d4",
".# c #dc6664",
".a c #a40204",
".b c #dce2e4",
".c c #a4b2c4",
".d c #e4d2d4",
".e c #cc2a2c",
".f c #8496b4",
".g c #c4cad4",
".h c #7c0604",
".i c #84829c",
".j c #bcbecc",
".k c #8c5a64",
".l c #bc0204",
".m c #bc8284",
".n c #84222c",
".o c #849ebc",
".p c #cc1614",
".q c #dcdadc",
".r c #9c0204",
".s c #cc0604",
".t c #dcdee4",
".u c #dc7e7c",
".v c #9caec4",
".w c #e49a9c",
".x c #e4cecc",
".y c #943234",
".z c #d43e3c",
".A c #d40e0c",
".B c #dcaeac",
".C c #e4e2e4",
".D c #840604",
".E c #ac6e6c",
".F c #84262c",
".G c #e4dadc",
".H c #d40604",
".I c #dc9294",
".J c #dca2a4",
".K c #dc3e3c",
".L c #d4dadc",
".M c #e4babc",
".N c #e4eaec",
".O c #ccd2dc",
".P c #dc6a6c",
".Q c #d42a2c",
".R c #8496bc",
".S c #c4cadc",
".T c #000000",
".U c #000000",
".V c #000000",
".W c #000000",
".X c #000000",
".Y c #000000",
".Z c #000000",
".0 c #000000",
".1 c #000000",
".2 c #000000",
".3 c #000000",
".4 c #000000",
".5 c #000000",
".6 c #000000",
".7 c #000000",
".8 c #000000",
"#` c #000000",
"#. c #000000",
"## c #000000",
"#a c #000000",
"#b c #000000",
"#c c #000000",
"#d c #000000",
"#e c #000000",
"#f c #000000",
"#g c #000000",
"#h c #000000",
"#i c #000000",
"#j c #000000",
"#k c #000000",
"#l c #000000",
"#m c #000000",
"#n c #000000",
"#o c #000000",
"#p c #000000",
"#q c #000000",
"#r c #000000",
"#s c #000000",
"#t c #000000",
"#u c #000000",
"#v c #000000",
"#w c #000000",
"#x c #000000",
"#y c #000000",
"#z c #000000",
"#A c #000000",
"#B c #000000",
"#C c #000000",
"#D c #000000",
"#E c #000000",
"#F c #000000",
"#G c #000000",
"#H c #000000",
"#I c #000000",
"#J c #000000",
"#K c #000000",
"#L c #000000",
"#M c #000000",
"#N c #000000",
"#O c #000000",
"#P c #000000",
"#Q c #000000",
"#R c #000000",
"#S c #000000",
"#T c #000000",
"#U c #000000",
"#V c #000000",
"#W c #000000",
"#X c #000000",
"#Y c #000000",
"#Z c #000000",
"#0 c #000000",
"#1 c #000000",
"#2 c #000000",
"#3 c #000000",
"#4 c #000000",
"#5 c #000000",
"#6 c #000000",
"#7 c #000000",
"#8 c #000000",
"a` c #000000",
"a. c #000000",
"a# c #000000",
"aa c #000000",
"ab c #000000",
"ac c #000000",
"ad c #000000",
"ae c #000000",
"af c #000000",
"ag c #000000",
"ah c #000000",
"ai c #000000",
"aj c #000000",
"ak c #000000",
"al c #000000",
"am c #000000",
"an c #000000",
"ao c #000000",
"ap c #000000",
"aq c #000000",
"ar c #000000",
"as c #000000",
"at c #000000",
"au c #000000",
"av c #000000",
"aw c #000000",
"ax c #000000",
"ay c #000000",
"az c #000000",
"aA c #000000",
"aB c #000000",
"aC c #000000",
"aD c #000000",
"aE c #000000",
"aF c #000000",
"aG c #000000",
"aH c #000000",
"aI c #000000",
"aJ c #000000",
"aK c #000000",
"aL c #000000",
"aM c #000000",
"aN c #000000",
"aO c #000000",
"aP c #000000",
"aQ c #000000",
"aR c #000000",
"aS c #000000",
"aT c #000000",
"aU c #000000",
"aV c #000000",
"aW c #000000",
"aX c #000000",
"aY c #000000",
"aZ c #000000",
"a0 c #000000",
"a1 c #000000",
"a2 c #000000",
"a3 c #000000",
"a4 c #000000",
"a5 c #000000",
"a6 c #000000",
"a7 c #000000",
"a8 c #000000",
/* pixels */
"`n.b`h.C.C.C.C.C.C`h.C.C.C`h.C.C.C`h.C`h.C.C.C`h`r`4`n.O..`J`t.O",
"`h.C`h.C`h`h.C`h.C.C.b`h.C`h.C`h.b.C`h.C.C`h.C.C.C`h`h`h.C`h`h`h",
".C`h.C`h.b.C.C.b`h.C`h.C.b.C.C`h.C.C.b`h`h.b.C`h.C`h.b.C`h.C.C.C",
"`h.C.b.C`h.C`h.C.C`h.C.C`h.C.b.C`h.C`h.C.C`h.C.C.b`h.C.C.C.C`h.C",
".C`h.C`h.C.C.b`h.C`h.b.C`H.C.C.C.C.b.C`h.C.C.b`h.C`h.C`h.C`h.C`h",
".C`h.C.C.b.C.C.C.C.C`7`P`P`P`P`P`P`h.C.C.b.C.C.C.C`h.b.C.C.b.C.C",
".C.C.b.C`h`h`h`7`7`7`e`x`0`x`0`x`x`y`P`7`7`7`h`h.C.C`h.C`h.C`h.C",
"`h.C`7`7.G.q`H`x`o`U.e`q.s`3.s`q`3.z`U`U`o.I.G.q`r.C.C.C`h.C.b`h",
".C`h`m`x.z`2`j.``3`q`q`q`3`q`q`3`q`3`q`3`q`l`j`f.m`P.C`h.b`h.C.C",
".C`7`u`W`q`q`q`q`q`q`q`q`q`q`q`q`q`q`q`q`b.r`L```M`7.C.C`H`h`h.C",
".C.N.P`W`W`W`W`W`W`q`q`3`q`3`q`3`3.l.a`p`L```````M`7.C`h`h.C.C`h",
".C`7.I.A`W`W`W`W`W`q`q`W`q`q`W`b`F`F`````L```L``.E`7.C.C.C.b`H`h",
".C`h.G`1`W`W`W`W`W`W`W`W`W`W`W.r`````L`````L`````M`7.C.C`h.C`h.C",
".C`h.G.z`W`W`W`W`W`W`W`W`W`W`W.r```L```L`````L`L.m`7.C.C.C`H`h.C",
".C`h.G.K`W`W`W`W`W`W`W`W`W`W`W.r`````````L````.y`m`h.C`h.C.b`h.C",
".C`h.q`1`W`W`W`W`W`W`W`W`W`W`W.r```L`L```L`````A.j`r.q.C`h`h.C.b",
".C`h`H.#`W`W`W`W`W`W`W`W`W`W`W.a`````L`````L``.n.f`Q`Q.g..`T`h`h",
".C.C`7`e.``W`W`W`W`W`W`W`W`W`W.r```L```L```L``.F`X`i`i`i`i`Q`#..",
".C.C.N.M.``W`W`W`W`W`W`W`W`W`W.a`````````L````.F`X`i`i.f.o.f`v`4",
".C.C`7.M.``W`W`W`W`W`W`W`W`W`W.a```L```L```L```O`X.o.f.o.f`Q.L`h",
".C.C`7`e.A`W`W`W`W`W`W`W`W`W`W.a`````L```````L.n`X`i.f`i`v.L`h.C",
".C.C`h`y`1`W`W`W`W`W`W`W`W`W`W.a```````L```L`z`a.f`i.f`Q.L`h.C.C",
".C.C.C`P`Z`C`W`W`W`W`W`W`W`W`W.a`````L```L`g`.`i`s`8.c.L.C.C.C`h",
"`h.C.C`h.d`E`w.``W`W`W`W`W`W`W.a`````L```g.i`i`i`v`Y`r`h`H`h.C.C",
".C`h.b.C`h`h.C.w.``W`W`W`W`W`W.a`````L`g`..o.c`n.q`h`h.C`h.C`H`h",
".C.C`h.C.C.C`h.C.M.P`R`W`W`W`W.a`````g.i.v`Y.q`h`h.C.C.C.C.b`h.C",
"`h.C.C`H`h.C.C.C`7.C`N.#`G`W`W.a``.n`D`J`r.C`h.C.C.C`H.b`h`H`h.C",
".C.C`h`h.C.C.C`h.C.C`h`7`E.Q`W`V.k`k.b.C.C.C.C.C.b`h.C`h`H`h`h.C",
".C.C.C.C.C`h`H.C.C.C.C.C`h`y.u`d.O`h.C.C.C.C`h.b.C.C.C`h`h.b.C.C",
"`h.C`h`r`h`H`h`h`H`h.C.C.C`7`h.C`h`h.C.C`h.C.C.C`H`h`r`h`H`h.C.C",
".C.C`h.C`h`h.C.C`h`H`h.C.C.C.C.C.C.C.C.C.b.C`h.C.b`h`h.C.C.C`h.C",
".C.C.C`H`h.C`r`h.C`h.C.C.C.C`h.C.C.C`H`h.C.C`H`h`h`H`h`r`h`H.b.C"
};
