/* XPM */
static char * image_name[]={
"45 45 144 2",
"  	c #E8E8E8",
". 	c #F0F0F0",
"X 	c #F7F7F7",
"o 	c #E0E0E0",
"O 	c #CFCFCF",
"+ 	c #C2C2C2",
"@ 	c #C7C7C7",
"# 	c #D9D9D9",
"$ 	c #A1A1A1",
"% 	c #787878",
"& 	c #616161",
"* 	c #4F4F4F",
"= 	c #404040",
"- 	c #474747",
"; 	c #696969",
": 	c #8F8F8F",
"> 	c #B0B0B0",
", 	c #A8A8A8",
"< 	c #575757",
"1 	c #383838",
"2 	c #292929",
"3 	c #171717",
"4 	c #0F0F0F",
"5 	c #1F1F1F",
"6 	c #303030",
"7 	c #080808",
"8 	c #828282",
"9 	c #999999",
"0 	c #B8B8B8",
"q 	c #878787",
"w 	c #F0F8FF",
"e 	c #E0FFFF",
"r 	c #1A1A1A",
"t 	c #8A8A8A",
"y 	c #F5F5F5",
"u 	c #B0E2FF",
"i 	c #87CEFA",
"p 	c #72D5CD",
"a 	c #6B3939",
"s 	c #9BEFF2",
"d 	c #729FFF",
"f 	c #49D4F0",
"g 	c #636363",
"h 	c #D6D6D6",
"j 	c #CCCCCC",
"k 	c #6B6B6B",
"l 	c #424242",
"z 	c #AFEEEE",
"x 	c #D4D4D4",
"c 	c #B6E2CE",
"v 	c #9C9C9C",
"b 	c #9B7071",
"n 	c #525252",
"m 	c #91D2DE",
"M 	c #737373",
"N 	c #7C98D3",
"B 	c #A3A3A3",
"V 	c #030303",
"C 	c #5F929E",
"Z 	c #E5E5E5",
"A 	c #121212",
"S 	c #6A6A8D",
"D 	c #384B66",
"F 	c #F2F2F2",
"G 	c #80B0D0",
"H 	c #778899",
"J 	c #242424",
"K 	c #32BFC1",
"L 	c #363636",
"P 	c #1E90FF",
"I 	c #2F2F64",
"U 	c #B0B8C0",
"Y 	c #EBEBEB",
"T 	c #EDEDED",
"R 	c #666666",
"E 	c #707070",
"W 	c #454545",
"Q 	c #2068A0",
"! 	c #E3E3E3",
"~ 	c #708090",
"^ 	c #509F69",
"/ 	c #2070B0",
"( 	c #2F4F4F",
") 	c #ADADAD",
"_ 	c #B8B8C8",
"` 	c #DBDBDB",
"' 	c #545454",
"] 	c #141414",
"[ 	c #ABABAB",
"{ 	c #B0E0E6",
"} 	c #5C5C5C",
"| 	c #20B2AA",
" .	c #2068B0",
"..	c #A8B8D0",
"X.	c #232375",
"o.	c #5470AA",
"O.	c #1868B0",
"+.	c #205880",
"@.	c #2078B8",
"#.	c #4A4A4A",
"$.	c #2870A8",
"%.	c #B3B3B3",
"&.	c #A0B8D8",
"*.	c #185080",
"=.	c #4955A5",
"-.	c #2070A8",
";.	c #207098",
":.	c #1070C8",
">.	c #1860A0",
",.	c #386088",
"<.	c #1878D0",
"1.	c #206890",
"2.	c #4D4D4D",
"3.	c #55562F",
"4.	c #0D0D0D",
"5.	c #2E2E2E",
"6.	c #286080",
"7.	c #084888",
"8.	c #DEDEDE",
"9.	c #88B0E0",
"0.	c #1068B8",
"q.	c #1C1C1C",
"w.	c #105898",
"e.	c #9E9E9E",
"r.	c #A6A6A6",
"t.	c #084880",
"y.	c #333333",
"u.	c #005098",
"i.	c #0060B0",
"p.	c #0060B8",
"a.	c #0860B8",
"s.	c #0058A0",
"d.	c #0078E0",
"f.	c #2B2B2B",
"g.	c #0068C0",
"h.	c #0060C0",
"j.	c #0058B0",
"k.	c #0078E8",
"l.	c #004888",
"z.	c #0068C8",
"x.	c #0078F0",
"c.	c #004890",
"v.	c #0070E0",
"b.	c #0050A0",
"                                    . . . . . . .                                         ",
"                              . X . o O + + + @ # o . . .                                 ",
"                          .   + $ % & * = - - * ; % : > #                                 ",
"                      .   , < 1 2 3 4 3 3 5 6 1 1 = < % : , @                             ",
"                  .   > < 5 3 7 7 5 * 8 $ > > $ : ; < ; % 9 , 0 #                         ",
"                . # % 2 5 7 4 1 % > # . X X X X . # > q ; ; : > 0 @                       ",
"              . + * 5 4 7 = $ o X X X w e e e e w X X X o > ; ; $ + O o                   ",
"            . 0 = 5 4 r t   X y e e u i i i p i i u e e y X o 9 * : + @ o                 ",
"          . + 1 3 7 a + y e e s i p d d d d d d d d f i u e e w + g q @ O o               ",
"        . O = 3 7 - h e e u i d d d d d d d d d d d d d d i u e e j k 8 O O               ",
"      .   ; 4 4 l h e z i d d d d d d d d d d d d d d d d d d i z e x g : + O             ",
"      . $ 3 4 2 c z s i d d d d d d d d d d d d d d d d d d d d i s z c & , + #           ",
"      # 1 3 4 v s s i d d d d d d d d d d d d d d d d d d d d d d i s s 9 b + 0 o         ",
"    . q 5 7 n m i p d d d d d d d d d d d d d d d d d d d d d d d d i i m M , > @         ",
"    o = 4 r 9 f N N N N N N N N N N N N N N N N N N N N N N N N N N d f f B b > ,         ",
"  . , 5 V - N N C c Z Z Z Z Z Z Z Z Z Z Z Z Z Z Z Z Z Z Z Z Z Z Z   h d d N b 9 9 O       ",
"  X % 3 A S N D S X X X X X X X X X X X X X X X X X X X X X X X X X F G d N H 8 : , .     ",
". o * 7 J C K D k X X X X X X X X X X X X X X X X X X X X X X X X X F N d d C k % q       ",
"  > 1 7 L N P D I U X   X X X X . Y X X X     y X X y . . X X y T X j C d d C R ; E # .   ",
"  : 2 4 W N P Q I > @ D H X X j < ; ! X   R n h X . ~ D @ X X H D U c K d P N ^ k ; @ .   ",
"o ; 5 3 n N P / ( c ) I R X X _ I ( ` X o I I j X Z ' ] U X . ' r [ { P P P K S ; & 0 .   ",
"# * 3 3 } | P  .I U ..X.; X X @ D D ` X ! D ( O X Y S I _ X X o.I > { P P P P k g < > .   ",
"# * 3 3 n | P O.( U m X.g X X j D D o X ! +.( j X Y S I U X X o.X.> x P P P @.g ' < , .   ",
"o & 5 A #.$.P O.I %.&.X.} X X j X.D ! X ! *.I j X Y =.r > X X o.X.%.{ P P P -.' l * , .   ",
"o 8 2 4 ( ;.:.>.I > c D S X X O D & Z X   ,.D h X   o.I c X X ~ ( U { P P <.1.2.3.< 0 .   ",
"  9 6 4.5.6.7.C O Y F ! Y X X X o Z X X X ! 8.y X X Z ! F X X   8.. T 8.9.0.D - = & @ .   ",
"  @ - 7 q.( I : X X X X X X X X X X X X X X X X X X X X X X X X X X X X { w.( 3.- ; o     ",
"    ; 4 3 6 q.' $ $ $ e.$ e.$ $ $ $ $ e.$ $ e.$ $ $ $ e.e.e.e.e.$ $ $ r.C D ( 1 - q .     ",
"  X : 5 A J I I X.X.X.X.X.X.I I I X.I X.X.X.X.X.I I X.X.X.X.X.X.X.X.X.( t.D y.1 * > .     ",
"  . @ 1 4 3 I X.u.i.p.p.p.i.i.p.p.p.p.p.p.p.p.p.p.p.p.a.p.p.a.p.p.p.i.s.D I 6 = < #       ",
"    . & 5 4 J I s.d.P P P P P P P P P P P P P P P P P P P P P P P P d.u.I f.1 = 8         ",
"    . 0 2 3 3 2 X.p.P P P P P P P P P P P P P P P P P P P P P P P P i.X.J 2 = * @ .       ",
"        ; 5 3 r J X.g.P P P P P P P P P P P P P P P P P P P P P P g.X.J 5 6 1 q           ",
"      . @ 1 3 4 q.5 X.g.P P P P P P P P P P P P P P P P P P P P h.X.J 5 6 6 < O .         ",
"        . $ 5 3 4 q.J X.j.k.P P P P P P P P P P P P P P P P k.i.X.q.q.2 1 1 , .           ",
"        .   8 5 3 A q.5 I l.z.P P P P P P P P P P P P P x.z.l.I r q.5 f.6 q               ",
"          . o E 5 3 3 q.5 q.X.c.h.v.P P P P P P P P d.g.l.X.r q.q.5 5 2 %                 ",
"                % 2 3 3 3 q.q.r I X.l.b.j.p.p.j.b.l.X.I q.q.5 3 3 3 5 8   .               ",
"                . 9 6 3 3 3 3 r 5 5 r r q.I I q.q.r J q.J r 3 3 3 6 9 .                   ",
"                  . + & 5 5 3 3 A 3 q.q.r r r r q.r 3 4 4 4 3 3 & @ .                     ",
"                    . o , < 2 5 3 3 3 4 4 3 3 3 4 4.7 4 4 3 - ,   .                       ",
"                        .   0 % - 1 2 r 3 3 4 3 3 5 2 = E 0 o .                           ",
"                            . . o + 9 E & * * & ; : + o . .                               ",
"                                  . . o o O O # o . .                                     ",
"                                      . . . . . .                                         "
};
