/* XPM */
static char *ntps_icons_xpm[] = {
/* width height num_colors chars_per_pixel */
"    32    32      256            2",
/* colors */
"`` c #000000",
"`. c #ffffff",
"`# c #e2d9da",
"`a c #e5e4e5",
"`b c #cecdce",
"`c c #eae7ed",
"`d c #ecebed",
"`e c #e5e4e6",
"`f c #cccbcd",
"`g c #dcdbe2",
"`h c #e6e6eb",
"`i c #dadadf",
"`j c #777779",
"`k c #c9c9cc",
"`l c #9f9fa1",
"`m c #868688",
"`n c #f2f2f3",
"`o c #ededee",
"`p c #e6e6e7",
"`q c #e3e3e4",
"`r c #d8d8d9",
"`s c #d7d7d8",
"`t c #d5d5d6",
"`u c #c9c9ca",
"`v c #c8c8c9",
"`w c #c7c7c8",
"`x c #c3c3c4",
"`y c #b3b3b4",
"`z c #acacad",
"`A c #a5a5a6",
"`B c #989899",
"`C c #dbdef3",
"`D c #d2d5e9",
"`E c #cdcfdd",
"`F c #d4d5dd",
"`G c #d6d7de",
"`H c #c5c6cd",
"`I c #e9eaf1",
"`J c #9ca1be",
"`K c #989cb3",
"`L c #d4d8ef",
"`M c #d1d5eb",
"`N c #dce0f6",
"`O c #d6daf0",
"`P c #c8cbde",
"`Q c #c6c9db",
"`R c #cccfe1",
"`S c #cbcee0",
"`T c #cacdde",
"`U c #cdd0e1",
"`V c #cbcedf",
"`W c #dbddea",
"`X c #d1d3df",
"`Y c #dee0ec",
"`Z c #e8eaf6",
"`0 c #d5d6dc",
"`1 c #d4d5db",
"`2 c #d3d4da",
"`3 c #d0d1d7",
"`4 c #828bb6",
"`5 c #7880a8",
"`6 c #a6afde",
"`7 c #747a99",
"`8 c #868ca8",
".` c #c1c9f0",
".. c #7c8198",
".# c #b0b6d6",
".a c #81869d",
".b c #bfc5e5",
".c c #c9cfed",
".d c #dae0fc",
".e c #d0d5f0",
".f c #ced3ee",
".g c #d3d8f3",
".h c #a4a8bd",
".i c #d6dbf4",
".j c #d5daf3",
".k c #d4d9f2",
".l c #b3b7cc",
".m c #dbe0f9",
".n c #d6dbf3",
".o c #d4d9f0",
".p c #dfe4fb",
".q c #d0d4e9",
".r c #cfd3e8",
".s c #d3d7eb",
".t c #ced2e6",
".u c #d5d9ed",
".v c #cdd1e4",
".w c #d9ddf0",
".x c #d7dbee",
".y c #cacddd",
".z c #c9ccdc",
".A c #d2d5e5",
".B c #d7daea",
".C c #d0d3e2",
".D c #d6d9e8",
".E c #ced1df",
".F c #e4e7f6",
".G c #65666b",
".H c #d5d6db",
".I c #cacbd0",
".J c #d6d7dc",
".K c #8894c9",
".L c #7c86b0",
".M c #8b94bc",
".N c #b3bde5",
".O c #6d738b",
".P c #a2a9c7",
".Q c #d3d9f4",
".R c #c9cfe8",
".S c #c4cae3",
".T c #dde3fe",
".U c #d7ddf6",
".V c #d9dff8",
".W c #e1e7ff",
".X c #d2d7ed",
".Y c #cbd0e5",
".Z c #ccd0e2",
".0 c #bfc3d3",
".1 c #d3d7e8",
".2 c #cfd3e3",
".3 c #cacdda",
".4 c #dadce5",
".5 c #ced0d9",
".6 c #d2d4dc",
".7 c #ccced6",
".8 c #cdced2",
"#` c #d4d5d9",
"#. c #7181b8",
"## c #586288",
"#a c #666e8c",
"#b c #c3cced",
"#c c #cbd4f4",
"#d c #d4dcfa",
"#e c #4e515c",
"#f c #dee5ff",
"#g c #bfc5db",
"#h c #d3d9ee",
"#i c #e4eaff",
"#j c #d1d6e9",
"#k c #cfd2dd",
"#l c #d2d5e0",
"#m c #00061a",
"#n c #68759d",
"#o c #abb3ce",
"#p c #bbc1d5",
"#q c #d3d7e4",
"#r c #a5b1d4",
"#s c #8d94a9",
"#t c #e9efff",
"#u c #d1d3d9",
"#v c #c7c8cb",
"#w c #f4f5f8",
"#x c #1d2946",
"#y c #697baa",
"#z c #4b556f",
"#A c #ced0d5",
"#B c #caccd1",
"#C c #020c23",
"#D c #0d1830",
"#E c #3a5898",
"#F c #324571",
"#G c #3e5689",
"#H c #476199",
"#I c #2f3950",
"#J c #768dbf",
"#K c #93a5cd",
"#L c #03102b",
"#M c #061d4d",
"#N c #0c358a",
"#O c #071738",
"#P c #051128",
"#Q c #184bb2",
"#R c #112f6c",
"#S c #0e2655",
"#T c #2b68e4",
"#U c #0a162f",
"#V c #326ee7",
"#W c #1f438d",
"#X c #3571ec",
"#Y c #1b3a79",
"#Z c #376ad4",
"#0 c #1b3365",
"#1 c #335baf",
"#2 c #2b4e94",
"#3 c #12203d",
"#4 c #3761b6",
"#5 c #284684",
"#6 c #243d71",
"#7 c #5281e3",
"#8 c #5a84d9",
"a` c #374f80",
"a. c #4b67a2",
"a# c #7799e0",
"aa c #d7d8da",
"ab c #cccdcf",
"ac c #cacbcd",
"ad c #091429",
"ae c #eef4ff",
"af c #f0f2f5",
"ag c #d8d9da",
"ah c #c9cbcc",
"ai c #e4e8e9",
"aj c #ebeeee",
"ak c #f0f2f2",
"al c #f3f4f4",
"am c #e3e4e4",
"an c #dfe0e0",
"ao c #cfd0d0",
"ap c #d2d6d5",
"aq c #e8ebe9",
"ar c #bcc3bd",
"as c #c5d8c2",
"at c #9aa698",
"au c #dee2dc",
"av c #80c349",
"aw c #b5caa2",
"ax c #ddddd0",
"ay c #f6f6f5",
"az c #ededec",
"aA c #ececeb",
"aB c #eaeae9",
"aC c #e8e8e7",
"aD c #dadad9",
"aE c #cacac9",
"aF c #cccbc8",
"aG c #eab746",
"aH c #cfcecc",
"aI c #e9c693",
"aJ c #e7e6e5",
"aK c #e0cdc3",
"aL c #dddbda",
"aM c #d4cecc",
"aN c #bda09b",
"aO c #d9675c",
"aP c #d6acac",
"aQ c #e8e1e1",
"aR c #eeeded",
"aS c #cecdcd",
"aT c #fafafa",
"aU c #f4f4f4",
"aV c #f1f1f1",
"aW c #eeeeee",
"aX c #ebebeb",
"aY c #e9e9e9",
"aZ c #e8e8e8",
"a0 c #e3e3e3",
"a1 c #dcdcdc",
"a2 c #dadada",
"a3 c #d2d2d2",
"a4 c #cccccc",
"a5 c #cacaca",
"a6 c #bababa",
"a7 c #939393",
"a8 c #000000",
/* pixels */
"ayaU`naVayaUaV`n`naUaVaVaVaV`naVaV`n`n`n`naVaV`nafah`u`daUakajal",
"`pa1aAaTa1anaTaVaZan`.aTaTaTaXayaT`n`p`qaY`naUaQaNaKapataoaMaNaL",
"`xa7`y`y.G`m`ya7`B`A`Aar`y`z`ja6a3`z`y`z`zayakaKaGaIaravawaPaOaP",
"`x`j`m`m.G`A`j`j`B`j#e`j.G`m.G`l`l`A`y`A`zaT#waKaGaIasavawaPaOaK",
"aVaDa3ab`xaY`f`x`y`x`xa5`x`f`x`san`a`r`fanayayaAawaxaqawau`#aP`a",
"`p`p`paYaz`aaXana0aBaYaZaYaZazaZ`paY`paC`aa0a0`a`h`pa0`c`eamai`p",
"`pa0`pa3aoa6a6a2`aa0a0a0amana6a6`za5a0ama0a0a0ama0a6`Aa5a0amam`p",
"aBaZaW`x`Ba7a7araWaZaZaZaYaZ`Aa7`Ba7`paBaZaZaZaB`a`A`m`Ba2aXaZaB",
"aWaWaWaY`paAaB`caWaWaX`oaWaWaAaZaAaBaRaW`oaAaWaWaWazaAaA`oaWaW`o",
"a0`t`s`raDaLa2ag`rag`s`t`s`s`r`ragag`r`raa`t`s`s`s`ragag`r`rag`s",
"`r`xaEaMa5#o`HaM`fac`f`w`v`u`u`u`k`k`kacac`u`w`v`u`u`ua5`k`kacab",
"`raF#v#K#8#T#7#raoaHac`w`va5a4aHaH`f`f`f`f`k`v`ua5`faSa4`f`f`f`b",
"aL.P#7#T#T#T#T#Va#.0aS`v`kab#B#p#p.8.8abab`k`kacaba3#Ba3aoabab`b",
"a0#z#N#V#V#V#V#V#Q#y`t.I.8`t#J#Z#7a#`3`3#Aab#B.7`3.K#7a##u`3#A#A",
"`h.G#m#W#V#X#Z#2#S#n`i.7`2#p#5#1#8#1#g`F#u#A.7.J#o#W#8#Z#K`i#k#u",
"`I.O#m#C#0#4a`#6#R.L`g.5.4`8#O#0#0#R#K.4`X.5`E.4#a#M#6#Ya.#q#l.6",
"`I..#m#Pad#F#Ga`#Y.M.4`X.B#e#C#O#O#M#y`W#q#k.A.C#I#L#O#M#5.Z.D#l",
"`I#s#C#P#Ua`#H#G#W#K`g.A.x#e#mad#U#S#G#h.D`X.B#j#I#Cad#3#6.R.w#q",
"`Z`J#P#P#Ua`#H#E#5#r`W.1.W#s#P#3#3#6#J.W.u.A`O.p#z#P#3#0a..U`N.D",
"`Z#oad#P#Ua`#H#E#2.N.w`O.W.X#x#3#S#5.f#i.i`D.Vae#s#L#3#R#J#t.T.B",
"`Z#g#D#P#U#F#E#2#2#b`C.U#i#d#I#C#M#H#t#i.V.u.d#i#b#x#O#Y.bae#f.x",
".F.##I#C#U#6#5#W#E#c`C.V#d`6###F#F#..W#i.m`O.T#d`6#ya`#.#c#t.W.w",
".2`8#a#3#L#0#Y#5`4.f.n.V#b.M`4.K.K.K.`.W.m`O.T.b`4.K.K.K.N.W.W.w",
".0`7`7###D#S#5#n`J.c.x.U.c.M`5.L.L.M#b#f.U.u.d.b`4`5.L.M.N#f.T.x",
"`E`8.O`7#z#0#n`8#o.e.s`O.e.P`5`5.L#r#d.T.n.s.U.c`J`5.L.P#c.T.V.B",
"`W.P..#a#a#a`8.P.R.j.1.X.k.b.P.P.#.c.d.U`L.A.o.Q.b#o.##b.d.V.n.1",
"`Y#g`K.O#a..`J.S`L.X.2.r.X.o.e.f.g.U.j`L`D.2`M`L.i.g.g.U.i.k.X.A",
"`Y.Y.l.a`7`K#p`M`M.r.E`U.r`M.X`L`L.X`M`D.t.E.t.q.X`L.o#h.X`M.q.C",
".4`R`Q.h`K.l.Y.q.t.v`E`V.Z.t.r.q.q.r.r.v`U`E`R.v.t.r.q.q.r.t.v.E",
".4`P`S.0#p`P.v.Z`R`V.3.z`T`R.Z.Z.Z.Z.Z`S`V.3.z`S`R.Z.Z.Z.Z`R`S`E",
".4`Q.y`V`T`S`R`S`T.y.3.3.z`V`V`S`S`S`V`T.y.3.z.y`V`S`R`S`S`V`T.3",
"an`2.H.H`0`0`0.H.H.H#``1`1.H.H`0`0`0.H.H`1`2.H.H.H.H`0`0.H.H`0.J"
};
