/* XPM */
static char * null_xpm[] = {
"32 32 220 2",
"  	c #5BA7CB",
". 	c #61B6D7",
"+ 	c #6CBCD9",
"@ 	c #8EC4DD",
"# 	c #69A4C6",
"$ 	c #ABD7EA",
"% 	c #96D5EA",
"& 	c #74C0DB",
"* 	c #468CB9",
"= 	c #619CBD",
"- 	c #F2A964",
"; 	c #E49042",
"> 	c #788693",
", 	c #67A0B4",
"' 	c #95C8C8",
") 	c #7BB6D0",
"! 	c #BADEED",
"~ 	c #96CAE2",
"{ 	c #3E7DAE",
"] 	c #6CC0DB",
"^ 	c #A0D1E5",
"/ 	c #ADDEEE",
"( 	c #67AECD",
"_ 	c #98A3AA",
": 	c #BA5421",
"< 	c #E44914",
"[ 	c #C66736",
"} 	c #5695BC",
"| 	c #74A3BC",
"1 	c #B2D3CB",
"2 	c #D6EAFC",
"3 	c #3E6A9B",
"4 	c #A6CFE2",
"5 	c #79AEC8",
"6 	c #C0897B",
"7 	c #EA6422",
"8 	c #EB5918",
"9 	c #AA411D",
"0 	c #638BAB",
"a 	c #CDE0CA",
"b 	c #96BDB6",
"c 	c #A0C6DD",
"d 	c #F1FDFF",
"e 	c #31517D",
"f 	c #9BCAE0",
"g 	c #A1C8DA",
"h 	c #89B1C9",
"i 	c #D18C59",
"j 	c #D14618",
"k 	c #8C8993",
"l 	c #C9CFBE",
"m 	c #AEC7B2",
"n 	c #B8D1E1",
"o 	c #E2F0F6",
"p 	c #91B6CE",
"q 	c #8CBED7",
"r 	c #D1E0EA",
"s 	c #ADC7D7",
"t 	c #8EABC0",
"u 	c #BD6C5F",
"v 	c #F48E2F",
"w 	c #A65E30",
"x 	c #967663",
"y 	c #7696B0",
"z 	c #CACFCE",
"A 	c #5B7495",
"B 	c #B5A6A6",
"C 	c #FF7112",
"D 	c #F43E05",
"E 	c #FF520D",
"F 	c #E63604",
"G 	c #C1C7BC",
"H 	c #C1CAAE",
"I 	c #98B2B1",
"J 	c #A4BDCA",
"K 	c #A0B4C6",
"L 	c #BACBD7",
"M 	c #BE9E96",
"N 	c #F87120",
"O 	c #FFBC7D",
"P 	c #8C98AA",
"Q 	c #B6B8BC",
"R 	c #BDC2AD",
"S 	c #3F546F",
"T 	c #B8C1CE",
"U 	c #CFD7E0",
"V 	c #A4AAB5",
"W 	c #F2EFDA",
"X 	c #E2E7DE",
"Y 	c #515F79",
"Z 	c #5C6679",
"` 	c #FADBA6",
" .	c #B17F5F",
"..	c #FFFFFF",
"+.	c #E1E2D1",
"@.	c #ABA1A3",
"#.	c #A198A1",
"$.	c #8B9B9B",
"%.	c #5E5F6F",
"&.	c #6C6471",
"*.	c #917F84",
"=.	c #A68B90",
"-.	c #F6EDC6",
";.	c #AAD6D8",
">.	c #C3BE99",
",.	c #D1C0BE",
"'.	c #585558",
").	c #525B6E",
"!.	c #826669",
"~.	c #C9A7A3",
"{.	c #A98482",
"].	c #FCFFFE",
"^.	c #CECBAA",
"/.	c #D3BD90",
"(.	c #E9DEB1",
"_.	c #AE9899",
":.	c #BEB1B2",
"<.	c #7B717B",
"[.	c #86767D",
"}.	c #9E7B79",
"|.	c #D3B8B1",
"1.	c #FDFBEB",
"2.	c #E5CDBD",
"3.	c #6F5C5F",
"4.	c #A08684",
"5.	c #B18479",
"6.	c #E3B4A1",
"7.	c #FFDEA4",
"8.	c #F4D7C0",
"9.	c #BEBA76",
"0.	c #DAA996",
"a.	c #CDA091",
"b.	c #875E59",
"c.	c #B99082",
"d.	c #CA8C76",
"e.	c #F4B890",
"f.	c #E1916A",
"g.	c #C89582",
"h.	c #A1645C",
"i.	c #D49379",
"j.	c #FE6E22",
"k.	c #E37837",
"l.	c #ECAE91",
"m.	c #CF8267",
"n.	c #D9866C",
"o.	c #FBD5B8",
"p.	c #F5A676",
"q.	c #D33609",
"r.	c #F8CFB1",
"s.	c #F2B99B",
"t.	c #C87D69",
"u.	c #EA8B63",
"v.	c #FFCDA0",
"w.	c #FE8E2B",
"x.	c #FF933D",
"y.	c #FFAD63",
"z.	c #FE5F15",
"A.	c #F1470E",
"B.	c #EFA46F",
"C.	c #FBC098",
"D.	c #FAB68C",
"E.	c #D17459",
"F.	c #DC7F5E",
"G.	c #E47B56",
"H.	c #EF916A",
"I.	c #F58958",
"J.	c #FBA784",
"K.	c #FFC063",
"L.	c #FF9E1C",
"M.	c #FFC195",
"N.	c #FEBC8B",
"O.	c #FCBD93",
"P.	c #F17F55",
"Q.	c #FA864F",
"R.	c #FC915B",
"S.	c #FF914A",
"T.	c #C31D03",
"U.	c #FFB576",
"V.	c #FEA03D",
"W.	c #FFBC84",
"X.	c #FE8647",
"Y.	c #FF843E",
"Z.	c #FF9B56",
"`.	c #FFB55F",
" +	c #F96C31",
".+	c #FFE4BA",
"++	c #FDF2D8",
"@+	c #FFC087",
"#+	c #E08E84",
"$+	c #F79869",
"%+	c #FEF1B8",
"&+	c #FACE98",
"*+	c #FFB56A",
"=+	c #FBE1C9",
"-+	c #E0A461",
";+	c #F19884",
">+	c #FFD182",
",+	c #FFE18C",
"'+	c #FFA771",
")+	c #FFA163",
"!+	c #FFA74B",
"~+	c #FFED90",
"{+	c #EACD95",
"]+	c #FFB67B",
"^+	c #FFC29B",
"/+	c #D3D3D3",
"(+	c #060606",
"_+	c #A9A9A9",
":+	c #3F3F3F",
"<+	c #C0C0C0",
"[+	c #717171",
"}+	c #E3E3E3",
"|+	c #F0F0F0",
"1+	c #1C1C1C",
"2+	c #8E8E8E",
"3+	c #565656",
"4+	c #F9F9F9",
"5+	c #0F0F0F",
"6+	c #2C2C2C",
"7+	c #000000",
"  . . . . + @ # $ % % &   * = - ; > * * *   , ' ) * * ! ~ { * * ",
"] ] ] + + ^ ) ^ ^ ~ / @ (   _ : < [ } } * ( | 1 1 } { } 2 $ * 3 ",
"] & & . @ ~ 4 $ ) ^ ! @ 5   6 7 8 9 | # 0 # , 1 a b , { c d @ e ",
"+ & ( ) f f ! ) 5 4 ! g h 5 i : j [ k # 0 5 , l a m b , = n o p ",
"( ( # q q ! 4 5 h n r s h t ; u v w x | y 5 y z l m m b 3 A r r ",
"} = ) q g n p p p n r s h B C D E F w | y t y G l H l I e e h 2 ",
"= 5 h p n J J K K L r L K M N O i v [ P P K P I Q R H > S e 3 n ",
"| h p n s J J T T U r T V r W X d o n V _ Q P _ P _ V Y S S Y t ",
"| 0 A A Y Y Y Z Z V U z Q o `  ...L +.J @.Q #._ P _ P S S Z $._ ",
"S S Y Y Y Z %.%.&.*.B =.z ..W -...;.>.Q B ,.@.#.#.V k '.).A $.$.",
"S Y Y ).%.&.&.&.!.=.~.{.B ].^./.W +.(.n ~.,.M _._.:.*.'.&.k > > ",
").).%.&.<.[.*.}.}.M |.M l (.d 1.+.X X 2 |.2.~.M M |.}.3.[.k k > ",
"%.&.[.*.4.4.{.5.5.~.2.6.W -.7.` 8.i 9.J ,.2.0.a.M |.5.b.4.4.*.k ",
"<.*.*.}.{.c.c.6 d.0.2.e.[ N 8 7 i 7 v 7 f.8.0.0.a.6.g.h.5.{.4.4.",
"[.4.{.5.5.6 d.i.i.6.8.- 7 j.j j N v : 8 k.8.l.l.0.6.0.u 6 c.c.{.",
"!.}.5.6 d.m.m.n.f.l.o.v j.p.q.9 j.N f.< F r.e.s.l.l.6.t.d.g.6 5.",
"h.h.u t.n.n.f.u.u.p.v.w.x.y.z.A.x.8 [ k.F B.C.D.e.e.s.f.n.d.t. .",
"u u E.E.F.G.u.H.I.J.K.L.8 8 A.F w.A.j < q.k.M.N.O.D.e.e.F.E.E.t.",
"t.F.G.G.G.P.P.Q.R.y.w.C x.S.T.T.j.N A.U.V.j W.W.W.N.D.C.B.G.F.m.",
"n.u.u.P.P.Q.Q.X.Y.Z.`.V.K. +j M..+++i  +N 7 Z.@+O @+@+N.C.H.G.F.",
"#+#+H.$+R.R.S.S.Y.v.1.%+1.k.&+*+< =+.+-+o.>.- *+U.O @+@+M.O.H.G.",
";+;+$+$+R.Z.Z.Z.S.o.>+,+=+].(.&+7.o o.e.X .+o.`.*+*+U.O W.M.M.p.",
"J.J.J.'+)+Z.Z.!+y.1.1.++W ..-.~+~+1.R {+J {+|.K.K.`.*+*+U.]+^+v.",
"................................................................",
"......................../+(+_+..................................",
"........................:+<+..[+/+..............................",
"..............}+:+:+|+}+(+1+}+(+1+}+}+:+2+.._+_+[+..............",
"..............|+/+2+3+4+1+2+4+1+2+4+5+/+:+<+2+1+_+..............",
"..............}+6+1+6+..6+/+..6+/+/+7+7+7+2+2+2+................",
"..............:+<+<+6+..6+/+..6+/+|+5+4+....2+2+................",
".............._+7+3+6+..6+/+..2+7+/+2+(+(+}+2+2+................",
"................................................................"};
