/* XPM */
static char *magick[] = {
/* columns rows colors chars-per-pixel */
"32 32 230 2",
"   c Gray0",
".  c #020202",
"X  c #040404",
"o  c #1d1d1d",
"O  c #1e1e1e",
"+  c #1b2f16",
"@  c #1b3215",
"#  c #1c3119",
"$  c #1f361b",
"%  c #203417",
"&  c #243216",
"*  c #243717",
"=  c #22331b",
"-  c #22371a",
";  c #263619",
":  c #25351d",
">  c #22391d",
",  c #233b1c",
"<  c #263d1d",
"1  c #293f1d",
"2  c #2a3c1d",
"3  c #273520",
"4  c #263a21",
"5  c #263e20",
"6  c #2a3623",
"7  c #283922",
"8  c #293f21",
"9  c #2a3f24",
"0  c #2e3e25",
"q  c #302e25",
"w  c #323425",
"e  c #333228",
"r  c #323b26",
"t  c #333d2a",
"y  c #3f3d31",
"u  c #24411e",
"i  c #25451e",
"p  c #2c431e",
"a  c #264421",
"s  c #2a4122",
"d  c #2a4625",
"f  c #2d4121",
"g  c #2c4224",
"h  c #2d4623",
"j  c #2d4329",
"k  c #2f432c",
"l  c #2e4629",
"z  c #2f452d",
"x  c #294a21",
"c  c #2c4a24",
"v  c #2e4a26",
"b  c #2e4929",
"n  c #2e4e2a",
"m  c #2d552a",
"M  c #304225",
"N  c #314627",
"B  c #324529",
"V  c #344229",
"C  c #314925",
"Z  c #344925",
"A  c #314a29",
"S  c #324a2d",
"D  c #314d29",
"F  c #35492a",
"G  c #364b2d",
"H  c #354d29",
"J  c #39472e",
"K  c #394b2c",
"L  c #394e2a",
"P  c #384f2e",
"I  c #3c4a2e",
"U  c #334b31",
"Y  c #364e30",
"T  c #3c4433",
"R  c #3b4c33",
"E  c #3c4f30",
"W  c #335226",
"Q  c #32512a",
"!  c #33532c",
"~  c #36522e",
"^  c #35552b",
"/  c #3a552f",
"(  c #3c532e",
")  c #3d562a",
"_  c #325530",
"`  c #365231",
"'  c #395231",
"]  c #3a5631",
"[  c #3d5334",
"{  c #3f5531",
"}  c #3c5634",
"|  c #3e5339",
" . c #3b5a33",
".. c #3c5b38",
"X. c #3e643c",
"o. c #403c2f",
"O. c #423f33",
"+. c #414333",
"@. c #464536",
"#. c #44443f",
"$. c #424a33",
"%. c #404e39",
"&. c #474c38",
"*. c #444c3c",
"=. c #4c4c3a",
"-. c #40572e",
";. c #405c2f",
":. c #405532",
">. c #425534",
",. c #43533b",
"<. c #43573c",
"1. c #425b34",
"2. c #415a39",
"3. c #425e3e",
"4. c #455a3e",
"5. c #465e39",
"6. c #48543e",
"7. c #416137",
"8. c #49643e",
"9. c #4c6b3e",
"0. c #444440",
"q. c #484640",
"w. c #4f4d43",
"e. c #445440",
"r. c #465b42",
"t. c #475b44",
"y. c #4b5444",
"u. c #4b5b43",
"i. c #4b5c44",
"p. c #4d5c4a",
"a. c #4e5d49",
"s. c #57574d",
"d. c #515e4b",
"f. c #59564d",
"g. c #5f5c46",
"h. c #555553",
"j. c #525b51",
"k. c #5a5b53",
"l. c #5d5d59",
"z. c #436442",
"x. c #466142",
"c. c #476045",
"v. c #4a6242",
"b. c #4a6045",
"n. c #4b6443",
"m. c #4d6446",
"M. c #4b634a",
"N. c #4e614a",
"B. c #4f604c",
"V. c #4d6b44",
"C. c #4f6b4b",
"Z. c #52614e",
"A. c #51654c",
"S. c #55654f",
"D. c #5c6e4d",
"F. c #566551",
"G. c #5a6353",
"H. c #5a6a55",
"J. c #5b6f50",
"K. c #5e685b",
"L. c #5e6b5c",
"P. c #5c7254",
"I. c #5d7359",
"U. c #636152",
"Y. c #62665b",
"T. c #64625b",
"R. c #686a5e",
"E. c #63715e",
"W. c #63775f",
"Q. c #63795e",
"!. c #646f60",
"~. c #6a6963",
"^. c #6b6b68",
"/. c #6f6d68",
"(. c #677162",
"). c #657463",
"_. c #657964",
"`. c #687366",
"'. c #6a7566",
"]. c #6e7768",
"[. c #6e766d",
"{. c #697a66",
"}. c #6a7c64",
"|. c #6d7a6d",
" X c #6e7e69",
".X c #726f67",
"XX c #71706c",
"oX c #707d6f",
"OX c #717171",
"+X c #747c73",
"@X c #7c7b79",
"#X c #7d7e7a",
"$X c #6e806b",
"%X c #758274",
"&X c #7a8176",
"*X c #7b8477",
"=X c #7a8479",
"-X c #7d867b",
";X c #7e897f",
":X c #448ccb",
">X c #80877f",
",X c #84837f",
"<X c #81897f",
"1X c #858784",
"2X c #838c83",
"3X c #858a83",
"4X c #898d86",
"5X c #898b89",
"6X c #8b8d8a",
"7X c #8b9189",
"8X c #8c918a",
"9X c #8e918e",
"0X c #90918f",
"qX c #90948f",
"wX c #919391",
"eX c #929592",
"rX c #949692",
"tX c #959695",
"yX c #969996",
"uX c #989a97",
"iX c #999a99",
"pX c #9b9c9b",
"aX c #9c9d9a",
"sX c #a0a09f",
"dX c #a0a0a0",
"fX c #a4a1a1",
"gX c #91c4f0",
"hX c #cfcbcb",
"jX c #ece9e9",
"kX c Gray100",
/* pixels */
"dXdXdXdXdXdXdXdXdXdXdXdX7XdXdXdXdXdXdXtX3X2XeXo o X o   dXdXdXdX",
"dXdXdXdXdXdXdXdXdXdX[.-XN.9XtXdXtX%XdXI.[     fXhX:XgXgX    dXdX",
"dXdXdXdXdXdXdXdXyX`.B.G ( t.'.pXA.g d.4.  fXhXjXkX:XgXgXgXgX  dX",
"dXdXdXdXdXdXdXdX9XA A ! 7.A 1.-Xn.c c `   hXjXkXkX:XgXgXgXgX  dX",
"dXdXdXdXdX[.3X(.F.h b i 2.B 9 3XC.F A   fXjXkXkXkX:XgXgXgXgXgX  ",
"dXdXdXdXdX|.Z.~ b h D 1 A Y G d 5 > @   hXkXkXkXkX:XgXgXgXgXgX  ",
"dXdXdX5X|.].f ..c.# c 5 8 h % > - = @   :X:X:X:X:X:XgXgXgXgXgX  ",
"dXdXdXyXV.H c A d 8 > U l d - & < < c   gXgXgXgXgXgXgXgXgXgXgX  ",
"dXdXdXdXrX5X3.D h D - h F a > u < > ^   gXgXgXgXgXgXgXgXgXgXgX  ",
"dXdXdXdXdXdX=Xx.[ P N F * 4 k 7 3 ; f ]   gXgXgXgXgXgXgXgXgX  dX",
"dXdXdXdXdXdX-X}.z.Q B %.Y *.; u > = x 7   gXgXgXgXgXgXgXgXgX  dX",
"dXdXdXdXdXdX*X5...c.S B 0 : 3 s A p d 8 8     gXgXgXgXgX    b.iX",
"dXdXdXdXdXdXeXi.h g > F s p K t D G p N ` M c           4.3XeXdX",
"dXwXwXdXdX+XL.{.z.M 5 G F [ L w I E $ u i M B f G H H Y t.Z.wXdX",
"dX6X8. XE.H.,.n C.j a g l 6.f : V w.'.a.U.$.B i S H.r.K.c (.3XwX",
"dX7X8.G r.N 1 < 1 : 1 1 U 6.9 A T L.t R g.&.i e.`.iXOXoX..2.r.I.",
"'.v.| Y ` _ _ z > $ : = Z.R.T +.s.[.: 0 *.' J.>XyX X{.> c ) Z 4X",
"9X5.N S m >.~ x.G > c T 9X.X@.+.t K.= > u.` C E.} :./ 1.2.V.[ t.",
"|.I.M.!.P.W L [ j r : s.eXY.*.@.6.t A -.n. .^ 5.{ ! P 8.i._.n.-X",
"dXeXi.).a./ G s : 9 Y.#.y.G.r O.e #X4.X.%XW.~ S.8X;X'.;.` { 1.r.",
"dXdX9XdXOX+X&XF.| 4 7 6 R k.=.y ~.aX .n.9XyXV.Q I.dXsX7X$Xn.).yX",
"dXdXdXdXdXK.R e.1Xj.y.3 <.E =.U.5XdXA.S.eXOXQ.Q E.iXdXdXaX%XH.dX",
"dXsXeXyX5XH.S.+ Y d.pX*.$.H ( 4XdXOXP.n.4XdXpXC.v.<XdXdXdXdXOXdX",
"dX=X5.b.N F J B a.@Xl.0.q +.%.uXdXOXiX5XOXdXdXQ.}.eXdXdXdXdXdXdX",
"OX(.{.}.:.' [ {.OXdXdXdXh.e #.dXdXdXdXdXdXdXdXOXpXdXdXdXdXdXdXdX",
"dXdXdXa.~ 3XeXdXdXdXdXdX,Xo.XXdXdXdXdXdXdXdXdXdXdXdXdXdXdXdXdXdX",
"dXdXdXD.9.9XdXdXdXdXdXdX/.y iXdXdXdXdXdXdXdXdXdXdXdXdXdXdXdXdXdX",
"dXdXdX_.2XdXdXdXdXdXdXdXk.q.dXdXdXdXdXdXdXdXdXdXdXdXdXdXdXdXdXdX",
"dXdXdX7XdXdXdXdXdXdXdX0X@.T.dXdXdXdXdXdXdXdXdXdXdXdXdXdXdXdXdXdX",
"dXdXdXdXdXdXdXdXdXdXdX^.O.k.dXdXdXdXdXdXdXdXdXdXdXdXdXdXdXdXdXdX",
"dXdXdXdXdXdXdXdXdXdXdX@Xf.k.dXdXdXdXdXdXdXdXdXdXdXdXdXdXdXdXdXdX",
"dXdXdXdXdXdXdXdXdXdXdXdXdXdXdXdXdXdXdXdXdXdXdXdXdXdXdXdXdXdXdXdX"
};
