/* XPM */
static char *outlinner_xpm[] = {
/* width height num_colors chars_per_pixel */
"    32    32        8            1",
/* colors */
"` c #4e5b76",
". c #9ea9b6",
"# c #ccd63c",
"a c #6e7d9a",
"b c #bcbdc0",
"c c #cfd7e0",
"d c #8e939c",
"e c #ffffff",
/* pixels */
"cd.........bbbbbbbcccccccccccccb",
".`````aa`aa``aaaad....bccb..bb..",
".aa`adaddda`aaaad...bbcbdbd.b.db",
".```````````````aaaaaaaa`a`aaaad",
".dbbbbbbb.bbbbbbbbbbbbbbbbbbbbda",
"...ddd.ccd.d.c.adbccccccccccccba",
".d.dddd..dddd..ddd............da",
".d..b.cbbbbbbbbbcbbbbbbbbbbbbb.a",
".db.bceeeeeeeeeeeeeeeeeeeeeeeeba",
".d..bceeeeeeeeeeeeeeeeeeeeeeeeba",
".d..bbb.bbbbbbbbbbbbbbbbbbbbbb.a",
"ddeeeeb``beeeeeeeeeeeeeeeeeeeeba",
"ddeeeed``ceb.bbceeeeeeeeeeeeeeca",
"ddeeeeb`deeeeeeeeeeeeeeeeeeeeeca",
"ddeeeeb`aceeeeeeeeeeeeeeeeeeeeca",
"ddeeeed``ceb.ceeeeeeeeeeeeeeeeca",
"ddeeeeb`deeeeeeeeeeeeeeeeeeeeeca",
"ddeeeeb`aceeeeeeeeeeeeeeeeeeeeca",
"ddeeeed``cebb.ceeeeeeeeeeeeeeeca",
"ddeeeeb`deeeeeeeeeeeeeeeeeeeeeca",
"ddeeeeb`aceeeeeeeeeeeeeeeeeeeeca",
"ddeeeed``cec.deeeeeeeeeeeeeeeeca",
"ddeeee.`deeeeeeeeeeeeeeeeeeeeeca",
"ddeeeecdaeeeeeeceeecceeeeeeeeeca",
"ddeeeeb#bbebd.bdbbd.b.eeeeeeeeca",
"ddeeeee.beeeeeeeeceeeeeeeeeeeeca",
"ddeeeecdaeeeeeeecceeeceeeeeeeeca",
"ddeeeeb#bbebd.bdb.d.bb.ceeeeeeca",
"ddeeeecbbeeeeeeeeeeeeeeeeeeeeeca",
"d.eeeeeeeeeeeeeeeeeeeeeeeeeeeeca",
".addddddddddddddddddddddddddddaa",
".aaaaaaaaaaaaaaaaaaaaaaaaaaaaaa."
};
