/* XPM */
static char * project_set_xpm[] = {
"32 32 315 2",
"  	c #012C80",
". 	c #022D80",
"+ 	c #022F82",
"@ 	c #043286",
"# 	c #063787",
"$ 	c #093C8C",
"% 	c #0D4290",
"& 	c #114A95",
"* 	c #175299",
"= 	c #1D599E",
"- 	c #2664A3",
"; 	c #2E6EA7",
"> 	c #3576AB",
", 	c #3B7BAD",
"' 	c #3E80B0",
") 	c #3D80B0",
"! 	c #3D7FAE",
"~ 	c #397BAD",
"{ 	c #3474AA",
"] 	c #2C6CA7",
"^ 	c #2563A3",
"/ 	c #124A95",
"( 	c #0D4391",
"_ 	c #0A3E8C",
": 	c #07398B",
"< 	c #053587",
"[ 	c #033184",
"} 	c #012D80",
"| 	c #134D96",
"1 	c #1A569B",
"2 	c #2463A3",
"3 	c #2D6CA7",
"4 	c #4687B2",
"5 	c #4E90B5",
"6 	c #5293B6",
"7 	c #5495B8",
"8 	c #5191B6",
"9 	c #4B8CB4",
"0 	c #4386B1",
"a 	c #1B569C",
"b 	c #144E96",
"c 	c #0E4691",
"d 	c #0A3E8E",
"e 	c #053486",
"f 	c #033084",
"g 	c #022E82",
"h 	c #012B7F",
"i 	c #093D8C",
"j 	c #154F98",
"k 	c #1F5CA0",
"l 	c #2B6AA6",
"m 	c #436A9C",
"n 	c #DFDFA9",
"o 	c #BDBE90",
"p 	c #8B9C9C",
"q 	c #6687A9",
"r 	c #6187B0",
"s 	c #5C8CB4",
"t 	c #5C98B9",
"u 	c #5B99BA",
"v 	c #3C7DAE",
"w 	c #205EA0",
"x 	c #104793",
"y 	c #0B3F8E",
"z 	c #033082",
"A 	c #053687",
"B 	c #18549B",
"C 	c #52789E",
"D 	c #FFFFD7",
"E 	c #FEFBCA",
"F 	c #FAF4B1",
"G 	c #FEF7B1",
"H 	c #FEF7AD",
"I 	c #FAF3A6",
"J 	c #E2DD9C",
"K 	c #CFCF9E",
"L 	c #ABB595",
"M 	c #5478A1",
"N 	c #3778AD",
"O 	c #2867A4",
"P 	c #124B96",
"Q 	c #0C4290",
"R 	c #012A7F",
"S 	c #104995",
"T 	c #597FA3",
"U 	c #FFFFCF",
"V 	c #FFFDCD",
"W 	c #FAF6C8",
"X 	c #EFEAAE",
"Y 	c #F8F4C4",
"Z 	c #F6F0C4",
"` 	c #FCF6C6",
" .	c #FEF7B9",
"..	c #FDF5AD",
"+.	c #FFFAB8",
"@.	c #3D73AA",
"#.	c #2F6FA9",
"$.	c #154E98",
"%.	c #083B8B",
"&.	c #1C589C",
"*.	c #4284B1",
"=.	c #5F82A6",
"-.	c #FFFDC8",
";.	c #FEFBCB",
">.	c #DAD28E",
",.	c #F9F6B9",
"'.	c #F9F6D5",
").	c #EEEDED",
"!.	c #F6F0CE",
"~.	c #DBCB7D",
"{.	c #F5EA98",
"].	c #4578AD",
"^.	c #3676AB",
"/.	c #0E4591",
"(.	c #043486",
"_.	c #002A7D",
":.	c #6487A7",
"<.	c #FFFDC9",
"[.	c #D3CB89",
"}.	c #F7F4B2",
"|.	c #F7F3C7",
"1.	c #DDDDE0",
"2.	c #F2EDD1",
"3.	c #D9C87D",
"4.	c #F2E48E",
"5.	c #4E82B1",
"6.	c #0F4693",
"7.	c #4A8BB4",
"8.	c #6989A9",
"9.	c #FEFBC8",
"0.	c #D6CD86",
"a.	c #F8F4B1",
"b.	c #F6F0BD",
"c.	c #CFCED0",
"d.	c #F1EACA",
"e.	c #DAC77D",
"f.	c #F2E38B",
"g.	c #5587B2",
"h.	c #00297D",
"i.	c #3071A9",
"j.	c #6A8BA9",
"k.	c #FEFBC7",
"l.	c #D7CF84",
"m.	c #F8F3AD",
"n.	c #F6F1B8",
"o.	c #D4D3D4",
"p.	c #EFE9C7",
"q.	c #D9C67D",
"r.	c #F1E286",
"s.	c #5C8EB5",
"t.	c #498BB4",
"u.	c #1E5B9E",
"v.	c #3273AA",
"w.	c #4F90B6",
"x.	c #6E90AA",
"y.	c #FEFAC6",
"z.	c #D8D082",
"A.	c #F9F3A7",
"B.	c #F1EEB5",
"C.	c #BECAD3",
"D.	c #EEE7C2",
"E.	c #D8C37D",
"F.	c #F1E17F",
"G.	c #6695B8",
"H.	c #6F90AB",
"I.	c #FFFDC7",
"J.	c #FDF9BD",
"K.	c #DACF7D",
"L.	c #F9F3A1",
"M.	c #F2EEAD",
"N.	c #BECDD3",
"O.	c #EDE5BE",
"P.	c #F0E07D",
"Q.	c #6793B8",
"R.	c #5595B8",
"S.	c #225FA1",
"T.	c #3171A9",
"U.	c #FFFFCB",
"V.	c #FFFCBE",
"W.	c #FDF8B2",
"X.	c #DCD07D",
"Y.	c #FAF29B",
"Z.	c #EFE89B",
"`.	c #BAC4C7",
" +	c #EDE4BE",
".+	c #D7C37D",
"++	c #EFE07D",
"@+	c #24327D",
"#+	c #5695B8",
"$+	c #387BAD",
"%+	c #2361A1",
"&+	c #6A8BAA",
"*+	c #FFFEC2",
"=+	c #FFFAB2",
"-+	c #FDF6A4",
";+	c #DFD17D",
">+	c #FAF293",
",+	c #F4EB98",
"'+	c #C9CBCF",
")+	c #EDE4BD",
"!+	c #D4BD7D",
"~+	c #F2E27D",
"{+	c #89877D",
"]+	c #5596B8",
"^+	c #0B4190",
"/+	c #4586B2",
"(+	c #6687A7",
"_+	c #FFFDB6",
":+	c #FFF9A4",
"<+	c #F7ED89",
"[+	c #D7C87D",
"}+	c #FCF38E",
"|+	c #E7DA90",
"1+	c #D0D0D4",
"2+	c #EFE7BC",
"3+	c #E4CF7D",
"4+	c #EDDA7D",
"5+	c #F6EDB6",
"6+	c #4B87B2",
"7+	c #3778AB",
"8+	c #073889",
"9+	c #185299",
"0+	c #2766A4",
"a+	c #5E80A6",
"b+	c #FFFBA9",
"c+	c #FFF895",
"d+	c #EBDC7D",
"e+	c #CFBE7D",
"f+	c #FAEF86",
"g+	c #B5B098",
"h+	c #D5D7DE",
"i+	c #F3ECBE",
"j+	c #F6EA99",
"k+	c #E8D37D",
"l+	c #F1EBCD",
"m+	c #4682B1",
"n+	c #205CA0",
"o+	c #5879A1",
"p+	c #FFFA9B",
"q+	c #FEF582",
"r+	c #ECDB7D",
"s+	c #D3C17D",
"t+	c #F9ED7D",
"u+	c #B1AB95",
"v+	c #DADCE2",
"w+	c #F3ECBA",
"x+	c #F6EFB9",
"y+	c #E8D17D",
"z+	c #F2EAC2",
"A+	c #3F7DAE",
"B+	c #F6EC84",
"C+	c #FFF57D",
"D+	c #ECD97D",
"E+	c #F9EC7D",
"F+	c #A39C84",
"G+	c #D2D4DB",
"H+	c #F4EAB4",
"I+	c #F8EEAE",
"J+	c #E5CF7D",
"K+	c #CDD6C8",
"L+	c #3876AB",
"M+	c #2967A4",
"N+	c #5C7B9E",
"O+	c #FDF680",
"P+	c #EDDB7D",
"Q+	c #DCC87D",
"R+	c #BCB5A0",
"S+	c #DADBE2",
"T+	c #F1E9B1",
"U+	c #E1E0B5",
"V+	c #EDD77D",
"W+	c #80A096",
"X+	c #2F6EA7",
"Y+	c #165199",
"Z+	c #063789",
"`+	c #B6B48E",
" @	c #EFDC7D",
".@	c #DDC87D",
"+@	c #FAED7D",
"@@	c #A09982",
"#@	c #E7E8ED",
"$@	c #FAF2B9",
"%@	c #90A399",
"&@	c #496FA4",
"*@	c #326FA9",
"=@	c #2A69A6",
"-@	c #3267A4",
";@	c #738796",
">@	c #4671A9",
",@	c #D7CD89",
"'@	c #4A87B2",
")@	c #4678AB",
"!@	c #5176A1",
"~@	c #3B78AB",
"{@	c #2A66A4",
"]@	c #316AA6",
"^@	c #3678AB",
"/@	c #022B7F",
"(@	c #022C80",
"_@	c #FFFFFF",
":@	c #8E8E8E",
"<@	c #F0F0F0",
"[@	c #C0C0C0",
"}@	c #F9F9F9",
"|@	c #717171",
"1@	c #D3D3D3",
"2@	c #2C2C2C",
"3@	c #E3E3E3",
"4@	c #A9A9A9",
"5@	c #565656",
"6@	c #3F3F3F",
"7@	c #060606",
"8@	c #1C1C1C",
"9@	c #000000",
"0@	c #0F0F0F",
"  . + @ # $ % & * = - ; > , ' ) ! ~ { ] ^ = * / ( _ : < [ + .   ",
"  } + [ # $ ( | 1 2 3 ~ 4 5 6 7 8 9 0 ~ ; 2 a b c d : e f g }   ",
"h } g [ # i c j k l m n o p q r s t u 9 v ] w * x y : e z . } h ",
"h   . f A _ x B 2 { C D E F G H I J K L M N O a P Q : e z }   h ",
"R h } z A _ S 1 O , T U V W X Y Z `  ...+.@.#.w $.( %.e + } h R ",
"R R   z A _ & &.] *.=.U -.;.>.,.'.).!.~.{.].^.2 * /.%.(.g   R R ",
"_.R h + < _ & = ; 4 :.U <.E [.}.|.1.2.3.4.5.! O B 6.%.(.g h R _.",
"_._.R g e i & = #.7.8.U <.9.0.a.b.c.d.e.f.g.0 l 1 x %.(.. R _._.",
"h.h._.. (.$ & = i.9 j.U <.k.l.m.n.o.p.q.r.s.t.; &.S %.(.. R h.h.",
"h.h._.. (.$ & u.v.w.x.U <.y.z.A.B.C.D.E.F.G.8 { k / i e . R h.h.",
"h.h._.. (.$ & k v.8 H.U I.J.K.L.M.N.O.E.P.Q.R.N S.| d < g R h.h.",
"h.h._.} (.$ & u.T.5 x.U.V.W.X.Y.Z.`. +.+++@+#+$+%+$.y A g R h.h.",
"h.h._.} @ %.x &.#.7.&+*+=+-+;+>+,+'+)+!+~+{+]+~ %+$.^+A + h h.h.",
"h.h._.} [ %.c 1 ] /+(+_+:+<+[+}+|+1+2+3+4+5+6+7+S.b ^+A z h _._.",
"h.h._.  f 8+( 9+0+' a+b+c+d+e+f+g+h+i+j+k+l+m+{ n+| ^+# z   R _.",
"h.h._.  z # ^+$.S.^.o+p+q+r+s+t+u+v+w+x+y+z+A+#.u.P y # f } R R ",
"h.h._.h + < _ & = 3 @.B+C+D+.+E+F+G+H+I+J+K+L+M+1 S _ # f } h R ",
"h.h.h.h g (.%./.* 2 ^.N+O+P+Q+E+R+S+T+U+V+W+X+S.Y+c $ A f .   h ",
"h.h.h.R } [ Z+y / a M+, `+ @.@+@@@#@$@%@&@*@0+a P Q %.< f .   h ",
"h.h.h.R   + e %.( b = =@-@;@>@,@'@)@!@~@{ O = b c _ 8+e f g }   ",
"h.h.h._.h . [ A $ /.b &.^ {@v.]@^@> i.l %+a b 6.y %.# h f g . } ",
"h.h.h._.R } + @ # $ ( / * = w %+%+S.k a * P /.y %.Z+< h f g . } ",
"h.h.h.h.R h . z @ # %.^+c & | $.$.b P & c Q i : # e /@(@z g . } ",
"_@_@_@_@_@_@_@_@_@_@_@_@_@_@_@_@_@_@_@_@_@_@_@_@_@_@_@_@_@_@_@_@",
"_@_@_@_@_@_@_@_@_@_@_@_@_@_@_@_@:@<@_@_@_@_@_@_@_@_@_@_@_@_@_@_@",
"_@_@_@_@_@_@_@_@_@_@_@_@_@_@_@_@[@}@_@_@_@_@_@_@_@_@_@|@1@_@_@_@",
"_@_@_@|@:@2@3@_@|@4@4@}@5@6@1@_@|@3@_@:@6@3@_@3@6@5@3@7@8@3@_@_@",
"_@_@_@9@:@:@8@_@2@6@1@6@:@[@7@}@2@1@:@|@[@8@_@7@[@3@}@8@:@}@_@_@",
"_@_@_@9@_@_@9@_@2@1@_@9@_@_@2@1@2@1@2@9@9@9@1@2@_@_@_@2@1@_@_@_@",
"_@_@_@9@3@1@8@_@2@1@_@8@1@}@7@}@2@1@5@:@_@_@<@7@}@_@_@2@1@_@_@_@",
"_@_@_@9@8@7@[@_@2@1@_@1@0@7@4@_@2@1@<@2@9@5@_@:@9@8@_@:@9@1@_@_@",
"_@_@_@9@_@_@_@_@_@_@_@_@_@_@_@}@0@<@_@_@_@_@_@_@_@_@_@_@_@_@_@_@"};
