/* XPM */
static char *ren[] = {
/* width height ncolors chars_per_pixel */
"30 30 16 1",
/* colors */
"  c #651b53",
"# c #ca941c",
"a c #9e6031",
"b c #f4c404",
"c c #7c3a51",
"d c #b594ad",
"e c #b27727",
"f c #732e50",
"g c #894a51",
"h c #dbcbd9",
"i c #cdb4c6",
"j c #e5b40e",
"k c #f0e9ef",
"l c #a57b9d",
"m c #925d84",
"n c #d6a114",
/* pixels */
"                              ",
"                              ",
"                              ",
"                              ",
"  fn# cn#fnf a# nc  cnjjne#a  ",
"  cbj ajncjc enfjc  fc#ngfna  ",
"  cbng##ncbc enfbg    en  je  ",
"  cjee##ncbc enfjc    en  na  ",
"  cbgjne#cjg #nfbg    en  je  ",
"  cjcjee# #jjjgfjjjjc en  na  ",
"   c cf c  ggf  cccc  ff  ff  ",
"                              ",
"   feec aaaf  gfaaec aegcaaaf ",
"   naancjaee  ngjagce#gngaja  ",
"  fn  #aj#na  ngnn#cnc f fnf  ",
"  fnf ngnga#ecngngc #g affn   ",
"   e#n#fj#nee#ncnn#egn## fn   ",
"    cc  fff  cf fcc  fc   f   ",
"                              ",
"                              ",
" fhhiglhhimi mm mi fimfhmdhhd ",
" chldililmmkmll ikcfkdgklidlg ",
" fhfmildcfmkdll hhmfhimhmilff ",
" fkhkmdkkimihllchldfhidilikkl ",
" fkdhlldmfmililmhdhchdidlilgf ",
" fh mildf gigkddkhkghdhdmimf  ",
" fh milkkhmi hlim hmhlhdlikki ",
"  c  gfmgmfc fcg  cfcfcffcgmc ",
"                              ",
"                              "
};
