/* XPM */
static char *renamer[] = {
/* width height ncolors chars_per_pixel */
"30 30 143 2",
/* colors */
"   c #0402fc",
" # c #6c6a6c",
" a c #949694",
" b c #fc0604",
" c c #acaeac",
" d c #dc6664",
" e c #3436ec",
" f c #bc9e9c",
" g c #ec3634",
" h c #7c7e7c",
" i c #bcbabc",
" j c #c48684",
" k c #a4a2a4",
" l c #1c1ef4",
" m c #f41e1c",
" n c #bcaeac",
" o c #4c4ee4",
" p c #7c7ed4",
" q c #e44e4c",
" r c #6466dc",
" s c #cc8a8c",
" t c #bca6a4",
" u c #a4a2c4",
" v c #1412fc",
" w c #9496cc",
" x c #b4b6b4",
" y c #d47674",
" z c #f41614",
" A c #4442ec",
" B c #c4c2c4",
" C c #2c2af4",
" D c #8c8ad4",
" E c #7472dc",
" F c #acaec4",
" G c #ec4244",
" H c #8c8ea4",
" I c #c4babc",
" J c #f42a2c",
" K c #5c5ae4",
" L c #e45a5c",
" M c #d48a8c",
" N c #cca2a4",
" O c #a49e9c",
" P c #d47e7c",
" Q c #bcb6b4",
" R c #acaac4",
" S c #d47a7c",
" T c #0c0afc",
" U c #747274",
" V c #cc9694",
" W c #8486a4",
" X c #bcbebc",
" Y c #acaab4",
" Z c #1c1af4",
" 0 c #f41a1c",
" 1 c #4c4ae4",
" 2 c #3432ec",
" 3 c #9492cc",
" 4 c #7c7ad4",
" 5 c #9c9e9c",
" 6 c #fc0e0c",
" 7 c #b4aeac",
" 8 c #dc6e6c",
" 9 c #3c3eec",
"#  c #ec3e3c",
"## c #848684",
"#a c #a4a6a4",
"#b c #2426f4",
"#c c #f42624",
"#d c #c4aeac",
"#e c #5456e4",
"#f c #8486d4",
"#g c #e45654",
"#h c #6c6edc",
"#i c #c49294",
"#j c #c4aaac",
"#k c #a4a6cc",
"#l c #1416f4",
"#m c #9c9ecc",
"#n c #dc7274",
"#o c #fc1214",
"#p c #4446e4",
"#q c #2c2eec",
"#r c #b4b2bc",
"#s c #e44a4c",
"#t c #ec3234",
"#u c #6462dc",
"#v c #dc6264",
"#w c #d49294",
"#x c #ccaaac",
"#y c #d48684",
"#z c #7c7674",
"#A c #cc9e9c",
"#B c #0406fc",
"#C c #9c9a9c",
"#D c #fc0a0c",
"#E c #acaeb4",
"#F c #dc6a6c",
"#G c #3c3aec",
"#H c #ec3a3c",
"#I c #848284",
"#J c #bcbac4",
"#K c #cc8684",
"#L c #2422f4",
"#M c #f42224",
"#N c #5452e4",
"#O c #8482d4",
"#P c #e45254",
"#Q c #6c6adc",
"#R c #bcaaac",
"#S c #a4a2cc",
"#T c #9c9acc",
"#U c #b4b6c4",
"#V c #8c8ed4",
"#W c #7476dc",
"#X c #ec4644",
"#Y c #949294",
"#Z c #c4bebc",
"#0 c #f42e2c",
"#1 c #5c5ee4",
"#2 c #e45e5c",
"#3 c #d48e8c",
"#4 c #cca6a4",
"#5 c #ac9e9c",
"#6 c #d48284",
"#7 c #c4b6b4",
"#8 c #acaacc",
"#9 c #dc7a7c",
"a  c #0c0efc",
"a# c #cc9294",
"aa c #cc9a9c",
"ab c #c4b2b4",
"ac c #747674",
"ad c #dc7674",
"ae c #fc1614",
"af c #bcbec4",
"ag c #9492d4",
"ah c #7c7adc",
"ai c #a4a6ac",
"aj c #1416fc",
"ak c #4446ec",
"al c #2c2ef4",
"am c #b4b2c4",
/* pixels */
" B B X B B X B B X B B X Baf B B X B B X Baf B X B B X B B X",
" X B#U#U X B#U X B#k#kafam#f#k#J w#m B F w#T#T w w#U 3#m X B",
" B X w p B#U Kaf X#G Z F#T T K#m v eaf#O#B#B T#B Z#f T eaf B",
" Bafah 2#U#m Z#kaf 2 v F#m#B K#m T 9af#O l T  ajal#f   A X B",
" B X#N#B D r  #O#J 9a am#T T K#ma #G X#J Fal T#Tam#V   oaf B",
" B#Jal  #G C   9 i Aa #k#m#B K u T 9af B#J 2a  R B p  #u X B",
" B#U l Z#B  #l Z F#ea  u#T T#1#ma #p X B iala  F B#W#Bahaf B",
" X#k v#h v#l#W#B D p#B#V#V T p u T 1afaf#U C#lam X#u#B#V X B",
" B w T 3 A A F Z A 3 T#b 2#B#T#m T l#p#S#J#L l#U#Z#e#B 3 B X",
"af w#L#k w 3af e#Gam 9  #B#G#J#m T  #B 3#U l#L#Uaf 1#B waf B",
" B X#8amafaf#Z#m#Uafam p#O F B#U p#u#u#8#J#Q#hafaf#uak#8 B X",
" B#J#u#q#1#U#T#e#Oam#U#W#k#m 4 E Raf#J#m F#S R#8 Raf#U R X B",
" X#Va #p v#u p v#L 1 F#l#f E#B#l#S#U#e#l#Q va  v C 3 2 e#J B",
" B#u C#U o#L#f l 9 A F Z#O E l#m#J#1 Tak w#h T A#Q C#L#f X B",
"af K#q#J E l#f T#l K F Z p 4 T e#S#l K i B R v p#U Z l w#Zaf",
" X#O v w#G 2 3 Z#h Z#S l pah#l#W#Ta #Waf X#ka #V Xah T#b#U B",
" B#U A#l v#O#Ta  l 9 Da  3aha  1#m C#l K R#Sa  3af#m#bal#Jaf",
" i X#r w#T X#U#O#V#U Eal#U 3 2 2#T#T#q#l w#T#l 3#U#b#Lag X B",
"###z U Uac#I#I a a#C H W Oai#E#E#r x#r u i i#S#U X#T F X B X",
" X#j ya# Q#i j#R n c#5 O 5#C 5 a#Y h#Iac # #ac h#I#I#Y a#C 5",
" Baa#D z M#t 6 s d I d#6#Z Sab#Z#Z#j X#dafab#K#K n f t Y#a#a",
" X N J#H#v#  d#4 J M#v#9#7#t#3#Z#j#P#7#g#7 V#D 0#A 0 0#v#Z B",
" Bab#c#  P#X#s#A#M#c L P#4 6#s#Za# maa#M N#3 m#y#A z#  mab B",
" X#7#c#c s L 6 s J z z P P#c J#7#n b q b s M m#w#A mad#M#7 B",
" B I#t L G#v Lab#t 8#D#9 G q 0a##X z#D 6#F#y b Ga# 0#t#v#Z X",
" X I g#K J#2 z d g#A#H y m 6#D L J#2 0 L G y J#A#3 m#c#9af B",
" B X#Aaba##A#s#2 L#j#A#6# aa S g Jaa#P M J#v z#2 P#t#s g#Z B",
" X B#Z B#Z#Z#Z X#Z#Z#Z Iab X#x#j s Iab#j d#n 0#  P#H#y#tab B",
" Baf B Xaf Baf Baf Baf B B B X B B X B#Z X#Zab#7ababab#x B X",
" B B X B B X B B B X B X B X B B X B B X B B Baf B B#Z B X B"
};
