/* XPM */
static char *ANISO_xpm[]={
"32 32 446 2",
"      c #C1C1C1",
" 0    c #C0C0C0",
" 1    c #C4C4C4",
" 2    c #CCCCCC",
" 3    c #CDCDCD",
" 4    c #C9C9C9",
" 5    c #C5C5C5",
" 6    c #C6C6C6",
" 7    c #C8C9C9",
" 8    c #C2C2C2",
" 9    c #C7C7C7",
" a    c #CBCACA",
" b    c #B3B4B4",
" c    c #878887",
" d    c #5D5D5D",
" e    c #404041",
" f    c #353535",
" g    c #363636",
" h    c #3F3E3E",
" i    c #5C5B5C",
" j    c #878787",
" k    c #B4B4B4",
" l    c #CBCBCB",
" m    c #CDCCCD",
" n    c #A8A9A9",
" o    c #595959",
" p    c #1C1C1C",
" q    c #0B0B0B",
" r    c #0D0D0E",
" s    c #141313",
" t    c #151616",
" u    c #151515",
" v    c #121212",
" w    c #0B0C0B",
" x    c #070808",
" y    c #191919",
" z    c #565656",
" A    c #A6A7A7",
" B    c #686968",
" C    c #181919",
" D    c #070806",
" E    c #181818",
" F    c #232324",
" G    c #282827",
" H    c #292828",
" I    c #272727",
" J    c #262626",
" K    c #242424",
" L    c #232323",
" M    c #1F1F1D",
" N    c #131413",
" O    c #020202",
" P    c #141414",
" Q    c #666666",
" R    c #C0C0C1",
" S    c #CCCCCB",
" T    c #CACACA",
" U    c #B2B2B2",
" V    c #3C3C3C",
" W    c #060706",
" X    c #161716",
" Y    c #2E2E2F",
" Z    c #333232",
" &    c #343534",
"0     c #313231",
"00    c #2D2D2D",
"01    c #2A2929",
"02    c #272626",
"03    c #1E1F1F",
"04    c #0F0F0F",
"05    c #010101",
"06    c #3A3B3B",
"07    c #B0B0B1",
"08    c #B0B0B0",
"09    c #323333",
"0a    c #09090A",
"0b    c #212121",
"0c    c #383838",
"0d    c #434343",
"0e    c #4B4B4B",
"0f    c #4E4E4E",
"0g    c #4C4C4B",
"0h    c #474747",
"0i    c #403F40",
"0j    c #393839",
"0k    c #333433",
"0l    c #292929",
"0m    c #252626",
"0n    c #212222",
"0o    c #1A1A19",
"0p    c #080808",
"0q    c #383737",
"0r    c #B3B3B3",
"0s    c #C8C8C8",
"0t    c #BFBFBF",
"0u    c #3D3D3D",
"0v    c #242524",
"0w    c #323232",
"0x    c #424242",
"0y    c #545554",
"0z    c #646465",
"0A    c #6E6D6E",
"0B    c #727272",
"0C    c #6E6E6E",
"0D    c #656565",
"0E    c #575757",
"0F    c #484848",
"0G    c #3E3E3D",
"0H    c #2F2F2F",
"0I    c #2B2B2B",
"0J    c #282828",
"0K    c #222221",
"0L    c #505151",
"0M    c #606061",
"0N    c #242323",
"0O    c #343333",
"0P    c #616161",
"0Q    c #7F7F7E",
"0R    c #989899",
"0S    c #A7A6A7",
"0T    c #A8A7A8",
"0U    c #9D9C9D",
"0V    c #8C8B8C",
"0W    c #777877",
"0X    c #616061",
"0Y    c #4D4D4E",
"0Z    c #3F3F3F",
"0&    c #353536",
"1     c #2F3030",
"10    c #2E2E2E",
"11    c #2F2E2E",
"12    c #2E2F2F",
"13    c #2A2B2B",
"14    c #232424",
"15    c #7B7B7B",
"16    c #CACBCB",
"17    c #9C9C9C",
"18    c #151415",
"19    c #1A1A1A",
"1a    c #454545",
"1b    c #8D8D8D",
"1c    c #B6B6B6",
"1d    c #D5D6D6",
"1e    c #E7E7E8",
"1f    c #EAE9E9",
"1g    c #DBDBDB",
"1h    c #BFBEBF",
"1i    c #9B9B9B",
"1j    c #7A7A7A",
"1k    c #5F5F5F",
"1l    c #4A4A4A",
"1m    c #3D3D3E",
"1n    c #333233",
"1o    c #363535",
"1p    c #363737",
"1q    c #333333",
"1r    c #434444",
"1s    c #AAAAAB",
"1t    c #C3C3C3",
"1u    c #4C4C4C",
"1v    c #0C0C0C",
"1w    c #3B3B3B",
"1x    c #5B5B5B",
"1y    c #888788",
"1z    c #BDBDBD",
"1A    c #EFEFF0",
"1B    c #FFFFFF",
"1C    c #C5C5C6",
"1D    c #979797",
"1E    c #707170",
"1F    c #545354",
"1G    c #434243",
"1H    c #3B3A3B",
"1I    c #3B3C3C",
"1J    c #3D3C3D",
"1K    c #3E3D3D",
"1L    c #777778",
"1M    c #A3A3A3",
"1N    c #1C1C1D",
"1O    c #474746",
"1P    c #6F7070",
"1Q    c #AAABAB",
"1R    c #E7E7E7",
"1S    c #FFFEFF",
"1T    c #E5E5E4",
"1U    c #ACACAC",
"1V    c #7F7E7E",
"1W    c #5C5D5C",
"1X    c #474848",
"1Y    c #3D3E3D",
"1Z    c #3A3B3A",
"1&    c #404040",
"2     c #414042",
"20    c #525352",
"21    c #B1B1B1",
"22    c #707071",
"23    c #363536",
"24    c #515152",
"25    c #818281",
"26    c #C3C4C3",
"27    c #F9F9FA",
"28    c #FEFEFF",
"29    c #FEFFFE",
"2a    c #FEFFFF",
"2b    c #F1F1F1",
"2c    c #B8B8B8",
"2d    c #878686",
"2e    c #606161",
"2f    c #3C3B3C",
"2g    c #3B3C3B",
"2h    c #434242",
"2i    c #919090",
"2j    c #464646",
"2k    c #0D0E0D",
"2l    c #2A2A2A",
"2m    c #585859",
"2n    c #8B8C8B",
"2o    c #CFCFCF",
"2p    c #FBFCFC",
"2q    c #FFFEFE",
"2r    c #EEEEEF",
"2s    c #B7B7B7",
"2t    c #878687",
"2u    c #616162",
"2v    c #3D3D3C",
"2w    c #3F3F40",
"2x    c #747475",
"2y    c #2C2C2C",
"2z    c #141514",
"2A    c #2B2B2C",
"2B    c #5C5C5B",
"2C    c #FBFBFC",
"2D    c #FFFFFE",
"2E    c #E2E3E2",
"2F    c #ABACAB",
"2G    c #7F7F7F",
"2H    c #5D5E5E",
"2I    c #3F3E3F",
"2J    c #393939",
"2K    c #3A3A3A",
"2L    c #3E3E3E",
"2M    c #444343",
"2N    c #5F5F60",
"2O    c #BBBBBB",
"2P    c #A2A2A2",
"2Q    c #1B1B1B",
"2R    c #191A19",
"2S    c #2B2C2C",
"2T    c #585858",
"2U    c #848484",
"2V    c #F2F2F3",
"2W    c #F5F6F6",
"2X    c #CCCBCB",
"2Y    c #757575",
"2Z    c #565757",
"2&    c #464545",
"3     c #383938",
"30    c #3D3C3C",
"31    c #3E3F3F",
"32    c #404141",
"33    c #515151",
"34    c #1B1C1B",
"35    c #2C2B2B",
"36    c #3A3939",
"37    c #767674",
"38    c #A2A3A2",
"39    c #D4D3D3",
"3a    c #F7F7F6",
"3b    c #FEFEFE",
"3c    c #F4F4F3",
"3d    c #D3D3D3",
"3e    c #A9AAAA",
"3f    c #868686",
"3g    c #676867",
"3h    c #4F4F4E",
"3i    c #403F3F",
"3j    c #373837",
"3k    c #3B3A3A",
"3l    c #3B3B3A",
"3m    c #494949",
"3n    c #151516",
"3o    c #484949",
"3p    c #656464",
"3q    c #E0E0E0",
"3r    c #E3E4E3",
"3s    c #DBDADA",
"3t    c #C7C6C5",
"3u    c #AAAAAA",
"3v    c #8C8C8C",
"3w    c #717171",
"3x    c #474647",
"3y    c #363635",
"3z    c #373737",
"3A    c #ABABAB",
"3B    c #9E9E9E",
"3C    c #282929",
"3D    c #565556",
"3E    c #706E6F",
"3F    c #878788",
"3G    c #9D9E9C",
"3H    c #9B9A9B",
"3I    c #727172",
"3J    c #4C4D4C",
"3K    c #373838",
"3L    c #343434",
"3M    c #333434",
"3N    c #3A3A3B",
"3O    c #3D3E3E",
"3P    c #ADADAE",
"3Q    c #222120",
"3R    c #484748",
"3S    c #5A595A",
"3T    c #6B6B6C",
"3U    c #797979",
"3V    c #828282",
"3W    c #838383",
"3X    c #80807F",
"3Y    c #777777",
"3Z    c #6B6A6B",
"3&    c #5C5B5B",
"4     c #4D4D4D",
"40    c #414140",
"41    c #303130",
"42    c #303030",
"43    c #313232",
"44    c #363534",
"45    c #3C3D3D",
"46    c #383837",
"47    c #BEBEBE",
"48    c #3A3A39",
"49    c #535353",
"4a    c #5C5C5D",
"4b    c #636363",
"4c    c #646464",
"4d    c #636262",
"4e    c #535253",
"4f    c #4A4A49",
"4g    c #424141",
"4h    c #393A39",
"4i    c #2F2F2E",
"4j    c #302F2F",
"4k    c #070707",
"4l    c #1F1E1F",
"4m    c #4C4B4C",
"4n    c #4F504F",
"4o    c #4B4949",
"4p    c #444344",
"4q    c #3E3F3E",
"4r    c #393838",
"4s    c #313131",
"4t    c #2F2F30",
"4u    c #3A393A",
"4v    c #828283",
"4w    c #C8C8C7",
"4x    c #8F8F8F",
"4y    c #0E0E0F",
"4z    c #171717",
"4A    c #272827",
"4B    c #2F2E2F",
"4C    c #3C3B3B",
"4D    c #454445",
"4E    c #444545",
"4F    c #434342",
"4G    c #3E3D3E",
"4H    c #353636",
"4I    c #2F302F",
"4J    c #C9CAC9",
"4K    c #0C0B0C",
"4L    c #242222",
"4M    c #3F3F3E",
"4N    c #333635",
"4O    c #313132",
"4P    c #323131",
"4Q    c #353534",
"4R    c #CECECE",
"4S    c #818080",
"4T    c #0D0C0D",
"4U    c #1F1F20",
"4V    c #2C2C2D",
"4W    c #373637",
"4X    c #3F4040",
"4Y    c #363638",
"4Z    c #3E3E3F",
"4&    c #999999",
"5     c #151615",
"50    c #414040",
"51    c #414141",
"52    c #393A3A",
"53    c #6C6B6C",
"54    c #CACACB",
"55    c #A6A6A7",
"56    c #3C3D3C",
"57    c #444445",
"58    c #484847",
"59    c #454647",
"5a    c #454645",
"5b    c #3C3C3D",
"5c    c #3C3C3B",
"5d    c #3A3C3B",
"5e    c #393938",
"5f    c #535254",
"5g    c #B0B0AF",
"5h    c #989798",
"5i    c #3A3C3A",
"5j    c #444544",
"5k    c #494948",
"5l    c #494A49",
"5m    c #484849",
"5n    c #494848",
"5o    c #434443",
"5p    c #3F3D3F",
"5q    c #3B3B3C",
"5r    c #C9C9CA",
"5s    c #494849",
"5t    c #474546",
"5u    c #424241",
"5v    c #504F4F",
"5w    c #9D9E9D",
"5x    c #A5A5A6",
"5y    c #464647",
"5z    c #464645",
"5A    c #424243",
"5B    c #414241",
"5C    c #A9A9A9",
"5D    c #BCBCBC",
"5E    c #585959",
"5F    c #454745",
"5G    c #424142",
"5H    c #414242",
"5I    c #424343",
"5J    c #595858",
"5K    c #8A8A8A",
"5L    c #BCBDBD",
"5M    c #B6B6B7",
"5N    c #939393",
"5O    c #737372",
"5P    c #5C5C5C",
"5Q    c #4A4B4B",
"5R    c #5C5D5D",
"5S    c #737373",
"5T    c #929293",
"5U    c #BABABA",
"5V    c #ADADAC",
"5W    c #ADADAD",
"5X    c #BABBBB",
"5Y    c #C4C4C5",
"                     0 1 2 3 4 5 6 7 3 3 5 0                    ",
"                 8 9 a b c d e f g h i j k l 9 8                ",
"             0 9 m n o p q r s t u v w x y z A 2 9 0            ",
"           0 l   B C D E F G H I J K L M N O P Q R S 0          ",
"           T U V W X G Y Z f g &0 000102 L0304050607 4          ",
"         T08090a0b000c0d0e0f0g0h0i0j0k000l0m0n0o0p0q0r 4        ",
"      0s0t0u q0v0w0x0y0z0A0B0C0D0E0F0G f0H0I0J020K u0L 0 6      ",
"     8 20M0p0N0O0h0P0Q0R0S0T0U0V0W0X0Y0Z0&1 101112131415 l      ",
"   0161718191 1a Q1b1c1d1e1f1g1h1i1j1k1l1m g0w1n1o1p1q1r1s0s 0  ",
"  1t 91u1v0J1w1x1y1z1A1B1B1B1B1A1C1D1E1F1G1H0q0c1I1J1K0c1L 9 8  ",
" 0 21M1N E0H1O1P1Q1R1B1B1B1S1B1B1T1U1V1W1X1Y1Z1w1Y1&2 0u20210s  ",
" 8 2221v1423242526271B28292a2a1B2b2c2d2e0e1&2f2g0Z0x2h1&0Z2i 7  ",
" 51t2j2k2l1H2m2n2o2p1B2q1B1S2a1B2r2s2t2u0e0Z2v0u2w0x0d0x V2x 1 1",
"0s U2y2z2A0u2B1b 32C1B2D1S1S1B1B2E2F2G2H1l2I2J2K2L0x2M0x V2N2O 6",
" T2P2Q2R2S V2T2U1z2V1B1B2D1B1B2W2X172Y2Z2&0u3 2K3031 e321w3321 6",
" l1i u343536333738393a1B1B3b3c3d3e3f3g3h3i2J3j0c3k0Z1&0Z3l3m1U0s",
" l1i3n342l g3o3p2t1U2o3q3r3s3t3u3v3w o3x1w f3y3z2K1K3i311w1l3A0s",
" l3B X193C0w e3D3E3F3G1U213u3H j3I d3J2L3K3L1q3M3 3N3O2L3k1u3P 9",
" 43u3Q P J100j3R3S3T3U3V3W3X3Y3Z3&4 400c3M4142434406454546 z1c 6",
" 947481v L0I Z1J0F494a4b4c4d2B4e4f4g4h091 4i4j1q3z2J1w1w f Q   5",
"1t 4 d4k4l0J0H0c2L1a4m0f4n4 4o4p4q4r3L4s4t Y420w g4u1H2J2J4v4w 8",
"   34x4y4z4A4B f4C0G0x4D4E4F0Z4G2K4H0w424B4I421n f0c2J g2h2P4J  ",
" 0 647 g4K4L2y3M2K1Y3O4G h4M0u3k0c4N0w424O4P0w g g0c2J4Q0D   1  ",
"   04R4S4T4U4V4W3l311&4X1& h2v061w3j3L3L3L4Q f4Y4r0c0c4Z4& 4 0  ",
"     1 82&5 0H3N0Z501a1a1a0x0i511K4u2K3l3z3z2K0j522g4u53 8 8    ",
"      54550O2l560x57580F0F595a0x1&2L5b5c5b V5d5b1J5e5f5g0s      ",
"       8 l5h0u5i5j2j5k5l1l5m5n2&0d5o4F0Z4Z2L1K5p5q3m3B5r        ",
"           T1i1u0d4f1l3m1l5s1X5t4D5j2h5u0i2w1& h5v5w 4 8        ",
"           8 45x2N5y1a1O0h0h5z1a0d5A5u5B4X1m514b5C 4 8          ",
"              0s5D j5E5F4g5G5B5H1&404Z0u5I5J5K5L 9              ",
"               0 6 T5M5N5O5P4n0e5Q335R5S5T2s l 5 0              ",
"                   8 60s 15U215V5W215X5Y0s 6                    "};
