/* XPM */
static char *RE_xpm[]={
"32 32 156 2",
"      c #C3C3C3",
" 0    c #C7C7C7",
" 1    c #C4C4C4",
" 2    c #C9C9C9",
" 3    c #AFAFAF",
" 4    c #C1C1C1",
" 5    c #AEAEAE",
" 6    c #B7B7B7",
" 7    c #B1B1B1",
" 8    c #C5C5C5",
" 9    c #CCCCCC",
" a    c #BDBDBD",
" b    c #CECECE",
" c    c #BBBBBB",
" d    c #7D7D7D",
" e    c #898989",
" f    c #8A8A8A",
" g    c #656565",
" h    c #555555",
" i    c #5F5F5F",
" j    c #777777",
" k    c #818181",
" l    c #8D8D8D",
" m    c #CFCFCF",
" n    c #9E9E9E",
" o    c #939393",
" p    c #878787",
" q    c #707070",
" r    c #6B6B6B",
" s    c #5A5A5A",
" t    c #5C5C5C",
" u    c #717171",
" v    c #535353",
" w    c #6D6D6D",
" x    c #CBCBCB",
" y    c #676767",
" z    c #666666",
" A    c #787878",
" B    c #737373",
" C    c #727272",
" D    c #747474",
" E    c #696969",
" F    c #6E6E6E",
" G    c #858585",
" H    c #9A9A9A",
" I    c #7A7A7A",
" J    c #7B7B7B",
" K    c #797979",
" L    c #767676",
" M    c #626262",
" N    c #4D4D4D",
" O    c #636363",
" P    c #848484",
" Q    c #7E7E7E",
" R    c #808080",
" S    c #7C7C7C",
" T    c #6A6A6A",
" U    c #5E5E5E",
" V    c #646464",
" W    c #838383",
" X    c #C0C0C0",
" Y    c #B6B6B6",
" Z    c #909090",
" &    c #7F7F7F",
"0     c #616161",
"00    c #464646",
"01    c #515151",
"02    c #969696",
"03    c #D2D2D2",
"04    c #A1A1A1",
"05    c #4F4F4F",
"06    c #484848",
"07    c #454545",
"08    c #6F6F6F",
"09    c #ADADAD",
"0a    c #CDCDCD",
"0b    c #A9A9A9",
"0c    c #868686",
"0d    c #929292",
"0e    c #585858",
"0f    c #373737",
"0g    c #9B9B9B",
"0h    c #BFBFBF",
"0i    c #595959",
"0j    c #414141",
"0k    c #4A4A4A",
"0l    c #A2A2A2",
"0m    c #828282",
"0n    c #949494",
"0o    c #EEEEEE",
"0p    c #FEFEFE",
"0q    c #D7D7D7",
"0r    c #6C6C6C",
"0s    c #4B4B4B",
"0t    c #959595",
"0u    c #EFEFEF",
"0v    c #FAFAFA",
"0w    c #5D5D5D",
"0x    c #4E4E4E",
"0y    c #262626",
"0z    c #393939",
"0A    c #A6A6A6",
"0B    c #BABABA",
"0C    c #9C9C9C",
"0D    c #444444",
"0E    c #3B3B3B",
"0F    c #1C1C1C",
"0G    c #171717",
"0H    c #B4B4B4",
"0I    c #575757",
"0J    c #3D3D3D",
"0K    c #242424",
"0L    c #5B5B5B",
"0M    c #434343",
"0N    c #1E1E1E",
"0O    c #8E8E8E",
"0P    c #1A1A1A",
"0Q    c #131313",
"0R    c #3E3E3E",
"0S    c #222222",
"0T    c #1B1B1B",
"0U    c #070707",
"0V    c #D1D1D1",
"0W    c #353535",
"0X    c #B9B9B9",
"0Y    c #8F8F8F",
"0Z    c #323232",
"0&    c #2D2D2D",
"1     c #2C2C2C",
"10    c #232323",
"11    c #030303",
"12    c #DCDCDC",
"13    c #313131",
"14    c #0E0E0E",
"15    c #050505",
"16    c #545454",
"17    c #2F2F2F",
"18    c #333333",
"19    c #272727",
"1a    c #0D0D0D",
"1b    c #101010",
"1c    c #3F3F3F",
"1d    c #303030",
"1e    c #282828",
"1f    c #080808",
"1g    c #0F0F0F",
"1h    c #3A3A3A",
"1i    c #D5D5D5",
"1j    c #010101",
"1k    c #191919",
"1l    c #0C0C0C",
"1m    c #292929",
"1n    c #B8B8B8",
"1o    c #A4A4A4",
"1p    c #A7A7A7",
"1q    c #A5A5A5",
"                                                                ",
"                         0   1 2 0 0     1 1                    ",
"                       1 3 2 4 5 6 7 8 9 1 a 1                  ",
"               2 9 9 b c d e f g h i j k k l m                  ",
"               n o e p e q r s h t s q u v w x x 8 4            ",
"             x l i y z A B A C D j E q j g y F G o x            ",
"             m H E I d J K K J K A L E r y M N O P   2          ",
"         1 b a G j d Q Q R Q S A A j q T r U U i V W X 8        ",
"       8 Y Z W I S d Q Q R & d J J D C q T z0  h00010203 4      ",
"       904 F u S Q Q Q G p G d S J L C q r y O05060708090a      ",
"     20b J j j J Q k R0c02040d W J L C q T y0 010e060f r H x    ",
"     8 a & D A S Q R G0g 2030h02 Q L u F T V i0i0i0j0f0k0l 9    ",
"     8 c S B I K Q0m0n 40o0p0q0g k L q0r T V i t v0s00010g 1    ",
"     x020r C A A I Q0t a0u0v x Z d B08 r E O0w h0x000y0z q 4 8  ",
"     20A C A A I A I W0g Y0B0C P j q w E V i s050D0E0F0G y 1 1  ",
"     x0H u q j J A A S k f f k A C w T z M U0I0x0j0J0z0K e b    ",
"   1 a p q08 C A A L j K A j D q F r E V0 0L v0k0M000f0N D 2 1  ",
"   00O I q r q C D B C C u q080r T y V i0i v N060j0E0P0Q w m    ",
"   00l q C B T0r w q q q08 w r T y V i0L h050s0R0E0S0T0U d0V    ",
"   1  0c V0  M g T r r r r T E g V0  t0i0I0x0M0W0y0S0G0s0X 0    ",
"   1 X 60Y t M y y E E E z z O0  U0L0I01000J0Z0&1 10110c12 4    ",
"       90B F t t U y z0 0  i t0i h010s070D0E130W0Z14150k H 1 1  ",
"       2 n K z v160i U0w0L0L s16 v01 N0k0D1718191a1b v D G c 8  ",
"       1 X0A0m M0I0s0605 N0k N0105 N1c180&1d1e1f1g1h0A1i x 1    ",
"         1 x 4 d0105 h06 N05060M0J1d191d0z0y1j1j1k C b 1        ",
"           00B R r160101160j0z13190y100T1411140W0M0n m          ",
"             209 S q001e0Q1k1 190T0T0K0G1l1m0i g0D S b          ",
"               1 1 S z t0 071h1e0W0z0&17180n0H1n1o0n 8          ",
"                 8 Y1p0l1q S z T0r0I0 0i j 1 9 0 x 9            ",
"                   0 2 x x 1 c 9 c1o0H c 8 8                    ",
"                           1 8   8 x 0 8 1                      ",
"                                                                "};
