/* XPM */
static char *magick[] = {
/* columns rows colors chars-per-pixel */
"32 32 128 2",
/* colors */
"`` c #000000",
"`. c #f69520",
"`# c #f8941d",
"`a c #deea37",
"`b c #f13f22",
"`c c #fff200",
"`d c #f03822",
"`e c #ee1c24",
"`f c #e2eb31",
"`g c #f03123",
"`h c #e4ec2e",
"`i c #ef2a23",
"`j c #e7ec29",
"`k c #ef2723",
"`l c #e9ed26",
"`m c #ee2224",
"`n c #ecee20",
"`o c #ee2024",
"`p c #ee1d24",
"`q c #eeee1d",
"`r c #f0ee1a",
"`s c #f1ef17",
"`t c #f8931d",
"`u c #f3ef14",
"`v c #f8901d",
"`w c #f5f011",
"`x c #f78c1d",
"`y c #f6f00f",
"`z c #f7891e",
"`A c #6dd0f7",
"`B c #81b4d7",
"`C c #7eb9dc",
"`D c #7cbbde",
"`E c #7bbde1",
"`F c #79bfe3",
"`G c #78c1e6",
"`H c #76c3e8",
"`I c #75c5eb",
"`J c #73c8ed",
"`K c #000000",
"`L c #000000",
"`M c #000000",
"`N c #000000",
"`O c #000000",
"`P c #000000",
"`Q c #000000",
"`R c #000000",
"`S c #000000",
"`T c #000000",
"`U c #000000",
"`V c #000000",
"`W c #000000",
"`X c #000000",
"`Y c #000000",
"`Z c #000000",
"`0 c #000000",
"`1 c #000000",
"`2 c #000000",
"`3 c #000000",
"`4 c #000000",
"`5 c #000000",
"`6 c #000000",
"`7 c #000000",
"`8 c #000000",
".` c #000000",
".. c #000000",
".# c #000000",
".a c #000000",
".b c #000000",
".c c #000000",
".d c #000000",
".e c #000000",
".f c #000000",
".g c #000000",
".h c #000000",
".i c #000000",
".j c #000000",
".k c #000000",
".l c #000000",
".m c #000000",
".n c #000000",
".o c #000000",
".p c #000000",
".q c #000000",
".r c #000000",
".s c #000000",
".t c #000000",
".u c #000000",
".v c #000000",
".w c #000000",
".x c #000000",
".y c #000000",
".z c #000000",
".A c #000000",
".B c #000000",
".C c #000000",
".D c #000000",
".E c #000000",
".F c #000000",
".G c #000000",
".H c #000000",
".I c #000000",
".J c #000000",
".K c #000000",
".L c #000000",
".M c #000000",
".N c #000000",
".O c #000000",
".P c #000000",
".Q c #000000",
".R c #000000",
".S c #000000",
".T c #000000",
".U c #000000",
".V c #000000",
".W c #000000",
".X c #000000",
".Y c #000000",
".Z c #000000",
".0 c #000000",
".1 c #000000",
".2 c #000000",
".3 c #000000",
".4 c #000000",
".5 c #000000",
".6 c #000000",
".7 c #000000",
".8 c #000000",
/* pixels */
"```.`#`#`#`#`#`#`#`#`#`#`#`#`#`#`#`#`#`#`#`#`#`#`#`#`#`#`#`#`#``",
"`a```.`#`#`#`#`#`#`#`#`#`#`#`#`#`#`#`#`#`#`#`#`#`#`#`#`#`#`#```b",
"`c`a```.`#`#`#`#`#`#`#`#`#`#`#`#`#`#`#`#`#`#`#`#`#`#`#`#`#```d`e",
"`c`c`f```.`#`#`#`#`#`#`#`#`#`#`#`#`#`#`#`#`#`#`#`#`#`#`#```g`e`e",
"`c`c`c`h```.`#`#`#`#`#`#`#`#`#`#`#`#`#`#`#`#`#`#`#`#`#```i`e`e`e",
"`c`c`c`c`j```.`#`#`#`#`#`#`#`#`#`#`#`#`#`#`#`#`#`#`#```k`e`e`e`e",
"`c`c`c`c`c`l```.`#`#`#`#`#`#`#`#`#`#`#`#`#`#`#`#`#```m`e`e`e`e`e",
"`c`c`c`c`c`c`n```.`#`#`#`#`#`#`#`#`#`#`#`#`#`#`#```o`e`e`e`e`e`e",
"`c`c`c`c`c`c`c`n```.`#`#`#`#`#`#`#`#`#`#`#`#`#```p`e`e`e`e`e`e`e",
"`c`c`c`c`c`c`c`c`q```.`#`#`#`#`#`#`#`#`#`#`#```e`e`e`e`e`e`e`e`e",
"`c`c`c`c`c`c`c`c`c`r```.`#`#`#`#`#`#`#`#`#```e`e`e`e`e`e`e`e`e`e",
"`c`c`c`c`c`c`c`c`c`c`s```.`#`#`#`#`#`#`t```e`e`e`e`e`e`e`e`e`e`e",
"`c`c`c`c`c`c`c`c`c`c`c`u```.`#`#`#`#`v```e`e`e`e`e`e`e`e`e`e`e`e",
"`c`c`c`c`c`c`c`c`c`c`c`c`w```.`#`#`x```e`e`e`e`e`e`e`e`e`e`e`e`e",
"`c`c`c`c`c`c`c`c`c`c`c`c`c`y```.`z```e`e`e`e`e`e`e`e`e`e`e`e`e`e",
"`c`c`c`c`c`c`c`c`c`c`c`c`c`c`y`````e`e`e`e`e`e`e`e`e`e`e`e`e`e`e",
"`c`c`c`c`c`c`c`c`c`c`c`c`c`c`c`````e`e`e`e`e`e`e`e`e`e`e`e`e`e`e",
"`c`c`c`c`c`c`c`c`c`c`c`c`c`c```A`B```e`e`e`e`e`e`e`e`e`e`e`e`e`e",
"`c`c`c`c`c`c`c`c`c`c`c`c`c```A`A`A`C```e`e`e`e`e`e`e`e`e`e`e`e`e",
"`c`c`c`c`c`c`c`c`c`c`c`c```A`A`A`A`A`C```e`e`e`e`e`e`e`e`e`e`e`e",
"`c`c`c`c`c`c`c`c`c`c`c```A`A`A`A`A`A`A`D```e`e`e`e`e`e`e`e`e`e`e",
"`c`c`c`c`c`c`c`c`c`c```A`A`A`A`A`A`A`A`A`E```e`e`e`e`e`e`e`e`e`e",
"`c`c`c`c`c`c`c`c`c```A`A`A`A`A`A`A`A`A`A`A`E```e`e`e`e`e`e`e`e`e",
"`c`c`c`c`c`c`c`c```A`A`A`A`A`A`A`A`A`A`A`A`A`F```e`e`e`e`e`e`e`e",
"`c`c`c`c`c`c`c```A`A`A`A`A`A`A`A`A`A`A`A`A`A`A`F```e`e`e`e`e`e`e",
"`c`c`c`c`c`c```A`A`A`A`A`A`A`A`A`A`A`A`A`A`A`A`A`G```e`e`e`e`e`e",
"`c`c`c`c`c```A`A`A`A`A`A`A`A`A`A`A`A`A`A`A`A`A`A`A`G```e`e`e`e`e",
"`c`c`c`c```A`A`A`A`A`A`A`A`A`A`A`A`A`A`A`A`A`A`A`A`A`H```e`e`e`e",
"`c`c`c```A`A`A`A`A`A`A`A`A`A`A`A`A`A`A`A`A`A`A`A`A`A`A`I```e`e`e",
"`c`c```A`A`A`A`A`A`A`A`A`A`A`A`A`A`A`A`A`A`A`A`A`A`A`A`A`I```e`e",
"`c```A`A`A`A`A`A`A`A`A`A`A`A`A`A`A`A`A`A`A`A`A`A`A`A`A`A`A`J```e",
"```A`A`A`A`A`A`A`A`A`A`A`A`A`A`A`A`A`A`A`A`A`A`A`A`A`A`A`A`A`J``"
};
