/* XPM */
static char *CARPAINT_xpm[]={
"32 32 583 2",
"      c #C0C0C0",
" 0    c #C3C2C3",
" 1    c #C8C5C8",
" 2    c #CAC7CA",
" 3    c #CAC6CA",
" 4    c #C8C6C8",
" 5    c #C1C1C1",
" 6    c #C8C5C9",
" 7    c #CBC7CB",
" 8    c #BBBDBB",
" 9    c #95A394",
" a    c #778F75",
" b    c #698467",
" c    c #6A8568",
" d    c #768B74",
" e    c #929F91",
" f    c #B7BAB7",
" g    c #C2C1C2",
" h    c #C6C4C6",
" i    c #96A494",
" j    c #678664",
" k    c #33652E",
" l    c #14500E",
" m    c #0C4A06",
" n    c #0C4906",
" o    c #0A4605",
" p    c #0C4507",
" q    c #14480F",
" r    c #2B5527",
" s    c #657D63",
" t    c #99A298",
" u    c #BEBEBE",
" v    c #C7C6C8",
" w    c #C9C6C9",
" x    c #B5B9B5",
" y    c #4A7347",
" z    c #10500A",
" A    c #0C4E06",
" B    c #0F5008",
" C    c #14550E",
" D    c #14530F",
" E    c #15520E",
" F    c #134D0E",
" G    c #124B0D",
" H    c #0D4308",
" I    c #0A3D05",
" J    c #123F0E",
" K    c #486445",
" L    c #A9ADA9",
" M    c #CAC8CA",
" N    c #CAC6CB",
" O    c #839981",
" P    c #245F1F",
" Q    c #0D5107",
" R    c #14570E",
" S    c #15570F",
" T    c #15580F",
" U    c #14540E",
" V    c #15540F",
" W    c #13500D",
" X    c #134F0E",
" Y    c #144D0E",
" Z    c #12480C",
" &    c #11450C",
"0     c #10410C",
"00    c #0C3A08",
"01    c #1E431B",
"02    c #717F6F",
"03    c #C4C3C4",
"04    c #C3C3C3",
"05    c #738E71",
"06    c #10510A",
"07    c #105309",
"08    c #165A10",
"09    c #14590F",
"0a    c #155A10",
"0b    c #165910",
"0c    c #155810",
"0d    c #165711",
"0e    c #165410",
"0f    c #165210",
"0g    c #155010",
"0h    c #134A0E",
"0i    c #14490F",
"0j    c #12450D",
"0k    c #12410E",
"0l    c #0E390A",
"0m    c #092F06",
"0n    c #657464",
"0o    c #7D947B",
"0p    c #11550B",
"0q    c #165B10",
"0r    c #15570E",
"0s    c #175C11",
"0t    c #195A13",
"0u    c #1A5A14",
"0v    c #1A5B15",
"0w    c #1B5915",
"0x    c #1D5A17",
"0y    c #1C5917",
"0z    c #1C5517",
"0A    c #1B5216",
"0B    c #1E5219",
"0C    c #1B4C16",
"0D    c #13400F",
"0E    c #123A0E",
"0F    c #0C2F08",
"0G    c #798379",
"0H    c #CFCDD0",
"0I    c #A8B0A8",
"0J    c #1A5715",
"0K    c #10540A",
"0L    c #155B0F",
"0M    c #165B0F",
"0N    c #16590F",
"0O    c #185C12",
"0P    c #1A5F14",
"0Q    c #1D6118",
"0R    c #25661F",
"0S    c #2A6A24",
"0T    c #286622",
"0U    c #2E6B29",
"0V    c #2B6726",
"0W    c #286324",
"0X    c #285F22",
"0Y    c #21551C",
"0Z    c #1C4D17",
"0&    c #144210",
"1     c #0E380B",
"10    c #1B4017",
"11    c #284027",
"12    c #A2A5A3",
"13    c #C6C5C6",
"14    c #C5C3C6",
"15    c #4C7448",
"16    c #0C5105",
"17    c #15580E",
"18    c #155A0E",
"19    c #195D13",
"1a    c #1F6419",
"1b    c #276C21",
"1c    c #307329",
"1d    c #3B7C36",
"1e    c #3D7C38",
"1f    c #488342",
"1g    c #3A7234",
"1h    c #2B6325",
"1i    c #2D6528",
"1j    c #1D5217",
"1k    c #184A13",
"1l    c #0E390B",
"1m    c #12380F",
"1n    c #0C2C0A",
"1o    c #30402F",
"1p    c #C5C3C5",
"1q    c #C7C5C7",
"1r    c #9FAA9F",
"1s    c #12500D",
"1t    c #12540C",
"1u    c #14580F",
"1v    c #165A0F",
"1w    c #165C10",
"1x    c #286E21",
"1y    c #5EA058",
"1z    c #7EB878",
"1A    c #63A05D",
"1B    c #4E8C48",
"1C    c #4C8946",
"1D    c #437D3E",
"1E    c #397234",
"1F    c #296124",
"1G    c #255C20",
"1H    c #194E14",
"1I    c #13460F",
"1J    c #103F0C",
"1K    c #0F3A0B",
"1L    c #0E340A",
"1M    c #0E2E0B",
"1N    c #061D05",
"1O    c #929492",
"1P    c #CAC9CA",
"1Q    c #658361",
"1R    c #0A4D04",
"1S    c #13530D",
"1T    c #14560E",
"1U    c #155A0F",
"1V    c #30772A",
"1W    c #96C991",
"1X    c #EAFCE8",
"1Y    c #F9FFF8",
"1Z    c #D5EED3",
"1&    c #78AF73",
"2     c #5A9354",
"20    c #437E3E",
"21    c #316B2B",
"22    c #255E20",
"23    c #1C5317",
"24    c #164A11",
"25    c #12440D",
"26    c #0F3E0B",
"27    c #103B0C",
"28    c #10370D",
"29    c #0C2D09",
"2a    c #011B00",
"2b    c #384438",
"2c    c #C2C2C2",
"2d    c #AFB4AF",
"2e    c #20571B",
"2f    c #13540D",
"2g    c #14590E",
"2h    c #155C0E",
"2i    c #8AC085",
"2j    c #FFFFFF",
"2k    c #B9DCB5",
"2l    c #54914E",
"2m    c #387533",
"2n    c #296323",
"2o    c #1D5618",
"2p    c #154B10",
"2q    c #12430E",
"2r    c #12400E",
"2s    c #10370C",
"2t    c #0E300B",
"2u    c #0A2608",
"2v    c #011301",
"2w    c #9A9B99",
"2x    c #C7C6C7",
"2y    c #829580",
"2z    c #084703",
"2A    c #14530E",
"2B    c #13550E",
"2C    c #13570D",
"2D    c #1C6315",
"2E    c #BBDCB8",
"2F    c #FFFEFF",
"2G    c #B7DAB4",
"2H    c #417F3B",
"2I    c #2D6828",
"2J    c #1F591B",
"2K    c #184F13",
"2L    c #12480E",
"2M    c #10410D",
"2N    c #113D0C",
"2O    c #113B0D",
"2P    c #0F350C",
"2Q    c #0C280A",
"2R    c #001100",
"2S    c #757975",
"2T    c #CBCACB",
"2U    c #648061",
"2V    c #064500",
"2W    c #14520E",
"2X    c #14570F",
"2Y    c #9BCA97",
"2Z    c #FAFFF9",
"2&    c #80B47A",
"3     c #2E6B28",
"30    c #245E1E",
"31    c #154B11",
"32    c #13470E",
"33    c #11420D",
"34    c #0F380B",
"35    c #0F340C",
"36    c #0D2C0A",
"37    c #0D280B",
"38    c #5C615C",
"39    c #CDCCCD",
"3a    c #C7C5C8",
"3b    c #53744F",
"3c    c #094603",
"3d    c #13510E",
"3e    c #13520D",
"3f    c #15560F",
"3g    c #3E7F37",
"3h    c #B4DDAF",
"3i    c #F3FFF2",
"3j    c #E9FBE7",
"3k    c #99CC94",
"3l    c #397533",
"3m    c #225B1D",
"3n    c #1B5416",
"3o    c #13440D",
"3p    c #12420E",
"3q    c #113D0E",
"3r    c #0E360B",
"3s    c #0E2D0C",
"3t    c #0D260A",
"3u    c #001200",
"3v    c #474C47",
"3w    c #4C6E49",
"3x    c #094504",
"3y    c #13500E",
"3z    c #13530E",
"3A    c #185612",
"3B    c #306F2A",
"3C    c #518D4C",
"3D    c #4B8844",
"3E    c #2E6C28",
"3F    c #1E5819",
"3G    c #1B5316",
"3H    c #184E13",
"3I    c #11440C",
"3J    c #13440E",
"3K    c #14400F",
"3L    c #10390C",
"3M    c #10380D",
"3N    c #0F320C",
"3O    c #0E2B0B",
"3P    c #0D250A",
"3Q    c #011000",
"3R    c #3B403B",
"3S    c #C9C7C9",
"3T    c #4B6D48",
"3U    c #094303",
"3V    c #134E0D",
"3W    c #13510D",
"3X    c #14510E",
"3Y    c #155110",
"3Z    c #185312",
"3&    c #185213",
"4     c #195214",
"40    c #184F14",
"41    c #154A0F",
"42    c #11460C",
"43    c #14430F",
"44    c #113F0E",
"45    c #0D350A",
"46    c #10350D",
"47    c #0C2D0A",
"48    c #0B2708",
"49    c #0A2108",
"4a    c #000D00",
"4b    c #3A3E3A",
"4c    c #C8C7C8",
"4d    c #526F4F",
"4e    c #063E01",
"4f    c #124E0D",
"4g    c #134D0D",
"4h    c #154F10",
"4i    c #144C0F",
"4j    c #154C10",
"4k    c #144A0F",
"4l    c #13480E",
"4m    c #12440E",
"4n    c #13430F",
"4o    c #12410D",
"4p    c #123E0E",
"4q    c #113A0D",
"4r    c #0E310B",
"4s    c #0F300D",
"4t    c #0F2A0D",
"4u    c #0B2009",
"4v    c #000B00",
"4w    c #454745",
"4x    c #60785D",
"4y    c #043A00",
"4z    c #12480D",
"4A    c #124C0D",
"4B    c #114B0C",
"4C    c #134C0D",
"4D    c #134B0D",
"4E    c #144D0F",
"4F    c #124A0E",
"4G    c #12470E",
"4H    c #11440D",
"4I    c #103D0C",
"4J    c #123C0F",
"4K    c #11390E",
"4L    c #11320E",
"4M    c #0F2E0D",
"4N    c #0A1D09",
"4O    c #000400",
"4P    c #595959",
"4Q    c #CDCDCD",
"4R    c #C9C7CA",
"4S    c #7A8B78",
"4T    c #033500",
"4U    c #11480C",
"4V    c #11490C",
"4W    c #124A0D",
"4X    c #10480B",
"4Y    c #12490D",
"4Z    c #13490E",
"4&    c #12460E",
"5     c #13470F",
"50    c #11430D",
"51    c #12420D",
"52    c #0F3C0A",
"53    c #10330D",
"54    c #11310F",
"55    c #0F2B0C",
"56    c #0C2209",
"57    c #091A08",
"58    c #000000",
"59    c #717071",
"5a    c #CBCBCB",
"5b    c #C4C4C5",
"5c    c #ACAFAB",
"5d    c #194115",
"5e    c #0C3E07",
"5f    c #10450C",
"5g    c #11470C",
"5h    c #10450B",
"5i    c #10460B",
"5j    c #11470D",
"5k    c #13460E",
"5l    c #11420C",
"5m    c #11410C",
"5n    c #113E0C",
"5o    c #113D0D",
"5p    c #103B0D",
"5q    c #11390D",
"5r    c #12380E",
"5s    c #10330C",
"5t    c #10310D",
"5u    c #102D0E",
"5v    c #0C250A",
"5w    c #091C07",
"5x    c #051204",
"5y    c #969696",
"5z    c #C7C7C7",
"5A    c #576D54",
"5B    c #053300",
"5C    c #0F410B",
"5D    c #10420B",
"5E    c #10430C",
"5F    c #11450D",
"5G    c #11430C",
"5H    c #10400C",
"5I    c #103E0B",
"5J    c #0F3B0B",
"5K    c #0F390C",
"5L    c #0E310A",
"5M    c #0D2E0A",
"5N    c #0C290A",
"5O    c #0D270C",
"5P    c #0A2008",
"5Q    c #081806",
"5R    c #000500",
"5S    c #2B2C2B",
"5T    c #9AA199",
"5U    c #083104",
"5V    c #0C3908",
"5W    c #0E3B0A",
"5X    c #0F3F0B",
"5Y    c #10410B",
"5Z    c #11400C",
"5&    c #10400D",
"6     c #12400D",
"60    c #103C0C",
"61    c #103C0D",
"62    c #0D3309",
"63    c #10300D",
"64    c #0D2B0B",
"65    c #0E290C",
"66    c #092007",
"67    c #081A06",
"68    c #051004",
"69    c #8E8E8E",
"6a    c #CACACA",
"6b    c #C2C2C3",
"6c    c #435A41",
"6d    c #032C01",
"6e    c #0E3A0A",
"6f    c #0F3D0B",
"6g    c #0E3C0A",
"6h    c #0E3B0B",
"6i    c #0F3A0A",
"6j    c #0F380C",
"6k    c #0E320A",
"6l    c #0B2E08",
"6m    c #102D0D",
"6n    c #0B2209",
"6o    c #091B07",
"6p    c #061304",
"6q    c #292A2A",
"6r    c #C9C8C9",
"6s    c #999F98",
"6t    c #042701",
"6u    c #0A3106",
"6v    c #0C3409",
"6w    c #0F390B",
"6x    c #0E370A",
"6y    c #0D3809",
"6z    c #0D3609",
"6A    c #0D330A",
"6B    c #10350C",
"6C    c #0D310A",
"6D    c #0C2F0A",
"6E    c #0C2B09",
"6F    c #0C2909",
"6G    c #0A2508",
"6H    c #091D08",
"6I    c #071505",
"6J    c #020901",
"6K    c #050505",
"6L    c #8D8D8D",
"6M    c #C4C4C4",
"6N    c #6E7A6C",
"6O    c #032401",
"6P    c #092D06",
"6Q    c #0D3209",
"6R    c #0C3309",
"6S    c #0D340A",
"6T    c #0F340B",
"6U    c #0E330A",
"6V    c #0D300A",
"6W    c #0C2C09",
"6X    c #0B2709",
"6Y    c #0C2509",
"6Z    c #091E06",
"6&    c #071607",
"7     c #030B02",
"70    c #696969",
"71    c #CBC9CB",
"72    c #556254",
"73    c #041E01",
"74    c #082805",
"75    c #0B2C08",
"76    c #0C2E09",
"77    c #0C2F09",
"78    c #0D2E09",
"79    c #0B2A09",
"7a    c #0B2609",
"7b    c #092107",
"7c    c #0A1F08",
"7d    c #071906",
"7e    c #010801",
"7f    c #464646",
"7g    c #C9C8CA",
"7h    c #6F766E",
"7i    c #021801",
"7j    c #011C00",
"7k    c #092607",
"7l    c #0B2808",
"7m    c #0C2A0A",
"7n    c #0A2708",
"7o    c #092207",
"7p    c #0A2107",
"7q    c #081E07",
"7r    c #091A07",
"7s    c #061504",
"7t    c #5C5B5C",
"7u    c #C5C4C5",
"7v    c #969A95",
"7w    c #364236",
"7x    c #000E00",
"7y    c #001500",
"7z    c #041B03",
"7A    c #071D05",
"7B    c #081E06",
"7C    c #081C06",
"7D    c #061905",
"7E    c #061705",
"7F    c #051303",
"7G    c #010D00",
"7H    c #000200",
"7I    c #2C2B2B",
"7J    c #89898A",
"7K    c #C6C6C6",
"7L    c #C4C4C3",
"7M    c #BEBDBE",
"7N    c #6C6F6B",
"7O    c #363D36",
"7P    c #152015",
"7Q    c #030F02",
"7R    c #000800",
"7S    c #000700",
"7T    c #000300",
"7U    c #000100",
"7V    c #0F110F",
"7W    c #323232",
"7X    c #6D6C6D",
"7Y    c #B8B8B8",
"7Z    c #B4B3B4",
"7&    c #686968",
"8     c #505151",
"80    c #505150",
"81    c #636263",
"82    c #888888",
"83    c #AFAEAF",
"84    c #C9C9C9",
"85    c #C5C5C5",
"                         0 1 2 3 2 2 4 0                        ",
"                   5 6 7 8 9 a b c d e f 2 4 g                  ",
"                 h 5 i j k l m n o p q r s t u v                ",
"             5 w x y z A B C D E l F G H I J K L M g            ",
"           5 N O P Q R S S T U V W X Y Z &0 0001020304          ",
"         5 w0506070809 S0a0b0c0d0e0f0g0h0i0j0k0l0m0n03 5        ",
"         30o A0p0b0q0r0b0s0t0u0v0w0x0y0z0A0B0C0D0E0F0G0H        ",
"       h0I0J0K0q0L0M0N0O0P0Q0R0S0T0U0V0W0X0Y0Z0&1 10111213      ",
"      1415160b0q17180s191a1b1c1d1e1f1g1h1i1j1k0k1l1m1n1o1p g    ",
"    1q1r1s1t1u1v0a1w1w1x1y1z1A1B1C1D1E1F1G1H1I1J1K1L1M1N1O1P    ",
"     31Q1R1S1T R1U0L1V1W1X1Y1Z1&2 202122232425262728292a2b g2c  ",
"  032d2e062f T S2g2h2i2j2j2j2j2k2l2m2n2o2p q2q2r272s2t2u2v2w2x  ",
"   w2y2z2A2B T T2C2D2E2j2F2j2j2G2H2I2J2K2L252M2N2O2P1M2Q2R2S2T  ",
"   w2U2V2W C R2X1T0O2Y2j2j2j2Z2&3 300A3132330k J343536372R3839  ",
"  3a3b3c3d3e C1T1S3f3g3h3i3j3k3l3m3n2K0i3o3p0&3q3r353s3t3u3v2T  ",
"  1q3w3x3y3d2A3z3z D3A3B3C3D3E3F3G3H0i3I3J2r3K3L3M3N3O3P3Q3R3S 5",
"  1q3T3U X3V3y3d3d3W2W3X3Y3Z3&4 4041420j43442745464748494a4b4c 5",
"   14d4e G3y3V4f3d X X4g Y4h4i4j4k4l4m4n4o4p4q1L4r4s4t4u4v4w2T 5",
"  3S4x4y4z4A4B4A4f4A4C4D F4E4F4z4G4H0 0k4I4J4K464L4M3P4N4O4P4Q  ",
"  4R4S4T &4U4V4W4X4U4V4U4Y4Z4&5 50514o52270E2P535455565758595a  ",
"  5b5c5d5e5f &5g5h5i5j42 &5k4H5l5m5n5o5p5q5r5s5t5u5v5w5x585y5z  ",
"     25A5B5C5D5E & &5F0j5G50335H5I5J5K5q5r5L5M5N5O5P5Q5R5S u2c  ",
"    4c5T5U5V5W5X5Y5D0 335Z5&6 6061343r625363646566676858696a    ",
"     56b6c6d0l6e6f5W6g6f6h6e6i5K6j2P6k6l1M6m3t6n6o6p586q6b2c    ",
"      6r6s6t6u6v6w6x6y1K6z6x3r6A6B6C6D6E6F6G496H6I6J6K6L6a      ",
"       56M6N6O6P6Q6A6R626S6T6U6V2t6W6E6X6Y6Z6o6&7 58705a 5      ",
"        2c717273747575767778751n795N7a7b7c7d5x7e587f042c        ",
"           g7g7h7i7j7k7l7m7n7n6G7o7p7q7r7s6858587t6M6M          ",
"            2c7u7v7w7x7y7z7A7B7C7D7E7F7G7H587I7J7K7L            ",
"               52T7M7N7O7P7Q7R7S7T7U5R7V7W7X7Y4Q 5              ",
"                  041P037Z697&8 80818283 06a6M                  ",
"                       56M845a84845a6a852c                      "};
