/* XPM */ 
static char * render_al_cubemap_lens_xpm[] = {
"32 32 634 2",
"  	c None",
"! 	c #C1C1C1",
"# 	c #C0C0C0",
"$ 	c #BFBFBF",
"% 	c #CACACA",
"& 	c #DFDFDF",
"' 	c #E0E0E0",
"( 	c #E1E1E1",
") 	c #D1D1D1",
"* 	c #C4C4C4",
"+ 	c #C3C3C3",
", 	c #C2C2C2",
"- 	c #C7C7C7",
". 	c #DEDEDE",
"0 	c #B8B8B8",
"1 	c #B2B2B2",
"2 	c #B9B9B9",
"3 	c #C9C9C9",
"4 	c #E2E2E2",
"5 	c #D0D0D0",
"6 	c #C8C8C8",
"7 	c #B4B4B4",
"8 	c #8F8F8F",
"9 	c #686868",
": 	c #696969",
"; 	c #A8A8A8",
"< 	c #D5D5D5",
"= 	c #B5B5B5",
"> 	c #BDBDBD",
"? 	c #9E9E9E",
"@ 	c #999999",
"A 	c #878787",
"B 	c #6F6F6F",
"C 	c #9D9D9D",
"D 	c #CFCFCF",
"E 	c #A2A2A2",
"F 	c #DDDDDD",
"G 	c #F1F1F1",
"H 	c #464646",
"I 	c #373737",
"J 	c #868686",
"K 	c #D8D8D8",
"L 	c #CDCDCD",
"M 	c #BEBEBE",
"N 	c #8E8E8E",
"O 	c #6E6E6E",
"P 	c #E6E6E6",
"Q 	c #AFAFAF",
"R 	c #EAEAEA",
"S 	c #FDFDFD",
"T 	c #D4D4D4",
"U 	c #BCBCBC",
"V 	c #767676",
"W 	c #404040",
"X 	c #A9A9A9",
"Y 	c #A3A3A3",
"Z 	c #DBDBDB",
"[ 	c #FEFEFE",
"] 	c #F6F6F6",
"^ 	c #7B7B7B",
"_ 	c #444444",
"` 	c #5D5D5D",
"a 	c #787878",
"b 	c #A5A5A5",
"c 	c #C4C3C3",
"d 	c #C2C1C2",
"e 	c #C2C1C1",
"f 	c #BEC0BF",
"g 	c #C8C9C9",
"h 	c #DBDDDC",
"i 	c #DFDDDE",
"j 	c #E0DFDF",
"k 	c #DEDFDF",
"l 	c #7F7F7F",
"m 	c #5C5C5C",
"n 	c #838383",
"o 	c #383838",
"p 	c #747474",
"q 	c #FAFAFA",
"r 	c #FBFBFB",
"s 	c #AEAEAE",
"t 	c #A1A1A1",
"u 	c #7D7D7D",
"v 	c #4E4E4E",
"w 	c #A3A4A3",
"x 	c #A7CFBF",
"y 	c #85D4B4",
"z 	c #86D3B2",
"{ 	c #7DD7B2",
"| 	c #88D8B6",
"} 	c #8CE6C1",
"~ 	c #7BEABB",
" !	c #88E0BB",
"!!	c #B1DBCB",
"#!	c #D5D8D8",
"$!	c #DFDADC",
"%!	c #E1E0E0",
"&!	c #CECECE",
"'!	c #C0BFC0",
"(!	c #939393",
")!	c #757575",
"*!	c #080808",
"+!	c #A0A0A0",
",!	c #8D8D8D",
"-!	c #A7A7A7",
".!	c #848484",
"0!	c #191919",
"1!	c black",
"2!	c #090909",
"3!	c #252525",
"4!	c #494949",
"5!	c #5E6360",
"6!	c #73DDB1",
"7!	c #75DCAF",
"8!	c #81DAB4",
"9!	c #8CD3B6",
":!	c #B2C8BE",
";!	c #5FE3AC",
"<!	c #4DE9A6",
"=!	c #7CDAB1",
">!	c #4FEBAB",
"?!	c #59EAB1",
"@!	c #97DFC1",
"A!	c #C6CFCB",
"B!	c #C3BEC1",
"C!	c #C4BFC1",
"D!	c #C3C1C2",
"E!	c #858585",
"F!	c #5F5F5F",
"G!	c #0D0D0D",
"H!	c #3D3D3D",
"I!	c #7E7E7E",
"J!	c #424242",
"K!	c #2B2B2B",
"L!	c #2D2D2D",
"M!	c #3B3B3B",
"N!	c #565656",
"O!	c #C9BDC3",
"P!	c #D2BCC6",
"Q!	c #CFBAC3",
"R!	c #CFBDC5",
"S!	c #DFB9CA",
"T!	c #83D9B5",
"U!	c #7EDCB5",
"V!	c #E2BECD",
"W!	c #C9C5C6",
"X!	c #A3D1BE",
"Y!	c #85D7B4",
"Z!	c #6BDBAC",
"[!	c #79D8B2",
"]!	c #A3CBBB",
"^!	c #BEC1C0",
"_!	c #C4C2C4",
"`!	c #212121",
"a!	c #949494",
"b!	c #2E2E2E",
"c!	c #4A4A4A",
"d!	c #414141",
"e!	c #717171",
"f!	c #818181",
"g!	c #6C6C6C",
"h!	c #262626",
"i!	c #A19EA3",
"j!	c #AEB0B2",
"k!	c #A2A4A8",
"l!	c #8C8C95",
"m!	c #848991",
"n!	c #869492",
"o!	c #8FA9A4",
"p!	c #A9BEB6",
"q!	c #C0D1CA",
"r!	c #BACFC5",
"s!	c #A0CABC",
"t!	c #73DAAD",
"u!	c #43EAA3",
"v!	c #4FE6A5",
"w!	c #7AD8B0",
"x!	c #BDC5C2",
"y!	c #CBCBCB",
"z!	c #5B5B5B",
"{!	c #363636",
"|!	c #393939",
"}!	c #0B0B0B",
"~!	c #636363",
" #	c #676767",
"!#	c #161616",
"##	c #638B7F",
"$#	c #92B9AB",
"%#	c #7DBFA8",
"&#	c #58B998",
"'#	c #40BF8D",
"(#	c #39C08B",
")#	c #30BE82",
"*#	c #3DC08B",
"+#	c #4DC292",
",#	c #64D7A7",
"-#	c #70E4B4",
".#	c #78D9B0",
"0#	c #89D4B4",
"1#	c #90D0B5",
"2#	c #75DAAE",
"3#	c #B3C8BF",
"4#	c #989898",
"5#	c #343434",
"6#	c #010101",
"7#	c #353535",
"8#	c #313131",
"9#	c #242424",
":#	c #474A49",
";#	c #70DDB1",
"<#	c #8EF3CD",
"=#	c #8EF5CE",
">#	c #6DF5BC",
"?#	c #53DAA8",
"@#	c #49D8A0",
"A#	c #4DC999",
"B#	c #65A694",
"C#	c #5A807A",
"D#	c #717C7F",
"E#	c #C1B1BB",
"F#	c #D5C3CB",
"G#	c #CEBDC4",
"H#	c #C3C2C2",
"I#	c #85D4B3",
"J#	c #B4C8C0",
"K#	c #525252",
"L#	c #202020",
"M#	c #222222",
"N#	c #232323",
"O#	c #2C2D2C",
"P#	c #50CFA2",
"Q#	c #A7C7C0",
"R#	c #E2F5EC",
"S#	c #DFD7DF",
"T#	c #A7A4B3",
"U#	c #9E9AAB",
"V#	c #93929E",
"W#	c #7B8990",
"X#	c #718287",
"Y#	c #63787A",
"Z#	c #727D7D",
"[#	c #BABBBA",
"]#	c #C9C2C5",
"^#	c #B7C4BE",
"_#	c #84D5B3",
"`#	c #B5C5BE",
"a#	c #AEB3B1",
"b#	c #4E4F4E",
"c#	c #4F4F4F",
"d#	c #555555",
"e#	c #434343",
"f#	c #333333",
"g#	c #7BA79C",
"h#	c #4ED2A6",
"i#	c #B1ABB6",
"j#	c #DCDDE4",
"k#	c #E8E6E9",
"l#	c #C0CECD",
"m#	c #A0B9B8",
"n#	c #97B0B0",
"o#	c #91AEAF",
"p#	c #6E8788",
"q#	c #526D6D",
"r#	c #768F90",
"s#	c #546B67",
"t#	c #7F8D89",
"u#	c #C9C1C3",
"v#	c #B5C4BF",
"w#	c #83D4B1",
"x#	c #C2CBC7",
"y#	c #B2CCC2",
"z#	c #A9BBB3",
"{#	c #7E797C",
"|#	c #515252",
"}#	c #5B6060",
"~#	c #9AA3A6",
" $	c #5C867C",
"!$	c #6BD9B5",
"#$	c #A7B1B8",
"$$	c #A2B8B7",
"%$	c #B0C2C0",
"&$	c #B0C2C3",
"'$	c #B1C3C3",
"($	c #A6BBB8",
")$	c #9EB7B6",
"*$	c #9AB4B3",
"+$	c #456164",
",$	c #435D5F",
"-$	c #688A84",
".$	c #485B58",
"0$	c #B9AEB3",
"1$	c #B0C8BF",
"2$	c #7FDCB4",
"3$	c #DADEDC",
"4$	c #A1CBBA",
"5$	c #7DD6AF",
"6$	c #D1C0C8",
"7$	c #BCBCBD",
"8$	c #9DA4A4",
"9$	c #7C908F",
":$	c #727C7F",
";$	c #5F847D",
"<$	c #53DFB0",
"=$	c #B1BCC2",
">$	c #A6BBBC",
"?$	c #ADBFBD",
"@$	c #AFC0C1",
"A$	c #B5C5C2",
"B$	c #B3C4C0",
"C$	c #A1B8B7",
"D$	c #9DBAB9",
"E$	c #587476",
"F$	c #11292A",
"G$	c #4A6564",
"H$	c #4A6363",
"I$	c #908B94",
"J$	c #B0D3C4",
"K$	c #75E7B5",
"L$	c #DEE0DF",
"M$	c #B0C6BD",
"N$	c #73D9AF",
"O$	c #CCC1C6",
"P$	c #CACBCB",
"Q$	c #899797",
"R$	c #798886",
"S$	c #636D70",
"T$	c #76A39A",
"U$	c #3CE5AB",
"V$	c #BCBEC4",
"W$	c #B8C8C7",
"X$	c #BACBC8",
"Y$	c #B8C9C6",
"Z$	c #B7CAC6",
"[$	c #C2D3D0",
"]$	c #A4B5B7",
"^$	c #748E93",
"_$	c #A0B9B7",
"`$	c #364F52",
"a$	c #0D2526",
"b$	c #324E4D",
"c$	c #747479",
"d$	c #A9D9C5",
"e$	c #68E7B1",
"f$	c #B9C3BF",
"g$	c #6BDDAE",
"h$	c #D2CBCF",
"i$	c #697C7C",
"j$	c #647978",
"k$	c #4B575A",
"l$	c #539084",
"m$	c #20D094",
"n$	c #ABA9AF",
"o$	c #D8E5E4",
"p$	c #CCDADB",
"q$	c #CADADB",
"r$	c #CEDCDE",
"s$	c #D1E0E2",
"t$	c #B5C1C2",
"u$	c #546869",
"v$	c #6D8888",
"w$	c #42595A",
"x$	c #1B3435",
"y$	c #375753",
"z$	c #686973",
"{$	c #A7D9C4",
"|$	c #67E3AF",
"}$	c #BCC0BE",
"~$	c #74E0B1",
" %	c #DBD8D9",
"!%	c #DCDCDC",
"#%	c #5D706F",
"$%	c #4F6161",
"%%	c #445255",
"&%	c #60A090",
"'%	c #00B073",
"(%	c #4A525A",
")%	c #E8EFEF",
"*%	c #EAF2F4",
"+%	c #F2F7F9",
",%	c #D7DFE1",
"-%	c #9FB1B2",
".%	c #ABB8B8",
"0%	c #233D3D",
"1%	c #4A6161",
"2%	c #556F72",
"3%	c #294143",
"4%	c #284545",
"5%	c #616167",
"6%	c #A2DDC3",
"7%	c #5CE2AB",
"8%	c #CDD0CF",
"9%	c #73E5B5",
":%	c #D5D5D4",
";%	c #DBDADA",
"<%	c #728687",
"=%	c #586C6F",
">%	c #374445",
"?%	c #387868",
"@%	c #00AA6F",
"A%	c #474F56",
"B%	c #F6F8F7",
"C%	c white",
"D%	c #FFFEFE",
"E%	c #788587",
"F%	c #526563",
"G%	c #A8B9BA",
"H%	c #243C3C",
"I%	c #2A4343",
"J%	c #365053",
"K%	c #334B49",
"L%	c #253F40",
"M%	c #6E646C",
"N%	c #98DFBF",
"O%	c #57E7A7",
"P%	c #DFE2E1",
"Q%	c #84E6BE",
"R%	c #C6CDCB",
"S%	c #D1CECF",
"T%	c #788686",
"U%	c #6F8B8B",
"V%	c #515F62",
"W%	c #1E5D4D",
"X%	c #00A96C",
"Y%	c #6B6C70",
"Z%	c #F9FFFF",
"[%	c #E7EFED",
"]%	c #526366",
"^%	c #051F21",
"_%	c #455E5E",
"`%	c #324646",
"a%	c #253F42",
"b%	c #2F4341",
"c%	c #334A50",
"d%	c #274246",
"e%	c #8E828C",
"f%	c #90DCBC",
"g%	c #5BE3A9",
"h%	c #DDE0DE",
"i%	c #79E3B6",
"j%	c #9FB1AA",
"k%	c #B0A8AC",
"l%	c #6C6E70",
"m%	c #4C6162",
"n%	c #68797B",
"o%	c #4F9485",
"p%	c #14C688",
"q%	c #383F45",
"r%	c #475E5D",
"s%	c #BAC8C3",
"t%	c #DAE7E7",
"u%	c #6A7F81",
"v%	c #152E30",
"w%	c #163030",
"x%	c #3F514F",
"y%	c #455A5B",
"z%	c #354E4E",
"{%	c #203D40",
"|%	c #2B413F",
"}%	c #B8A6B1",
"~%	c #8AD6B5",
" &	c #64E1AC",
"!&	c #CCCCCC",
"#&	c #D2D2D2",
"$&	c #DDDFDE",
"%&	c #7BDDB4",
"&&	c #808A87",
"'&	c #9A828E",
"(&	c #787C7C",
")&	c #3E4A4B",
"*&	c #2F3B40",
"+&	c #317A6A",
",&	c #1ED497",
"-&	c #526167",
".&	c #1E3E40",
"0&	c #698180",
"1&	c #ABC3C4",
"2&	c #6E8787",
"3&	c #344B4A",
"4&	c #3A5358",
"5&	c #395050",
"6&	c #304B4B",
"7&	c #2A4245",
"8&	c #142329",
"9&	c #696D6B",
":&	c #D7C0C9",
";&	c #81D8B4",
"<&	c #71DDAF",
"=&	c #7EE0B8",
">&	c #569A7D",
"?&	c #68A188",
"@&	c #4ACD93",
"A&	c #3DA77C",
"B&	c #1A2930",
"C&	c #125044",
"D&	c #0CC184",
"E&	c #3A484F",
"F&	c #476061",
"G&	c #335052",
"H&	c #3E6061",
"I&	c #425F61",
"J&	c #566D6C",
"K&	c #658081",
"L&	c #3A5658",
"M&	c #264043",
"N&	c #0A3530",
"O&	c #3B5850",
"P&	c #C7B0B9",
"Q&	c #E2C2D0",
"R&	c #78DBB2",
"S&	c #72DAAE",
"T&	c #C5C2C3",
"U&	c #8FDBBC",
"V&	c #26FAA4",
"W&	c #54B08A",
"X&	c #53A682",
"Y&	c #5CA383",
"Z&	c #4B5350",
"[&	c #104336",
"]&	c #07BB7E",
"^&	c #1E2A33",
"_&	c #203D3D",
"`&	c #173130",
"a&	c #243939",
"b&	c #1F3939",
"c&	c #2C4849",
"d&	c #34514E",
"e&	c #425D5B",
"f&	c #23292F",
"g&	c #275442",
"h&	c #38F0A1",
"i&	c #6CE7B4",
"j&	c #E1B5CB",
"k&	c #81D5AF",
"l&	c #83D4B3",
"m&	c #C5C1C3",
"n&	c #CCCECD",
"o&	c #96C6B2",
"p&	c #52B890",
"q&	c #797275",
"r&	c #7D626C",
"s&	c #77696C",
"t&	c #467764",
"u&	c #04B478",
"v&	c #0A070E",
"w&	c #1B2D2C",
"x&	c #283E3E",
"y&	c #263E3B",
"z&	c #0F2324",
"{&	c #010C0D",
"|&	c #01070A",
"}&	c #151C1E",
"~&	c #5F5A60",
" '	c #B9B4B5",
"!'	c #A0DAC4",
"#'	c #4DE7A5",
"$'	c #61DFAA",
"%'	c #55E3A6",
"&'	c #97CFB9",
"''	c #D3D3D3",
"('	c #C5C5C5",
")'	c #BCBBBC",
"*'	c #90BCAA",
"+'	c #64CFA2",
",'	c #61997F",
"-'	c #7C636F",
".'	c #62877E",
"0'	c #1AC88B",
"1'	c #443A3F",
"2'	c #313737",
"3'	c #2F3A3C",
"4'	c #222B30",
"5'	c #1F1A23",
"6'	c #3C2A34",
"7'	c #6B606A",
"8'	c #9A989C",
"9'	c #BDCAC5",
":'	c #B7D2C8",
";'	c #A7C6BF",
"<'	c #82D3B0",
"='	c #33EF9F",
">'	c #4BE7A3",
"?'	c #AFC7BD",
"@'	c #BDBCBD",
"A'	c #ABB8B3",
"B'	c #68D1A5",
"C'	c #58A584",
"D'	c #5F837A",
"E'	c #27C38D",
"F'	c #724F5C",
"G'	c #6B5763",
"H'	c #755966",
"I'	c #756D70",
"J'	c #729484",
"K'	c #7ABDA0",
"L'	c #86D7B5",
"M'	c #77E4B7",
"N'	c #54E9AB",
"O'	c #3AEBA3",
"P'	c #39ECA1",
"Q'	c #60E2A8",
"R'	c #91D0B6",
"S'	c #C1C1C2",
"T'	c #C6C6C6",
"U'	c #C0BFBF",
"V'	c #B8BABA",
"W'	c #72C9A5",
"X'	c #23DC93",
"Y'	c #24D390",
"Z'	c #667E74",
"['	c #4E9B7A",
"]'	c #40B684",
"^'	c #36D692",
"_'	c #2AED9B",
"`'	c #39F0A4",
"a'	c #55E7A6",
"b'	c #6EDDAF",
"c'	c #8DD4B7",
"d'	c #A9C8B9",
"e'	c #C9BEC3",
"f'	c #CEBFC6",
"g'	c #C5C0C2",
"h'	c #89CCAD",
"i'	c #4BE7A4",
"j'	c #50DEA2",
"k'	c #5EDFA6",
"l'	c #6CDCAE",
"m'	c #79DBB2",
"n'	c #90CFB6",
"o'	c #D1D6D4",
"p'	c #DDD8DA",
"q'	c #CDC4C8",
"r'	c #C7BDC1",
"s'	c #E1E2E2",
"t'	c #DFE0DF",
"! ! ! ! ! ! # ! $ % & ' ' & ' & ( ) * + , ! ! ! ! ! $ - . ( ' ' ",
"! ! ! ! $ 0 1 2 3 ' ( & & & ' 4 5 $ , + + ! ! ! ! ! 6 . ( ' ' ' ",
"! ! ! 7 8 9 : ; < ' & & & ' ( 5 $ ! ! ! , , , ! # 6 & ( ' ' ' ' ",
"! ! = > + ? @ A B C ) . & ' D $ ! ! ! ! ! , , # 6 & ( ' ' ' ' ( ",
", 1 E F G & ? H I J D K . L M $ ! ! , , ! ! $ 3 & ( ' ' ' ' 4 ) ",
"! N O 7 P F 0 Q R S T = # 2 U M , + + , , $ 3 & ( ' ( ' ' 4 ) # ",
"$ V W C X Y Z [ ] ^ _ ` : a b 6 c d e ! f g h i j & & k ( ) # ! ",
"M l m n o p q r s t u o _ : v w x y z { | } ~  !!!#!$!%!&!'!! ! ",
"$ (!)!^ *!+!q ,!-!.!0!1!2!3!4!5!6!7!8!9!:!;!<!=!>!?!@!A!B!C!D!! ",
"L &!E!F!G!R * H!I!4!J!K!L!K!M!N!O!P!Q!R!S!T!U!V!W!X!Y!Z![!]!^!_!",
"( & &!p `!S a!b!c!0!d!e!f!g!h!d!i!j!k!l!m!n!o!p!q!r!s!t!u!v!w!x!",
"' ' ' y!z!4 ,!{!|!1!}!~!&  #!#M!##$#%#&#'#(#)#*#+#,#-#.#0#1#2#3#",
"' ' ' ( 5 + 4#5#: 6#1!7# #8#9#:#;#<#=#>#?#@#A#B#C#D#E#F#G#H#I#J#",
"' ' ( ' y!, 2 o K#K#L#M#N#L#O#P#Q#R#q S#T#U#V#W#X#Y#Z#[#]#^#_#`#",
"' ( ' y!# , + a#b#c#d#e#f#7#g#h#i#j#k#l#m#n#o#p#q#r#s#t#u#v#w#x#",
"( & % # , , d y#z#{# #|#}#~# $!$#$$$%$&$'$($)$*$+$,$-$.$0$1$2$3$",
"& 3 # , , , d 4$5$6$7$8$9$:$;$<$=$>$?$@$A$B$C$D$E$F$G$H$I$J$K$L$",
"6 $ , , , , ! M$N$O$P$Q$R$S$T$U$V$W$X$Y$Z$[$]$^$_$`$a$b$c$d$e$k ",
"# ! + , ! ! ! f$g$h$F i$j$k$l$m$n$o$p$q$r$s$t$u$v$w$x$y$z${$|$& ",
"! ! * + , ! ! }$~$ %!%#%$%%%&%'%(%)%*%+%,%-%.%0%1%2%3%4%5%6%7%& ",
"! ! * , , ! $ 8%9%:%;%<%=%>%?%@%A%B%C%D%E%F%G%H%I%J%K%L%M%N%O%k ",
"! ! + , , # ) P%Q%R%S%T%U%V%W%X%Y%C%Z%[%]%^%_%`%a%b%c%d%e%f%g%k ",
"! ! , , ! ) 4 h%i%j%k%l%m%n%o%p%q%r%s%t%u%v%w%x%y%z%{%|%}%~% &!&",
"! ! ! ! #&4 ' $&%&&&'&(&)&*&+&,&-&.&0&1&2&3&4&5&6&7&8&9&:&;&<&# ",
"! ! # #&4 ' ' $&=&>&?&@&A&B&C&D&E&F&G&H&I&J&K&L&M&N&O&P&Q&R&S&T&",
"! # #&4 ' ' ' . U&V&W&X&Y&Z&[&]&^&_&`&a&b&c&d&e&f&g&h&i&j&k&l&m&",
"# #&4 ' ' ' ' ' n&o&p&q&r&s&t&u&v&w&x&y&z&{&|&}&~& '!'#'$'%'&'m&",
"''4 ' ' ' ' ( . (')'*'+','-'.'0'1'2'3'4'5'6'7'8'9':';'<'='>'?'m&",
"( ' ' ' ' ( . - M $ @'A'B'C'D'E'F'G'H'I'J'K'L'M'N'O'P'Q'R'^#d S'",
"' ' ' ' ( . T'$ ! ! $ U'V'W'X'Y'Z'[']'^'_'`'a'b'c'd'e'f'g'e ! ! ",
"' ' ' 4 . - $ ! ! ! ! # '!U h'i'j'k'l'm'n'o'p'q'r'g'! S'! ! ! ! ",
"' ' ( !%T'# ! ! ! ! ! ! ! ! #&s't'& j j %!. 6 $ ! ! ! ! ! ! ! ! "};