/* XPM */
static char *NORM_xpm[]={
"32 32 625 2",
"      c #C1C1C1",
" 0    c #BEC2C1",
" 1    c #ACCDC1",
" 2    c #9FD5C1",
" 3    c #95DEC1",
" 4    c #90E4C0",
" 5    c #97E4C0",
" 6    c #A4DEC1",
" 7    c #B1D6C0",
" 8    c #BACDC1",
" 9    c #C0C2C1",
" a    c #B5C6C1",
" b    c #96D5C1",
" c    c #7BE1C1",
" d    c #76E5C4",
" e    c #76E9C7",
" f    c #7CEAC7",
" g    c #86EAC7",
" h    c #8FE9C6",
" i    c #9BE6C3",
" j    c #A8E3C2",
" k    c #B8D6C1",
" l    c #BFC6C0",
" m    c #BAC3C1",
" n    c #85D4C1",
" o    c #5EDFC5",
" p    c #5CDFCA",
" q    c #64DED0",
" r    c #6CDDD3",
" s    c #74DDD5",
" t    c #7CDDD6",
" u    c #85DDD6",
" v    c #8DDED5",
" w    c #95DED2",
" x    c #9CDECF",
" y    c #A5DFCA",
" z    c #B0DFC3",
" A    c #BCD3BD",
" B    c #C1C3C1",
" C    c #A4C7C1",
" D    c #59D6C3",
" E    c #4DD7CC",
" F    c #55D5D3",
" G    c #5DD5D8",
" H    c #65D4DB",
" I    c #6DD3DE",
" J    c #75D3E0",
" K    c #7DD3E0",
" L    c #85D3E0",
" M    c #8DD4DF",
" N    c #95D4DD",
" O    c #9CD5DA",
" P    c #A4D5D7",
" Q    c #ACD6D2",
" R    c #B6D7CB",
" S    c #C2D8C3",
" T    c #C3C6BE",
" U    c #9BC7C2",
" V    c #45CFC5",
" W    c #44CED2",
" X    c #4DCCD8",
" Y    c #55CCDD",
" Z    c #5DCBE1",
" &    c #65CAE3",
"0     c #6CCAE5",
"00    c #74C9E6",
"01    c #7DC9E7",
"02    c #85CAE7",
"03    c #8DCAE6",
"04    c #95CBE5",
"05    c #9CCBE2",
"06    c #A3CBE0",
"07    c #ACCCDC",
"08    c #B4CCD6",
"09    c #BDCDCF",
"0a    c #C8D1C4",
"0b    c #C4C4BC",
"0c    c #A2C3C1",
"0d    c #3DC7C6",
"0e    c #3CC5D3",
"0f    c #45C4DA",
"0g    c #4DC3E0",
"0h    c #56C2E4",
"0i    c #5DC2E7",
"0j    c #65C2EA",
"0k    c #6EC1EB",
"0l    c #75C1EC",
"0m    c #7DC1ED",
"0n    c #84C1ED",
"0o    c #8DC1EC",
"0p    c #94C1EA",
"0q    c #9CC2E9",
"0r    c #A3C1E6",
"0s    c #ABC2E3",
"0t    c #B3C4DE",
"0u    c #BCC4D8",
"0v    c #C6C5D0",
"0w    c #D0C8C4",
"0x    c #C4C1BD",
"0y    c #B7C1C1",
"0z    c #41BFC4",
"0A    c #33BDD1",
"0B    c #3DBCDB",
"0C    c #46BCE0",
"0D    c #4EBBE5",
"0E    c #57BAEA",
"0F    c #5DB9EC",
"0G    c #65B9EE",
"0H    c #6DB9F0",
"0I    c #75B9F1",
"0J    c #7DB9F1",
"0K    c #84B8F1",
"0L    c #8CB9F0",
"0M    c #94B9F0",
"0N    c #9CB9ED",
"0O    c #A3BAEB",
"0P    c #ABBAE9",
"0Q    c #B3BAE4",
"0R    c #BCBBDE",
"0S    c #C4BCD8",
"0T    c #CFBECE",
"0U    c #D8C2C2",
"0V    c #C3C1C0",
"0W    c #6DBCC0",
"0X    c #2BB5CD",
"0Y    c #35B4D9",
"0Z    c #3EB4E0",
"0&    c #47B3E5",
"1     c #4FB2EB",
"10    c #57B2EE",
"11    c #5EB1F1",
"12    c #65B1F2",
"13    c #6DB1F4",
"14    c #75B1F4",
"15    c #7DB1F5",
"16    c #84B1F5",
"17    c #8DB1F5",
"18    c #94B1F4",
"19    c #9BB1F1",
"1a    c #A4B2F0",
"1b    c #ABB2EE",
"1c    c #B3B2E9",
"1d    c #BBB2E4",
"1e    c #C3B3DE",
"1f    c #CDB4D6",
"1g    c #D8B6CC",
"1h    c #D3BCBC",
"1i    c #ADBFC1",
"1j    c #2CAFC7",
"1k    c #2BACD5",
"1l    c #36ACDE",
"1m    c #3FABE4",
"1n    c #48ABEA",
"1o    c #4FAAEE",
"1p    c #57AAF1",
"1q    c #5EA9F3",
"1r    c #65AAF5",
"1s    c #6EA9F7",
"1t    c #75A9F8",
"1u    c #7DA9F8",
"1v    c #85A9F8",
"1w    c #8CA9F8",
"1x    c #94A9F6",
"1y    c #9BA9F4",
"1z    c #A3A9F3",
"1A    c #AAAAF0",
"1B    c #B2AAED",
"1C    c #BAABE8",
"1D    c #C2ABE2",
"1E    c #CBABDC",
"1F    c #D6ACD2",
"1G    c #DFB0C3",
"1H    c #C7BFC0",
"1I    c #BCC0C1",
"1J    c #78B6C0",
"1K    c #22A5CE",
"1L    c #2DA5DA",
"1M    c #36A3E2",
"1N    c #3FA3E8",
"1O    c #47A3ED",
"1P    c #4FA3F0",
"1Q    c #57A2F3",
"1R    c #5FA2F6",
"1S    c #66A2F7",
"1T    c #6DA2F9",
"1U    c #75A2FA",
"1V    c #7CA2FB",
"1W    c #85A1FA",
"1X    c #8CA2FA",
"1Y    c #94A2F8",
"1Z    c #9BA2F8",
"1&    c #A2A2F5",
"2     c #AAA3F2",
"20    c #B2A3F0",
"21    c #B9A3EB",
"22    c #C2A3E6",
"23    c #CBA4E0",
"24    c #D4A4D7",
"25    c #DFA5CA",
"26    c #D6B8C0",
"27    c #C3C0C1",
"28    c #99B9C0",
"29    c #3FA6C3",
"2a    c #249DD4",
"2b    c #2E9DDD",
"2c    c #379CE5",
"2d    c #409BEA",
"2e    c #489BEF",
"2f    c #4F9BF2",
"2g    c #579AF5",
"2h    c #5E9BF8",
"2i    c #679AF9",
"2j    c #6D9BFB",
"2k    c #759BFC",
"2l    c #7D9BFD",
"2m    c #859BFD",
"2n    c #8C9BFC",
"2o    c #949BFB",
"2p    c #9B9BF9",
"2q    c #A39BF8",
"2r    c #AA9BF4",
"2s    c #B29BF1",
"2t    c #B99BEE",
"2u    c #C19CE9",
"2v    c #CA9CE3",
"2w    c #D49DDB",
"2x    c #DE9DCF",
"2y    c #E3A8C2",
"2z    c #CDBAC1",
"2A    c #79B0C1",
"2B    c #2B9BC6",
"2C    c #2495D7",
"2D    c #2E95E0",
"2E    c #3794E7",
"2F    c #4094EC",
"2G    c #4993F1",
"2H    c #5093F4",
"2I    c #5793F7",
"2J    c #5F94F9",
"2K    c #6693FB",
"2L    c #6E93FC",
"2M    c #7593FD",
"2N    c #7D93FE",
"2O    c #8493FD",
"2P    c #8C93FD",
"2Q    c #9493FC",
"2R    c #9B93FA",
"2S    c #A293F8",
"2T    c #AA93F6",
"2U    c #B193F3",
"2V    c #B993F0",
"2W    c #C194EB",
"2X    c #CA95E6",
"2Y    c #D395DE",
"2Z    c #DD95D3",
"2&    c #E79BC4",
"3     c #D6B1C0",
"30    c #5BA3C2",
"31    c #1E8ECB",
"32    c #258DD8",
"33    c #2F8DE1",
"34    c #388CE9",
"35    c #408CED",
"36    c #488CF2",
"37    c #508CF5",
"38    c #578CF8",
"39    c #5F8BFA",
"3a    c #668CFC",
"3b    c #6E8CFD",
"3c    c #758CFE",
"3d    c #7D8CFE",
"3e    c #848CFE",
"3f    c #8C8CFE",
"3g    c #938BFC",
"3h    c #9B8CFB",
"3i    c #A28BFA",
"3j    c #AA8CF8",
"3k    c #B18DF5",
"3l    c #B98CF0",
"3m    c #C18CEC",
"3n    c #C98CE7",
"3o    c #D38DDF",
"3p    c #DC8DD5",
"3q    c #E98FC6",
"3r    c #DEA5C1",
"3s    c #4496C4",
"3t    c #1A86CC",
"3u    c #2585D9",
"3v    c #2F85E2",
"3w    c #3985E9",
"3x    c #4085EE",
"3y    c #4884F3",
"3z    c #5085F6",
"3A    c #5784F8",
"3B    c #5F85FA",
"3C    c #6785FC",
"3D    c #6E84FE",
"3E    c #7585FF",
"3F    c #7C85FF",
"3G    c #8484FF",
"3H    c #8C85FE",
"3I    c #9485FD",
"3J    c #9A85FB",
"3K    c #A284FA",
"3L    c #AA85F8",
"3M    c #B185F5",
"3N    c #B985F1",
"3O    c #C185ED",
"3P    c #CA84E8",
"3Q    c #D285E0",
"3R    c #DD86D7",
"3S    c #E986C7",
"3T    c #E497C1",
"3U    c #448FC3",
"3V    c #1A7CCC",
"3W    c #257CDA",
"3X    c #2E7CE2",
"3Y    c #387DE8",
"3Z    c #417DEE",
"3&    c #487DF3",
"4     c #507DF6",
"40    c #577DF9",
"41    c #5F7CFA",
"42    c #667DFC",
"43    c #6E7CFE",
"44    c #767DFF",
"45    c #7D7DFF",
"46    c #857DFF",
"47    c #8C7DFE",
"48    c #947DFD",
"49    c #9A7CFC",
"4a    c #A27DFA",
"4b    c #AA7DF8",
"4c    c #B17CF5",
"4d    c #B97DF2",
"4e    c #C17DED",
"4f    c #CA7DE7",
"4g    c #D27CE0",
"4h    c #DD7DD7",
"4i    c #E97DC8",
"4j    c #E390C0",
"4k    c #5C94C2",
"4l    c #1E76CB",
"4m    c #2674D8",
"4n    c #2F75E0",
"4o    c #3774E8",
"4p    c #4175EE",
"4q    c #4875F2",
"4r    c #5075F6",
"4s    c #5775F8",
"4t    c #5E75FA",
"4u    c #6676FC",
"4v    c #6E76FD",
"4w    c #7575FE",
"4x    c #7D76FE",
"4y    c #8476FE",
"4z    c #8C75FE",
"4A    c #9375FD",
"4B    c #9B76FB",
"4C    c #A275FA",
"4D    c #AA76F8",
"4E    c #B175F5",
"4F    c #B975F1",
"4G    c #C075ED",
"4H    c #C974E6",
"4I    c #D274E0",
"4J    c #DE75D7",
"4K    c #E977C7",
"4L    c #DE95C1",
"4M    c #799EC1",
"4N    c #2B74C8",
"4O    c #256CD7",
"4P    c #2F6CDF",
"4Q    c #376DE7",
"4R    c #416DED",
"4S    c #496DF2",
"4T    c #4F6DF4",
"4U    c #576DF7",
"4V    c #5F6DF9",
"4W    c #666EFC",
"4X    c #6E6EFD",
"4Y    c #756EFD",
"4Z    c #7C6EFD",
"4&    c #846EFD",
"5     c #8C6EFE",
"50    c #936EFC",
"51    c #9B6EFB",
"52    c #A36DF9",
"53    c #AA6DF7",
"54    c #B26EF3",
"55    c #B96DF0",
"56    c #C06DEB",
"57    c #C96DE6",
"58    c #D26CDE",
"59    c #DD6CD4",
"5a    c #E775C4",
"5b    c #D69FC1",
"5c    c #99ACC0",
"5d    c #407AC4",
"5e    c #2465D5",
"5f    c #2F65DE",
"5g    c #3765E5",
"5h    c #4166EB",
"5i    c #4865EF",
"5j    c #5066F3",
"5k    c #5866F6",
"5l    c #5F67F8",
"5m    c #6767FA",
"5n    c #6D67FB",
"5o    c #7467FD",
"5p    c #7D66FD",
"5q    c #8567FD",
"5r    c #8C67FC",
"5s    c #9366FB",
"5t    c #9B66F9",
"5u    c #A267F8",
"5v    c #AA65F5",
"5w    c #B266F2",
"5x    c #B966EF",
"5y    c #C266E9",
"5z    c #CA65E4",
"5A    c #D365DC",
"5B    c #DD63D1",
"5C    c #E37AC3",
"5D    c #CDADC1",
"5E    c #BCBEC1",
"5F    c #7995C1",
"5G    c #235CD0",
"5H    c #2E5DDB",
"5I    c #375DE3",
"5J    c #3F5EE8",
"5K    c #475EED",
"5L    c #505EF1",
"5M    c #575FF4",
"5N    c #5F5FF7",
"5O    c #665FF8",
"5P    c #6E5FF9",
"5Q    c #745FFA",
"5R    c #7D5FFA",
"5S    c #845EFA",
"5T    c #8D5FFA",
"5U    c #945FFA",
"5V    c #9B5FF8",
"5W    c #A25FF5",
"5X    c #AA5FF3",
"5Y    c #B15EF0",
"5Z    c #B95EEB",
"5&    c #C25DE7",
"6     c #CB5DE0",
"60    c #D45DD8",
"61    c #DF5BCC",
"62    c #D596C1",
"63    c #C3BEC1",
"64    c #ADB4C0",
"65    c #2D5BC8",
"66    c #2D55D6",
"67    c #3655E0",
"68    c #3F56E6",
"69    c #4756EB",
"6a    c #4F57ED",
"6b    c #5757F1",
"6c    c #5E57F3",
"6d    c #6657F5",
"6e    c #6D57F7",
"6f    c #7557F9",
"6g    c #7D57F8",
"6h    c #8457F8",
"6i    c #8B58F8",
"6j    c #9357F7",
"6k    c #9C57F5",
"6l    c #A357F3",
"6m    c #AA57F0",
"6n    c #B257ED",
"6o    c #BA56E8",
"6p    c #C256E3",
"6q    c #CB55DD",
"6r    c #D554D4",
"6s    c #DF5BC5",
"6t    c #C7B5C1",
"6u    c #6E84C1",
"6v    c #2B4CD0",
"6w    c #364DDB",
"6x    c #3E4EE2",
"6y    c #464EE7",
"6z    c #4E4FEA",
"6A    c #564FEE",
"6B    c #5E50F1",
"6C    c #6650F3",
"6D    c #6E50F4",
"6E    c #7450F6",
"6F    c #7D50F7",
"6G    c #8450F6",
"6H    c #8C50F5",
"6I    c #934FF4",
"6J    c #9B4FF2",
"6K    c #A34FF1",
"6L    c #AB4FEE",
"6M    c #B34FEA",
"6N    c #BA4DE5",
"6O    c #C34DDF",
"6P    c #CD4CD8",
"6Q    c #D64ACD",
"6R    c #D585C1",
"6S    c #B7BAC1",
"6T    c #4258C6",
"6U    c #3544D4",
"6V    c #3D45DC",
"6W    c #4646E1",
"6X    c #4E47E7",
"6Y    c #5647EA",
"6Z    c #5D47ED",
"6&    c #6548EF",
"7     c #6E48F1",
"70    c #7448F1",
"71    c #7D48F3",
"72    c #8448F2",
"73    c #8D48F2",
"74    c #9448F0",
"75    c #9B48EF",
"76    c #A347EC",
"77    c #AB47E9",
"78    c #B247E6",
"79    c #BB46E1",
"7a    c #C446DA",
"7b    c #CD44D1",
"7c    c #D657C4",
"7d    c #C4BAC1",
"7e    c #A1A5C0",
"7f    c #3F46C9",
"7g    c #3D3CD6",
"7h    c #463EDC",
"7i    c #4E3FE1",
"7j    c #563FE6",
"7k    c #5D3FE8",
"7l    c #6640EB",
"7m    c #6D3FED",
"7n    c #7541EE",
"7o    c #7D40EF",
"7p    c #8540EE",
"7q    c #8C40ED",
"7r    c #9540EC",
"7s    c #9B3FEA",
"7t    c #A33FE8",
"7u    c #AB3FE4",
"7v    c #B33FE0",
"7w    c #BC3DDA",
"7x    c #C43CD2",
"7y    c #CE45C7",
"7z    c #C7A6C1",
"7A    c #9B9BC0",
"7B    c #453FC9",
"7C    c #4435D4",
"7D    c #4E35DA",
"7E    c #5536DF",
"7F    c #5D37E2",
"7G    c #6538E6",
"7H    c #6D37E8",
"7I    c #7538E9",
"7J    c #7C37E9",
"7K    c #8537E9",
"7L    c #8C38E8",
"7M    c #9437E7",
"7N    c #9C37E4",
"7O    c #A437E2",
"7P    c #AC36DE",
"7Q    c #B435D9",
"7R    c #BD34D2",
"7S    c #C73DC7",
"7T    c #C79CC2",
"7U    c #A4A1C1",
"7V    c #5944C7",
"7W    c #4C2CD1",
"7X    c #552DD7",
"7Y    c #5D2DDB",
"7Z    c #652FDE",
"7&    c #6D2EE0",
"8     c #742FE2",
"80    c #7C2FE2",
"81    c #852FE3",
"82    c #8D30E2",
"83    c #952EDF",
"84    c #9D2EDE",
"85    c #A52EDA",
"86    c #AD2DD5",
"87    c #B52BCF",
"88    c #BF44C4",
"89    c #C4A0C1",
"8a    c #BAB8C1",
"8b    c #846EC2",
"8c    c #5D30C9",
"8d    c #5D24D0",
"8e    c #6424D4",
"8f    c #6C25D7",
"8g    c #7425D9",
"8h    c #7C26DA",
"8i    c #8426D9",
"8j    c #8D26D9",
"8k    c #9525D6",
"8l    c #9E24D3",
"8m    c #A522CF",
"8n    c #B02FC6",
"8o    c #BD6EC1",
"8p    c #C1B8C1",
"8q    c #B4AEC1",
"8r    c #9579C1",
"8s    c #7A40C4",
"8t    c #752DC8",
"8u    c #761DCB",
"8v    c #7C1ACC",
"8w    c #851ACC",
"8x    c #8E1DCA",
"8y    c #9B2CC7",
"8z    c #A640C3",
"8A    c #B578C1",
"8B    c #BFAEC1",
"8C    c #BEBCC1",
"8D    c #AC99C1",
"8E    c #9F7BC1",
"8F    c #935BC2",
"8G    c #9044C4",
"8H    c #9644C3",
"8I    c #A25BC2",
"8J    c #B07BC1",
"8K    c #B999C0",
"8L    c #C0BCC1",
"                                                                ",
"                                                                ",
"                       0 1 2 3 4 5 6 7 8 9                      ",
"                     a b c d e f g h i j k l                    ",
"                 m n o p q r s t u v w x y z A B                ",
"               C D E F G H I J K L M N O P Q R S T              ",
"             U V W X Y Z &0 000102030405060708090a0b            ",
"          0c0d0e0f0g0h0i0j0k0l0m0n0o0p0q0r0s0t0u0v0w0x          ",
"        0y0z0A0B0C0D0E0F0G0H0I0J0K0L0M0N0O0P0Q0R0S0T0U0V        ",
"        0W0X0Y0Z0&1 101112131415161718191a1b1c1d1e1f1g1h        ",
"      1i1j1k1l1m1n1o1p1q1r1s1t1u1v1w1x1y1z1A1B1C1D1E1F1G1H      ",
"    1I1J1K1L1M1N1O1P1Q1R1S1T1U1V1W1X1Y1Z1&2 2021222324252627    ",
"    28292a2b2c2d2e2f2g2h2i2j2k2l2m2n2o2p2q2r2s2t2u2v2w2x2y2z    ",
"    2A2B2C2D2E2F2G2H2I2J2K2L2M2N2O2P2Q2R2S2T2U2V2W2X2Y2Z2&3     ",
"    303132333435363738393a3b3c3d3e3f3g3h3i3j3k3l3m3n3o3p3q3r    ",
"    3s3t3u3v3w3x3y3z3A3B3C3D3E3F3G3H3I3J3K3L3M3N3O3P3Q3R3S3T    ",
"    3U3V3W3X3Y3Z3&4 404142434445464748494a4b4c4d4e4f4g4h4i4j    ",
"    4k4l4m4n4o4p4q4r4s4t4u4v4w4x4y4z4A4B4C4D4E4F4G4H4I4J4K4L    ",
"    4M4N4O4P4Q4R4S4T4U4V4W4X4Y4Z4&5 505152535455565758595a5b    ",
"    5c5d5e5f5g5h5i5j5k5l5m5n5o5p5q5r5s5t5u5v5w5x5y5z5A5B5C5D    ",
"    5E5F5G5H5I5J5K5L5M5N5O5P5Q5R5S5T5U5V5W5X5Y5Z5&6 60616263    ",
"      6465666768696a6b6c6d6e6f6g6h6i6j6k6l6m6n6o6p6q6r6s6t      ",
"        6u6v6w6x6y6z6A6B6C6D6E6F6G6H6I6J6K6L6M6N6O6P6Q6R        ",
"        6S6T6U6V6W6X6Y6Z6&7 707172737475767778797a7b7c7d        ",
"          7e7f7g7h7i7j7k7l7m7n7o7p7q7r7s7t7u7v7w7x7y7z          ",
"            7A7B7C7D7E7F7G7H7I7J7K7L7M7N7O7P7Q7R7S7T            ",
"              7U7V7W7X7Y7Z7&8 80818283848586878889              ",
"                8a8b8c8d8e8f8g8h8i8j8k8l8m8n8o8p                ",
"                    8q8r8s8t8u8v8w8x8y8z8A8B                    ",
"                      8C8D8E8F8G8H8I8J8K8L                      ",
"                                                                ",
"                                                                "};
