/* XPM */
static char * image_name[]={
"32 32 44 2",
"  	c #D21EE6",
". 	c #FF00FF",
"X 	c #4E125D",
"o 	c #1A1A1A",
"O 	c #171717",
"+ 	c #141414",
"@ 	c #000001",
"# 	c #000000",
"$ 	c #030303",
"% 	c #0A0A0A",
"& 	c #0F0F0F",
"* 	c #050505",
"= 	c #6B3939",
"- 	c #121212",
"; 	c #080808",
": 	c #8E2323",
"> 	c #A52A2A",
", 	c #A22E61",
"< 	c #FF7256",
"1 	c #D52079",
"2 	c #FF6347",
"3 	c #DB7093",
"4 	c #0D0D0D",
"5 	c #F08080",
"6 	c #DA322D",
"7 	c #333333",
"8 	c #EDEDED",
"9 	c #CCCCCC",
"0 	c #787878",
"q 	c #BABABA",
"w 	c #757575",
"e 	c #BDBDBD",
"r 	c #999999",
"t 	c #878787",
"y 	c #8A8A8A",
"u 	c #424242",
"i 	c #DCDCDC",
"p 	c #FFFFFF",
"a 	c #636363",
"s 	c #A8A8A8",
"d 	c #292929",
"f 	c #454545",
"g 	c #212121",
"h 	c #242424",
"  . . . . . . . . . . . . . . . . . . . . . . . . . . . . . .   ",
". . . . . . . . . . . . . . . . . . . . . . . . . . . . . . . . ",
". . X o o o O O o O O O o O O O O o o O O O O o O O o o o X . . ",
". . + @ # # # # # # @ @ # # # # # # # # # # # # # # # # @ + . . ",
". . o # @ # @ @ # # # # # # @ @ @ @ @ @ @ @ # # @ @ # @ # o . . ",
". . o @ # @ @ # # # # # # # # # # # @ # # # # # # @ @ # @ o . . ",
". . O # @ # # # # @ @ @ $ % & & & % * $ # @ @ @ # # # @ # O . . ",
". . O # # @ # @ # # $ & = = = = = = O - ; # # # @ # @ # # O . . ",
". . o # @ # @ # # ; = = = : : = = = = = + % $ @ @ @ # # # o . . ",
". . O # # # @ # * = = : : : > : : = = = = + % $ # @ # # # o . . ",
". . o @ # # @ $ = = : > > , < > : : = = = = & ; # @ # # # O . . ",
". . o # # # # & = : > , 1 1 2 1 > : : = = = + % $ # # # # O . . ",
". . O # # # $ = = : > 1 2 3 3 1 > : : = = = O 4 * @ # # # O . . ",
". . o # # # * = = : > 2 3 5 5 < 2 > : = = = O & ; $ # # # O . . ",
". . o # # # 4 = = : > 1 < 3 3 < 2 > : = = = O & ; # # @ # O . . ",
". . o # @ # 4 = = : : > 1 2 < 2 > : : = = = O & * # # @ # O . . ",
". . O # # # % = = = : > > 6 2 > > : = = = = + 4 * # # @ # O . . ",
". . O # # # ; = = = : : : : > > : = = = = O & % $ # # @ # O . . ",
". . o # # # $ + = = = = : : : = = = = = = + 4 ; $ # # # # O . . ",
". . O # # # # 4 = = = = = = = = = = = = O - % $ $ # # # # O . . ",
". . O # # # # * - = = = = = = = = = = O & % * $ # # # # # o . . ",
". . O # # # @ # ; & O = = = = = = O + & % ; $ # # # # # # o . . ",
". . O # # # @ # # ; 4 - + O + + - & 4 ; * $ # @ # # # # # o . . ",
". . o # # # # # @ $ * % 4 4 4 4 % ; ; * # # # # # # # # # o . . ",
". . O # # @ # @ # # # # $ * * * * * $ $ # # # # @ # # # @ o . . ",
". . O # @ # # # @ @ @ # # # # # # # # # @ # # # # # # # # o . . ",
". . o @ # @ @ # # # # # # # # # # # # 7 8 9 0 q w e r t y O . . ",
". . o # @ # @ @ # # # # # # @ @ # # # u i e 0 p a p r q s d . . ",
". . + @ # # # # # # # # # # # # @ # # # f 7 - f g f 7 g h + . . ",
". . X o o o O O O O O O O O O O o o o o o o o o o O o o o X . . ",
". . . . . . . . . . . . . . . . . . . . . . . . . . . . . . . . ",
"  . . . . . . . . . . . . . . . . . . . . . . . . . . . . . .   "
};
