/* XPM */
static char * image_name[]={
"32 32 47 2",
"  	c #D21EE6",
". 	c #FF00FF",
"X 	c #4E125D",
"o 	c #1A1A1A",
"O 	c #171717",
"+ 	c #141414",
"@ 	c #000001",
"# 	c #000000",
"$ 	c #050505",
"% 	c #030303",
"& 	c #0F0F0F",
"* 	c #212121",
"= 	c #6B3939",
"- 	c #2E2E2E",
"; 	c #8E2323",
": 	c #1C1C1C",
"> 	c #55562F",
", 	c #A52A2A",
"< 	c #0D0D0D",
"1 	c #121212",
"2 	c #303030",
"3 	c #4D4D4D",
"4 	c #4F4F4F",
"5 	c #262626",
"6 	c #525252",
"7 	c #333333",
"8 	c #545454",
"9 	c #0A0A0A",
"0 	c #1F1F1F",
"q 	c #080808",
"w 	c #2B2B2B",
"e 	c #292929",
"r 	c #242424",
"t 	c #F0F0F0",
"y 	c #CCCCCC",
"u 	c #787878",
"i 	c #BABABA",
"p 	c #757575",
"a 	c #BDBDBD",
"s 	c #999999",
"d 	c #878787",
"f 	c #8A8A8A",
"g 	c #454545",
"h 	c #DCDCDC",
"j 	c #FFFFFF",
"k 	c #636363",
"l 	c #A8A8A8",
"  . . . . . . . . . . . . . . . . . . . . . . . . . . . . . .   ",
". . . . . . . . . . . . . . . . . . . . . . . . . . . . . . . . ",
". . X o o o O O o o O o o O O o O o o O O O O o O O o o o X . . ",
". . + @ # # # # # # # @ # # # # # # # # # @ @ # # # # # @ + . . ",
". . o # @ # @ @ # # # # # # @ # # # @ # # # # # @ @ # @ # o . . ",
". . o @ # @ @ # # # # # # @ # $ % # # # # # # # # @ @ # @ o . . ",
". . O # @ # # # # @ @ % & * = = = = = o $ # @ @ # # # @ # O . . ",
". . O # # @ # @ @ # & - = = = = = = ; ; ; : # # @ # @ # # O . . ",
". . O # # # # @ # o = > > > > = = = = = ; , = @ # # @ # # O . . ",
". . o @ # @ # # o > > > > > > > > = = = = = , = # @ # # @ O . . ",
". . O # # @ @ < = > > > > > > > > > = = = = = ; 1 @ @ # # O . . ",
". . O # # @ % 2 > > > 3 > > > > > > > > = = = ; = % # # @ o . . ",
". . O # # @ & > > > 3 4 3 > > > > > > > = = = = ; + # # # o . . ",
". . O # # @ 5 > > 6 6 > 4 > 3 > > > > > > = = = = = # @ # o . . ",
". . o # # # 7 > 3 4 6 6 4 6 4 > > > > > > = = = = = # # # o . . ",
". . o # @ # = > 4 6 6 6 6 6 4 > > > > > > = = = = = % # @ o . . ",
". . O # @ # = 3 4 6 6 8 6 6 6 > > > > > > = = = = = @ # @ O . . ",
". . O # % # 2 > 4 6 6 6 6 6 4 4 > > > > > = = = = = # # # O . . ",
". . o # # # 5 > 3 4 6 4 4 4 4 3 > > > > > = = = = o # # # O . . ",
". . O # # @ 1 > > 3 4 4 4 6 3 3 > > > > = = = = = 9 # @ # o . . ",
". . O # # @ % 7 > > 3 4 4 3 3 > > > > > = = = = 0 % # @ # o . . ",
". . O # # @ # < > > > > > > > > > > > = = = = 5 q # # @ # o . . ",
". . o # # @ # # O > > > > > > > > > > = = = w < # # @ # # O . . ",
". . o # # # # @ # : > > > > > > > = = = = e 1 # @ # # # # O . . ",
". . O # # @ # @ @ # & - = > > = = = = - 0 q # @ @ # # # @ o . . ",
". . O # @ # # # # # # @ & : e w w r O 9 # @ # # # # # # # o . . ",
". . o @ # @ @ # # @ @ @ # # # # # # # 7 t y u i p a s d f O . . ",
". . o # @ # @ @ # # # # # @ # @ @ # # g h i p j k j s i l e . . ",
". . + @ # # # # # # # # @ # # # # # # # g 7 1 g * g 7 * r + . . ",
". . X o o o O O o o o O o o O O o O O O O O o o o O o o o X . . ",
". . . . . . . . . . . . . . . . . . . . . . . . . . . . . . . . ",
"  . . . . . . . . . . . . . . . . . . . . . . . . . . . . . .   "
};
