/* XPM */
static char * image_name[]={
"32 32 90 2",
"  	c #D21EE6",
". 	c #FF00FF",
"X 	c #4E125D",
"o 	c #DEB887",
"O 	c #FFF0F5",
"+ 	c #595959",
"@ 	c #1A1A1A",
"# 	c #171717",
"$ 	c #9B7071",
"% 	c #BD52BD",
"& 	c #6B6B6B",
"* 	c #BC8F8F",
"= 	c #DCDCDC",
"- 	c #D8BFD8",
"; 	c #2B2B2B",
": 	c #B5B5B5",
"> 	c #FFFFFF",
", 	c #FFFAFA",
"< 	c #545454",
"1 	c #0A0A0A",
"2 	c #0D0D0D",
"3 	c #B3B37E",
"4 	c #696969",
"5 	c #A1A1A1",
"6 	c #121212",
"7 	c #383838",
"8 	c #E5E5E5",
"9 	c #D4D4D4",
"0 	c #6B3939",
"q 	c #292929",
"w 	c #FAFAFA",
"e 	c #575757",
"r 	c #000000",
"t 	c #8F8F8F",
"y 	c #050505",
"u 	c #E8E8E8",
"i 	c #D6D6D6",
"p 	c #1F1F1F",
"a 	c #4D4D4D",
"s 	c #000001",
"d 	c #757575",
"f 	c #616161",
"g 	c #9E9E9E",
"h 	c #030303",
"j 	c #FCFCFC",
"k 	c #242424",
"l 	c #FFFFF0",
"z 	c #4F4F4F",
"x 	c #787878",
"c 	c #9C9C9C",
"v 	c #212121",
"b 	c #2E2E2E",
"n 	c #D9D9D9",
"m 	c #ABABAB",
"M 	c #303030",
"N 	c #141414",
"B 	c #969696",
"V 	c #FFFAF0",
"C 	c #0F0F0F",
"Z 	c #B0B0B0",
"A 	c #F7F7F7",
"S 	c #91535D",
"D 	c #6E6E6E",
"F 	c #8E2323",
"G 	c #E3E3E3",
"H 	c #73234E",
"J 	c #F5DEB3",
"K 	c #55562F",
"L 	c #B6E191",
"P 	c #B7644D",
"I 	c #F0F0F0",
"U 	c #1C1C1C",
"Y 	c #CCCCCC",
"T 	c #636363",
"R 	c #DEDEDE",
"E 	c #FAEBD7",
"W 	c #DBDBDB",
"Q 	c #999999",
"! 	c #96522D",
"~ 	c #262626",
"^ 	c #080808",
"/ 	c #333333",
"( 	c #EDEDED",
") 	c #BABABA",
"_ 	c #BDBDBD",
"` 	c #878787",
"' 	c #8A8A8A",
"] 	c #424242",
"[ 	c #A8A8A8",
"{ 	c #454545",
"  . . . . . . . . . . . . . . . . . . . . . . . . . . . . . .   ",
". . . . . . . . . . . . . . . . . . . . . . . . . . . . . . . . ",
". . X o O O O + @ # $ O O O % @ # & O O O * @ # X = O O - X . . ",
". . ; : > > , < 1 2 3 > > > 3 2 2 4 > > > 5 6 1 7 8 > > 9 0 . . ",
". . q : > > w e r r 3 > > > t y r & > > > 5 2 r 7 u > > i X . . ",
". . p : > > , a r s d > > > 3 r r f > > > g h r ; 8 > j i 0 . . ",
". . k : > > l z s r x > > > c q v $ > > > 5 y s b u > > n 0 . . ",
". . v : j > l z s r 3 > > > m 0 0 3 > > j 5 h s M u > > i 0 . . ",
". . k : > > , z s N B > > > o 0 0 3 > > > m 2 r b u > > i 0 . . ",
". . k : > > V a C 0 * > > > o 0 0 3 j > j Z v h b 8 > > i 0 . . ",
". . v : > > A e 0 0 o > > > o S 0 3 > > > Z ; C M 8 > > i 0 . . ",
". . v : > > w D 0 0 o > > > o S F 3 > > j Z b # 0 G > > i 0 . . ",
". . k : > > j $ 0 H o > > > J S S 3 > > > o 0 @ K 8 > > i 0 . . ",
". . v L > > > $ 0 H o > > > i P S * > > > o 0 @ K I > > = 0 . . ",
". . U 3 Y Y J T 0 0 $ R G E o $ S $ 9 W 9 3 q U b m Y Y Q k . . ",
". . @ 1 # @ 0 0 0 0 S S $ $ $ S S ! K K 0 0 q p # 6 @ @ 2 @ . . ",
". . # r r r p 0 0 0 0 S S S S S F 0 0 0 0 0 k @ 6 s r r r @ . . ",
". . # r r r @ 0 0 0 0 0 0 0 0 ! 0 0 0 0 0 q p # 2 r r r r @ . . ",
". . # r r r 6 0 0 0 0 0 0 0 0 0 0 0 0 0 0 ~ U N ^ r r r r @ . . ",
". . # r r r y ~ 0 0 0 0 0 0 0 0 0 0 0 0 k p # 2 h r r r r @ . . ",
". . # r r r r N ; 0 0 0 0 0 0 0 0 0 q k p @ 6 y r r r r r @ . . ",
". . # s r r s y U ~ 0 0 0 0 0 0 0 ~ k U # 6 ^ r r r r r r @ . . ",
". . # r r r s r ^ @ k ~ ~ ~ ~ k v v U # C ^ r r r r r r r @ . . ",
". . @ s s r r s s ^ N @ U p p U @ # 6 2 h r r r r r r r r # . . ",
". . # r r s r s r r h 1 C 6 N 6 C 1 y h r r r r s r r r s @ . . ",
". . # r s r r r r r r r s h h h r s r r r r r r r r r r r @ . . ",
". . @ s r s s r r r r r r r s r r r r / ( Y x ) d _ Q ` ' # . . ",
". . @ r s r s s r r r r r r r r r r r ] = _ x > T > Q ) [ q . . ",
". . N s r r r r r r r r r r r r s r r r ] / 6 { v { / v k N . . ",
". . X @ @ @ # # # # # # @ @ @ @ # @ @ @ @ @ @ @ @ # @ @ @ X . . ",
". . . . . . . . . . . . . . . . . . . . . . . . . . . . . . . . ",
"  . . . . . . . . . . . . . . . . . . . . . . . . . . . . . .   "
};
