/* XPM */ 
static char * render_al_sphere_lens_xpm[] = {
"32 32 448 2",
"  	c None",
"! 	c #C1C1C1",
"# 	c #C0C0C0",
"$ 	c #BFBFBF",
"% 	c #CACACA",
"& 	c #DFDFDF",
"' 	c #E0E0E0",
"( 	c #DEDEDE",
") 	c #CECECE",
"* 	c #C2C2C2",
"+ 	c #C7C7C7",
", 	c #E1E1E1",
"- 	c #B8B8B8",
". 	c #B2B2B2",
"0 	c #B9B9B9",
"1 	c #C9C9C9",
"2 	c #CFCFCF",
"3 	c #BEBEBE",
"4 	c #C3C3C3",
"5 	c #C8C8C8",
"6 	c #B4B4B4",
"7 	c #8F8F8F",
"8 	c #686868",
"9 	c #696969",
": 	c #A8A8A8",
"; 	c #D5D5D5",
"< 	c #D0D0D0",
"= 	c #B5B5B5",
"> 	c #BDBDBD",
"? 	c #9E9E9E",
"@ 	c #999999",
"A 	c #878787",
"B 	c #6F6F6F",
"C 	c #9D9D9D",
"D 	c #D1D1D1",
"E 	c #A2A2A2",
"F 	c #DDDDDD",
"G 	c #F1F1F1",
"H 	c #464646",
"I 	c #373737",
"J 	c #868686",
"K 	c #D8D8D8",
"L 	c #CDCDCD",
"M 	c #E2E2E2",
"N 	c #8E8E8E",
"O 	c #6E6E6E",
"P 	c #E6E6E6",
"Q 	c #AFAFAF",
"R 	c #EAEAEA",
"S 	c #FDFDFD",
"T 	c #D4D4D4",
"U 	c #BCBCBC",
"V 	c #767676",
"W 	c #404040",
"X 	c #A9A9A9",
"Y 	c #A3A3A3",
"Z 	c #DBDBDB",
"[ 	c #FEFEFE",
"] 	c #F6F6F6",
"^ 	c #7B7B7B",
"_ 	c #444444",
"` 	c #5D5D5D",
"a 	c #787878",
"b 	c #A5A5A5",
"c 	c #7F7F7F",
"d 	c #5C5C5C",
"e 	c #838383",
"f 	c #383838",
"g 	c #747474",
"h 	c #FAFAFA",
"i 	c #FBFBFB",
"j 	c #AEAEAE",
"k 	c #A1A1A1",
"l 	c #7D7D7D",
"m 	c #4E4E4E",
"n 	c #C5C5C5",
"o 	c #E4E4E4",
"p 	c #939393",
"q 	c #757575",
"r 	c #080808",
"s 	c #A0A0A0",
"t 	c #8D8D8D",
"u 	c #A7A7A7",
"v 	c #848484",
"w 	c #191919",
"x 	c black",
"y 	c #090909",
"z 	c #252525",
"{ 	c #494949",
"| 	c #5E5E5E",
"} 	c #D2D2D2",
"~ 	c #858585",
" !	c #5F5F5F",
"!!	c #0D0D0D",
"#!	c #C4C4C4",
"$!	c #3D3D3D",
"%!	c #7E7E7E",
"&!	c #424242",
"'!	c #2B2B2B",
"(!	c #2D2D2D",
")!	c #3B3B3B",
"*!	c #565656",
"+!	c #CBCBCB",
",!	c #E3E3E3",
"-!	c #212121",
".!	c #949494",
"0!	c #2E2E2E",
"1!	c #4A4A4A",
"2!	c #414141",
"3!	c #717171",
"4!	c #818181",
"5!	c #6C6C6C",
"6!	c #262626",
"7!	c #5B5B5B",
"8!	c #363636",
"9!	c #393939",
":!	c #0B0B0B",
";!	c #636363",
"<!	c #676767",
"=!	c #161616",
">!	c #DCDCDC",
"?!	c #989898",
"@!	c #343434",
"A!	c #010101",
"B!	c #353535",
"C!	c #313131",
"D!	c #242424",
"E!	c #484848",
"F!	c #DADADA",
"G!	c #E8E8E8",
"H!	c #EBEBEB",
"I!	c #525252",
"J!	c #202020",
"K!	c #222222",
"L!	c #232323",
"M!	c #DDDEDE",
"N!	c #D1D2D2",
"O!	c #A6AFAF",
"P!	c #7C8E8F",
"Q!	c #7D8F8E",
"R!	c #96A0A0",
"S!	c #ACB0B0",
"T!	c #B4B6B6",
"U!	c #4F4F4F",
"V!	c #555555",
"W!	c #434343",
"X!	c #333333",
"Y!	c #D9D9D9",
"Z!	c #B9BDBD",
"[!	c #9AA6A6",
"]!	c #798D8E",
"^!	c #879E9E",
"_!	c #749293",
"`!	c #658484",
"a!	c #658284",
"b!	c #5B7678",
"c!	c #576F6F",
"d!	c #788787",
"e!	c #B0B2B2",
"f!	c #707070",
"g!	c #666666",
"h!	c #C6C6C6",
"i!	c #919B9B",
"j!	c #2D4F4E",
"k!	c #617F7F",
"l!	c #D8E3E1",
"m!	c white",
"n!	c #DCE6E7",
"o!	c #93ABAC",
"p!	c #799797",
"q!	c #749090",
"r!	c #678584",
"s!	c #4C6B6B",
"t!	c #4A605F",
"u!	c #A1A6A7",
"v!	c #CCCCCC",
"w!	c #ECECEC",
"x!	c #A0A9A7",
"y!	c #3D5D5C",
"z!	c #506E70",
"{!	c #789594",
"|!	c #F8FCF9",
"}!	c #F3F7F7",
"~!	c #A9BDBF",
" #	c #8AA7A7",
"!#	c #88A3A4",
"##	c #759393",
"$#	c #668484",
"%#	c #536E6F",
"&#	c #415857",
"'#	c #9CA1A2",
"(#	c #DDDBDC",
")#	c #C2C5C5",
"*#	c #466160",
"+#	c #668586",
",#	c #4B6767",
"-#	c #698685",
".#	c #C8D7D8",
"0#	c #ECF2F1",
"1#	c #D5DFDF",
"2#	c #A8BDBC",
"3#	c #98B0AF",
"4#	c #96B0B0",
"5#	c #86A2A2",
"6#	c #526F6C",
"7#	c #5D7D7E",
"8#	c #567474",
"9#	c #485F5E",
":#	c #C1C1C0",
";#	c #DDDCDD",
"<#	c #CCCBCB",
"=#	c #5E706F",
">#	c #638283",
"?#	c #4C6464",
"@#	c #526E6E",
"A#	c #8EA9A9",
"B#	c #9AB3B4",
"C#	c #B1C3C5",
"D#	c #B7C6C7",
"E#	c #B1C3C4",
"F#	c #A9BEBD",
"G#	c #9CB4B4",
"H#	c #98B2B3",
"I#	c #779392",
"J#	c #3E5657",
"K#	c #688789",
"L#	c #446161",
"M#	c #808987",
"N#	c #9CA4A3",
"O#	c #4A6666",
"P#	c #547171",
"Q#	c #0F2826",
"R#	c #587372",
"S#	c #A9C2C2",
"T#	c #A2B9B9",
"U#	c #A6BDBD",
"V#	c #ACC0C1",
"W#	c #B3C2C3",
"X#	c #B1C4C6",
"Y#	c #A7BDBD",
"Z#	c #9BB6B4",
"[#	c #8FA9AA",
"]#	c #213739",
"^#	c #304C4E",
"_#	c #506F70",
"`#	c #596E6C",
"a#	c #CFD0D0",
"b#	c #8F9B9C",
"c#	c #3E5958",
"d#	c #172F30",
"e#	c #374E50",
"f#	c #96B0AF",
"g#	c #AABFC1",
"h#	c #B1C4C3",
"i#	c #B5C7C7",
"j#	c #B5C7C6",
"k#	c #B7C7C7",
"l#	c #BBC9C9",
"m#	c #B8CBCD",
"n#	c #7F9699",
"o#	c #89A4A2",
"p#	c #7A9492",
"q#	c #162B2D",
"r#	c #2A4545",
"s#	c #3F5A5A",
"t#	c #C2C4C5",
"u#	c #E7E7E7",
"v#	c #899596",
"w#	c #3B5659",
"x#	c #18312F",
"y#	c #41595B",
"z#	c #7C9798",
"{#	c #93A7A7",
"|#	c #C8D6D8",
"}#	c #C5D4D5",
"~#	c #C5D3D5",
" $	c #C5D5D4",
"!$	c #CADADA",
"#$	c #CFDBDA",
"$$	c #7C8D8F",
"%$	c #667D7D",
"&$	c #749091",
"'$	c #1B3334",
"($	c #304B4C",
")$	c #3B5758",
"*$	c #BABFBF",
"+$	c #D3D3D3",
",$	c #E5E5E5",
"-$	c #7A8786",
".$	c #375051",
"0$	c #2C4445",
"1$	c #536F73",
"2$	c #475F60",
"3$	c #334948",
"4$	c #C5D3D4",
"5$	c #E5EEEE",
"6$	c #DBE5E6",
"7$	c #E8F0EF",
"8$	c #B8C6C5",
"9$	c #B8C8C8",
":$	c #748585",
";$	c #273D3D",
"<$	c #667F80",
"=$	c #354F50",
">$	c #3C5455",
"?$	c #324C4F",
"@$	c #AFB3B4",
"A$	c #8A9797",
"B$	c #2E4747",
"C$	c #283E3F",
"D$	c #445F61",
"E$	c #364D4D",
"F$	c #0F2A2A",
"G$	c #B0BEBF",
"H$	c #F4FAFB",
"I$	c #E5ECEC",
"J$	c #5F7170",
"K$	c #A8B6B8",
"L$	c #63787A",
"M$	c #102B2B",
"N$	c #506969",
"O$	c #355053",
"P$	c #304948",
"Q$	c #2A4143",
"R$	c #B0B2B3",
"S$	c #979E9E",
"T$	c #4A686B",
"U$	c #3E5959",
"V$	c #1F3636",
"W$	c #122B2B",
"X$	c #334B4B",
"Y$	c #EDF4F5",
"Z$	c #F8FDFE",
"[$	c #A3AFAE",
"]$	c #102C2B",
"^$	c #576C6B",
"_$	c #546769",
"`$	c #233C3C",
"a$	c #294142",
"b$	c #2C4242",
"c$	c #334E4D",
"d$	c #455758",
"e$	c #B8BABA",
"f$	c #A7A9A9",
"g$	c #2C4747",
"h$	c #577879",
"i$	c #566F6F",
"j$	c #365051",
"k$	c #273D41",
"l$	c #708080",
"m$	c #B1BFBE",
"n$	c #E6EFEE",
"o$	c #9CA7A6",
"p$	c #344C4A",
"q$	c #102A2B",
"r$	c #2B4343",
"s$	c #374E4D",
"t$	c #415958",
"u$	c #334A4B",
"v$	c #223D3E",
"w$	c #6A7575",
"x$	c #C0C1C1",
"y$	c #3E4847",
"z$	c #1A3435",
"{$	c #486767",
"|$	c #597474",
"}$	c #607776",
"~$	c #28403F",
" %	c #455D5D",
"!%	c #BCD1D0",
"#%	c #95ACAC",
"$%	c #284040",
"%%	c #3A5452",
"&%	c #485D5D",
"'%	c #384F4D",
"(%	c #274447",
")%	c #283D3F",
"*%	c #9FA1A1",
"+%	c #989A9A",
",%	c #04191B",
"-%	c #163233",
".%	c #334B4C",
"0%	c #4D6667",
"1%	c #5E797A",
"2%	c #4A676A",
"3%	c #557272",
"4%	c #6C8A87",
"5%	c #4E6566",
"6%	c #5A7374",
"7%	c #455F61",
"8%	c #1D3638",
"9%	c #2D4747",
":%	c #172E30",
";%	c #6B7270",
"<%	c #C6C5C5",
"=%	c #C1C1C2",
">%	c #CECDCD",
"?%	c #7E8281",
"@%	c #021312",
"A%	c #102628",
"B%	c #2A4648",
"C%	c #294446",
"D%	c #1F383B",
"E%	c #20383B",
"F%	c #243C3D",
"G%	c #354E4F",
"H%	c #4F6A6B",
"I%	c #4B676A",
"J%	c #4C6869",
"K%	c #192D2D",
"L%	c #57605F",
"M%	c #C4C4C5",
"N%	c #C4C3C4",
"O%	c #D0CDCF",
"P%	c #7E8382",
"Q%	c #0F1616",
"R%	c #010D0C",
"S%	c #122B2C",
"T%	c #203839",
"U%	c #1F3A3C",
"V%	c #1F393B",
"W%	c #172D2E",
"X%	c #0B2021",
"Y%	c #263839",
"Z%	c #404A49",
"[%	c #6C7170",
"]%	c #BFC0C0",
"^%	c #CCCACC",
"_%	c #DBDBDC",
"`%	c #B1B3B3",
"a%	c #595D5D",
"b%	c #171D1C",
"c%	c #0A1A18",
"d%	c #041516",
"e%	c #0A0F0F",
"f%	c #1D1D1D",
"g%	c #494B4B",
"h%	c #7D8180",
"i%	c #A3A4A4",
"j%	c #D3D4D5",
"k%	c #D8D7D8",
"l%	c #D8D8D9",
"m%	c #C2C2C3",
"n%	c #A0A2A4",
"o%	c #929696",
"p%	c #949999",
"q%	c #AAABAD",
"r%	c #C5C4C5",
"! ! ! ! ! ! # ! $ % & ' ' & & ( & ) ! * * ! ! ! ! ! $ + ( , ' ' ",
"! ! ! ! $ - . 0 1 ' , & & & & , 2 3 ! * 4 ! ! ! ! ! 5 ( , ' ' ' ",
"! ! ! 6 7 8 9 : ; ' & & & ' , < 3 ! ! ! * * * ! # 5 & , ' ' ' ' ",
"! ! = > 4 ? @ A B C D ( & ' 2 $ ! ! ! ! ! * * # 5 & , ' ' ' ' , ",
"* . E F G & ? H I J 2 K ( L 3 $ # ! ! ! ! * # 1 & , ' ' ' ' M D ",
"! N O 6 P F - Q R S T = # 0 U 3 ! ! ! ! ! # 1 & , ' , ' ' M D # ",
"$ V W C X Y Z [ ] ^ _ ` 9 a b 5 * ! ! ! $ 1 & , ' , , M M D # ! ",
"3 c d e f g h i j k l f _ 9 m b n ! ! $ 1 & , ' ' , M o D $ ! ! ",
"$ p q ^ r s h t u v w x y z { | 1 ! $ % ' , ' ' , , M } * ! ! ! ",
"L ) ~  !!!R #!$!%!{ &!'!(!'!)!*!- ! +!' , ' ' , ,!,!< # 4 * ! ! ",
", & ) g -!S .!0!1!w 2!3!4!5!6!2!j +!& , ' ' , o ,!< # * * 4 ! ! ",
"' ' & % 7!M t 8!9!x :!;!& <!=!)!4 >!, ' ' M o o < # * * 4 4 ! ! ",
"' ' & ' 2 4 ?!@!9 A!x B!<!C!D!E!F!& ' ' ,!G!H!T * n n #!#!#!! ! ",
"' ' , ' +!* - 8!I!I!J!K!L!6!0!. Z & M!N!O!P!Q!R!S!T!! 4 ! ! ! # ",
"' , ' +!$ ! #!6 U!U!V!W!X!8!. Y!K Z![!]!^!_!`!a!b!c!d!e!#!! $ % ",
", & % $ ! * * n # t f!g!%!h!( K i!j!k!l!m!n!o!p!q!r!s!t!u!4 % & ",
"& 1 # * * 4 #!4 #!v!< >!w!G!& x!y!z!{!|!m!}!~! #!###$#%#&#'#(#( ",
"5 $ * 4 * * 4 * * ! } o o , )#*#+#,#-#.#0#1#2#3#4#5#6#7#8#9#:#;#",
"# ! 4 #!4 * 4 4 * < ,!o G!<#=#>#?#@#A#B#C#D#E#F#G#H#I#J#K#L#M#F!",
"! ! #!n 4 * 4 * D M , o H!N#O#P#Q#R#S#T#U#V#W#X#Y#Z#[#]#^#_#`#a#",
"! ! #!h!#!4 ! D M ' , ,!G!b#c#d#e#f#g#h#i#j#k#l#m#n#o#p#q#r#s#t#",
"! ! 4 h!n ! } M ' ' ' M u#v#w#x#y#z#{#|#}#~# $!$#$$$%$&$'$($)$*$",
"! ! * n #!+$,!' ' ' ' M ,$-$.$0$1$2$3$4$5$6$7$8$9$:$;$<$=$>$?$@$",
"! ! ! 4 +$,!, ' ' ' , ' D A$B$C$D$E$F$G$m!H$I$J$K$L$M$N$O$P$Q$R$",
"! ! # +$,!' , ' ' , & 1 #!S$T$U$V$W$X$Y$m!Z$[$]$^$_$`$a$b$c$d$e$",
"! # } M , ' ' ' , & 5 # n f$g$h$i$j$k$l$m$n$o$p$q$r$s$t$u$v$w$4 ",
"# } M ' ' , ' , ( 5 # ! #!x$y$z${$|$}$~$ %!%#%J#$%%%&%'%(%)%*%n ",
"+$M ' ' ' , , ( + # ! * #!h!+%,%-%.%0%1%2%3%4%5%6%7%8%9%:%;%<%4 ",
", ' ' ' ' M & 5 # * * * 4 =%>%?%@%A%B%C%D%E%F%G%H%I%J%K%L%U M%=%",
"' ' ' ' , ( 5 4 * * ! ! * ! N%O%P%Q%R%S%T%U%V%W%X%Y%Z%[%> #!! ! ",
"' ' ' M ( + # 4 * ! ! ! * ! ]%^%_%`%a%b%c%d%e%f%g%h%i%#!M%! ! ! ",
"' ' , >!h!# ! ! ! ! ! ! * ! } ' j%k%l%m%n%o%p%q%> 4 r%4 ! ! ! ! "};