/* XPM */
static char *ae_xpm[] = {
/* columns rows colors chars-per-pixel */
"32 32 442 2",
"   c Black",
"Y. c #DDDDDD",
"&O c #706F70",
"!. c #DDDDDE",
"N. c #E3E2E2",
"qO c #E9EAEA",
"=o c #ECEBEB",
"9X c #7C7C7D",
"A. c #EFEFEE",
"k  c #121212",
"$. c #EFEFEF",
"<X c #858584",
"c. c #F2F3F2",
"J  c #F5F4F4",
"w. c #F5F4F5",
"p. c #F8F8F7",
"n  c #1B1B1C",
"7. c #F8F8F8",
"&. c #FEFDFD",
"[  c #FEFDFE",
"$  c #242424",
"ZO c #979797",
"AO c #979798",
"vo c #2A292A",
"FO c #9D9C9B",
"(o c #333232",
"M  c #A0A0A0",
"Ro c #A0A0A1",
"LX c #363637",
"NO c #A9A9A9",
">o c #B2B2B3",
"HO c #B5B6B6",
"mO c #BBBBBB",
"*X c #BEBFBF",
"#X c #C4C4C3",
"Uo c #C4C4C4",
"BX c #575657",
" X c #C4C4C5",
"Ho c #CAC9CA",
"d  c #CDCDCD",
"OO c #D0D1D0",
"o. c #636362",
"B  c #636363",
"GX c #666766",
"`  c #D6D6D6",
"vO c #D6D6D7",
"-o c #D9DADA",
"hX c #6C6C6C",
"|. c #DCDBDB",
"5. c #DCDBDC",
"'o c #6F7070",
"7o c #020202",
"Q  c #DFDFDF",
"wO c #E2E3E2",
"+  c #757574",
"M. c #E2E3E3",
"B. c #E5E4E4",
"u. c #EBE9E9",
"4. c #E8E8E9",
"Ko c #EBECEB",
"@o c #7E7E7E",
"j. c #EBECEC",
"G. c #F1F1F0",
"t. c #EEF0F0",
"z. c #F1F1F1",
"pO c #848384",
"no c #171817",
"jX c #8A8B8A",
"F. c #FAFAFA",
"MX c #8D8C8C",
"uO c #8D8C8D",
"3o c #202120",
"S. c #FAFAFB",
"$O c #90908F",
"|  c #FDFEFD",
"|X c #232222",
"}X c #262626",
"tX c #969595",
"U  c #292A2A",
"yX c #9C9D9C",
"GO c #9FA1A1",
"Y  c #323333",
"Z  c #A2A2A2",
"S  c #383838",
">X c #ABABAB",
"2X c #B4B4B4",
"Oo c #4A4A4B",
"!o c #4D4E4D",
"JO c #BDBDBD",
"gX c #535352",
"to c #535353",
":o c #C3C2C2",
"3X c #C6C6C6",
"KO c #C6C6C7",
"bO c #CCCBCC",
"8O c #CFCFCF",
"&o c #D5D4D4",
"+o c #686968",
"~. c #DBDCDC",
"_X c #6E6E6E",
"vX c #E1E1E0",
"5o c #070507",
"l  c #0A0909",
".O c #E7E6E6",
"cX c #EAEAEA",
"G  c #131211",
"mo c #101111",
"(  c #131212",
"6X c #F0EFEF",
" o c #161615",
"5X c #F6F7F5",
"]. c #F3F3F4",
")X c #898989",
"Vo c #1F1F1E",
";  c #F9F8F9",
":. c #FCFCFB",
"6  c #FCFCFC",
"-. c #FCFCFD",
"^  c #222322",
"pX c #929291",
"ko c #929293",
"eo c #282828",
",o c #9B9B9A",
"rX c #9B9B9B",
"#O c #9E9F9E",
"f  c #313131",
"mX c #A1A0A0",
"L. c #A7A8A7",
"co c #3A3A39",
"OX c #AAA9AA",
"MO c #ADADAE",
"'X c #404241",
"po c #B3B2B2",
"$o c #B3B2B3",
"j  c #B6B6B6",
"H  c #4C4C4B",
"Yo c #BFBFBF",
"@X c #BFBFC0",
",O c #555555",
"ho c #C8C8C8",
"7O c #C8C8C9",
"zo c #5E5E5E",
"LO c #CECDCD",
"lX c #D1D1D1",
"IO c #D7D6D6",
"UX c #676768",
"bX c #D7D6D7",
"FX c #6D6C6D",
"J. c #DADADB",
"A  c #030201",
"<  c #DDDEDD",
"9o c #030202",
"wX c #737473",
"E. c #E3E3E3",
"0O c #E3E3E4",
"sO c #797978",
"WX c #E6E7E6",
"4X c #E6E7E7",
"%O c #7C7D7C",
"i  c #E9E8E9",
"D  c #ECECEC",
"+. c #7F7E7E",
"3. c #F2F1F2",
"Bo c #181818",
",  c #F5F5F5",
"v  c #F5F5F6",
"[. c #F8F9F8",
"[o c #8B8B8B",
"s. c #F8F9F9",
"9. c #FBFAFA",
"kO c #8E8F8E",
"1. c #FBFAFB",
"=. c #FEFEFD",
"s  c #FEFEFE",
"]X c #212122",
"DO c #919091",
"p  c #FEFEFF",
"CO c #979897",
"CX c #2A2A2A",
"y  c #302F30",
"VX c #363737",
"Go c #A6A6A6",
"lO c #B2B3B3",
")  c #484948",
":X c #B8B8B7",
"zO c #B8B8B8",
"KX c #4B4A4A",
"2  c #4E4E4D",
";O c #4E4E4E",
";X c #BEC0BD",
"%X c #C1C1C0",
"nX c #C1C1C1",
"nO c #C4C5C4",
"AX c #575757",
"`o c #575758",
"RX c #CACAC9",
"0X c #606061",
"=O c #636463",
"^X c #D0CFD0",
"<O c #696968",
"xO c #DCDCDC",
"8o c #020302",
"T. c #DFE0DF",
"q  c #E2E1E2",
"W. c #E5E5E4",
"gO c #787777",
"f. c #E8E9E9",
"4o c #0E0D0E",
"&  c #111111",
"}. c #EEEEEF",
"dX c #818081",
"jO c #848484",
"r. c #F4F3F3",
"2. c #F7F7F7",
">. c #FAFBFA",
"D. c #FDFCFB",
"a. c #FDFCFC",
"]  c #FDFCFD",
"L  c #232323",
"sX c #939292",
"9  c #262726",
"Co c #2C2C2C",
"VO c #9C9B9C",
"oo c #2F3030",
"8  c #A2A3A2",
"O. c #353534",
"{o c #A2A3A3",
"5O c #ABACAC",
"/X c #C0BFBF",
"K. c #C0BFC0",
"0  c #535454",
"F  c #C9C8C8",
"ao c #C9C8C9",
";o c #CCCCCB",
"b  c #CCCCCC",
"<o c #626262",
"PO c #D2D1D2",
"HX c #686767",
"K  c #DBDADA",
"~X c #DEDEDD",
"yo c #6E6F6F",
"V. c #DEDEDE",
"/  c #010102",
"R. c #DEDEDF",
"I  c #E1E2E1",
"dO c #747474",
"-  c #E4E3E3",
"TO c #E7E7E6",
"Wo c #7A7978",
"*o c #E7E7E7",
".o c #0D0E0D",
"`. c #EAEBEB",
"]o c #7D7D7E",
"QX c #EDECEC",
"m. c #EDECED",
"hO c #808181",
"v. c #F0F0F0",
" . c #F0F0F1",
"iO c #868685",
"Xo c #161717",
"#. c #F3F4F4",
"V  c #1C1C1C",
"{. c #F9F9FA",
"2O c #8C8E8E",
"{  c #FCFDFC",
"bo c #222121",
"*. c #FFFEFD",
"%. c #FCFDFD",
"eX c #8F8F8F",
"r  c #FFFEFE",
"a  c #FFFEFF",
"#o c #989898",
"1X c #9B9C9B",
"3O c #9B9C9C",
"4O c #A1A1A2",
")o c #373737",
"iX c #A4A5A5",
"(X c #A7A6A8",
"ZX c #3D3C3C",
"@O c #AAAAAB",
"^o c #404040",
"IX c #404041",
"~o c #434443",
"=  c #B3B3B3",
"TX c #B3B3B4",
"5  c #B9B8B8",
"rO c #B9BBBA",
"c  c #4C4D4D",
":O c #525251",
"@. c #C5C5C5",
"t  c #C8C9C8",
"%o c #CBCACA",
".. c #CBCDCC",
"g. c #CECECE",
"Jo c #D1D2D0",
"oO c #D7D7D7",
"I. c #D7D7D8",
"UO c #DADBDB",
"Z. c #DDDCDC",
"_. c #DDDCDD",
"m  c #030303",
"zX c #E0E0E1",
"1O c #767675",
"lo c #767676",
"Do c #797A7A",
"H. c #E9E9E9",
"Mo c #0F100F",
"n. c #ECEDEB",
"T  c #E9E9EA",
"fo c #ECEDEC",
"No c #121112",
"b. c #EFEEEE",
"E  c #181617",
"q. c #F5F6F5",
"uo c #888887",
"'  c #F5F6F6",
"XX c #888888",
"{X c #1B1A1B",
"8. c #F8F7F7",
",. c #FBFBFA",
"<. c #FBFBFB",
">  c #FEFFFE",
"w  c #FEFFFF",
"_  c #919191",
"Fo c #979696",
",X c #949596",
"X  c #2D2C2C",
"X. c #9A9A9B",
"BO c #A09FA0",
"2o c #393938",
"W  c #393939",
"7X c #ACACAC",
"tO c #B5B5B5",
"(. c #B8B9B7",
"xo c #4B4B4B",
"Ao c #515051",
">O c #575857",
"|o c #C4C3C4",
"*  c #5D5D5D",
"/. c #CDCCCC",
"go c #D0D0D0",
"DX c #666665",
"so c #D6D5D5",
"Po c #D9D9D8",
"cO c #DCDDDC",
"eO c #DCDDDD",
"x  c #6F6F6F",
"fO c #727373",
"%  c #050506",
".  c #0B0A0A",
"i. c #E8E7E7",
"[X c #0E0E0E",
"6. c #EBEBEB",
"xX c #EEEFEE",
"y. c #EEEFEF",
"x. c #F1F0F0",
"d. c #F4F4F4",
"Eo c #8A8A89",
"e. c #F7F5F6",
"0. c #F7F8F8",
"oX c #8A8A8A",
";. c #FDFDFC",
"SO c #908F8F",
"}  c #FDFDFD",
"!  c #FDFDFE",
"/o c #2F2E2F",
"PX c #323232",
"g  c #353635",
"1  c #A5A5A4",
"kX c #A5A5A5",
"yO c #A8A9A8",
"Zo c #3B3B3B",
"z  c #AEAEAE",
"To c #B4B3B4",
"jo c #B7B7B6",
"+X c #B7B7B7",
"1o c #4A494A",
"#  c #4D4D4D",
"P  c #4D4D4E",
"o  c #565656",
"-O c #595757",
"$X c #C6C5C5",
"~  c #C6C5C6",
"`X c #595A59",
"&X c #C9C9C9",
"JX c #5C5B5B",
"Io c #C9C9CA",
"SX c #5F5F5E",
"So c #5F5F5F",
"Qo c #626363",
"R  c #D2D2D2",
"@  c #686868",
"O  c #6B6C6C",
"U. c #DBDBDA",
"YO c #DBDBDB",
"XO c #DBDBDC",
"9O c #DEDFDE",
"0o c #040303",
"h  c #DEDFDF",
"6o c #040304",
"do c #DEDFE0",
"NX c #717172",
"3  c #070707",
"qo c #070708",
"h. c #E4E4E5",
"aO c #7A7A7B",
"Lo c #E7E8E9",
"!X c #EAE9E9",
"k. c #EDEDED",
"YX c #807F80",
"'. c #F0F1F0",
"wo c #131414",
"l. c #F0F1F1",
"7  c #F6F6F5",
"N  c #FCFBFC",
"e  c #FFFFFE",
":  c #FFFFFF",
"aX c #959595",
"8X c #989998",
"io c #9B9A9A",
"uX c #A1A2A1",
"_o c #373838",
".X c #A7A7A7",
"4  c #3A393A",
"ro c #3D3D3D",
"}o c #B6B5B4",
"=X c #B9B9B8",
"+O c #B9B9B9",
"6O c #B9B9BA",
"-X c #BFBEBE",
"u  c #525352",
"P. c #C2C2C1",
"qX c #585858",
"). c #CBCBCB",
"^. c #CECFCF",
"C. c #D1D0D0",
"*O c #646564",
" O c #D1D0D1",
"C  c #D4D4D4",
"fX c #676666",
"Q. c #D7D8D8",
"EX c #DAD9D9",
/* pixels */
"                                                                ",
"                                                                ",
"                        . X o O + @ # $ %                       ",
"                    & * = - ; : : > , < 1 2 3                   ",
"                  4 5 6 : : : : : : : : : 7 8 9                 ",
"                0 q : : w : e r : r r : : : : t y               ",
"              u i : : w r r p p a : s : r e : : d f             ",
"            g h : w : r : w w r r s w r e p > : : j k           ",
"          l z : : s e r s e e r a w p a r w > p : r x           ",
"          c v : w > s e : a a s w s > > s e a : : : b n         ",
"        m M : : p > a a > p : : w p w e e a r p : : N B         ",
"        V C : e e a e p s r s e e p e p s p r r s e : Z A       ",
"        S D : e : a r w w r s : e s r p p > p p e > : F G       ",
"        H J : w > p a w a a : s a : p p w r r w > p : K L       ",
"        P , : p p p w > s a r e : w r w e > s : w e : I U       ",
"        Y T : > s e a w : a : : w > p e s a w > w w : R E       ",
"        W Q : > p : s : : p e : > e : ! p : : > w w : ~ ^ /     ",
"  ( ) _ ` ' ] : r : p s s s s [ r s s { } s > w a | 6  ...X.o.O.",
"+.@.7 : : #.$.%.&.*.} =.! %.-.;.:.>.,.<.:.,.:.6 1.2.3.1.: : : 4.",
": : : -.<.$.5.6.7.8.7.%.1.9.7.7.0.q.w., e.r.w.t.y.u.i.p.<.a.: : ",
"e 6 s., d.f.g.g.h.j.k.l.l.z.x.c.v.b.D n.m.M.N.B.V.C.Z.A.v 2.S.} ",
"D.F.v G.H.J.K.L.P.I.U.Y.T.R.E.W.E.5.Q.!.~.C ^./.(.= )._.`.'.].[.",
"{.0.}.H.|. X.XXXoXOX+X@X#XP.$X%X&X*X=X-X;X:X>X,X<X1X2X3XV.4Xv., ",
"5X6Xi.Q &X7X8X9X0XqXwXeXrXtXyXuXiX1XpXaXsXdXfXgXhXjXkXj lXzXxXq.",
"z.cXvXbXnXmXMXNXBXVXCXZXAXSXDXFXO GXHXJXKXLXPXIXUXYXrXTXRXEXWX .",
"QX!X~X^X/X(X)X_X`X'X]X[X[X{XL }X}X|X|X o.oXoooOo+o@o#o$o%o&oQ *o",
"=oWX-o;o:o>o,o+.<o1o2o3o4o5o6o7o8o9o0oqowoeorotoyouoiopoaosodoE.",
"fo*oR.gohojo>XkolozoxocovobonomoMoNoBoVoCoZoAoSoDoFoGoj HoJoY.Ko",
"LoE.PoIoUoYoToRoEoWoQo!o~o^oLX/o(o)o_o^o1o`o'o]o[o{o}o|o^. OY.cX",
".Oq XOoOOO@.+O@O#O$O%O&O*O=O-O;O:O>O,Ozo<O1O2O3O4O5O6O7O8OR 9O0O",
"cXqOwOeOoO%o%XrOtOyO#ouOiOpOaOsOdOfOgOhOjOkO{oz lOzOnXRXlX-oxOq ",
"6.H.q cOvO&obOnOmO+XMONOBOVOCOZOAOSODOFOGO7X= HOJOKOLOPOIOUOYOTO"
};
