/* XPM */
static char *VELVET_xpm[]={
"32 32 183 2",
"      c #BFBFBF",
" 0    c #BEBEBE",
" 1    c #C0C0C0",
" 2    c #C1C1C1",
" 3    c #C2C2C2",
" 4    c #BBBBBB",
" 5    c #B7B7B7",
" 6    c #B6B6B6",
" 7    c #B5B5B5",
" 8    c #BDBDBD",
" 9    c #C5C5C5",
" a    c #B1B1B1",
" b    c #A7A7A7",
" c    c #A0A0A0",
" d    c #9B9B9B",
" e    c #999999",
" f    c #989898",
" g    c #979797",
" h    c #A6A6A6",
" i    c #C9C9C9",
" j    c #C7C7C7",
" k    c #A4A4A4",
" l    c #959595",
" m    c #8D8D8D",
" n    c #878787",
" o    c #838383",
" p    c #808080",
" q    c #7F7F7F",
" r    c #828282",
" s    c #858585",
" t    c #939393",
" u    c #BABABA",
" v    c #C4C4C4",
" w    c #C3C3C3",
" x    c #A5A5A5",
" y    c #929292",
" z    c #868686",
" A    c #7E7E7E",
" B    c #797979",
" C    c #767676",
" D    c #737373",
" E    c #727272",
" F    c #717171",
" G    c #707070",
" H    c #747474",
" I    c #CBCBCB",
" J    c #7D7D7D",
" K    c #6F6F6F",
" L    c #6D6D6D",
" M    c #6B6B6B",
" N    c #6A6A6A",
" O    c #696969",
" P    c #686868",
" Q    c #676767",
" R    c #666666",
" S    c #A2A2A2",
" T    c #AFAFAF",
" U    c #777777",
" V    c #646464",
" W    c #636363",
" X    c #626262",
" Y    c #616161",
" Z    c #5F5F5F",
" &    c #606060",
"0     c #5E5E5E",
"00    c #585858",
"01    c #C8C8C8",
"02    c #B4B4B4",
"03    c #757575",
"04    c #656565",
"05    c #5D5D5D",
"06    c #5B5B5B",
"07    c #5A5A5A",
"08    c #525252",
"09    c #595959",
"0a    c #ACACAC",
"0b    c #818181",
"0c    c #6E6E6E",
"0d    c #565656",
"0e    c #535353",
"0f    c #515151",
"0g    c #505050",
"0h    c #424242",
"0i    c #A3A3A3",
"0j    c #575757",
"0k    c #4D4D4D",
"0l    c #4A4A4A",
"0m    c #464646",
"0n    c #3B3B3B",
"0o    c #9D9D9D",
"0p    c #C6C6C6",
"0q    c #919191",
"0r    c #7C7C7C",
"0s    c #5C5C5C",
"0t    c #555555",
"0u    c #353535",
"0v    c #6C6C6C",
"0w    c #4C4C4C",
"0x    c #474747",
"0y    c #3E3E3E",
"0z    c #383838",
"0A    c #2A2A2A",
"0B    c #9F9F9F",
"0C    c #B8B8B8",
"0D    c #949494",
"0E    c #4F4F4F",
"0F    c #454545",
"0G    c #404040",
"0H    c #363636",
"0I    c #232323",
"0J    c #7B7B7B",
"0K    c #ADADAD",
"0L    c #8C8C8C",
"0M    c #787878",
"0N    c #484848",
"0O    c #3D3D3D",
"0P    c #333333",
"0Q    c #1F1F1F",
"0R    c #4B4B4B",
"0S    c #3A3A3A",
"0T    c #343434",
"0U    c #2F2F2F",
"0V    c #9C9C9C",
"0W    c #494949",
"0X    c #434343",
"0Y    c #313131",
"0Z    c #2C2C2C",
"0&    c #1D1D1D",
"1     c #3F3F3F",
"10    c #B3B3B3",
"11    c #4E4E4E",
"12    c #292929",
"13    c #191919",
"14    c #3C3C3C",
"15    c #B2B2B2",
"16    c #373737",
"17    c #2B2B2B",
"18    c #252525",
"19    c #141414",
"1a    c #444444",
"1b    c #393939",
"1c    c #2E2E2E",
"1d    c #282828",
"1e    c #212121",
"1f    c #0D0D0D",
"1g    c #8F8F8F",
"1h    c #303030",
"1i    c #242424",
"1j    c #060606",
"1k    c #BCBCBC",
"1l    c #7A7A7A",
"1m    c #545454",
"1n    c #414141",
"1o    c #262626",
"1p    c #202020",
"1q    c #171717",
"1r    c #040404",
"1s    c #8E8E8E",
"1t    c #323232",
"1u    c #272727",
"1v    c #1C1C1C",
"1w    c #0A0A0A",
"1x    c #2D2D2D",
"1y    c #222222",
"1z    c #161616",
"1A    c #010101",
"1B    c #181818",
"1C    c #B9B9B9",
"1D    c #0B0B0B",
"1E    c #0F0F0F",
"1F    c #000000",
"1G    c #CDCDCD",
"1H    c #9E9E9E",
"1I    c #1B1B1B",
"1J    c #1A1A1A",
"1K    c #151515",
"1L    c #090909",
"1M    c #AAAAAA",
"1N    c #CCCCCC",
"1O    c #9A9A9A",
"1P    c #111111",
"1Q    c #030303",
"1R    c #CACACA",
"                       0       1 1 1 1 2                        ",
"               0     0 1 3 3   4 5 6 7 5 8 3 2                  ",
"                 0 2 9 9 8 a b c d e f g e h 5 2 2              ",
"             0   i j 6 k l m n o p q q p r r s t u v            ",
"             w i 0 x y z A B C D E F G G F D H F q b w   0      ",
"           3 I 7 e n J C F K L M N O P Q Q Q Q N R R S v        ",
"       0 w I T t r U F L M O P Q R R V W X Y Z & &0 00 d j      ",
"       10102 t p03 K M O P R R0404 V X Y Z050607000008090a w    ",
"      01 4 f0b030c O Q Q R0404 V W X Y &0 06090d0e0f0g0h & 1 1  ",
"     3 v0i n C0c N Q R R R0404 V W X Y Z05070j0e0g0k0l0m0n0o0p  ",
"   0 v020q0r G M Q R04040404 V V W X &0 0s090t080k0l0m0h0u09 2 2",
"   1 2 S z030v P R R R04 V V V V X Y Z0506000t0f0w0x0h0y0z0A0B 9",
"   20C0D J G N Q R04 R04 V V V W Y & Z0s070j0e0E0l0F0G0n0H0I0J i",
"    0K0L0M L P R040404 V V W W X & Z050s000t080k0N0h0O0z0P0Q & j",
" 1 4 S s H M Q0404 V V V W X X & Z0 0s090j0e0g0R0m0G0S0T0U0Q0l 2",
" 1 50V0b F O R V V V W W X Y & &0 0s070j0t0f0k0W0X0y0z0Y0Z0&1   ",
" 110 g A K P04 W W W X X Y & Z Z0506000t08110l0m0G0n0u0U121314  ",
" 115 t0r0c Q W X Y Y Y & Z Z050s07000d0e0g0w0N0h0O160Y1718191  2",
" 2150q0J0v04 Y & Z Z Z0 0 0s06070j0t0e0g0w0N1a1 1b0T1c1d1e1f110p",
" 2 71g0J0v V &0 0 0505050607090j0t0e0g0k0W0F0G140H1h0A1i0&1j R I",
"  1k0q1l0v W0 0s0s060709090j0d1m0f0E0w0W0F1n14160Y171o1p1q1r1s j",
"   3 S0M0v Y0s09000j0j0d0t1m080g110R0W0F0G140z1t0Z1u1e1v1w17 u 2",
"   3 61l M Y070j0t1m0e080f0g110w0W0m0X1 0n161t1x1u1y0&1z1A p I  ",
"     31s04 Y091m0f0g110k0w0R0W0x1a1n0y0S0H0Y1x1d1y0&1B1r1e 4 2  ",
"     21C D060j0f110R0l0N0x0F0X1n0y0n0z0T1h0Z1o1y0&1B1D1w0L j    ",
"       9 k090e0g0l0x1a0h1n1 0O0n0z0u0Y1c12181e0&1B1E1F041G      ",
"         v1H0w0x0N0X0G0O140S160T0Y1c171u0I0Q1I1B1D1F Z w 2      ",
"         1 v f0E0z0y141b160P0Y1c171d181e0&1J1K1j1L X w w        ",
"             j1M001t1c1t1h1c171d181y0Q1I1K1D1A13 n1N 2          ",
"               v 21O0e1y0&1J1J131z1P1w1Q1Q1p D 70p 1            ",
"                 1 j 20o C060x0n160S0l X n 6 i 3                ",
"                   0 1 9 i0p 2     2 91R01 3                    "};
