/* XPM */ 
static char * render_al_dof_lens_plus_xpm[] = {
"32 32 229 2",
"  	c None",
"! 	c #C1C1C1",
"# 	c #BFBFBF",
"$ 	c #CACACA",
"% 	c #DEDEDE",
"& 	c #DDDDDD",
"' 	c #D2D2D2",
"( 	c #BBBBBB",
") 	c #ACACAC",
"* 	c #B1B1B1",
"+ 	c #B7B7B7",
", 	c #C7C7C7",
"- 	c #E1E1E1",
". 	c #E0E0E0",
"0 	c black",
"1 	c #D9D9D9",
"2 	c #C6C6C6",
"3 	c #B8B8B8",
"4 	c #9E9E9E",
"5 	c #8A8A8A",
"6 	c #7B7B7B",
"7 	c #808080",
"8 	c #959595",
"9 	c #A9A9A9",
": 	c #B6B6B6",
"; 	c #C0C0C0",
"< 	c #DBDBDB",
"= 	c #C4C4C4",
"> 	c #B0B0B0",
"? 	c #999999",
"@ 	c #8E8E8E",
"A 	c #888888",
"B 	c #828282",
"C 	c #818181",
"D 	c #929292",
"E 	c #C8C8C8",
"F 	c #DFDFDF",
"G 	c #CBCBCB",
"H 	c #D6D6D6",
"I 	c #AAAAAA",
"J 	c #ABABAB",
"K 	c #BDBDBD",
"L 	c #A6A6A6",
"M 	c #898989",
"N 	c #6B6B6B",
"O 	c #5B5B5B",
"P 	c #626262",
"Q 	c #797979",
"R 	c #939393",
"S 	c #B3B3B3",
"T 	c #CCCCCC",
"U 	c #9C9C9C",
"V 	c #B9B9B9",
"W 	c #9B9B9B",
"X 	c #878787",
"Y 	c #8F8F8F",
"Z 	c #A5A5A5",
"[ 	c #B4B4B4",
"] 	c #CFCFCF",
"^ 	c #E2E2E2",
"_ 	c #D1D1D1",
"` 	c #DADADA",
"a 	c #767676",
"b 	c #A4A4A4",
"c 	c #BABABA",
"d 	c #A8A8A8",
"e 	c #969696",
"f 	c #909090",
"g 	c #BEBEBE",
"h 	c #D5D5D5",
"i 	c #DCDCDC",
"j 	c #676767",
"k 	c #6F6F6F",
"l 	c #979797",
"m 	c #9F9F9F",
"n 	c #A3A3A3",
"o 	c #7E7E7E",
"p 	c #737373",
"q 	c #CDCDCD",
"r 	c #A7A7A7",
"s 	c #636363",
"t 	c #6A6A6A",
"u 	c #7C7C7C",
"v 	c #D7D7D7",
"w 	c #CECECE",
"x 	c #989898",
"y 	c #787878",
"z 	c #5D5D5D",
"{ 	c #515151",
"| 	c #565656",
"} 	c #5F5F5F",
"~ 	c #A1A1A1",
" !	c #6E6E6E",
"!!	c #6D6D6D",
"#!	c #4D4D4D",
"$!	c #BCBCBC",
"%!	c #C3C3C3",
"&!	c #9D9D9D",
"'!	c #848484",
"(!	c #5E5E5E",
")!	c #3F3F3F",
"*!	c #333333",
"+!	c #3A3A3A",
",!	c #4A4A4A",
"-!	c #5A5A5A",
".!	c #757575",
"0!	c #717171",
"1!	c #606060",
"2!	c #454545",
"3!	c #7F7F7F",
"4!	c #C2C2C2",
"5!	c #A0A0A0",
"6!	c #3B3B3B",
"7!	c #393939",
"8!	c #4F4F4F",
"9!	c #949494",
":!	c #616161",
";!	c #474747",
"<!	c #4C4C4C",
"=!	c #545454",
">!	c #575757",
"?!	c #868686",
"@!	c #A2A2A2",
"A!	c #656565",
"B!	c #4E4E4E",
"C!	c #858585",
"D!	c #494949",
"E!	c #353535",
"F!	c #7D7D7D",
"G!	c #C9C9C9",
"H!	c #919191",
"I!	c #686868",
"J!	c #525252",
"K!	c #2B2B2B",
"L!	c #292929",
"M!	c #434343",
"N!	c #727272",
"O!	c #646464",
"P!	c #AFAFAF",
"Q!	c #404040",
"R!	c #535353",
"S!	c #272727",
"T!	c #B2B2B2",
"U!	c #E8E8E8",
"V!	c #D0D0D0",
"W!	c #424242",
"X!	c #1D1D1D",
"Y!	c #0B0B0B",
"Z!	c #0E0E0E",
"[!	c #1C1C1C",
"]!	c #3C3C3C",
"^!	c #8D8D8D",
"_!	c #EDEDED",
"`!	c #484848",
"a!	c #F3F3F3",
"b!	c #7A7A7A",
"c!	c #B5B5B5",
"d!	c white",
"e!	c #8B8B8B",
"f!	c #AEAEAE",
"g!	c #5C5C5C",
"h!	c #EFEFEF",
"i!	c #313131",
"j!	c #F1F1F1",
"k!	c #F8F8F8",
"l!	c #595959",
"m!	c #747474",
"n!	c #777777",
"o!	c #F5F5F5",
"p!	c #232323",
"q!	c #555555",
"r!	c #1F1F1F",
"s!	c #FDFDFD",
"t!	c #F2F2F2",
"u!	c #1E1E1E",
"v!	c #0D0D0D",
"w!	c #0C0C0C",
"x!	c #222222",
"y!	c #343434",
"z!	c #707070",
"{!	c #1B1B1B",
"|!	c #171717",
"}!	c #181818",
"~!	c #2F2F2F",
" #	c #090909",
"!#	c #EEEEEE",
"##	c #8C8C8C",
"$#	c #303030",
"%#	c #262626",
"&#	c #323232",
"'#	c #2E2E2E",
"(#	c #666666",
")#	c #373737",
"*#	c #C5C5C5",
"+#	c #3D3D3D",
",#	c #F4F4F4",
"-#	c #252525",
".#	c #4B4B4B",
"0#	c #030303",
"1#	c #E4E4E4",
"2#	c #141414",
"3#	c #1A1A1A",
"4#	c #838383",
"5#	c #D8D8D8",
"6#	c #383838",
"7#	c #0A0A0A",
"8#	c #0F0F0F",
"9#	c #121212",
":#	c #9A9A9A",
";#	c #ECECEC",
"<#	c #191919",
"=#	c #3E3E3E",
">#	c #131313",
"?#	c #444444",
"@#	c #282828",
"A#	c #010101",
"B#	c #D3D3D3",
"C#	c #F6F6F6",
"D#	c #2D2D2D",
"E#	c #050505",
"F#	c #202020",
"G#	c #040404",
"H#	c #2C2C2C",
"I#	c #414141",
"J#	c #151515",
"K#	c #242424",
"L#	c #161616",
"M#	c #363636",
"N#	c #585858",
"! ! ! ! ! ! ! ! # $ % & % ' ( ) ) * + # ! ! ! ! ! ! # , % - . . ",
"! ! ! 0 ! ! ! # $ . % 1 2 3 4 5 6 7 8 9 : ; ! ! ! # , % - . . . ",
"! ! ! 0 ! ! # $ . . < = > > 9 ? @ A B 7 C D > ; # E F - . . . . ",
"! 0 0 0 0 0 G . - % H I J K 2 ( L M N O P Q R S , F - . . . . - ",
"! ! ! 0 # G . . % < T D U V G $ : W X Y Z S : [ ] . F . . . ^ _ ",
"! ! ! 0 G . . % & ` K a 7 b c # ; # = G ! d e f R U g h F ^ _ ; ",
"! ! # T - - F % i ` S j k @ l m ( h & G n o k N k p X J < _ ; ! ",
"! # q - - . F & & 1 r s N Q t u + v w : x y z { | } N X # # ! ! ",
"# q - - . . % i % E ~ j  !!!#!p $!%!I &!'!(!)!*!+!,!-!!!Z ! ! ! ",
"q - - . . F % . q g L .!0!1!2!3!4!5!3!o j #!6!7!6!2!8!1!9!# ! ! ",
"- - . . . . . T # ; : l C :!;!@ ; 3!} } <!,!<!=!>!=!#!>!?!c ! ! ",
". . . . - & T g @!A!(!;!B!C!=!D V N { D!E!+!{ 0!F!j #!{ '!3 ! ! ",
". . . - . G!c 5!3!C!!!t { 7 H!D * I!J!;!K!L!M!N!?!O!,!J!Y $!! ! ",
". . - . G V U ! $ P!8 D Z e N!,!Q!:!-!R!E!S!E!>!O!<!D!s b ; ! ; ",
". - . G K @!T!F U!V!3 [ 3!W!X!Y!Z![!]!} { 7!E!Q!2!M!>!C!V ! # $ ",
"- F $ # &!^!( q ` _!` J 7 (!`!!!> U!a!V!g b!`!;!`!| u I ! # G . ",
"F G!# (  !I!? c!V!. _ E > ~ ! d!d!d!U!G!E ` > P k e!f!# # G . - ",
"E # ! L g!R!A!~ h c!2 $ _ h!d!d!c!{ i!;!B!{ j &!I : ; # T - - . ",
"; ! ! Z ,!W!1!> e B r %!j!d!k!( l!;!m!u .!n!>!K!e ! # T . - . . ",
"! ! ! 4 J!#!O D `!R!n!w d!o!G!x 4 ) 0!,!W!} 7 A!p!! G - - . . . ",
"! ! ! ? ;!q!X '!r!p!6 s!t!4!5!Z [ P u!v!w!x!y!N!<!8!H . . . . . ",
"! ! ! ( Q!]!Z z!Y!{!: d!V 0!@ f!>!X!|!}!}!{!u!~!t r!G!i . . - . ",
"! ! ! ! ?!M!6 {  #S!!#d!z!E!##Q $#=!$#%#&#'#W!%#(#)#&!H . - - T ",
"! ! ! ; *#m!5 q!0 +#d!,#]!-#y E!*!A!]!B!M!Q!O '#.#)#F!H - . T # ",
"! ! ; _ < 1 K P 0#;!d!1#{!~!O!2#r!3#W!X y o A -#B!L!4#5#. G # ! ",
"! ; ' ^ F F & > Z!6#d!F Y!)#z 7#Z!8#r!s W G!'!2#8!9#:#< G # ! ! ",
"; ' ^ . . & . % T!1!h ;#<#=#N!>#Y!X!-#?#W %!L!@#g!A#g G!# ! ! ! ",
"B#^ . . . % F % 2 V @!C#)#D#M Q!E#Z!F#7!.!W!G#s '#H#= # ! ! ! ! ",
"- . . . . . i , # ! ! , f '#!!!!I#}!J#K#2#L#{ ,! #K # ! ! ! ! ! ",
". . . . - % 2 # ! ! ! ! 4!o )!>!I!| 6!M#?#O %#7#I ; ! ! ! ! ! ! ",
". . . ^ % 2 # ! ! ! ! ! ! ; 9 ?#7!8!J!2!)!v!K#P!; ! ! ! ! ! ! ! ",
". . - i 2 # ! ! ! ! ! ! ! ! ' & F!;!~!7!N#f , ; ! ! ! ! ! ! ! ! "};