/* XPM */
static char *glass[] = {
/* columns rows colors chars-per-pixel */
"32 32 168 2",
"   c #2D0505",
".  c #2B0B0B",
"X  c #2D1111",
"o  c #340404",
"O  c #310B0B",
"+  c #3C0606",
"@  c #3A0C0C",
"#  c #331212",
"$  c #311815",
"%  c #331F1B",
"&  c #391212",
"*  c #3E1A16",
"=  c #35211F",
"-  c #3B231E",
";  c #362521",
":  c #3B2421",
">  c #3A2924",
",  c #3D2C28",
"<  c #431111",
"1  c #461D18",
"2  c #491414",
"3  c #491E1E",
"4  c #43211C",
"5  c #4C241E",
"6  c #462222",
"7  c #432924",
"8  c #422E29",
"9  c #482020",
"0  c #4D2A24",
"q  c #4B2E28",
"w  c #41332C",
"e  c #4A332C",
"r  c #453731",
"t  c #4F3730",
"y  c #4C3830",
"u  c #512720",
"i  c #552C24",
"p  c #532D2A",
"a  c #582F2F",
"s  c #54332C",
"d  c #553630",
"f  c #5A3B31",
"g  c #673128",
"h  c #56473B",
"j  c #624A3B",
"k  c #744939",
"l  c #5F4444",
"z  c #5E5044",
"x  c #5D7552",
"c  c #644646",
"v  c #694643",
"b  c #6A4E4C",
"n  c #735957",
"m  c #626757",
"M  c #72725B",
"N  c #7E755E",
"B  c #6B796A",
"V  c #7A6363",
"C  c #777C66",
"Z  c #787C65",
"A  c #797F70",
"S  c #49824A",
"D  c #518B52",
"F  c #5D8F5E",
"G  c #5EB160",
"H  c #6B8E6C",
"J  c #659466",
"K  c #7F8169",
"L  c #7C8872",
"P  c #749D75",
"I  c #7A937B",
"U  c #7B9E77",
"Y  c #7E9C7F",
"T  c #66A668",
"R  c #7DAB7F",
"E  c #7F9580",
"W  c #8A5C53",
"Q  c #8F6255",
"!  c #806969",
"~  c #847373",
"^  c #8C7373",
"/  c #927E7D",
"(  c #808C72",
")  c #829D7E",
"_  c #859A84",
"`  c #8A9E84",
"'  c #8B9D8C",
"]  c #938C8B",
"[  c #969996",
"{  c #999F99",
"}  c #84A484",
"|  c #87A288",
" . c #8CA38C",
".. c #8BAA8D",
"X. c #8FA090",
"o. c #8FA890",
"O. c #85B786",
"+. c #8ABB8C",
"@. c #91A68C",
"#. c #92A98D",
"$. c #91A492",
"%. c #95AB93",
"&. c #97A898",
"*. c #9DA694",
"=. c #9BA29B",
"-. c #9BAD95",
";. c #9AAB9A",
":. c #93B294",
">. c #98B196",
",. c #9BB59A",
"<. c #9CB99D",
"1. c #9FA9A0",
"2. c #9FBBA0",
"3. c #A39B9B",
"4. c #BD9C92",
"5. c #A0A493",
"6. c #A7A09F",
"7. c #A1A998",
"8. c #A0B49D",
"9. c #A0BA9F",
"0. c #A8B09F",
"q. c #A7A0A0",
"w. c #A4ACA4",
"e. c #AAA1A0",
"r. c #ACA8A7",
"t. c #ABACA9",
"y. c #A2B2A2",
"u. c #A1BCA1",
"i. c #AEB5A4",
"p. c #AAB4AA",
"a. c #ABBCAB",
"s. c #B0B6A6",
"d. c #B0B7A8",
"f. c #B3BCAD",
"g. c #B2B3B1",
"h. c #B5B9B5",
"j. c #BCBDBC",
"k. c #8CC18D",
"l. c #A3C2A4",
"z. c #ABC0AC",
"x. c #B2C2AE",
"c. c #B8CDAC",
"v. c #B2C5B2",
"b. c #B9C1B2",
"n. c #BCC1BD",
"m. c #B8CFB8",
"M. c #B3D4B3",
"N. c #B9D2B9",
"B. c #B9D8B8",
"V. c #DEAFA1",
"C. c #C0BFC0",
"Z. c #C0C9BF",
"A. c #D9C4B7",
"S. c #C1C1C1",
"D. c #C0CAC1",
"F. c #C6C8C8",
"G. c #C8CACA",
"H. c #C2D4C4",
"J. c #C1E0C2",
"K. c #CCE5CD",
"L. c #CEEBD0",
"P. c #D4EDD5",
"I. c #DDF9DE",
"U. c #DFF3E0",
"Y. c #F1EBD6",
"T. c #E3FDE4",
"R. c #E7FBEA",
"E. c #F2F2E2",
/* pixels */
"S.S.S.S.S.S.S.S.S.S.C.S.S.S.S.S.C.S.S.S.j.w.g.S.S.S.S.S.S.S.S.S.",
"S.S.S.S.S.S.S.S.S.S.S.S.S.S.S.S.S.S.S.n.=._ $.t.j.S.S.S.S.S.S.S.",
"S.S.S.j.S.S.S.S.S.S.S.S.S.S.S.n.C.C.S.H.H.z.z.i.p.h.S.S.S.S.S.C.",
"S.S.S.S.S.S.S.j.S.S.C.S.S.C.S.S.n.D.K.I.L.m.x.f.v.p.h.S.S.S.S.S.",
"S.S.j.S.S.S.S.S.C.S.S.S.S.S.C.C.D.P.T.J.l.l.x.f.b.f.p.g.S.S.S.S.",
"S.S.S.S.S.S.S.S.S.S.S.S.S.C.C.F.U.T.B.l.u.u.z.0.d.f.f.p.h.S.S.S.",
"S.S.S.S.S.S.j.S.S.S.S.C.S.n.H.R.T.M.u.u.u.9.9.9.7.d.f.f.p.j.S.S.",
"S.S.S.S.S.S.S.S.S.S.S.S.j.D.E.Y.c.l.l.l.l.<.<.<.8.7.s.f.a.p.C.S.",
"S.S.S.j.S.S.S.S.S.S.S.F.] A.V.Q z m @.l.u.9.,.,.,.-.5.s.i.v.b.S.",
"S.S.S.S.S.S.S.j.S.S.F.6.V 4.W r r y h K l.9.,.,.>.>.-.5.z.L.v.g.",
"S.S.S.S.S.S.S.S.S.S.j.~ V c f , e y t h N l.9.>.>.:.#.#.;.m.u.=.",
"S.S.S.S.S.S.S.j.j.F.3.V l % , r w e e s t C <.>.%.#.#.#.>.I B 1.",
"S.S.S.S.S.S.S.S.S.S.~ V 6 X = , , w q q s h ( 9.:.@...:...Y [ S.",
"j.S.S.S.S.j.S.S.F.g.V c X X X ; , , , q q i j ) :...@...E &.S.S.",
"S.S.S.S.S.S.S.S.F.3.b 6 $ X X X ; > > , q q i ! :.....E X.j.S.S.",
"S.S.S.S.S.S.S.S.F.3.5 & $ O X . X = > - - 7 u k } ..E _ h.F.S.S.",
"S.S.S.S.S.S.S.S.F.3.9 * & O . . . . % = : 6 5 g ( } _ g.S.S.S.S.",
"S.S.C.S.S.S.S.S.F.g.p & # # . . . . . $ = : 5 i M ) t.S.S.S.S.C.",
"S.S.S.S.S.S.S.S.C.F.n @ @ O O . .   .   O * 9 d A g.S.S.S.S.S.S.",
"S.S.S.S.S.C.S.S.C.F.r.4 @ @ O .         o o @ b t.F.C.S.S.S.S.S.",
"C.S.S.S.S.F.S.S.C.C.$.x 1 + + + o o   o o 9 ! C.F.S.S.S.C.S.S.S.",
"S.S.p.w.1.w.h.S.C.X.J a.e.c 2 + + + & t ! r.G.F.j.S.S.S.S.S.S.S.",
"S.p.&.$...' ' t.' J u.F.F.S.e./ ^ ( 3.V.G.F.C.C.S.S.C.S.S.S.S.C.",
"j.&.%.o.| E _ H F p.C.C.S.S.F.F.F.F.G.F.C.C.C.C.S.S.S.S.S.S.S.S.",
"h.;.%.o.| E D D P t.S.S.S.S.S.S.S.S.S.S.S.S.S.S.S.S.S.S.S.S.S.S.",
"g.&.%...} O.G T $.$.C.S.S.S.S.S.S.S.S.S.S.S.S.S.S.S.S.C.n.S.S.S.",
"j.&.$.| ) P k.k.|  .g.S.S.S.S.S.S.S.S.S.S.S.j.S.S.S.S.S.S.S.S.C.",
"S.1.' _ ) } ..O...$.p.S.S.S.S.S.j.S.j.S.S.S.S.S.C.S.S.S.S.S.S.S.",
"S.j.;.` ` ' ....#.$.p.F.S.S.S.S.S.S.S.S.S.S.S.S.S.S.j.S.S.S.S.S.",
"S.S.C.y.' ..' @. .;.C.S.S.S.S.S.S.S.S.S.S.S.S.S.S.S.S.S.S.C.j.S.",
"S.S.S.S.h.y.;.;.w.h.S.S.j.S.S.S.j.S.S.S.S.S.S.S.S.S.S.S.S.S.S.S.",
"S.S.S.S.S.S.n.S.S.F.S.S.S.S.S.S.S.S.S.S.S.j.S.S.S.S.S.S.S.S.S.S."
};
