/* XPM */
static char *ZDEPTH_xpm[]={
"32 32 53 1",
"      c #000000",
"0     c #080C08",
"1     c #000400",
"2     c #393C39",
"3     c #848284",
"4     c #ADAAAD",
"5     c #BDBEBD",
"6     c #B5B2B5",
"7     c #949294",
"8     c #525152",
"9     c #101010",
"a     c #393839",
"b     c #DEDBDE",
"c     c #D6D3D6",
"d     c #CECFCE",
"e     c #D6D7D6",
"f     c #5A5D5A",
"g     c #6B696B",
"h     c #C6C7C6",
"i     c #C6C3C6",
"j     c #DEDFDE",
"k     c #949694",
"l     c #080808",
"m     c #737173",
"n     c #CECBCE",
"o     c #A5A2A5",
"p     c #101410",
"q     c #292C29",
"r     c #313031",
"s     c #313431",
"t     c #BDBABD",
"u     c #292829",
"v     c #525552",
"w     c #5A595A",
"x     c #636163",
"y     c #B5B6B5",
"z     c #737573",
"A     c #9C9E9C",
"B     c #6B6D6B",
"C     c #8C8A8C",
"D     c #8C8E8C",
"E     c #848684",
"F     c #9C9A9C",
"G     c #A5A6A5",
"H     c #ADAEAD",
"I     c #E7E3E7",
"J     c #E7E7E7",
"K     c #EFEBEF",
"L     c #EFEFEF",
"M     c #F7F3F7",
"N     c #F7F7F7",
"O     c #FFFBFF",
"P     c #FFFFFF",
"                                ",
"                                ",
"                                ",
"                                ",
"                                ",
"               001              ",
"            234556789           ",
"          a4bbcdddeb5f          ",
"         gechii555ihdjk0        ",
"111lllllmjnii555555iihjop1ll111 ",
"qqrrsargbni55tttttt555hb7rssrrqu",
"vvvwwwxhdi55ttyyyyytt5inezvwwvv8",
"mmzzzmAehi5tyyyyyyyyt55hcymzzmmB",
"CCCDDDidi5ttyy6666yyyt5indkDCCCE",
"FAAAoGdn55tyy666666yyttihcHAAAFF",
"4HHHHychi5tyy666666yytt5hc5HHHH4",
"tt555ichi5tyy666666yytt5hdh55ttt",
"hhhnndch55tyy666666yytt5hcdhhhhi",
"dcccceeni5tyy666666yyt55hcecccdd",
"ebbbbjbnh5ttyyy66yyytt5inejbbbee",
"jIIIIIIch55ttyyyyyytt5ihdjIIIIjj",
"JJJKKKKjnhi5tttyyttt5ihneKKKKJJJ",
"KLLLLLMMbnh555tttt55iincKMLLLLLK",
"MMMMNNNNMenhi55555iihncKNNNMMMMM",
"NNNOOOOOPOjdnhhhhhhnnbMPOOOONNNN",
"OOPPPPPPPPPLjcdnndcbKOPPPPPPPOOO",
"PPPPPOOONNNNNMKJJKLNONNOOOPPPPPP",
"OONNMMMLLLLLLLLLLLLLLLLLMMMNNOOO",
"MLLLKKKJJJJJJIIIIIJJJJJJKKKLLLMM",
"KJJJIIIIjjjjjjjjjjjjjjjjIIIJJJKK",
"IIjjjbbbbeeeeeeeeeeeebbbbbjjjIII",
"bbbeeeeccccccdddddcccccceeeebbbj"};
