/* XPM */
static char * image_name[]={
"32 32 40 2",
"  	c #C2C2C2",
". 	c #C4C4C4",
"X 	c #B8B8B8",
"o 	c #B3B3B3",
"O 	c #BDBDBD",
"+ 	c #A3A3A3",
"@ 	c #9C9C9C",
"# 	c #A6A6A6",
"$ 	c #ADADAD",
"% 	c #F5DEB3",
"& 	c #CFCFCF",
"* 	c #DEB887",
"= 	c #8F8F8F",
"- 	c #9B7071",
"; 	c #525252",
": 	c #3B3B3B",
"> 	c #2B2B2B",
", 	c #666666",
"< 	c #DCDCDC",
"1 	c #171717",
"2 	c #242424",
"3 	c #292929",
"4 	c #FAEBD7",
"5 	c #1F1F1F",
"6 	c #333333",
"7 	c #55562F",
"8 	c #121212",
"9 	c #B3B37E",
"0 	c #000000",
"q 	c #BC8F8F",
"w 	c #0F0F0F",
"e 	c #030303",
"r 	c #FFFAF0",
"t 	c #FFFFFF",
"y 	c #C7C7C7",
"u 	c #D4D4D4",
"i 	c #91535D",
"p 	c #595959",
"a 	c #6B3939",
"s 	c #C9C9C9",
"                                                                ",
"                    .   X o o o o X X X                         ",
"                . O + @ # $ o o o % & % * X O                   ",
"                + = @ + - ; : > : : , = & < % * O               ",
"          . O - - # - > 1 1 2 > 2 3 2 1 : @ 4 & * O             ",
"          X - - @ , 5 5 > 3 6 6 3 7 3 2 5 5 = 4 < * X           ",
"        O - - @ - 5 1 > 6 6 5 8 8 5 6 6 > > 5 # 4 & * X         ",
"        9 - @ @ > 1 2 5 5 8 0 0 0 0 8 3 6 7 2 : < 4 & * O       ",
"    . + - q # - w 8 5 3 5 e 0 0 0 0 0 5 7 7 > , 4 r < * $       ",
"    O - = # o ; w 2 2 3 8 0 0 0 0 0 0 5 7 7 6 = t r < & q X     ",
"  . + - @ $ o ; 8 5 2 3 5 e 0 0 0 0 e 3 7 > 2 : + r < & * #     ",
"    9 = # o * ; w 1 5 6 6 8 e 0 0 0 5 7 > 2 5 1 ; 4 < & * q O   ",
"  X - q q o % , w 5 > 3 5 6 3 3 5 5 5 6 > 5 2 8 - 4 < % * q o   ",
". + - q $ * % + 5 1 2 5 6 7 6 7 7 6 3 3 5 1 1 5 $ < & % * q #   ",
"y @ - q $ * * % , 8 2 > 7 : > > 6 6 > > 5 1 w , < & & * * q q . ",
"y q - q $ * * % * ; 8 : y + : 2 > > > 2 1 8 : % & % % * q - = . ",
"y q - q q * * % % o ; ; r u : 5 2 2 5 8 8 ; * & % % * * q - 9 . ",
"y @ - q q * * * % % % = = ; 5 1 1 1 5 : - * % % * * * q q i = y ",
". # i q q * * * * % % % * + - , , - @ o % * * * o $ q q - i @ y ",
"  X i - q q * * * * * * * % * * * o o o o o o $ # q q 9 - p + . ",
"    - - q q q * * * * * * o o o $ # # # # # # q @ q 9 - i i     ",
"  y q i - q q q q * * o o o $ $ # # @ @ @ @ q q = 9 - i a 9 s   ",
"    O i i - q q q q q q q $ # # q @ q = = = 9 9 - i i p ; X     ",
"    y q p - - q q q q q q q q @ q q = 9 - - - i i i p a - s     ",
"        - i - - - q q q q q q q = 9 9 - - i i , p ; a ,         ",
"        X i p i - - - - - 9 - 9 - - - i , i ; a a a ; X .       ",
"        . o i p i i - - - - - - - i i i p ; a a 5 , O .         ",
"          . X i a p i i i i i i i i i p a a a a - y             ",
"            .   = p a p p p p p p p a a a a ; + s               ",
"                s O 9 p a a a a a a a a ; =   y                 ",
"                  . s   o @ - - - - @ X s s                     ",
"                          y s s s s y                           "
};
