/* XPM */
static char * image_name[]={
"32 32 54 2",
"  	c #D21EE6",
". 	c #FF00FF",
"X 	c #4E125D",
"o 	c #1A1A1A",
"O 	c #171717",
"+ 	c #141414",
"@ 	c #000001",
"# 	c #000000",
"$ 	c #030303",
"% 	c #0A0A0A",
"& 	c #121212",
"* 	c #0F0F0F",
"= 	c #0D0D0D",
"- 	c #050505",
"; 	c #232375",
": 	c #080808",
"> 	c #27208B",
", 	c #222298",
"< 	c #3E46AB",
"1 	c #4169E1",
"2 	c #3D42C2",
"3 	c #3B42AC",
"4 	c #838BF0",
"5 	c #9DA5FA",
"6 	c #9398FE",
"7 	c #3232CC",
"8 	c #4955A5",
"9 	c #7C98D3",
"0 	c #E6E6FA",
"q 	c #F0F8FF",
"w 	c #979BFF",
"e 	c #8990F8",
"r 	c #FFFFFF",
"t 	c #ACB2FE",
"y 	c #8D91FF",
"u 	c #9598FF",
"i 	c #8586FC",
"p 	c #333333",
"a 	c #F0F0F0",
"s 	c #CCCCCC",
"d 	c #787878",
"f 	c #BABABA",
"g 	c #757575",
"h 	c #BDBDBD",
"j 	c #999999",
"k 	c #878787",
"l 	c #8A8A8A",
"z 	c #454545",
"x 	c #DCDCDC",
"c 	c #636363",
"v 	c #A8A8A8",
"b 	c #292929",
"n 	c #212121",
"m 	c #242424",
"  . . . . . . . . . . . . . . . . . . . . . . . . . . . . . .   ",
". . . . . . . . . . . . . . . . . . . . . . . . . . . . . . . . ",
". . X o o o O O o O O o o O O o O O o O O O o o O O o o o X . . ",
". . + @ # # # # # # @ @ # # @ @ # # # # @ # # # # # # # @ + . . ",
". . o # @ # @ @ @ # # # # # # # # # # # # # # # @ @ # @ # o . . ",
". . o @ # @ @ # # # # # # # # # @ # # # # # @ @ # @ @ # @ o . . ",
". . O # @ # # # # @ @ # $ % & + * = - $ @ # # # # # # @ # O . . ",
". . O # # @ # @ @ # - + ; ; ; ; ; ; ; & : $ # # @ # @ # # O . . ",
". . o # @ # # # @ % ; ; > , , , > ; ; ; ; = $ # # # # # # O . . ",
". . O # # # @ # : ; > , , , , , , , > ; ; O % $ # # # # # O . . ",
". . O # # # # - ; > , < 1 1 1 2 , , , > ; ; & - $ # # # # O . . ",
". . O # # # # & ; , 3 1 4 5 6 1 7 , , , ; ; ; = $ # # # # O . . ",
". . o # @ # $ ; > , 8 9 0 q 0 w 1 , , , ; ; ; * - # # # # O . . ",
". . o # # @ : ; > , 1 e 0 r r t 1 7 , , ; ; ; & : @ @ # # o . . ",
". . o # # @ = ; , , 1 1 0 q 0 y 1 7 , , ; ; ; & : @ # # # o . . ",
". . O @ @ # * ; > , , 1 1 u i 1 7 , , , ; ; ; * : # # # # o . . ",
". . O # # # = ; > , , , 1 1 1 7 , , , > ; ; ; = - @ # # @ O . . ",
". . o # # # : ; ; > , , , , , , , , > ; ; ; & % - # # # # O . . ",
". . o # @ # - ; ; ; , , , , , , , > ; ; ; ; * : $ # # # # O . . ",
". . O # # @ @ * ; ; ; > , , , > > ; ; ; ; & % - @ # @ # # O . . ",
". . O # # # # - + ; ; ; ; ; ; ; ; ; ; ; & = - $ # # @ # # O . . ",
". . O # # # # @ % & ; ; ; ; ; ; ; ; ; & = : $ # # # @ # # O . . ",
". . O # # # # # $ : & O ; ; ; ; + & * % - $ @ # # # # # # O . . ",
". . o # # # # # # @ - % = * * = = % : $ @ # # @ # # # # @ O . . ",
". . O # # @ # @ # # @ $ $ - - - - - @ @ # # # @ @ # # # @ o . . ",
". . O # @ # # # @ # # # @ @ @ @ @ # # # # # # # # # # # # o . . ",
". . o @ # @ @ # # # # # # # # # # # # p a s d f g h j k l O . . ",
". . o # @ # @ @ # # # # # # # # # # @ z x h g r c r j f v b . . ",
". . + @ # # # # @ @ # # # # # # @ # # @ z p & z n z p n m + . . ",
". . X o o o O O O O O O O O O o O o O O O o o o o O o o o X . . ",
". . . . . . . . . . . . . . . . . . . . . . . . . . . . . . . . ",
"  . . . . . . . . . . . . . . . . . . . . . . . . . . . . . .   "
};
