/* XPM */
static char * render_xpm[] = {
"32 32 344 2",
"  	c #00297D",
". 	c #383735",
"+ 	c #808079",
"@ 	c #746F69",
"# 	c #787873",
"$ 	c #797973",
"% 	c #78746E",
"& 	c #797671",
"* 	c #79766F",
"= 	c #78746F",
"- 	c #78766F",
"; 	c #A0A4A0",
"> 	c #E7BEBA",
", 	c #EEB6B4",
"' 	c #DA5C59",
") 	c #B49390",
"! 	c #B9BCB9",
"~ 	c #B0AEAB",
"{ 	c #B1B0AD",
"] 	c #B2B2B0",
"^ 	c #BCB9B6",
"/ 	c #B2B1AE",
"( 	c #B6B5B2",
"_ 	c #BAB9B5",
": 	c #BEBCB8",
"< 	c #B8B5B2",
"[ 	c #B8B6B4",
"} 	c #BCBAB6",
"| 	c #BCBAB8",
"1 	c #BDBCB9",
"2 	c #BEBDBA",
"3 	c #C0BEBA",
"4 	c #C0BEBC",
"5 	c #C1C0BD",
"6 	c #C2C1BE",
"7 	c #C3C2C0",
"8 	c #909995",
"9 	c #CF6664",
"0 	c #D89091",
"a 	c #B15656",
"b 	c #825F64",
"c 	c #C6C9C4",
"d 	c #B6B1AA",
"e 	c #BDB6AE",
"f 	c #C0BDB6",
"g 	c #C8C6BE",
"h 	c #B5B6B5",
"i 	c #AAAAA6",
"j 	c #AEABA7",
"k 	c #C6BEB6",
"l 	c #C2BDB5",
"m 	c #BEB8B1",
"n 	c #B4ADA6",
"o 	c #878789",
"p 	c #8B8B8C",
"q 	c #8C8C8C",
"r 	c #8E8E8E",
"s 	c #909090",
"t 	c #919191",
"u 	c #939393",
"v 	c #959595",
"w 	c #969696",
"x 	c #989899",
"y 	c #989C98",
"z 	c #9B5552",
"A 	c #845455",
"B 	c #4E3E3E",
"C 	c #5E5B5E",
"D 	c #AAABA9",
"E 	c #AAA9A3",
"F 	c #AAA6A0",
"G 	c #AEADA9",
"H 	c #ABAAA6",
"I 	c #A9A9A7",
"J 	c #969695",
"K 	c #969898",
"L 	c #A7A4A0",
"M 	c #B1AEA9",
"N 	c #A4A3A0",
"O 	c #8B8B8B",
"P 	c #8E9090",
"Q 	c #989898",
"R 	c #999999",
"S 	c #9B9B9B",
"T 	c #999891",
"U 	c #E2DFD9",
"V 	c #D1CEC7",
"W 	c #CFCBC3",
"X 	c #D8D4CE",
"Y 	c #D8D5CF",
"Z 	c #D8D6D0",
"` 	c #DAD7D1",
" .	c #D9D6D0",
"..	c #DBD7D1",
"+.	c #DDDAD4",
"@.	c #DCD8D2",
"#.	c #D9D6D1",
"$.	c #DCD9D3",
"%.	c #DDDAD3",
"&.	c #E0DDD6",
"*.	c #E1DED7",
"=.	c #E1DDD7",
"-.	c #DEDBD4",
";.	c #DFDCD5",
">.	c #DFDCD6",
",.	c #989690",
"'.	c #F5F4EE",
").	c #E3DFD5",
"!.	c #DEDBD6",
"~.	c #EFEDE7",
"{.	c #EEEAE4",
"].	c #EAE7DF",
"^.	c #E7E2DB",
"/.	c #EDEAE5",
"(.	c #F0EDE7",
"_.	c #EEEBE5",
":.	c #EDEAE2",
"<.	c #E2DED6",
"[.	c #E6E4DF",
"}.	c #F2EFE8",
"|.	c #F0EDE5",
"1.	c #E7E3DF",
"2.	c #EDEAE3",
"3.	c #E0DBD4",
"4.	c #DAD8D1",
"5.	c #EBE8E2",
"6.	c #E0DBD2",
"7.	c #EAE7E2",
"8.	c #EDE9E1",
"9.	c #ECE9E2",
"0.	c #989691",
"a.	c #F6F3EC",
"b.	c #C0B49C",
"c.	c #86848C",
"d.	c #919086",
"e.	c #DFDDDA",
"f.	c #EBE6D9",
"g.	c #AA9689",
"h.	c #848087",
"i.	c #B5B1A6",
"j.	c #D1CEC4",
"k.	c #F1EFE7",
"l.	c #9E9391",
"m.	c #827980",
"n.	c #9B9390",
"o.	c #B0B0B1",
"p.	c #878990",
"q.	c #98968B",
"r.	c #DAD8D3",
"s.	c #F2EEE6",
"t.	c #A0989B",
"u.	c #696E71",
"v.	c #6E747D",
"w.	c #DEE0DD",
"x.	c #EBE6DE",
"y.	c #AAA99E",
"z.	c #B2AE9E",
"A.	c #B8A98E",
"B.	c #A19691",
"C.	c #EFEDE6",
"D.	c #D7D2C7",
"E.	c #C3BEBC",
"F.	c #99968C",
"G.	c #D0CFCA",
"H.	c #E1DDD5",
"I.	c #C4C1BC",
"J.	c #989593",
"K.	c #ABABA9",
"L.	c #C1C2BE",
"M.	c #E1DDD6",
"N.	c #C7C3C0",
"O.	c #B4AB9E",
"P.	c #989595",
"Q.	c #B2B1B2",
"R.	c #A1A19E",
"S.	c #A09C91",
"T.	c #D4D2CB",
"U.	c #E2DFD6",
"V.	c #B4AEAD",
"W.	c #C2BEB5",
"X.	c #CFCEC8",
"Y.	c #DFDBD4",
"Z.	c #C0B9AD",
"`.	c #A49B8E",
" +	c #B4B0A7",
".+	c #A79E96",
"++	c #9B9991",
"@+	c #EAE8E2",
"#+	c #CECAC4",
"$+	c #D8D5CE",
"%+	c #C9C6BE",
"&+	c #CDC9C2",
"*+	c #D2CFC8",
"=+	c #DDD7D0",
"-+	c #D9D0C9",
";+	c #CECBC4",
">+	c #D9D6CF",
",+	c #DCD9D2",
"'+	c #DBD8D1",
")+	c #C3C0B8",
"!+	c #B8B5AD",
"~+	c #D7D4CD",
"{+	c #CDC9C3",
"]+	c #CBC8C1",
"^+	c #D2CEC7",
"/+	c #D5D4CB",
"(+	c #D3D1C9",
"_+	c #CAC7C1",
":+	c #C6C3BC",
"<+	c #D6D3CD",
"[+	c #F4F1EC",
"}+	c #EDE9E2",
"|+	c #BCB9B1",
"1+	c #514F4B",
"2+	c #918E86",
"3+	c #ECE8E2",
"4+	c #A1615B",
"5+	c #824E4A",
"6+	c #E7D2CB",
"7+	c #E9E8E2",
"8+	c #A4A199",
"9+	c #7B7873",
"0+	c #D2C9C2",
"a+	c #D9D6CE",
"b+	c #C6C2BA",
"c+	c #585654",
"d+	c #B8B4AD",
"e+	c #F1F0E7",
"f+	c #A4B896",
"g+	c #9CBE90",
"h+	c #DBD9D1",
"i+	c #E5E1D9",
"j+	c #DEDBD3",
"k+	c #A19E96",
"l+	c #F5F3EE",
"m+	c #B1AEA7",
"n+	c #343434",
"o+	c #353432",
"p+	c #A4A198",
"q+	c #C0BAB8",
"r+	c #4B1F1F",
"s+	c #764E4A",
"t+	c #EDD3CB",
"u+	c #D1D1CA",
"v+	c #343435",
"w+	c #2E2C2D",
"x+	c #522E2E",
"y+	c #C7C3BA",
"z+	c #CAC7BE",
"A+	c #63615C",
"B+	c #212121",
"C+	c #494745",
"D+	c #C4BEB8",
"E+	c #EBEDE2",
"F+	c #868C79",
"G+	c #96B08E",
"H+	c #CBCDC3",
"I+	c #DCD9D1",
"J+	c #807D78",
"K+	c #F7F4EF",
"L+	c #95918B",
"M+	c #828284",
"N+	c #717373",
"O+	c #5F5E59",
"P+	c #BDBCBA",
"Q+	c #C9B2B2",
"R+	c #C6AAAB",
"S+	c #DED6D0",
"T+	c #3C3B39",
"U+	c #3D3D3C",
"V+	c #4D4E4B",
"W+	c #C8C4BC",
"X+	c #474642",
"Y+	c #39393B",
"Z+	c #908B84",
"`+	c #EFF1E6",
" @	c #91AE86",
".@	c #9BC391",
"+@	c #D5D4CD",
"@@	c #E2DFD7",
"#@	c #DEDAD3",
"$@	c #B8B4AE",
"%@	c #696763",
"&@	c #F5F2ED",
"*@	c #D2CEC6",
"=@	c #BDB9B1",
"-@	c #BEBCB4",
";@	c #D5D6D0",
">@	c #D4D4CE",
",@	c #E3E2DA",
"'@	c #EAE7E1",
")@	c #E4E1D9",
"!@	c #E6E2DB",
"~@	c #D9D5CE",
"{@	c #C4C1B8",
"]@	c #A6A199",
"^@	c #A6A198",
"/@	c #D6D2CA",
"(@	c #DBE6D0",
"_@	c #DBE5D0",
":@	c #DDD9D1",
"<@	c #E7E3DC",
"[@	c #A3A19B",
"}@	c #424241",
"|@	c #4F4E4B",
"1@	c #4D4B4A",
"2@	c #454342",
"3@	c #4A4946",
"4@	c #4A4A47",
"5@	c #474643",
"6@	c #464542",
"7@	c #474745",
"8@	c #454542",
"9@	c #434341",
"0@	c #4E4E4B",
"a@	c #52514E",
"b@	c #4A4947",
"c@	c #4A4546",
"d@	c #494546",
"e@	c #464543",
"f@	c #474645",
"g@	c #4B4A47",
"h@	c #A4A39C",
"i@	c #BCB8B1",
"j@	c #232323",
"k@	c #232324",
"l@	c #BEBAB4",
"m@	c #202121",
"n@	c #282828",
"o@	c #FFFFFF",
"p@	c #2C2C2C",
"q@	c #D3D3D3",
"r@	c #717171",
"s@	c #E3E3E3",
"t@	c #3F3F3F",
"u@	c #A9A9A9",
"v@	c #F9F9F9",
"w@	c #565656",
"x@	c #1C1C1C",
"y@	c #060606",
"z@	c #F0F0F0",
"A@	c #0F0F0F",
"B@	c #C0C0C0",
"C@	c #000000",
"                                                                ",
"                                                                ",
"                                                                ",
"      . + @ # $ % & & * = & * - = * * * * * * * * * * * * * * * ",
"      ; > , ' ) ! ~ { ] ^ / ( _ : < ( [ } | | 1 1 2 3 4 5 5 6 7 ",
"      8 9 0 a b c d e f g h i j k l m n o p q r r s t u v v w x ",
"      y z A B C D E F G H I J K L M j N O P s t t u v w Q Q R S ",
"      T U V W X Y Z `  .Y  ...+.@. .#.$.+.%.%.&.*.=.-.-.*.;.>.>.",
"      ,.'.).!.~.{.].^./.(._.:.<.[.}.|.1.~.2.:.3.4.;.5.:.6.7.8.9.",
"      0.a.b.c.d.e.f.g.h.i.j.k.l.m.n.o.p.q.r.s.t.u.v.w.x.y.z.A.B.",
"      T C.D.E.F.G.H.I.J.K.L.M.N.O.P.Q.R.S.T.U.V.L.W.X.Y.Z.`. +.+",
"      ++@+#+$+ .%+&+*+=+-+;+#+>+,+'+)+!+>+~+{+]+^+/+(+V _+:+<+ .",
"      ,.[+}+|+1+2+(.3+4+5+6+7+8+9+0+a+b+C.8+c+d+e+f+g+h+i+j+_+k+",
"      ,.l+m+n+o+p+_.q+r+s+t+u+v+w+x+y+z+A+B+C+D+E+F+G+H+<.I+_+J+",
"      ,.K+L+M+N+O+2.P+Q+R+S+~+T+U+V+W+W+X+Y+  Z+`+ @.@+@@@#@$@%@",
"      ,.&@*@=@-@z+}+ .;@>@,@'@)@@@!@~@]+{@]@^@/@2.(@_@'@@@:@<@/@",
"      [@%+}@|@|@1@2@3@4@4@5@6@C+C+7@8@9@0@a@a@b@2@c@d@e@8@2@f@g@",
"      h@i@  j@j@j@j@j@j@j@j@j@j@j@j@k@k@j@j@j@j@j@j@j@j@j@k@j@j@",
"      h@l@m@n@n@n@n@n@n@n@n@n@n@n@n@n@n@n@n@n@n@n@n@n@n@n@n@n@n@",
"      h@l@m@n@n@n@n@n@n@n@n@n@n@n@n@n@n@n@n@n@n@n@n@n@n@n@n@n@n@",
"      h@l@m@n@n@n@n@n@n@n@n@n@n@n@n@n@n@n@n@n@n@n@n@n@n@n@n@n@n@",
"      h@l@m@n@n@n@n@n@n@n@n@n@n@n@n@n@n@n@n@n@n@n@n@n@n@n@n@n@n@",
"      h@l@m@n@n@n@n@n@n@n@n@n@n@n@n@n@n@n@n@n@n@n@n@n@n@n@n@n@n@",
"o@o@o@o@o@o@o@o@o@o@o@o@o@o@o@o@o@o@o@o@o@o@o@o@o@o@o@o@o@o@o@o@",
"o@o@o@o@o@o@o@o@o@o@o@o@o@o@o@o@o@o@o@p@q@o@o@o@o@o@o@o@o@o@o@o@",
"o@o@o@o@o@o@o@o@o@o@o@o@o@o@o@o@o@o@o@p@q@o@o@o@o@o@o@o@o@o@o@o@",
"o@o@o@o@r@r@s@s@t@r o@u@u@t@r@o@v@w@w@x@q@o@r t@s@o@r@r@s@o@o@o@",
"o@o@o@o@y@w@z@A@q@t@B@r p@q@y@z@r t@q@y@q@r r@B@x@o@y@w@z@o@o@o@",
"o@o@o@o@C@o@q@C@C@C@r r r o@p@q@p@q@o@p@q@p@C@C@C@o@C@o@o@o@o@o@",
"o@o@o@o@C@o@z@A@v@o@o@r r o@p@q@w@r o@A@q@w@r o@o@o@C@o@o@o@o@o@",
"o@o@o@o@C@o@o@r y@y@s@r r o@p@q@s@A@A@p@q@z@p@C@w@o@C@o@o@o@o@o@",
"o@o@o@o@o@o@o@o@o@o@o@o@o@o@o@o@o@o@o@o@o@o@o@o@o@o@o@o@o@o@o@o@"};
