/* XPM */
static char *WRAP_xpm[]={
"32 32 486 2",
"      c #717171",
" 0    c #707070",
" 1    c #717172",
" 2    c #717170",
" 3    c #71716F",
" 4    c #717071",
" 5    c #707071",
" 6    c #717070",
" 7    c #70706E",
" 8    c #707171",
" 9    c #706E70",
" a    c #716E70",
" b    c #716F6F",
" c    c #706F70",
" d    c #707170",
" e    c #71716E",
" f    c #6F7275",
" g    c #6F7377",
" h    c #6E7A7F",
" i    c #747E80",
" j    c #78807C",
" k    c #798077",
" l    c #757973",
" m    c #747270",
" n    c #6E6C6F",
" o    c #6C6C6F",
" p    c #72716C",
" q    c #71706C",
" r    c #6B727C",
" s    c #65748B",
" t    c #667995",
" u    c #6B7D90",
" v    c #71818C",
" w    c #76858A",
" x    c #7A8B84",
" y    c #80907E",
" z    c #8A947D",
" A    c #909678",
" B    c #8A8F73",
" C    c #7B7970",
" D    c #6A676F",
" E    c #6C6C72",
" F    c #70716F",
" G    c #717067",
" H    c #6D7171",
" I    c #62738E",
" J    c #5B75A2",
" K    c #61789D",
" L    c #677B97",
" M    c #6B7E8E",
" N    c #70828A",
" O    c #758587",
" P    c #798983",
" Q    c #7F8D7E",
" R    c #86907C",
" S    c #8C9A78",
" T    c #99A477",
" U    c #A6A974",
" V    c #8C8E70",
" W    c #6D6B6F",
" X    c #6A686E",
" Y    c #70706F",
" Z    c #6F7170",
" &    c #707271",
"0     c #71706E",
"00    c #717066",
"01    c #6D7278",
"02    c #5E74A5",
"03    c #5573B0",
"04    c #5D75A0",
"05    c #627897",
"06    c #677A94",
"07    c #6B7F8D",
"08    c #70828B",
"09    c #758489",
"0a    c #7A8982",
"0b    c #7E8D80",
"0c    c #86917C",
"0d    c #8C977A",
"0e    c #939B78",
"0f    c #9DA275",
"0g    c #AEB273",
"0h    c #A6AA74",
"0i    c #75736F",
"0j    c #656470",
"0k    c #716F65",
"0l    c #6E7377",
"0m    c #607AB7",
"0n    c #5474B8",
"0o    c #5973A5",
"0p    c #5E769E",
"0q    c #687B94",
"0r    c #70818B",
"0s    c #798982",
"0t    c #808C80",
"0u    c #8C9679",
"0v    c #949A78",
"0w    c #9A9F73",
"0x    c #A0A772",
"0y    c #BCBC75",
"0z    c #BBBD7A",
"0A    c #666670",
"0B    c #717069",
"0C    c #6F716B",
"0D    c #6581BD",
"0E    c #5C7CC9",
"0F    c #5975AB",
"0G    c #5A74A2",
"0H    c #5E759D",
"0I    c #627998",
"0J    c #6B7F8E",
"0K    c #71818A",
"0L    c #768489",
"0M    c #7A8983",
"0N    c #818D7E",
"0O    c #949A77",
"0P    c #A0A572",
"0Q    c #AEAC74",
"0R    c #CFD07E",
"0S    c #B9BA81",
"0T    c #64636F",
"0U    c #6B6971",
"0V    c #716E5F",
"0W    c #6B7C9C",
"0X    c #6187DD",
"0Y    c #5C7ABC",
"0Z    c #5A74AB",
"0&    c #5B73A3",
"1     c #637897",
"10    c #677B94",
"11    c #6B7E8F",
"12    c #71818B",
"13    c #768587",
"14    c #7A8883",
"15    c #808B80",
"16    c #87907D",
"17    c #8C967A",
"18    c #939A79",
"19    c #9A9E76",
"1a    c #A0A472",
"1b    c #ACAC74",
"1c    c #BEC07A",
"1d    c #E1E588",
"1e    c #969878",
"1f    c #5F5C6F",
"1g    c #6F6F72",
"1h    c #716F66",
"1i    c #6F7371",
"1j    c #678BD8",
"1k    c #6082D3",
"1l    c #5C7AB6",
"1m    c #5974A9",
"1n    c #5A74A1",
"1o    c #647899",
"1p    c #6B7E8C",
"1q    c #71828B",
"1r    c #798883",
"1s    c #818D7F",
"1t    c #87917C",
"1u    c #8C9578",
"1v    c #9B9F75",
"1w    c #9FA471",
"1x    c #ABAC73",
"1y    c #B8B979",
"1z    c #D4D680",
"1A    c #D7DA88",
"1B    c #6B6770",
"1C    c #686A71",
"1D    c #716E5E",
"1E    c #6D7D9D",
"1F    c #678DED",
"1G    c #5F80C6",
"1H    c #5D79B6",
"1I    c #5973A7",
"1J    c #5B74A1",
"1K    c #637898",
"1L    c #71828A",
"1M    c #828B7F",
"1N    c #86917A",
"1O    c #949878",
"1P    c #9A9F76",
"1Q    c #A0A571",
"1R    c #AAAC73",
"1S    c #B6B878",
"1T    c #C5C77D",
"1U    c #F1F493",
"1V    c #98997A",
"1W    c #5C5C6F",
"1X    c #6E6E70",
"1Y    c #706F5F",
"1Z    c #6C86C7",
"1&    c #6489E7",
"2     c #5E82C7",
"20    c #5E79B9",
"21    c #5872A7",
"22    c #5C73A0",
"23    c #5F769E",
"24    c #637896",
"25    c #677B92",
"26    c #72818B",
"27    c #798882",
"28    c #939A78",
"29    c #9A9F75",
"2a    c #AAAA71",
"2b    c #B9BB7B",
"2c    c #C6C87E",
"2d    c #EBEB8A",
"2e    c #C2C383",
"2f    c #5B5B6B",
"2g    c #6C6E71",
"2h    c #6F736F",
"2i    c #6C8BDB",
"2j    c #658AE2",
"2k    c #6B92F1",
"2l    c #668BE1",
"2m    c #5A76B1",
"2n    c #5C729D",
"2o    c #5F779F",
"2p    c #687B91",
"2q    c #768589",
"2r    c #7A8981",
"2s    c #7F8D81",
"2t    c #8C9678",
"2u    c #949B79",
"2v    c #999E74",
"2w    c #A0A170",
"2x    c #B1B472",
"2y    c #DEE089",
"2z    c #EFF190",
"2A    c #E5E688",
"2B    c #D7DF8E",
"2C    c #62626D",
"2D    c #696871",
"2E    c #717062",
"2F    c #6F767F",
"2G    c #6B8EE8",
"2H    c #6C95FA",
"2I    c #94D9FF",
"2J    c #84C3FF",
"2K    c #607EC7",
"2L    c #59729E",
"2M    c #5F759C",
"2N    c #687A93",
"2O    c #72828C",
"2P    c #798881",
"2Q    c #808B7F",
"2R    c #878F7C",
"2S    c #8D9579",
"2T    c #979C75",
"2U    c #9AA06C",
"2V    c #C8C97D",
"2W    c #FFFFC4",
"2X    c #FFFFD6",
"2Y    c #F5F791",
"2Z    c #EBF090",
"2&    c #747572",
"3     c #656370",
"30    c #706E60",
"31    c #6F757A",
"32    c #698DE7",
"33    c #74A2FF",
"34    c #C0FFFF",
"35    c #A2F0FF",
"36    c #6580D7",
"37    c #5971A0",
"38    c #5F769A",
"39    c #687A94",
"3a    c #6B7E8D",
"3b    c #858F7C",
"3c    c #8D957A",
"3d    c #999D75",
"3e    c #DCDA84",
"3f    c #FFFFF7",
"3g    c #FFFFFF",
"3h    c #FFFF9F",
"3i    c #EFF490",
"3j    c #797871",
"3k    c #626270",
"3l    c #716E61",
"3m    c #6E777A",
"3n    c #668EE5",
"3o    c #709CFF",
"3p    c #A4F5FF",
"3q    c #8FCFFF",
"3r    c #5F7FC7",
"3s    c #59719A",
"3t    c #60769E",
"3u    c #657998",
"3v    c #71828C",
"3w    c #758589",
"3x    c #7E8C80",
"3y    c #999E75",
"3z    c #9B9F6D",
"3A    c #CFCC7F",
"3B    c #FFFFF6",
"3C    c #FEFE98",
"3D    c #F0F591",
"3E    c #7A7973",
"3F    c #717064",
"3G    c #707778",
"3H    c #698DE3",
"3I    c #648EE6",
"3J    c #6F9DFF",
"3K    c #6990EF",
"3L    c #5A75B3",
"3M    c #59749D",
"3N    c #647898",
"3O    c #6F828C",
"3P    c #758687",
"3Q    c #85917C",
"3R    c #999F75",
"3S    c #9CA270",
"3T    c #B3B672",
"3U    c #EDEF91",
"3V    c #FFFF9C",
"3W    c #E4E98B",
"3X    c #E3E78E",
"3Y    c #6D6B6D",
"3Z    c #656571",
"3&    c #71716A",
"4     c #6F7266",
"40    c #6C8AD4",
"41    c #6589E1",
"42    c #6283CA",
"43    c #5C7ABB",
"44    c #5A71A8",
"45    c #5A73A0",
"46    c #5F769C",
"47    c #70818A",
"48    c #768686",
"49    c #9DA371",
"4a    c #A8A96F",
"4b    c #BBBB79",
"4c    c #CACB82",
"4d    c #DEE487",
"4e    c #D5DA8C",
"4f    c #605F6C",
"4g    c #6B6B71",
"4h    c #71716D",
"4i    c #706D5C",
"4j    c #6E85C1",
"4k    c #658CEC",
"4l    c #6180C1",
"4m    c #5C78B2",
"4n    c #5873A5",
"4o    c #5B73A1",
"4p    c #5F769D",
"4q    c #72828B",
"4r    c #758586",
"4s    c #798782",
"4t    c #7F8C7F",
"4u    c #A8AA6E",
"4v    c #B5B678",
"4w    c #C1C27C",
"4x    c #EBED8D",
"4y    c #B6B880",
"4z    c #5B5B6D",
"4A    c #6F6F71",
"4B    c #716F5D",
"4C    c #6D7890",
"4D    c #668CE7",
"4E    c #6081C8",
"4F    c #5D78B6",
"4G    c #5973A8",
"4H    c #5C73A1",
"4I    c #5E759C",
"4J    c #687B93",
"4K    c #768588",
"4L    c #798884",
"4M    c #818E7E",
"4N    c #8B957A",
"4O    c #999F74",
"4P    c #9FA470",
"4Q    c #A8AB71",
"4R    c #B5B777",
"4S    c #C7C97D",
"4T    c #EBEF90",
"4U    c #888876",
"4V    c #626070",
"4W    c #6F6F70",
"4X    c #71706B",
"4Y    c #706E65",
"4Z    c #6883C1",
"4&    c #6081D7",
"5     c #5D78B7",
"50    c #687C91",
"51    c #758487",
"52    c #8C9579",
"53    c #9FA474",
"54    c #B4B677",
"55    c #D8D982",
"56    c #C9CA86",
"57    c #606170",
"58    c #696970",
"59    c #716F60",
"5a    c #6E768E",
"5b    c #6283DD",
"5c    c #5B79BD",
"5d    c #5973A9",
"5e    c #5F759F",
"5f    c #647896",
"5g    c #687C92",
"5h    c #6B7F8F",
"5i    c #758588",
"5j    c #818C80",
"5k    c #A9AB72",
"5l    c #C0C079",
"5m    c #DADD83",
"5n    c #878874",
"5o    c #70706C",
"5p    c #707066",
"5q    c #677A9F",
"5r    c #5D7BC8",
"5s    c #5A74AC",
"5t    c #5975A1",
"5u    c #5F759E",
"5v    c #647897",
"5w    c #677B93",
"5x    c #B0AE73",
"5y    c #CFD07B",
"5z    c #9D9F78",
"5A    c #60606E",
"5B    c #6F6E71",
"5C    c #717169",
"5D    c #6F7269",
"5E    c #6376A8",
"5F    c #5674B6",
"5G    c #5A74A4",
"5H    c #5D759D",
"5I    c #808D7E",
"5J    c #8C967B",
"5K    c #939979",
"5L    c #9A9F74",
"5M    c #A3A970",
"5N    c #989B75",
"5O    c #64656F",
"5P    c #6A6A6F",
"5Q    c #617392",
"5R    c #5674AC",
"5S    c #5E75A4",
"5T    c #627896",
"5U    c #677A93",
"5V    c #70808A",
"5W    c #7F8C81",
"5X    c #87917B",
"5Y    c #8E9678",
"5Z    c #9FA473",
"5&    c #ADB073",
"6     c #8E9172",
"60    c #67666F",
"61    c #6C6C71",
"62    c #71716B",
"63    c #72716B",
"64    c #687282",
"65    c #617498",
"66    c #62789B",
"67    c #677C95",
"68    c #6F8289",
"69    c #7F8C80",
"6a    c #87937C",
"6b    c #919A78",
"6c    c #9CA579",
"6d    c #999C77",
"6e    c #808270",
"6f    c #69676F",
"6g    c #6E6D71",
"6h    c #71706F",
"6i    c #6E7173",
"6j    c #6B737E",
"6k    c #6A7887",
"6l    c #6A7D8D",
"6m    c #70818C",
"6n    c #768687",
"6o    c #828D80",
"6p    c #838C7A",
"6q    c #848A76",
"6r    c #7D8073",
"6s    c #72706F",
"6t    c #6B6B70",
"6u    c #707476",
"6v    c #717575",
"6w    c #727675",
"6x    c #747774",
"6y    c #737072",
"6z    c #6C6D6F",
"6A    c #706F71",
"       0     0       0   0 1 2               0     3           0",
" 0 0   0         0 4 0     2 2         5 0             0   0 0  ",
"       0 0   0     6 1 2 2 7 8 9 a b 9 c 6 d 2 0   0   2 0      ",
" 0       0         2 e 7 f g h i j k l m n o   0                ",
"       0 0 0     p q r s t u v w x y z A B C D E 0 2            ",
"     d F 8     G H I J K L M N O P Q R S T U V W X 2 0 Y     0  ",
"     Y Z &0 000102030405060708090a0b0c0d0e0f0g0h0i0j   2       0",
"     5 8 80k0l0m0n0o0p050q070r090s0t R0u0v0w0x0y0z 00A 4 4      ",
"        0B0C0D0E0F0G0H0I0q0J0K0L0M0N R0u0O0w0P0Q0R0S0T0U 4      ",
"       e0V0W0X0Y0Z0&0H1 101112131415161718191a1b1c1d1e1f1g      ",
"      1h1i1j1k1l1m1n0H1o061p1q O1r1s1t1u0v1v1w1x1y1z1A1B1C 0    ",
" 0   31D1E1F1G1H1I1J0H1K0q071L O1r1M1N1u1O1P1Q1R1S1T1U1V1W1X    ",
"     q1Y1Z1&2 2021222324250J2609270t1t0u28291w2a2b2c2d2e2f2g    ",
" 0  002h2i2j2k2l2m2n2o242p0J122q2r2s1t2t2u2v2w2x2y2z2A2B2C2D    ",
"    2E2F2G2H2I2J2K2L2M052N072O092P2Q2R2S282T2U2V2W2X2Y2Z2&3     ",
"    3031323334353637381 393a12 w0a2Q3b3c0v3d2U3e3f3g3h3i3j3k   0",
"    3l3m3n3o3p3q3r3s3t3u10073v3w0s3x0c1u283y3z3A2X3B3C3D3E3k   0",
"    3F3G3H3I3J3K3L3M2M3N0q073O3P270t3Q1u283R3S3T3U3V3W3X3Y3Z    ",
"    3&4 404142434445463N0q3a47481r0t R2t283y494a4b4c4d4e4f4g    ",
"    4h4i4j4k4l4m4n4o4p1K063a4q4r4s4t1t1u0v1P1Q4u4v4w4x4y4z4A   0",
" 0 0 34B4C4D4E4F4G4H4I3N4J1p0K4K4L4M0c4N284O4P4Q4R4S4T4U4V4W 0  ",
" 0    4X4Y4Z4&5 4G4H0p2450071L51270N1t522829534Q5455565758 0    ",
"     0 2595a5b5c5d1n5e5f5g5h0K5i275j1t2t2u3y4P5k5l5m5n3k 0      ",
" 0   2 Y5o5p5q5r5s5t5u5v5w07265i275j1t2t2u3y4P5x5y5z5A5B        ",
"     2 5 45C5D5E5F5G5H244J3a1L4K1r5I R5J5K5L5M0y5N5O5P 0     0  ",
"     0 1 1 83& 25Q5R5S5T5U M5V0L0a5W5X5Y5K5Z5&6 6061   0       0",
"     d 8 8    6263646566675h685i0s696a6b6c6d6e6f6g 2 2          ",
"       1 2 3   56h0B6i6j6k6l6m6n0a6o6p6q6r6s6t   0   0   0      ",
"     2 Y 3     8 8   2 e Y f6u6v6w6x6y c6z6A 4 2 2     1 1      ",
"       0 2   5 d d   0 2 0 6 6 0 Z 5   4 0   0     2           0",
" 0 0   5 2 6   2 0 5 Y 2   6 0       0 0 5 1       2   0   0 0  ",
"       0 0 4 0     0       0     0     2     2 0   0     0      "};
