/* XPM */
static char * image_name[]={
"32 32 92 2",
"  	c #D21EE6",
". 	c #FF00FF",
"X 	c #4E125D",
"o 	c #1A1A1A",
"O 	c #171717",
"+ 	c #592F71",
"@ 	c #A3A3A3",
"# 	c #1C1C1C",
"$ 	c #141414",
"% 	c #000001",
"& 	c #000000",
"* 	c #D1D1D1",
"= 	c #D4D4D4",
"- 	c #303030",
"; 	c #4D4D4D",
": 	c #FFFFFF",
"> 	c #FCFCFC",
", 	c #A8A8A8",
"< 	c #3B3B3B",
"1 	c #8F8F8F",
"2 	c #EDEDED",
"3 	c #E8E8E8",
"4 	c #E5E5E5",
"5 	c #E3E3E3",
"6 	c #FAFAFA",
"7 	c #F66ED2",
"8 	c #525252",
"9 	c #8A8A8A",
"0 	c #878787",
"q 	c #8C8C8C",
"w 	c #F7F7F7",
"e 	c #A1A1A1",
"r 	c #D15DE1",
"t 	c #030303",
"y 	c #121212",
"u 	c #6B3939",
"i 	c #0F0F0F",
"p 	c #080808",
"a 	c #696969",
"s 	c #707070",
"d 	c #0A0A0A",
"f 	c #8E2323",
"g 	c #E0E0E0",
"h 	c #6E6E6E",
"j 	c #A52A2A",
"k 	c #A22E61",
"l 	c #FF7256",
"z 	c #D52079",
"x 	c #FF6347",
"c 	c #595959",
"v 	c #DB7093",
"b 	c #F08080",
"n 	c #737373",
"m 	c #D9D9D9",
"M 	c #666666",
"N 	c #DEB887",
"B 	c #FFB6C1",
"V 	c #FFE4C4",
"C 	c #BC8F8F",
"Z 	c #9E9E9E",
"A 	c #9C9C9C",
"S 	c #FFE4E1",
"D 	c #FAF0E6",
"F 	c #DEDEDE",
"G 	c #DCDCDC",
"H 	c #EF84EF",
"J 	c #DA322D",
"K 	c #0D0D0D",
"L 	c #4A4A4A",
"P 	c #BABABA",
"I 	c #424242",
"U 	c #C7C7C7",
"Y 	c #333333",
"T 	c #050505",
"R 	c #999999",
"E 	c #CFCFCF",
"W 	c #363636",
"Q 	c #545454",
"! 	c #919191",
"~ 	c #F8F8FF",
"^ 	c #EBEBEB",
"/ 	c #6B6B6B",
"( 	c #F0F0F0",
") 	c #CCCCCC",
"_ 	c #787878",
"` 	c #BDBDBD",
"' 	c #757575",
"] 	c #ABABAB",
"[ 	c #292929",
"{ 	c #454545",
"} 	c #212121",
"| 	c #242424",
"  . . . . . . . . . . . . . . . . . . . . . . . . . . . . . .   ",
". . . . . . . . . . . . . . . . . . . . . . . . . . . . . . . . ",
". . X o o o O o o o O O O o o O o O O O o o o + @ # o O o X . . ",
". . $ % & & % & & & % & & & & & % % & & & % & & * = - & % $ . . ",
". . o & & & % % & & % & & & & & & % & & & % & & ; : > , < o . . ",
". . O % & & 1 2 3 3 3 3 3 3 3 3 3 3 3 4 4 3 3 4 5 6 > : > 5 7 . ",
". . O & % & 8 9 0 0 0 0 0 9 1 1 1 q 9 9 0 0 0 0 q w : > 3 e r . ",
". . o & & % & % & & t y u u u u u u O i p & & & a : 3 s d O . . ",
". . o & & % & & & p u u u f f u u u u u $ d t p g @ y & & o . . ",
". . o & % & % & p u u f f f f f f u u u u y d - h % & & & o . . ",
". . O & & & % t u u f j j k l j f f u u u u y d % % % & & o . . ",
". . o t & & & i u f j k z z x z j f f u u u $ u c % % & & o . . ",
". . O & % & t u u f j z x v v x j f f u u u O o 5 q p % & o . . ",
". . o & & & p u u f j x v b b l x j f u u u O i n : m c p O . . ",
". . O & % & M N N N N N B V V V N N N N N C e Z @ 6 : : 5 A r . ",
". . o & % & 9 5 g g 5 S S S D S S S g g F G G m = 6 : : : 3 H   ",
". . O & & & d u u u f j j J x j j f u u u u $ K L : : P I # . . ",
". . O & % & d u u u f f f f j j f u u u u u i d U 5 L & & o . . ",
". . o & & % t $ u u u u f f f u u u u u u $ i Y , d % % & o . . ",
". . o & % & & K u u u u u u u u u u u u $ i d # y % & & % O . . ",
". . o & & & & T y u u u u u u u u u u $ i K T Y R t & % & O . . ",
". . O & % & % & p i O u u u u u u O y i d T t & E E W & t O . . ",
". . O % & & % & & p i y $ $ $ $ y y K d T t & % ; : : , W o . . ",
". . o & & & 9 3 5 5 5 5 5 5 4 5 5 5 5 5 5 5 5 5 F 6 > : : g 7 . ",
". . O & & % Q ! q q q 1 1 1 1 1 1 1 q 1 q q q q ! ~ : : ^ , r . ",
". . O & & % & & & & & & & & & & & & & & % & & & a : 3 / i O . . ",
". . o % & & % & & & & & & & & & & & & Y ( ) _ ` 2 3 e 0 0 O . . ",
". . o & % & % % & & & & & & & & % & & I G ` ' : @ : R P ] [ . . ",
". . $ % & & & & & & & & & & & & & & & % { Y y { } { Y } | y . . ",
". . X o o o O O o o o o o o o o o o o o o o o o o o O O o X . . ",
". . . . . . . . . . . . . . . . . . . . . . . . . . . . . . . . ",
"  . . . . . . . . . . . . . . . . . . . . . . . . . . . . . .   "
};
