/* XPM */ 
static const unsigned char * render_al_fisheye_mr_lens_xpm[] = {
"32 32 341 2",
"  	c None",
"! 	c #C1C1C1",
"# 	c #C0C0C0",
"$ 	c #BFBFBF",
"% 	c #CACACA",
"& 	c #DFDFDF",
"' 	c #E0E0E0",
"( 	c #DEDEDE",
") 	c #CECECE",
"* 	c #C2C2C2",
"+ 	c #C7C7C7",
", 	c #E1E1E1",
"- 	c #B8B8B8",
". 	c #B2B2B2",
"0 	c #B9B9B9",
"1 	c #C9C9C9",
"2 	c #CFCFCF",
"3 	c #BEBEBE",
"4 	c #C3C3C3",
"5 	c #C8C8C8",
"6 	c #B4B4B4",
"7 	c #8F8F8F",
"8 	c #686868",
"9 	c #696969",
": 	c #A8A8A8",
"; 	c #D5D5D5",
"< 	c #D0D0D0",
"= 	c black",
"> 	c #B5B5B5",
"? 	c #BDBDBD",
"@ 	c #9E9E9E",
"A 	c #999999",
"B 	c #878787",
"C 	c #6F6F6F",
"D 	c #9D9D9D",
"E 	c #D1D1D1",
"F 	c #A2A2A2",
"G 	c #DDDDDD",
"H 	c #F1F1F1",
"I 	c #464646",
"J 	c #373737",
"K 	c #868686",
"L 	c #D8D8D8",
"M 	c #CDCDCD",
"N 	c #E2E2E2",
"O 	c #8E8E8E",
"P 	c #6E6E6E",
"Q 	c #E6E6E6",
"R 	c #AFAFAF",
"S 	c #EAEAEA",
"T 	c #FDFDFD",
"U 	c #D4D4D4",
"V 	c #BCBCBC",
"W 	c #767676",
"X 	c #404040",
"Y 	c #A9A9A9",
"Z 	c #A3A3A3",
"[ 	c #DBDBDB",
"] 	c #FEFEFE",
"^ 	c #F6F6F6",
"_ 	c #7B7B7B",
"` 	c #444444",
"a 	c #5D5D5D",
"b 	c #787878",
"c 	c #A5A5A5",
"d 	c #7F7F7F",
"e 	c #5C5C5C",
"f 	c #838383",
"g 	c #383838",
"h 	c #747474",
"i 	c #FAFAFA",
"j 	c #FBFBFB",
"k 	c #AEAEAE",
"l 	c #A1A1A1",
"m 	c #7D7D7D",
"n 	c #4E4E4E",
"o 	c #C5C5C5",
"p 	c #939393",
"q 	c #757575",
"r 	c #080808",
"s 	c #A0A0A0",
"t 	c #8D8D8D",
"u 	c #A7A7A7",
"v 	c #848484",
"w 	c #191919",
"x 	c #090909",
"y 	c #252525",
"z 	c #494949",
"{ 	c #5E5E5E",
"| 	c #D2D2D2",
"} 	c #858585",
"~ 	c #5F5F5F",
" !	c #0D0D0D",
"!!	c #C4C4C4",
"#!	c #3D3D3D",
"$!	c #7E7E7E",
"%!	c #424242",
"&!	c #2B2B2B",
"'!	c #2D2D2D",
"(!	c #3B3B3B",
")!	c #565656",
"*!	c #CBCBCB",
"+!	c #E3E3E3",
",!	c #212121",
"-!	c #949494",
".!	c #2E2E2E",
"0!	c #4A4A4A",
"1!	c #414141",
"2!	c #717171",
"3!	c #818181",
"4!	c #6C6C6C",
"5!	c #262626",
"6!	c #E4E4E4",
"7!	c #5B5B5B",
"8!	c #363636",
"9!	c #393939",
":!	c #0B0B0B",
";!	c #636363",
"<!	c #676767",
"=!	c #161616",
">!	c #DCDCDC",
"?!	c #989898",
"@!	c #343434",
"A!	c #010101",
"B!	c #353535",
"C!	c #313131",
"D!	c #242424",
"E!	c #484848",
"F!	c #DADADA",
"G!	c #C6C6CB",
"H!	c #9FA0AB",
"I!	c #828494",
"J!	c #707287",
"K!	c #6B6D83",
"L!	c #707186",
"M!	c #7C7E8D",
"N!	c #9596A1",
"O!	c #BABABD",
"P!	c #525252",
"Q!	c #202020",
"R!	c #222222",
"S!	c #232323",
"T!	c #8C8E9C",
"U!	c #65677C",
"V!	c #66687D",
"W!	c #494A5A",
"X!	c #434554",
"Y!	c #7D7D86",
"Z!	c #4F4F4F",
"[!	c #555555",
"]!	c #434343",
"^!	c #333333",
"_!	c #C9C9CC",
"`!	c #6D6E81",
"a!	c #63657A",
"b!	c #545568",
"c!	c #999BB7",
"d!	c #D1D3E3",
"e!	c #C5C7DC",
"f!	c #7D8092",
"g!	c #707070",
"h!	c #666666",
"i!	c #C6C6C6",
"j!	c #717388",
"k!	c #606277",
"l!	c #64667A",
"m!	c #4F5162",
"n!	c #7F829B",
"o!	c #FCFDFD",
"p!	c white",
"q!	c #B6B9D3",
"r!	c #5D5E6C",
"s!	c #CCCCCC",
"t!	c #ECECEC",
"u!	c #E8E8E8",
"v!	c #87899D",
"w!	c #75778F",
"x!	c #6A6C82",
"y!	c #67697F",
"z!	c #5A5C70",
"{!	c #66687C",
"|!	c #696B81",
"}!	c #525466",
"~!	c #8E91AC",
" #	c #E9EAF2",
"!#	c #ECEDF4",
"##	c #E6E7F0",
"$#	c #A8ABC8",
"%#	c #BABCD5",
"&#	c #E1E1EA",
"'#	c #B7B8C3",
"(#	c #7C7E97",
")#	c #787A91",
"*#	c #72758B",
"+#	c #6E7088",
",#	c #585A6D",
"-#	c #73758D",
".#	c #6B6D84",
"0#	c #595A6D",
"1#	c #6E7187",
"2#	c #D7D9E7",
"3#	c #DDDEEA",
"4#	c #D0D2E3",
"5#	c #D9DBE8",
"6#	c #F7F7FA",
"7#	c #D4D5E5",
"8#	c #CBCBD3",
"9#	c #7E8095",
":#	c #6A6D82",
";#	c #7B7D95",
"<#	c #7A7C95",
"=#	c #8C8FAA",
">#	c #A7AAC6",
"?#	c #E1E2ED",
"@#	c #A5A8C4",
"A#	c #66687E",
"B#	c #888AA4",
"C#	c #E2E3ED",
"D#	c #EAEBF2",
"E#	c #C6C8DD",
"F#	c #DCDDEA",
"G#	c #DFE0EC",
"H#	c #9497B2",
"I#	c #868794",
"J#	c #D7D8DE",
"K#	c #AEB1CD",
"L#	c #81839D",
"M#	c #A3A6C2",
"N#	c #C9CBDE",
"O#	c #CCCEE0",
"P#	c #EEEFF5",
"Q#	c #ACAFCC",
"R#	c #DBDCE9",
"S#	c #A9ABC8",
"T#	c #B0B3D0",
"U#	c #9D9FBC",
"V#	c #9C9EBB",
"W#	c #9B9EBA",
"X#	c #B3B5D1",
"Y#	c #ABAECB",
"Z#	c #B4B5C7",
"[#	c #C7C9DE",
"]#	c #80829C",
"^#	c #9598B4",
"_#	c #F2F2F7",
"`#	c #F4F5F9",
"a#	c #BDC0D7",
"b#	c #9193AF",
"c#	c #8486A0",
"d#	c #7D8099",
"e#	c #6F7289",
"f#	c #76767F",
"g#	c #BDC0D8",
"h#	c #C9CBDF",
"i#	c #F0F1F6",
"j#	c #FCFCFD",
"k#	c #E9E9F1",
"l#	c #C8CADE",
"m#	c #9EA1BD",
"n#	c #7B7D96",
"o#	c #8588A1",
"p#	c #9FA1BE",
"q#	c #CED0E2",
"r#	c #BFC1D8",
"s#	c #AAADC9",
"t#	c #D3D3D3",
"u#	c #5F5F63",
"v#	c #30313D",
"w#	c #494B5B",
"x#	c #70728A",
"y#	c #CDCFE1",
"z#	c #CBCDE0",
"{#	c #B5B8D3",
"|#	c #9D9EBB",
"}#	c #CFD1E2",
"~#	c #B7BAD4",
" $	c #9C9EBA",
"!$	c #D7D8E7",
"#$	c #E5E6EF",
"$$	c #AFB2CF",
"%$	c #A2A4C1",
"&$	c #656567",
"'$	c #19181E",
"($	c #3D3D4B",
")$	c #C3C5DB",
"*$	c #D4D6E5",
"+$	c #D8DAE8",
",$	c #D1D2E3",
"-$	c #A6A9C5",
".$	c #8B8B8C",
"0$	c #0D0D10",
"1$	c #18181E",
"2$	c #141418",
"3$	c #040404",
"4$	c #1A1B21",
"5$	c #CACCDF",
"6$	c #D5D6E5",
"7$	c #C2C4DA",
"8$	c #D2D4E4",
"9$	c #B1B4D0",
":$	c #2A2B35",
";$	c #18191A",
"<$	c #0B0B0D",
"=$	c #09090B",
">$	c #101014",
"?$	c #16161A",
"@$	c #515264",
"A$	c #7F819A",
"B$	c #9295B0",
"C$	c #4B4C5D",
"D$	c #292A33",
"E$	c #282828",
"F$	c #59595B",
"G$	c #080809",
"H$	c #020202",
"I$	c #818182",
"J$	c #BABABA",
"K$	c #1F1F21",
"L$	c #C1C1C2",
"M$	c #868586",
"N$	c #9E9EA0",
"O$	c #C4C3C4",
"P$	c #6D6B6E",
"Q$	c #808080",
"R$	c #BFC0C0",
"S$	c #CCCACC",
"T$	c #868687",
"U$	c #0E0E11",
"V$	c #1C1C1E",
"W$	c #8E8E8F",
"X$	c #D3D4D5",
"Y$	c #BDBCBD",
"Z$	c #5B5B5D",
"[$	c #1E1E21",
"]$	c #131315",
"^$	c #141417",
"_$	c #121314",
"`$	c #151518",
"a$	c #141416",
"b$	c #222223",
"c$	c #626163",
"! ! ! ! ! ! # ! $ % & ' ' & & ( & ) ! * * ! ! ! ! ! $ + ( , ' ' ",
"! ! ! ! $ - . 0 1 ' , & & & & , 2 3 ! * 4 ! ! ! ! ! 5 ( , ' ' ' ",
"! ! ! 6 7 8 9 : ; ' & & & ' , < 3 ! ! = = = * = = 5 & = ' = ' ' ",
"! ! > ? 4 @ A B C D E ( & ' 2 $ ! ! ! = ! * = # 5 = , = = ' ' , ",
"* . F G H & @ I J K 2 L ( M 3 $ # ! ! = ! * = 1 & = ' = ' ' N E ",
"! O P 6 Q G - R S T U > # 0 V 3 ! ! ! = ! # = & , = , = ' N E # ",
"$ W X D Y Z [ ] ^ _ ` a 9 b c 5 * ! ! = $ 1 = , ' = , = N E # ! ",
"3 d e f g h i j k l m g ` 9 n c o ! ! = 1 & = ' ' = N = E $ ! ! ",
"$ p q _ r s i t u v w = x y z { 1 ! $ % ' , ' ' , , N | * ! ! ! ",
"M ) } ~  !S !!#!$!z %!&!'!&!(!)!- ! *!' , ' ' , +!+!< # 4 * ! ! ",
", & ) h ,!T -!.!0!w 1!2!3!4!5!1!k *!& , ' ' , 6!+!< # * * 4 ! ! ",
"' ' & % 7!N t 8!9!= :!;!& <!=!(!4 >!, ' ' N 6!6!< # * * 4 4 ! ! ",
"' ' & ' 2 4 ?!@!9 A!= B!<!C!D!E!F!& G!H!I!J!K!L!M!N!O!!!!!!!! ! ",
"' ' , ' *!* - 8!P!P!Q!R!S!5!.!. F!T!U!U!V!U!U!V!V!W!X!Y!! ! ! # ",
"' , ' *!$ ! !!6 Z!Z![!]!^!8!. _!`!a!a!a!a!a!a!V!b!c!d!e!f!# $ % ",
", & % $ ! * * o # t g!h!$!i!L j!V!V!V!a!k!l!V!m!n!o!p!p!q!r!% & ",
"& 1 # * * 4 !!4 !!s!< >!t!u!v!w!x!y!y!z!{!|!x!}!~! #!###$#%#&#( ",
"5 $ * 4 * * 4 * * ! | 6!6!'#(#)#*#+#,#w!~!-#.#0#1#2#3#4#5#6#7#8#",
"# ! 4 !!4 * 4 4 * < +!6!u!9#:#;#<#=#>#?#3#@#A#B#C#D#4#E#F#G#H#I#",
"! ! !!o 4 * 4 * E N , 6!J#K#%#L#*#M#F#N#O#P#Q#%#R#S#T#U#V#W#X#Y#",
"! ! !!i!!!4 ! E N ' , +!Z#Q#R#[#]#^#P# #3#_#`#a#b#c#d#w!e#]#N#7#",
"! ! 4 i!o ! | N ' ' ' N f#|!g#h#a#Y#i#j#k#l#3#R#m#(#n#o#p#q#r#s#",
"! ! * o !!t#+!' ' ' ' N u#v#w#x#h#y#N#z#{#|#s#5#}#~# $!$#$y#$$%$",
"! ! ! 4 t#+!, ' ' ' , ' &$= = '$($,#n#W#m#m#T#)$*$+$q#,$e!e!}#-$",
"! ! # t#+!' , ' ' , & 1 .$0$1$2$3$4$V!-$5$y#6$7$r#q#8$a#9$^#.#:$",
"! # | N , ' ' ' , & 5 # 4 ;$<$=$>$?$1$@$A$V#m#B$c!~!w!C$D$= = E$",
"# | N ' ' , ' , ( 5 # ! !!F$<$G$G$=$3$= = 3$3$G$H$= = = = 3$<$I$",
"t#N ' ' ' , , ( + # ! * !!J$<$=$<$<$<$G$3$= = = 3$G$=$=$<$<$K$! ",
", ' ' ' ' N & 5 # * * * 4 L$M$0$0$0$<$<$0$<$<$<$<$0$>$0$=$=$N$L$",
"' ' ' ' , ( 5 4 * * ! ! * ! O$P$<$0$<$=$0$0$0$0$0$0$0$0$<$Q$! ! ",
"' ' ' N ( + # 4 * ! ! ! * ! R$S$T$U$0$0$<$0$<$0$<$0$0$V$W$! ! ! ",
"' ' , >!i!# ! ! ! ! ! ! * ! | ' X$Y$Z$[$]$^$_$`$a$b$c$- ! ! ! ! "};