/* XPM */
static char *LAFORTUN_xpm[]={
"32 32 658 2",
"      c #C1C1C1",
" 0    c #C2C2C1",
" 1    c #C4C3C1",
" 2    c #C5C4C2",
" 3    c #C6C5C2",
" 4    c #C7C5C3",
" 5    c #C5C5C3",
" 6    c #C4C4C2",
" 7    c #C2C2C2",
" 8    c #C5C3C0",
" 9    c #C6C5C1",
" a    c #C3C3C1",
" b    c #BCBDC0",
" c    c #B4B8BF",
" d    c #AFB3BC",
" e    c #B0B2BB",
" f    c #B6B8BD",
" g    c #C0C1C0",
" h    c #C8C8C5",
" i    c #CAC9C6",
" j    c #C6C6C4",
" k    c #C4C3C0",
" l    c #C4C3BF",
" m    c #B8BBC2",
" n    c #A2ADC4",
" o    c #8A9AC2",
" p    c #7689BB",
" q    c #687CB2",
" r    c #5C70A8",
" s    c #56689F",
" t    c #556698",
" u    c #5E6C95",
" v    c #767F9B",
" w    c #9EA1AC",
" x    c #C0C0C0",
" y    c #CBCBC8",
" z    c #C3C3C3",
" A    c #C0C0C1",
" B    c #C5C3BF",
" C    c #BABDC3",
" D    c #9DACCC",
" E    c #8298D1",
" F    c #718ACB",
" G    c #677FC1",
" H    c #6076B8",
" I    c #586EAD",
" J    c #5065A3",
" K    c #485C9A",
" L    c #3F5390",
" M    c #374884",
" N    c #2E3E78",
" O    c #303E70",
" P    c #4F587A",
" Q    c #8E929E",
" R    c #C7C7C4",
" S    c #C9C9C7",
" T    c #C2C2C0",
" U    c #C4C2C0",
" V    c #ABB5CB",
" W    c #8CA3DB",
" X    c #7D96DC",
" Y    c #758DD2",
" Z    c #6D84C7",
" &    c #647ABB",
"0     c #5C70B2",
"00    c #5468A8",
"01    c #4D5F9E",
"02    c #465896",
"03    c #40528D",
"04    c #3B4A85",
"05    c #35447C",
"06    c #2C3A6E",
"07    c #1F2D60",
"08    c #1F2A56",
"09    c #595F76",
"0a    c #B3B3B5",
"0b    c #CCCCC9",
"0c    c #C3C1C0",
"0d    c #A4B1D1",
"0e    c #88A2E6",
"0f    c #859CE6",
"0g    c #7B91D8",
"0h    c #6E84C9",
"0i    c #647ABD",
"0j    c #5B70B4",
"0k    c #5469AB",
"0l    c #4E61A2",
"0m    c #475999",
"0n    c #415291",
"0o    c #3B4B88",
"0p    c #364580",
"0q    c #324178",
"0r    c #303D72",
"0s    c #2D396B",
"0t    c #243161",
"0u    c #16204E",
"0v    c #353C5A",
"0w    c #A4A6AA",
"0x    c #CDCDCA",
"0y    c #C3C2BF",
"0z    c #A4B2D2",
"0A    c #8EA7ED",
"0B    c #92A8F4",
"0C    c #8298E2",
"0D    c #6F86CC",
"0E    c #647BC0",
"0F    c #5C72B6",
"0G    c #5469AD",
"0H    c #4E62A5",
"0I    c #485B9D",
"0J    c #415494",
"0K    c #3C4E8B",
"0L    c #374783",
"0M    c #34437D",
"0N    c #334179",
"0O    c #313F75",
"0P    c #2E3B6F",
"0Q    c #2B3769",
"0R    c #273360",
"0S    c #15204B",
"0T    c #2D3451",
"0U    c #AAAAAD",
"0V    c #CCCBCA",
"0W    c #C4C3BE",
"0X    c #A9B5CD",
"0Y    c #8FA8EC",
"0Z    c #9EB2FD",
"0&    c #8FA3ED",
"1     c #7289D1",
"10    c #647BC1",
"11    c #5C72B7",
"12    c #546AB0",
"13    c #4D61A7",
"14    c #475BA0",
"15    c #425599",
"16    c #3C4E8F",
"17    c #384987",
"18    c #364683",
"19    c #35447F",
"1a    c #33427B",
"1b    c #313F76",
"1c    c #2E3C72",
"1d    c #2C386C",
"1e    c #283464",
"1f    c #242F5B",
"1g    c #0F1841",
"1h    c #3A4057",
"1i    c #BABABB",
"1j    c #C8C8C7",
"1k    c #B7BCC4",
"1l    c #8DA5E2",
"1m    c #96ABF7",
"1n    c #95A8F2",
"1o    c #758BD4",
"1p    c #667CC2",
"1q    c #5D72B9",
"1r    c #5569B1",
"1s    c #4D63AB",
"1t    c #475BA3",
"1u    c #43559C",
"1v    c #3D4F94",
"1w    c #384A8D",
"1x    c #374888",
"1y    c #364684",
"1z    c #354480",
"1A    c #313F77",
"1B    c #2C396C",
"1C    c #293566",
"1D    c #25305E",
"1E    c #1F2952",
"1F    c #0A1235",
"1G    c #616471",
"1H    c #CBCAC9",
"1I    c #C4C2BF",
"1J    c #9BABD0",
"1K    c #869FE8",
"1L    c #8BA0EB",
"1M    c #778DD6",
"1N    c #657CC3",
"1O    c #5D73B9",
"1P    c #556AB2",
"1Q    c #4E63AB",
"1R    c #475BA6",
"1S    c #42559F",
"1T    c #3D4F97",
"1U    c #3A4B90",
"1V    c #38498D",
"1W    c #384889",
"1X    c #344380",
"1Y    c #33417B",
"1Z    c #303F77",
"1&    c #2E3C73",
"2     c #2C3A6D",
"20    c #283566",
"21    c #25315F",
"22    c #222C57",
"23    c #161E44",
"24    c #161D36",
"25    c #A3A3A5",
"26    c #CACAC9",
"27    c #B6BAC3",
"28    c #869CD7",
"29    c #7E96DE",
"2a    c #768CD4",
"2b    c #687EC3",
"2c    c #566BB2",
"2d    c #4E63AC",
"2e    c #475CA6",
"2f    c #4255A1",
"2g    c #3D4E9A",
"2h    c #3A4B94",
"2i    c #394A91",
"2j    c #38498C",
"2k    c #374788",
"2l    c #364584",
"2m    c #32417B",
"2n    c #303E77",
"2o    c #2E3B71",
"2p    c #283567",
"2q    c #253160",
"2r    c #212C57",
"2s    c #1D264C",
"2t    c #070E2D",
"2u    c #5B5E68",
"2v    c #CCCCCB",
"2w    c #C5C4C0",
"2x    c #9FABC8",
"2y    c #7891D4",
"2z    c #748ACF",
"2A    c #697FC3",
"2B    c #5F74B8",
"2C    c #566AB1",
"2D    c #4F63AB",
"2E    c #485BA6",
"2F    c #3E509B",
"2G    c #394B96",
"2H    c #394B94",
"2I    c #384991",
"2J    c #37478D",
"2K    c #374688",
"2L    c #354483",
"2M    c #34437E",
"2N    c #32417A",
"2O    c #303E76",
"2P    c #2A386C",
"2Q    c #283466",
"2R    c #253060",
"2S    c #1D254D",
"2T    c #0F1638",
"2U    c #212538",
"2V    c #B6B6B6",
"2W    c #C6C7C6",
"2X    c #899BC7",
"2Y    c #7088CB",
"2Z    c #6B80C3",
"2&    c #6076B9",
"3     c #576CB0",
"30    c #4F63A9",
"31    c #485CA4",
"32    c #4255A0",
"33    c #3D4F9B",
"34    c #3A4B97",
"35    c #394A94",
"36    c #384992",
"37    c #37478F",
"38    c #35468C",
"39    c #354486",
"3a    c #334381",
"3b    c #32417E",
"3c    c #303F78",
"3d    c #303C74",
"3e    c #2C396F",
"3f    c #2B376C",
"3g    c #273365",
"3h    c #24305F",
"3i    c #212B56",
"3j    c #1C254C",
"3k    c #141C3D",
"3l    c #0B0E24",
"3m    c #919193",
"3n    c #CDCCCB",
"3o    c #B7BAC0",
"3p    c #788CC1",
"3q    c #697FC0",
"3r    c #6277B8",
"3s    c #596EAE",
"3t    c #5064A6",
"3u    c #495CA1",
"3v    c #43569D",
"3w    c #3D5098",
"3x    c #394993",
"3y    c #384993",
"3z    c #374890",
"3A    c #36478D",
"3B    c #354689",
"3C    c #344485",
"3D    c #334180",
"3E    c #313F7B",
"3F    c #2F3D77",
"3G    c #2E3B73",
"3H    c #2B386E",
"3I    c #29366A",
"3J    c #263264",
"3K    c #232F5D",
"3L    c #202A56",
"3M    c #1B254B",
"3N    c #161D3E",
"3O    c #03081F",
"3P    c #6B6D71",
"3Q    c #CECDCC",
"3R    c #C6C4C1",
"3S    c #ADB3BE",
"3T    c #6A80B8",
"3U    c #6277B6",
"3V    c #5A6EAE",
"3W    c #5165A6",
"3X    c #4A5C9E",
"3Y    c #44579A",
"3Z    c #3E5195",
"3&    c #394B91",
"4     c #394A90",
"40    c #384990",
"41    c #37488F",
"42    c #37478C",
"43    c #354589",
"44    c #334281",
"45    c #31407D",
"46    c #303E79",
"47    c #2E3C75",
"48    c #2C3A71",
"49    c #2A376D",
"4a    c #283467",
"4b    c #263162",
"4c    c #222D5C",
"4d    c #1F2955",
"4e    c #1B244A",
"4f    c #151D3D",
"4g    c #02081E",
"4h    c #525358",
"4i    c #CBCAC8",
"4j    c #C7C5C2",
"4k    c #A6ADBC",
"4l    c #6076B0",
"4m    c #5B6FAD",
"4n    c #5367A5",
"4o    c #4B5F9E",
"4p    c #445697",
"4q    c #3E5192",
"4r    c #3A4B8E",
"4s    c #38488C",
"4t    c #36488C",
"4u    c #36468B",
"4v    c #344486",
"4w    c #334282",
"4x    c #31417E",
"4y    c #303F7B",
"4z    c #2E3D77",
"4A    c #2D3B72",
"4B    c #29356B",
"4C    c #242F60",
"4D    c #212C5A",
"4E    c #1E2752",
"4F    c #192248",
"4G    c #151C3B",
"4H    c #01061C",
"4I    c #44454C",
"4J    c #C6C7C5",
"4K    c #C4C4C4",
"4L    c #C7C6C3",
"4M    c #A3AAB9",
"4N    c #586DA6",
"4O    c #5367A3",
"4P    c #4C5F9B",
"4Q    c #455895",
"4R    c #3F518F",
"4S    c #3A4A8A",
"4T    c #374887",
"4U    c #364788",
"4V    c #354587",
"4W    c #344587",
"4X    c #334382",
"4Y    c #313E7A",
"4Z    c #2F3E77",
"4&    c #2D3B74",
"5     c #2B3970",
"50    c #29366C",
"51    c #263163",
"52    c #232D5E",
"53    c #202A57",
"54    c #1C264F",
"55    c #182045",
"56    c #131A38",
"57    c #000518",
"58    c #424347",
"59    c #C6C6C5",
"5a    c #A6ABB8",
"5b    c #53669E",
"5c    c #4C5E99",
"5d    c #465894",
"5e    c #40508D",
"5f    c #394B87",
"5g    c #364682",
"5h    c #364582",
"5i    c #354584",
"5j    c #344382",
"5k    c #334280",
"5l    c #32407D",
"5m    c #2D3B73",
"5n    c #2C3971",
"5o    c #283569",
"5p    c #263265",
"5q    c #222C5A",
"5r    c #1F2854",
"5s    c #1B244C",
"5t    c #171E42",
"5u    c #121834",
"5v    c #000112",
"5w    c #4C4B4E",
"5x    c #C9C9C9",
"5y    c #C6C6C3",
"5z    c #B0B3BA",
"5A    c #526296",
"5B    c #425590",
"5C    c #40528C",
"5D    c #3A4B86",
"5E    c #36457F",
"5F    c #34437F",
"5G    c #34447F",
"5H    c #33427E",
"5I    c #32417D",
"5J    c #31407C",
"5K    c #303E7A",
"5L    c #2B3971",
"5M    c #2A376E",
"5N    c #28356B",
"5O    c #273366",
"5P    c #243062",
"5Q    c #222D5D",
"5R    c #1D2650",
"5S    c #151C3C",
"5T    c #0F142E",
"5U    c #00000B",
"5V    c #626262",
"5W    c #CDCDCD",
"5X    c #C5C4C3",
"5Y    c #BDBDBE",
"5Z    c #5B6993",
"5&    c #394B85",
"6     c #3A4B83",
"60    c #35457D",
"61    c #324179",
"62    c #32407B",
"63    c #313F7A",
"64    c #303F79",
"65    c #2E3C76",
"66    c #273367",
"67    c #253163",
"68    c #232E5F",
"69    c #212B58",
"6a    c #1E2753",
"6b    c #182042",
"6c    c #131A37",
"6d    c #0B1026",
"6e    c #020307",
"6f    c #848483",
"6g    c #CECECE",
"6h    c #C8C7C4",
"6i    c #767F9A",
"6j    c #304178",
"6k    c #354379",
"6l    c #313E74",
"6m    c #2F3D73",
"6n    c #2F3D75",
"6o    c #2F3C74",
"6p    c #2D3A72",
"6q    c #2A376C",
"6r    c #28356A",
"6s    c #273266",
"6t    c #253063",
"6u    c #212B5A",
"6v    c #1C254E",
"6w    c #182246",
"6x    c #111730",
"6y    c #030717",
"6z    c #141416",
"6A    c #B0B0AF",
"6B    c #C8C8C8",
"6C    c #CACAC6",
"6D    c #9CA0AC",
"6E    c #313F70",
"6F    c #2C396D",
"6G    c #2D3A6E",
"6H    c #2D3B70",
"6I    c #2E3C71",
"6J    c #2D3B71",
"6K    c #2C3A70",
"6L    c #2B396F",
"6M    c #2B386D",
"6N    c #2A376B",
"6O    c #283468",
"6P    c #253062",
"6Q    c #232E5E",
"6R    c #212C59",
"6S    c #1D264F",
"6T    c #161E40",
"6U    c #131936",
"6V    c #0E1327",
"6W    c #000004",
"6X    c #464545",
"6Y    c #CACACA",
"6Z    c #C4C4C3",
"6&    c #505A7B",
"7     c #1F2B5D",
"70    c #2A3768",
"71    c #2B386A",
"72    c #2C386D",
"73    c #2B386C",
"74    c #29376C",
"75    c #29366B",
"76    c #253164",
"77    c #242F61",
"78    c #222D5E",
"79    c #202B5A",
"7a    c #1A2248",
"7b    c #171F41",
"7c    c #141A39",
"7d    c #0F152C",
"7e    c #060A16",
"7f    c #020203",
"7g    c #929391",
"7h    c #979AA5",
"7i    c #1F2953",
"7j    c #202C58",
"7k    c #283361",
"7l    c #273364",
"7m    c #283465",
"7n    c #273467",
"7o    c #263364",
"7p    c #212C5B",
"7q    c #1E2853",
"7r    c #171E41",
"7s    c #141B37",
"7t    c #10162E",
"7u    c #0A0F1F",
"7v    c #000000",
"7w    c #474645",
"7x    c #CAC9C7",
"7y    c #606579",
"7z    c #0F1A43",
"7A    c #242F5C",
"7B    c #25305F",
"7C    c #242F5F",
"7D    c #232D5D",
"7E    c #202A58",
"7F    c #192146",
"7G    c #161E3F",
"7H    c #141A38",
"7I    c #10152E",
"7J    c #0C0F21",
"7K    c #000002",
"7L    c #191918",
"7M    c #A8A8A8",
"7N    c #CCCBCC",
"7O    c #BCBCBC",
"7P    c #444961",
"7Q    c #0C153C",
"7R    c #1F2951",
"7S    c #212B55",
"7T    c #212B57",
"7U    c #222C58",
"7V    c #212C58",
"7W    c #202B57",
"7X    c #1C2650",
"7Y    c #1C244C",
"7Z    c #172043",
"7&    c #131935",
"8     c #10152C",
"80    c #0B0F20",
"81    c #000008",
"82    c #070707",
"83    c #8E8E8D",
"84    c #CFCFCF",
"85    c #CAC9C8",
"86    c #B6B6B7",
"87    c #3D4357",
"88    c #091134",
"89    c #182147",
"8a    c #1D264D",
"8b    c #1C254F",
"8c    c #1D254E",
"8d    c #1A234A",
"8e    c #181F42",
"8f    c #151C3E",
"8g    c #0F1328",
"8h    c #090C1B",
"8i    c #000005",
"8j    c #0D0C0C",
"8k    c #818181",
"8l    c #D0D0D0",
"8m    c #B9B9B9",
"8n    c #505363",
"8o    c #0C122E",
"8p    c #0A1333",
"8q    c #141C3F",
"8r    c #182143",
"8s    c #192145",
"8t    c #192044",
"8u    c #141A37",
"8v    c #121831",
"8w    c #0F142B",
"8x    c #0B0E1F",
"8y    c #00020D",
"8z    c #232221",
"8A    c #8E8E8E",
"8B    c #C0C1C1",
"8C    c #85868C",
"8D    c #2D3142",
"8E    c #080D26",
"8F    c #040A25",
"8G    c #090F2A",
"8H    c #0D132F",
"8I    c #101631",
"8J    c #0F152F",
"8K    c #0D142B",
"8L    c #0A0E23",
"8M    c #050717",
"8N    c #00000A",
"8O    c #121212",
"8P    c #565655",
"8Q    c #B3B3B2",
"8R    c #C5C5C4",
"8S    c #CECECC",
"8T    c #BBBBBA",
"8U    c #808185",
"8V    c #444750",
"8W    c #1F212D",
"8X    c #0B0E1C",
"8Y    c #020514",
"8Z    c #00020F",
"8&    c #00010B",
"9     c #03040B",
"90    c #141415",
"91    c #31302F",
"92    c #A4A4A3",
"93    c #CCCCCC",
"94    c #C6C6C6",
"95    c #AEAFAE",
"96    c #969697",
"97    c #828282",
"98    c #787979",
"99    c #7C7C7B",
"9a    c #8B8B8B",
"9b    c #A4A4A4",
"9c    c #BCBCBB",
"9d    c #CBCBCB",
"9e    c #C5C5C5",
"9f    c #CDCCCC",
"9g    c #CECECD",
"                         0 1 2 3 4 5 6 7                        ",
"                   0 8 9 a b c d e f g h i j                    ",
"                 k l m n o p q r s t u v w x y z A              ",
"             0 B C D E F G H I J K L M N O P Q R S x            ",
"           T U V W X Y Z &0 000102030405060708090a0b 0          ",
"        0c T0d0e0f0g0h0i0j0k0l0m0n0o0p0q0r0s0t0u0v0w0x          ",
"       T0y0z0A0B0C0D0E0F0G0H0I0J0K0L0M0N0O0P0Q0R0S0T0U0V A      ",
"      0W0X0Y0Z0&1 101112131415161718191a1b1c1d1e1f1g1h1i1j      ",
"     U1k1l1m1n1o1p1q1r1s1t1u1v1w1x1y1z1a1A1c1B1C1D1E1F1G1H z    ",
"   01I1J1K1L1M1N1O1P1Q1R1S1T1U1V1W1y1X1Y1Z1&2 20212223242526    ",
"   82728292a2b1O2c2d2e2f2g2h2i2j2k2l1X2m2n2o1B2p2q2r2s2t2u2v    ",
"  2w2x2y2z2A2B2C2D2E2f2F2G2H2I2J2K2L2M2N2O2o2P2Q2R2r2S2T2U2V2W  ",
" a A2X2Y2Z2&3 303132333435363738393a3b3c3d3e3f3g3h3i3j3k3l3m3n x",
" 13o3p3q3r3s3t3u3v3w2H3x3y3z3A3B3C3D3E3F3G3H3I3J3K3L3M3N3O3P3Q  ",
"3R3S3T3U3V3W3X3Y3Z3&4 404142433C4445464748494a4b4c4d4e4f4g4h4i 7",
"4j4k4l4m4n4o4p4q4r4s4s4t4u434v4w4x4y4z4A3H4B3g4C4D4E4F4G4H4I4J4K",
"4L4M4N4O4P4Q4R4S4T4U4U4V4W3C4X3b4Y4Z4&5 504a5152535455565758594K",
"4L5a5b5c5d5e5f5g5h1y5i2L5j5k5l3E3F5m5n495o5p4C5q5r5s5t5u5v5w5x z",
"5y5z5A5B5C5D5E0M5F5G2M5H5I5J5K3F4&5L5M5N5O5P5Q535R4F5S5T5U5V5W  ",
"5X5Y5Z5&6 6061612N622m63644Z655m5 494B666768696a5s6b6c6d6e6f6g x",
" 76h6i6j6k6l6m2O2O2O2O6n6o3G6p5 6q6r6s6t686u4d6v6w4f6x6y6z6A6B x",
"  6C6D6E066F6G6H6I2o2o6J6K6L6M6N6O5p6P6Q6R4d6S4F6T6U6V6W6X6Y 7  ",
"  6Z a6&7 1e70711d726M7374756O5O767778794d6S7a7b7c7d7e7f7g5W    ",
"   A4i7h7i7j7k7l7m2p4a7n5O7o6777787p537q6v7a7r7s7t7u7v7w6B4K    ",
"     77x7y7z3i7A1D7B2q2R7C7C7D7p7E4d5R5s7F7G7H7I7J7K7L7M7N      ",
"      1j7O7P7Q7R7S7T7U7V7W7W4d7q7X7Y4F7Z5S7&8 8081828384        ",
"        85868788892S8a6S8b8c5s8d7F8e8f566x8g8h8i8j8k8l 7        ",
"         x268m8n8o8p8q8r8s8t7b7G4G8u8v8w8x8y7v8z8A5W z          ",
"          8B85598C8D8E8F8G8H8I8J8K8L8M8N7v8O8P8Q84 7 x          ",
"              8R8S8T8U8V8W8X8Y8Z8&9 90915V92935x                ",
"                 x943Q8R95969798999a9b9c5W9d   x                ",
"                   A  9e6Y9f5W9g6g6g936B 7 x                    "};
