/* XPM */
static char *GLOSSY_xpm[]={
"32 32 184 2",
"      c #BFBFBF",
" 0    c #C1C1C1",
" 1    c #C5C5C5",
" 2    c #C3C3C3",
" 3    c #BCBCBC",
" 4    c #B7B7B7",
" 5    c #B6B6B6",
" 6    c #BABABA",
" 7    c #C6C6C6",
" 8    c #C2C2C2",
" 9    c #C4C4C4",
" a    c #B4B4B4",
" b    c #9A9A9A",
" c    c #868686",
" d    c #757575",
" e    c #6B6B6B",
" f    c #636363",
" g    c #606060",
" h    c #626262",
" i    c #686868",
" j    c #767676",
" k    c #8A8A8A",
" l    c #A9A9A9",
" m    c #C0C0C0",
" n    c #909090",
" o    c #666666",
" p    c #5D5D5D",
" q    c #5C5C5C",
" r    c #5E5E5E",
" s    c #5F5F5F",
" t    c #5A5A5A",
" u    c #555555",
" v    c #4C4C4C",
" w    c #464646",
" x    c #474747",
" y    c #727272",
" z    c #ABABAB",
" A    c #BEBEBE",
" B    c #989898",
" C    c #646464",
" D    c #595959",
" E    c #545454",
" F    c #404040",
" G    c #414141",
" H    c #747474",
" I    c #BBBBBB",
" J    c #858585",
" K    c #656565",
" L    c #616161",
" M    c #5B5B5B",
" N    c #575757",
" O    c #535353",
" P    c #4D4D4D",
" Q    c #434343",
" R    c #373737",
" S    c #585858",
" T    c #AEAEAE",
" U    c #BDBDBD",
" V    c #7A7A7A",
" W    c #505050",
" X    c #4A4A4A",
" Y    c #343434",
" Z    c #ACACAC",
" &    c #7F7F7F",
"0     c #565656",
"00    c #525252",
"01    c #3F3F3F",
"02    c #2F2F2F",
"03    c #4B4B4B",
"04    c #B8B8B8",
"05    c #939393",
"06    c #3B3B3B",
"07    c #2A2A2A",
"08    c #B3B3B3",
"09    c #696969",
"0a    c #4E4E4E",
"0b    c #484848",
"0c    c #424242",
"0d    c #333333",
"0e    c #292929",
"0f    c #979797",
"0g    c #C7C7C7",
"0h    c #808080",
"0i    c #818181",
"0j    c #8E8E8E",
"0k    c #353535",
"0l    c #444444",
"0m    c #676767",
"0n    c #6D6D6D",
"0o    c #DCDCDC",
"0p    c #E3E3E3",
"0q    c #D6D6D6",
"0r    c #515151",
"0s    c #2D2D2D",
"0t    c #212121",
"0u    c #9C9C9C",
"0v    c #9B9B9B",
"0w    c #EBEBEB",
"0x    c #E7E7E7",
"0y    c #E4E4E4",
"0z    c #E8E8E8",
"0A    c #D9D9D9",
"0B    c #3A3A3A",
"0C    c #1D1D1D",
"0D    c #7E7E7E",
"0E    c #EAEAEA",
"0F    c #E2E2E2",
"0G    c #454545",
"0H    c #393939",
"0I    c #323232",
"0J    c #2C2C2C",
"0K    c #252525",
"0L    c #A4A4A4",
"0M    c #E6E6E6",
"0N    c #D5D5D5",
"0O    c #787878",
"0P    c #494949",
"0Q    c #3D3D3D",
"0R    c #363636",
"0S    c #AAAAAA",
"0T    c #E5E5E5",
"0U    c #929292",
"0V    c #A6A6A6",
"0W    c #6E6E6E",
"0X    c #4F4F4F",
"0Y    c #3C3C3C",
"0Z    c #303030",
"0&    c #282828",
"1     c #2B2B2B",
"10    c #7D7D7D",
"11    c #A7A7A7",
"12    c #272727",
"13    c #202020",
"14    c #878787",
"15    c #B1B1B1",
"16    c #232323",
"17    c #1E1E1E",
"18    c #161616",
"19    c #A3A3A3",
"1a    c #383838",
"1b    c #262626",
"1c    c #1F1F1F",
"1d    c #1B1B1B",
"1e    c #141414",
"1f    c #B9B9B9",
"1g    c #3E3E3E",
"1h    c #2E2E2E",
"1i    c #222222",
"1j    c #181818",
"1k    c #0F0F0F",
"1l    c #0E0E0E",
"1m    c #C9C9C9",
"1n    c #191919",
"1o    c #151515",
"1p    c #111111",
"1q    c #0B0B0B",
"1r    c #070707",
"1s    c #313131",
"1t    c #050505",
"1u    c #949494",
"1v    c #9F9F9F",
"1w    c #1C1C1C",
"1x    c #171717",
"1y    c #131313",
"1z    c #0C0C0C",
"1A    c #030303",
"1B    c #060606",
"1C    c #7B7B7B",
"1D    c #CCCCCC",
"1E    c #1A1A1A",
"1F    c #090909",
"1G    c #000000",
"1H    c #828282",
"1I    c #242424",
"1J    c #020202",
"1K    c #898989",
"1L    c #080808",
"1M    c #0D0D0D",
"1N    c #CACACA",
"1O    c #B2B2B2",
"1P    c #010101",
"1Q    c #C8C8C8",
"1R    c #6C6C6C",
"1S    c #6A6A6A",
"                     0 1 2   3 4 5 6   2 7 2                    ",
"                 8 9 a b c d e f g h i j k l 1 9                ",
"             m 9 4 n o p q r s r q t u v w x y z 9 0            ",
"         A 0 2 B i s h C C f f h g s q D E v F G H m 9          ",
"         8 I J s h K K K C C C f L g p M N O P Q R S T 7 A      ",
"       0 U V r C K K K K K C C f h L r q D u W X Q Y w Z 1      ",
"     m A & g K K K K K K K K C f h L s q t0 00 v w01020304 2    ",
"     105 r K K K K K K K K K C f h L s p t N O P x F0607 q 8 m  ",
" A 00809 f o K K K K C L g L C f h L s p t N O0a0b0c060d0e0f0g  ",
"   80h s K K K K K f C0i0j V L h h g s q t0 000a0b0c060k0e0l 6 0",
" 8 a0m f K K K K f0n T0o0p0q0f f L g r q D0 0r P x G06 Y0s0t0j0g",
" 10u r C K K K K s0v0w0x0y0z0A V p s p M S u W03 x F0B0d0s0C C0g",
" 80D r C K K K C h a0E0p0F0p0p k t r q D N O W X0G F0H0I0J0K0l A",
"04 o L C C K K C g0L0E0y0p0M0N0O M p M S u0r P0P0l0Q0R020I E x0S",
" Z r L f C C C C L0O0g0T0T0o B s p q D N E W03 x0c060k0J0Q h P0U",
"0V M L f f C f C C L0W050v & s q q t S u000a X0G010H0I0e0H s v0i",
"0L D s h f f f f f h s p q M p p M S u O0X03 x0c0Y0R0Z0&1  u0l10",
"11 N r L L h h h L L g s r p p M S u O0r v0b0l010H Y0s1213070K14",
"150  t r g g g g g s s r p q t S0  O0r P0P0G G0Y0R020e1617181719",
" U o O q r r r r r r p q M D S0  O0r P X w0c0Q1a0I0J1b1c1d1e0I1f",
" 714 v S t M q q q M t D S N u O W P X w0c1g0H Y1h0&1i1d1j1k W 9",
" 20V03000  N S D D S N0  E O000X P X w0c1g0H0k0Z07160C1j1e1l V1m",
" m U t w0r O E u u u E O00 W0a030b w0c1g0B0k0Z070K171n1o1k1b Z 2",
"   1 n1g0P0a0X W W W W0a P030P w0l G0Q0H0k02070K1c1n1e1p1q H1m  ",
"   m 1 o0R w0P X0303 X0P0b w0l G1g06 R0d02070K1c1n1e1k1r0s1f 8  ",
"     90S Q0R G Q0l0l Q Q0c F1g061a Y1s0s0&16171n1e1l1t1n1u 7    ",
"     A0g1v1s0Z0B0Y0Y0Y0Y060H R Y1s0s071b0t1w1x1y1z1A1B1C1D      ",
"         7 b0I160I Y0d0d0I1s020s0e1b1i171E181p1F1G1B1H 7 m      ",
"          1m1v0b1E1i0e070e0&121I0t171E1x1y1z1J1G0K1K0g 0        ",
"             7 m090e1o1y1n1w1w1d1j1e1k1L1G1G1M W081N            ",
"               00g1O0i0r1h1o1F1A1P1P1F0C0c y0S0g 2              ",
"                   81Q 7 3190h1R1S V0u 6 11m 9 m A              "};
