/* XPM */ 
static char * render_al_division_cubemap_lens_xpm[] = {
"32 32 647 2",
"  	c None",
"! 	c #C1C1C1",
"# 	c #C0C0C0",
"$ 	c #BFBFBF",
"% 	c #CACACA",
"& 	c #DFDFDF",
"' 	c #E0E0E0",
"( 	c #E1E1E1",
") 	c #D1D1D1",
"* 	c #C4C4C4",
"+ 	c #C3C3C3",
", 	c #C2C2C2",
"- 	c #C7C7C7",
". 	c #DEDEDE",
"0 	c #B8B8B8",
"1 	c #B2B2B2",
"2 	c #B9B9B9",
"3 	c #C9C9C9",
"4 	c #E2E2E2",
"5 	c #D0D0D0",
"6 	c #C8C8C8",
"7 	c #B4B4B4",
"8 	c #8F8F8F",
"9 	c #686868",
": 	c #696969",
"; 	c #A8A8A8",
"< 	c #D5D5D5",
"= 	c #B5B5B5",
"> 	c #BDBDBD",
"? 	c #9E9E9E",
"@ 	c #999999",
"A 	c #878787",
"B 	c #6F6F6F",
"C 	c #9D9D9D",
"D 	c #CFCFCF",
"E 	c #A2A2A2",
"F 	c #DDDDDD",
"G 	c #F1F1F1",
"H 	c #464646",
"I 	c #373737",
"J 	c #868686",
"K 	c #D8D8D8",
"L 	c #CDCDCD",
"M 	c #BEBEBE",
"N 	c #8E8E8E",
"O 	c #6E6E6E",
"P 	c #E6E6E6",
"Q 	c #AFAFAF",
"R 	c #EAEAEA",
"S 	c #FDFDFD",
"T 	c #D4D4D4",
"U 	c #BCBCBC",
"V 	c #767676",
"W 	c #404040",
"X 	c #A9A9A9",
"Y 	c #A3A3A3",
"Z 	c #DBDBDB",
"[ 	c #FEFEFE",
"] 	c #F6F6F6",
"^ 	c #7B7B7B",
"_ 	c #444444",
"` 	c #5D5D5D",
"a 	c #787878",
"b 	c #A5A5A5",
"c 	c #C4C3C3",
"d 	c #C2C1C2",
"e 	c #C1C2C1",
"f 	c #BFC0BF",
"g 	c #C8C9C9",
"h 	c #DCDEDD",
"i 	c #DFDEDF",
"j 	c #E0DFDF",
"k 	c #E0DFE0",
"l 	c #7F7F7F",
"m 	c #5C5C5C",
"n 	c #838383",
"o 	c #383838",
"p 	c #747474",
"q 	c #FAFAFA",
"r 	c #FBFBFB",
"s 	c #AEAEAE",
"t 	c #A1A1A1",
"u 	c #7D7D7D",
"v 	c #4E4E4E",
"w 	c #A3A4A4",
"x 	c #BACAC3",
"y 	c #A4CBBA",
"z 	c #9ECDB8",
"{ 	c #90D0B7",
"| 	c #91D5B9",
"} 	c #95E3C2",
"~ 	c #90E3C0",
" !	c #A6D6C2",
"!!	c #C8D5D0",
"#!	c #D9D7D8",
"$!	c #DEDADC",
"%!	c #C0BFC0",
"&!	c #979797",
"'!	c #757575",
"(!	c #080808",
")!	c #A0A0A0",
"*!	c #8D8D8D",
"+!	c #A7A7A7",
",!	c #848484",
"-!	c #191919",
".!	c black",
"0!	c #090909",
"1!	c #252525",
"2!	c #494949",
"3!	c #5D6360",
"4!	c #61E2AC",
"5!	c #59E3A7",
"6!	c #61E3AB",
"7!	c #69DCAC",
"8!	c #88D2B2",
"9!	c #46EBA5",
":!	c #33EB9E",
";!	c #59E2A7",
"<!	c #44EEA6",
"=!	c #6EE5B2",
">!	c #AFD6C5",
"?!	c #CACCCC",
"@!	c #C9BDC2",
"A!	c #C5BFC1",
"B!	c #858585",
"C!	c #5F5F5F",
"D!	c #0D0D0D",
"E!	c #3D3D3D",
"F!	c #7E7E7E",
"G!	c #424242",
"H!	c #2B2B2B",
"I!	c #2D2D2D",
"J!	c #3B3B3B",
"K!	c #565656",
"L!	c #C2BFBE",
"M!	c #D9C1C3",
"N!	c #DCC7C6",
"O!	c #E1CCCB",
"P!	c #F0C4CB",
"Q!	c #7DE6B0",
"R!	c #72E2AF",
"S!	c #D2BFC7",
"T!	c #A6CDBD",
"U!	c #6CDFAF",
"V!	c #5BE3A9",
"W!	c #66DEAC",
"X!	c #90CFB4",
"Y!	c #BAC4C2",
"Z!	c #C9BEC3",
"[!	c #C4C2C3",
"]!	c #CECECE",
"^!	c #212121",
"_!	c #949494",
"`!	c #2E2E2E",
"a!	c #4A4A4A",
"b!	c #414141",
"c!	c #717171",
"d!	c #818181",
"e!	c #6C6C6C",
"f!	c #262626",
"g!	c #ACB3BE",
"h!	c #B0BFC9",
"i!	c #9FAFC9",
"j!	c #7C8FBE",
"k!	c #8590BE",
"l!	c #7FABC7",
"m!	c #A3CFCC",
"n!	c #CDC8C5",
"o!	c #D6C6C9",
"p!	c #DBBCC8",
"q!	c #C2C1C1",
"r!	c #71DBAD",
"s!	c #35EB9E",
"t!	c #58E3A8",
"u!	c #8CD1B3",
"v!	c #C1C3C2",
"w!	c #CBCBCB",
"x!	c #5B5B5B",
"y!	c #363636",
"z!	c #393939",
"{!	c #0B0B0B",
"|!	c #636363",
"}!	c #676767",
"~!	c #161616",
" #	c #4D97C2",
"!#	c #69B0CD",
"##	c #4DA5CA",
"$#	c #3399C6",
"%#	c #1A6DB0",
"&#	c #247EB8",
"'#	c #3AD1D4",
"(#	c #50EDC9",
")#	c #6BE7B4",
"*#	c #6AE7AB",
"+#	c #63E1A8",
",#	c #69DDAB",
"-#	c #6CDDAD",
".#	c #6FDBAC",
"0#	c #6BDDAC",
"1#	c #B5C7C0",
"2#	c #989898",
"3#	c #343434",
"4#	c #010101",
"5#	c #353535",
"6#	c #313131",
"7#	c #242424",
"8#	c #464A4A",
"9#	c #4AC5B8",
":#	c #4DD3B8",
";#	c #4CDFBA",
"<#	c #39E7BA",
"=#	c #1AE4B8",
">#	c #11DBB1",
"?#	c #12C8A6",
"@#	c #1ABCC7",
"A#	c #31A1C7",
"B#	c #88AFC1",
"C#	c #C3D0BC",
"D#	c #BDC6BF",
"E#	c #C4C0C4",
"F#	c #BFC2C1",
"G#	c #84D5B3",
"H#	c #B6C7C0",
"I#	c #525252",
"J#	c #202020",
"K#	c #222222",
"L#	c #232323",
"M#	c #2C2D2C",
"N#	c #4BCFA8",
"O#	c #50B8C7",
"P#	c #4CBDCA",
"Q#	c #3FAACC",
"R#	c #308DCC",
"S#	c #1770C9",
"T#	c #1147BC",
"U#	c #132C9A",
"V#	c #2359AE",
"W#	c #2B72C3",
"X#	c #4379C5",
"Y#	c #8F96BE",
"Z#	c #C3BFBF",
"[#	c #CAC0C3",
"]#	c #BAC4C0",
"^#	c #7FD7B2",
"_#	c #B7C4BF",
"`#	c #AEB3B1",
"a#	c #4E4F4E",
"b#	c #4F4F4F",
"c#	c #555555",
"d#	c #434343",
"e#	c #333333",
"f#	c #333537",
"g#	c #51A1B2",
"h#	c #3FD8B3",
"i#	c #4D98D5",
"j#	c #2F67C4",
"k#	c #2654B0",
"l#	c #135ABA",
"m#	c #085FBE",
"n#	c #0974C4",
"o#	c #1065D2",
"p#	c #143FCE",
"q#	c #21B5F8",
"r#	c #1DBEEF",
"s#	c #3F8FD7",
"t#	c #B1B3C4",
"u#	c #CAC2C1",
"v#	c #B6C6BF",
"w#	c #6BDCAC",
"x#	c #C3CBC7",
"y#	c #B2CCC1",
"z#	c #A9BBB3",
"{#	c #7E797B",
"|#	c #676766",
"}#	c #52585C",
"~#	c #516574",
" $	c #6196C1",
"!$	c #4AA5C4",
"#$	c #59DFBF",
"$$	c #2F71C1",
"%$	c #0C50B6",
"&$	c #0F8ED3",
"'$	c #0D9FE1",
"($	c #0CB1EF",
")$	c #09BEF3",
"*$	c #199BFE",
"+$	c #2C42EC",
",$	c #0E9BE4",
"-$	c #1EF5FF",
".$	c #27EFFD",
"0$	c #5EB8E3",
"1$	c #CCBCC0",
"2$	c #AEC6BC",
"3$	c #66DFAC",
"4$	c #D8DDDB",
"5$	c #A0CBB9",
"6$	c #7DD6B0",
"7$	c #D2BFC5",
"8$	c #91B0C6",
"9$	c #4B90C8",
":$	c #4D97CA",
";$	c #5FB3C9",
"<$	c #37E4BF",
"=$	c #0750B9",
">$	c #0563B6",
"?$	c #0BC2F4",
"@$	c #0DBAF4",
"A$	c #0CBEF7",
"B$	c #0ECCF8",
"C$	c #33CCFB",
"D$	c #7EA6F4",
"E$	c #79CCF8",
"F$	c #3BEAFC",
"G$	c #0FFDFE",
"H$	c #1DD1F6",
"I$	c #C2B8C3",
"J$	c #A5CCBA",
"K$	c #5DE7AD",
"L$	c #DADEDC",
"M$	c #B0C7BD",
"N$	c #75DAAD",
"O$	c #CDC0C3",
"P$	c #CBCCCD",
"Q$	c #76A7CC",
"R$	c #5E9DCB",
"S$	c #5B9FCC",
"T$	c #4FAEC7",
"U$	c #0FE4B6",
"V$	c #034DB0",
"W$	c #0969BC",
"X$	c #0DBEF6",
"Y$	c #0BB8F5",
"Z$	c #09C3FB",
"[$	c #18E7FE",
"]$	c #4FFFFC",
"^$	c #9EDEFF",
"_$	c #B2C9FF",
"`$	c #4AECFC",
"a$	c #09FEFC",
"b$	c #15ECFB",
"c$	c #94B2D7",
"d$	c #A6CDB6",
"e$	c #5AE8AC",
"f$	c #B9C3BF",
"g$	c #61E0AB",
"h$	c #D7C7CA",
"i$	c #DDDDDE",
"j$	c #4490C5",
"k$	c #3A8BC5",
"l$	c #358BC7",
"m$	c #209EBE",
"n$	c #0AE1A7",
"o$	c #0248B7",
"p$	c #0971C9",
"q$	c #0DBFF4",
"r$	c #0CBBF5",
"s$	c #0ABCF9",
"t$	c #11CFFC",
"u$	c #36F0FE",
"v$	c #5FA4F4",
"w$	c #5AA9E5",
"x$	c #33FFFE",
"y$	c #1AFEFD",
"z$	c #0CF4FE",
"{$	c #6AAAE5",
"|$	c #A7D0B5",
"}$	c #5AE5AC",
"~$	c #DADDDC",
" %	c #BCC0BE",
"!%	c #64E1AC",
"#%	c #D9D0D0",
"$%	c #DBDBDC",
"%%	c #3C71B1",
"&%	c #288CC6",
"'%	c #1B86C9",
"(%	c #109BBE",
")%	c #06DEA8",
"*%	c #0347B4",
"+%	c #066EBA",
",%	c #07B7F6",
"-%	c #0CB3F3",
".%	c #0CB7F4",
"0%	c #0CC0F8",
"1%	c #20E2FF",
"2%	c #2577F3",
"3%	c #2D5EEC",
"4%	c #23FFFF",
"5%	c #12FFFF",
"6%	c #09CAFE",
"7%	c #658DDD",
"8%	c #9ED5B2",
"9%	c #58E1A9",
":%	c #CDD0CF",
";%	c #5FE7AC",
"<%	c #CFCFCB",
"=%	c #DBDADC",
">%	c #525697",
"?%	c #2B559E",
"@%	c #1977C1",
"A%	c #0F9CC1",
"B%	c #03DBAD",
"C%	c #034BB4",
"D%	c #0774C6",
"E%	c #0AB6E5",
"F%	c #0DB2E7",
"G%	c #0DBCF2",
"H%	c #0CBBF1",
"I%	c #10D7FA",
"J%	c #1979EF",
"K%	c #1C39E2",
"L%	c #15B6FD",
"M%	c #0493F2",
"N%	c #0A3DE0",
"O%	c #8B89D0",
"P%	c #94DAB2",
"Q%	c #58E5A8",
"R%	c #D9DCDB",
"S%	c #DFE2E1",
"T%	c #64EAB3",
"U%	c #C1C8C4",
"V%	c #D5D4D5",
"W%	c #6487B0",
"X%	c #2B398F",
"Y%	c #181C7D",
"Z%	c #09568F",
"[%	c #06CCA1",
"]%	c #06309D",
"^%	c #0363C1",
"_%	c #0392D9",
"`%	c #098CDD",
"a%	c #0989D6",
"b%	c #0981D0",
"c%	c #087AD9",
"d%	c #0E3DCE",
"e%	c #0D18BA",
"f%	c #0A22D7",
"g%	c #0127DF",
"h%	c #0C68E8",
"i%	c #C0BBD0",
"j%	c #8BD7B3",
"k%	c #57E6AA",
"l%	c #D7D9D8",
"m%	c #DEE0DF",
"n%	c #89E4BD",
"o%	c #9AADA5",
"p%	c #B4AAA9",
"q%	c #7395A4",
"r%	c #2B7FC4",
"s%	c #0F3897",
"t%	c #0B4686",
"u%	c #08B990",
"v%	c #0A087E",
"w%	c #03188A",
"x%	c #041B8A",
"y%	c #031F96",
"z%	c #031A93",
"{%	c #0317A9",
"|%	c #041EC1",
"}%	c #080EB3",
"~%	c #031DAE",
" &	c #085EEA",
"!&	c #02AFFF",
"#&	c #40C9EC",
"$&	c #D6BFC1",
"%&	c #88D5B4",
"&&	c #60E2AA",
"'&	c #C8C9C8",
"(&	c #D2D2D2",
")&	c #DFE0DF",
"*&	c #99DEC1",
"+&	c #788680",
",&	c #9A8189",
"-&	c #7F7C7D",
".&	c #3E85AE",
"0&	c #0D7DCE",
"1&	c #0F8ABF",
"2&	c #08CDA2",
"3&	c #0731A1",
"4&	c #0B39A0",
"5&	c #0854B0",
"6&	c #0559C0",
"7&	c #0864CE",
"8&	c #0375DB",
"9&	c #048AF3",
":&	c #063DC4",
";&	c #0437BC",
"<&	c #04C0FF",
"=&	c #10CEFF",
">&	c #A0C4C8",
"?&	c #DCBAC2",
"@&	c #80D5B0",
"A&	c #6CDEAE",
"B&	c #C3C1C1",
"C&	c #99E0C3",
"D&	c #569079",
"E&	c #6E9988",
"F&	c #4DBD88",
"G&	c #43B190",
"H&	c #1A78B8",
"I&	c #0590BE",
"J&	c #04D8AA",
"K&	c #033EA7",
"L&	c #055BAF",
"M&	c #0594DB",
"N&	c #0495EA",
"O&	c #059DEF",
"P&	c #05ADFF",
"Q&	c #06AEFF",
"R&	c #0A3CCA",
"S&	c #0244D1",
"T&	c #01BAFE",
"U&	c #72B7D6",
"V&	c #E0BBC3",
"W&	c #DFBBC8",
"X&	c #78D8AF",
"Y&	c #6CDDAE",
"Z&	c #C7C2C4",
"[&	c #A7DEC8",
"]&	c #15FC9C",
"^&	c #51B28A",
"_&	c #50B189",
"`&	c #5BA47E",
"a&	c #52717E",
"b&	c #1287AE",
"c&	c #03D9AB",
"d&	c #073DAB",
"e&	c #035AB6",
"f&	c #038ACD",
"g&	c #098ADE",
"h&	c #0796EA",
"i&	c #059DF3",
"j&	c #0590EB",
"k&	c #0122B0",
"l&	c #0259D6",
"m&	c #5CBCCC",
"n&	c #49F19B",
"o&	c #72DAAA",
"p&	c #E5B6CB",
"q&	c #82D3B0",
"r&	c #7CD8B0",
"s&	c #C5C1C3",
"t&	c #CCCFCE",
"u&	c #84CAAC",
"v&	c #52B38D",
"w&	c #7D6D76",
"x&	c #7E6672",
"y&	c #756667",
"z&	c #45827A",
"{&	c #03D5AB",
"|&	c #0240B1",
"}&	c #0741A8",
"~&	c #117CBC",
" '	c #0F7AC4",
"!'	c #0375C7",
"#'	c #0175D1",
"$'	c #0148B7",
"%'	c #273E8B",
"&'	c #869DB5",
"''	c #CFC3BA",
"('	c #8FD6BA",
")'	c #45E8A3",
"*'	c #6DDCAC",
"+'	c #5CE3A9",
",'	c #90D1B5",
"-'	c #C4C1C2",
".'	c #D3D3D3",
"0'	c #C6C6C6",
"1'	c #95BFAE",
"2'	c #65CDA1",
"3'	c #64937F",
"4'	c #7B636D",
"5'	c #607F6B",
"6'	c #18CC94",
"7'	c #425577",
"8'	c #2A4089",
"9'	c #365C94",
":'	c #2D568B",
";'	c #2F4788",
"<'	c #5A5E89",
"='	c #897C98",
">'	c #B7AEB4",
"?'	c #CDCCBD",
"@'	c #B2C7BE",
"A'	c #B5C3BD",
"B'	c #89D3B1",
"C'	c #2EEF9C",
"D'	c #46E9A3",
"E'	c #AEC7BC",
"F'	c #C5C1C2",
"G'	c #ADBAB5",
"H'	c #66D0A4",
"I'	c #5DA183",
"J'	c #60827A",
"K'	c #28BE8C",
"L'	c #704D52",
"M'	c #67535C",
"N'	c #755765",
"O'	c #766B6F",
"P'	c #758C83",
"Q'	c #82B397",
"R'	c #92D5AB",
"S'	c #79E6B3",
"T'	c #56E6AB",
"U'	c #3DECA4",
"V'	c #39ECA0",
"W'	c #5EE0A7",
"X'	c #8ED2B6",
"Y'	c #B4C5BD",
"Z'	c #B8BAB9",
"['	c #73CAA5",
"]'	c #26DA91",
"^'	c #24D491",
"_'	c #6B7B72",
"`'	c #539977",
"a'	c #41B081",
"b'	c #38D18F",
"c'	c #2CEC99",
"d'	c #38F0A3",
"e'	c #53E7A9",
"f'	c #6DDEAF",
"g'	c #85D4B4",
"h'	c #ABC8BB",
"i'	c #C5BFC2",
"j'	c #C6BFC2",
"k'	c #C3C0C2",
"l'	c #BCBDBD",
"m'	c #91CAB0",
"n'	c #46E6A0",
"o'	c #51DDA2",
"p'	c #5DE0A7",
"q'	c #73DEAF",
"r'	c #7DDAB3",
"s'	c #96D3BB",
"t'	c #C1CFCA",
"u'	c #D8C8CE",
"v'	c #D0C2C9",
"w'	c #C4BEC0",
"x'	c #C2C0C1",
"y'	c #DCDCDC",
"z'	c #D2D1D2",
"{'	c #E0E1E1",
"|'	c #DDDFDE",
"}'	c #DFDEDE",
"~'	c #E0DDDE",
" (	c #DFDCDD",
"!(	c #DCDADB",
"#(	c #C8C7C8",
"! ! ! ! ! ! # ! $ % & ' ' & ' & ( ) * + , ! ! ! ! ! $ - . ( ' ' ",
"! ! ! ! $ 0 1 2 3 ' ( & & & ' 4 5 $ , + + ! ! ! ! ! 6 . ( ' ' ' ",
"! ! ! 7 8 9 : ; < ' & & & ' ( 5 $ ! ! ! , , , ! # 6 & ( ' ' ' ' ",
"! ! = > + ? @ A B C ) . & ' D $ ! ! ! ! ! , , # 6 & ( ' ' ' ' ( ",
", 1 E F G & ? H I J D K . L M $ ! ! , , ! ! $ 3 & ( ' ' ' ' 4 ) ",
"! N O 7 P F 0 Q R S T = # 2 U M , + + , , $ 3 & ( ' ( ' ' 4 ) # ",
"$ V W C X Y Z [ ] ^ _ ` : a b 6 c d d e f g h i j k & & ( ) # ! ",
"M l m n o p q r s t u o _ : v w x y z { | } ~  !!!#!$!j L %!! ! ",
"$ &!'!^ (!)!q *!+!,!-!.!0!1!2!3!4!5!6!7!8!9!:!;!<!=!>!?!@!A!, ! ",
"L 5 B!C!D!R * E!F!2!G!H!I!H!J!K!L!M!N!O!P!Q!R!S!T!U!V!W!X!Y!Z![!",
"( & ]!p ^!S _!`!a!-!b!c!d!e!f!b!g!h!i!j!k!l!m!n!o!p!q!r!s!t!u!v!",
"' ' ' w!x!4 *!y!z!.!{!|!& }!~!J! #!###$#%#&#'#(#)#*#+#,#-#.#0#1#",
"' ' ' ( 5 + 2#3#: 4#.!5#}!6#7#8#9#:#;#<#=#>#?#@#A#B#C#D#E#F#G#H#",
"' ' ( ' w!, 2 o I#I#J#K#L#J#M#N#O#P#Q#R#S#T#U#V#W#X#Y#Z#[#]#^#_#",
"' ( ' w!# , + `#a#b#c#d#e#f#g#h#i#j#k#l#m#n#o#p#q#r#s#t#u#v#w#x#",
"( & % # , , d y#z#{#|#}#~# $!$#$$$%$&$'$($)$*$+$,$-$.$0$1$2$3$4$",
"& 3 # , , , d 5$6$7$$ 8$9$:$;$<$=$>$?$@$A$B$C$D$E$F$G$H$I$J$K$L$",
"6 $ , , , , ! M$N$O$P$Q$R$S$T$U$V$W$X$Y$Z$[$]$^$_$`$a$b$c$d$e$L$",
"# ! + , ! ! ! f$g$h$i$j$k$l$m$n$o$p$q$r$s$t$u$v$w$x$y$z${$|$}$~$",
"! ! * + , ! !  %!%#%$%%%&%'%(%)%*%+%,%-%.%0%1%2%3%4%5%6%7%8%9%~$",
"! ! * , , ! $ :%;%<%=%>%?%@%A%B%C%D%E%F%G%H%I%J%K%L%M%N%O%P%Q%R%",
"! ! + , , # ) S%T%U%V%W%X%Y%Z%[%]%^%_%`%a%b%c%d%e%f%g%h%i%j%k%l%",
"! ! , , ! ) 4 m%n%o%p%q%r%s%t%u%v%w%x%y%z%{%|%}%~% &!&#&$&%&&&'&",
"! ! ! ! (&4 ' )&*&+&,&-&.&0&1&2&3&4&5&6&7&8&9&:&;&<&=&>&?&@&A&B&",
"! ! # (&4 ' ' & C&D&E&F&G&H&I&J&K&L&M&N&O&P&Q&R&S&T&U&V&W&X&Y&Z&",
"! # (&4 ' ' ' & [&]&^&_&`&a&b&c&d&e&f&g&h&i&j&k&l&m&n&o&p&q&r&s&",
"# (&4 ' ' ' ' ( t&u&v&w&x&y&z&{&|&}&~& '!'#'$'%'&'''(')'*'+','-'",
".'4 ' ' ' ' ( . 0'> 1'2'3'4'5'6'7'8'9':';'<'='>'?'@'A'B'C'D'E'F'",
"( ' ' ' ' ( . - $ # M G'H'I'J'K'L'M'N'O'P'Q'R'S'T'U'V'W'X'Y'q!d ",
"' ' ' ' ( . 0'$ ! ! # # Z'[']'^'_'`'a'b'c'd'e'f'g'h'i'j'k'd ! ! ",
"' ' ' 4 . - $ ! ! ! ! ! # l'm'n'o'p'q'r's't'u'v'w'x'd ! ! ! ! ! ",
"' ' ( y'0'# ! ! ! ! ! ! ! ! z'{'|'. }'~' (!(#($ ! ! ! ! ! ! ! ! "};