/* XPM */
static char *EDSK_xpm[]={
"32 32 716 2",
"      c #C0C0C0",
" 0    c #BFC1C2",
" 1    c #BFC2C3",
" 2    c #C2C2C3",
" 3    c #C3C1C1",
" 4    c #C4C0BF",
" 5    c #C4BFBE",
" 6    c #C3C0BF",
" 7    c #C2C2C2",
" 8    c #C1C3C4",
" 9    c #C0C2C2",
" a    c #C4C1C0",
" b    c #C6BBB9",
" c    c #C5B6B1",
" d    c #C5AEA6",
" e    c #C2A59C",
" f    c #BFA096",
" g    c #BC9D92",
" h    c #BB9C92",
" i    c #BBA097",
" j    c #BCA7A0",
" k    c #BDB0AB",
" l    c #C0B9B8",
" m    c #C1C2C2",
" n    c #C0C2C3",
" o    c #BFC1C1",
" p    c #C1C2C3",
" q    c #CCBDB8",
" r    c #C8ACA2",
" s    c #BC9E93",
" t    c #B6988C",
" u    c #B09286",
" v    c #AB8E83",
" w    c #A98B80",
" x    c #A78A7E",
" y    c #A6877B",
" z    c #A68578",
" A    c #A78477",
" B    c #A98578",
" C    c #AF897E",
" D    c #B69890",
" E    c #C2C5C5",
" F    c #C0C1C1",
" G    c #C0C1C2",
" H    c #C6BFBC",
" I    c #CAB4AD",
" J    c #C0A297",
" K    c #B3988D",
" L    c #AD9489",
" M    c #AA9186",
" N    c #A78E83",
" O    c #A58B7F",
" P    c #A3897D",
" Q    c #A2867B",
" R    c #A08478",
" S    c #9F8276",
" T    c #9F8074",
" U    c #9E7F73",
" V    c #A07D71",
" W    c #A27C70",
" X    c #AB867D",
" Y    c #B8A6A1",
" Z    c #CBBEBA",
" &    c #C4A79D",
"0     c #B69A8E",
"00    c #AE9589",
"01    c #AB9286",
"02    c #A78F82",
"03    c #A58D81",
"04    c #A48B80",
"05    c #A2897D",
"06    c #A0877B",
"07    c #9F8479",
"08    c #9C8176",
"09    c #9B7F73",
"0a    c #9A7C71",
"0b    c #987A6E",
"0c    c #98786D",
"0d    c #99786C",
"0e    c #9B756A",
"0f    c #9F756A",
"0g    c #AE8D86",
"0h    c #C0BFBF",
"0i    c #C1C3C3",
"0j    c #C8BDBA",
"0k    c #C4A79C",
"0l    c #B3998D",
"0m    c #AC9689",
"0n    c #A99285",
"0o    c #A79082",
"0p    c #A68F81",
"0q    c #A58D7F",
"0r    c #A38B7E",
"0s    c #A2897C",
"0t    c #9E8478",
"0u    c #9C8175",
"0v    c #997E72",
"0w    c #987C70",
"0x    c #96796D",
"0y    c #95766A",
"0z    c #957468",
"0A    c #957367",
"0B    c #977367",
"0C    c #9B6F64",
"0D    c #AD928B",
"0E    c #C0BEBF",
"0F    c #CABFBC",
"0G    c #C3A79C",
"0H    c #B0978B",
"0I    c #AA9487",
"0J    c #A79183",
"0K    c #A79081",
"0L    c #A69081",
"0M    c #A78F80",
"0N    c #A68E7F",
"0O    c #A58C7E",
"0P    c #A38A7D",
"0Q    c #A1887B",
"0R    c #9F8578",
"0S    c #987E72",
"0T    c #977B6F",
"0U    c #95786C",
"0V    c #927569",
"0W    c #917267",
"0X    c #917064",
"0Y    c #916F63",
"0Z    c #936E63",
"0&    c #976B5E",
"1     c #A8837B",
"10    c #C0C1C0",
"11    c #C6ABA1",
"12    c #B2998E",
"13    c #AA9387",
"14    c #A79184",
"15    c #A99181",
"16    c #AA9282",
"17    c #AA9182",
"18    c #A98F81",
"19    c #A68D7F",
"1a    c #A08679",
"1b    c #9C8275",
"1c    c #967A6F",
"1d    c #94776B",
"1e    c #917469",
"1f    c #907266",
"1g    c #8E6F63",
"1h    c #8D6C60",
"1i    c #8E6B5F",
"1j    c #916B5F",
"1k    c #96675C",
"1l    c #B3A19D",
"1m    c #C2C6C6",
"1n    c #C0C3C3",
"1o    c #C5B6B0",
"1p    c #A59082",
"1q    c #A58F80",
"1r    c #A79080",
"1s    c #A99183",
"1t    c #AC9485",
"1u    c #AE9586",
"1v    c #AD9586",
"1w    c #A99082",
"1x    c #A2877A",
"1y    c #987E70",
"1z    c #957A6D",
"1A    c #92766A",
"1B    c #907368",
"1C    c #8E7065",
"1D    c #8C6E62",
"1E    c #8B6B5E",
"1F    c #8A685C",
"1G    c #8C675B",
"1H    c #8E6459",
"1I    c #9A6C64",
"1J    c #BDB6B5",
"1K    c #C2C3C3",
"1L    c #C6BFBD",
"1M    c #BFA49A",
"1N    c #AA9287",
"1O    c #A69084",
"1P    c #A48E80",
"1Q    c #A58E80",
"1R    c #A79181",
"1S    c #B09888",
"1T    c #B2998A",
"1U    c #B29A8C",
"1V    c #B1988B",
"1W    c #AD9486",
"1X    c #A88F81",
"1Y    c #A3897C",
"1Z    c #9D8275",
"1&    c #987D70",
"2     c #95796D",
"20    c #917569",
"21    c #8E7266",
"22    c #8C6F63",
"23    c #8A6C61",
"24    c #89695D",
"25    c #88665A",
"26    c #886458",
"27    c #8A6458",
"28    c #8E5D52",
"29    c #AA8D88",
"2a    c #C3C5C5",
"2b    c #C4B1AB",
"2c    c #B19589",
"2d    c #A58F83",
"2e    c #A28C80",
"2f    c #A28C7F",
"2g    c #A58E7F",
"2h    c #A99282",
"2i    c #AE9686",
"2j    c #B39B8B",
"2k    c #B79F91",
"2l    c #BBA395",
"2m    c #BAA194",
"2n    c #B2998C",
"2o    c #AB9184",
"2p    c #A4897C",
"2q    c #967C6F",
"2r    c #93786B",
"2s    c #907467",
"2t    c #8D7064",
"2u    c #8A6E62",
"2v    c #896A5F",
"2w    c #87675C",
"2x    c #856459",
"2y    c #846156",
"2z    c #866055",
"2A    c #895D52",
"2B    c #996F67",
"2C    c #C1C0C0",
"2D    c #C1C1C2",
"2E    c #BCA69D",
"2F    c #A98F84",
"2G    c #A28B80",
"2H    c #A08A7E",
"2I    c #A18B7E",
"2J    c #AE9688",
"2K    c #B59D8E",
"2L    c #BEA698",
"2M    c #C7AEA1",
"2N    c #C5ACA0",
"2O    c #B79D91",
"2P    c #AC9285",
"2Q    c #9C8174",
"2R    c #967A6D",
"2S    c #8E7265",
"2T    c #8A6F63",
"2U    c #896B60",
"2V    c #87685E",
"2W    c #85655A",
"2X    c #836357",
"2Y    c #825F54",
"2Z    c #835E53",
"2&    c #865C51",
"3     c #8E5E54",
"30    c #B8AEAC",
"31    c #C2C4C4",
"32    c #C0C0C1",
"33    c #C2BFBE",
"34    c #B59B90",
"35    c #A38A80",
"36    c #9E877D",
"37    c #9E877C",
"38    c #A0887C",
"39    c #A48C7E",
"3a    c #A89082",
"3b    c #AD9587",
"3c    c #B49C8E",
"3d    c #C1A89B",
"3e    c #CCB3A7",
"3f    c #C8AFA2",
"3g    c #B69D90",
"3h    c #AA9083",
"3i    c #A1867A",
"3j    c #9A7F72",
"3k    c #94786B",
"3l    c #907468",
"3m    c #8C7064",
"3n    c #886D61",
"3o    c #87695F",
"3p    c #85665C",
"3q    c #836358",
"3r    c #816155",
"3s    c #805E52",
"3t    c #805B51",
"3u    c #825A50",
"3v    c #855348",
"3w    c #A88B86",
"3x    c #C4C7C8",
"3y    c #C3BAB7",
"3z    c #AF9287",
"3A    c #A0887D",
"3B    c #9C857A",
"3C    c #9C8579",
"3D    c #9D867A",
"3E    c #A18A7C",
"3F    c #A58D80",
"3G    c #AA9284",
"3H    c #B9A093",
"3I    c #BEA599",
"3J    c #BBA195",
"3K    c #AF9589",
"3L    c #A58B7E",
"3M    c #9D8376",
"3N    c #91766A",
"3O    c #8D7265",
"3P    c #896E62",
"3Q    c #876A5F",
"3R    c #85675C",
"3S    c #83655A",
"3T    c #806257",
"3U    c #7F5F54",
"3V    c #7D5C51",
"3W    c #7D584E",
"3X    c #7F584E",
"3Y    c #825147",
"3Z    c #9B7169",
"3&    c #C3C4C4",
"4     c #C0B2AE",
"40    c #A88B80",
"41    c #9D8479",
"42    c #998177",
"43    c #9A8277",
"44    c #9B8378",
"45    c #9E867A",
"46    c #A1897C",
"47    c #A58C80",
"48    c #A99083",
"49    c #AC9386",
"4a    c #AE9487",
"4b    c #AA9185",
"4c    c #A48A7D",
"4d    c #9F8477",
"4e    c #987E71",
"4f    c #92776B",
"4g    c #876B5F",
"4h    c #85685D",
"4i    c #83655B",
"4j    c #816357",
"4k    c #7F6054",
"4l    c #7D5D52",
"4m    c #7C594F",
"4n    c #7B574C",
"4o    c #7D554B",
"4p    c #7F5047",
"4q    c #915F56",
"4r    c #C1BCBB",
"4s    c #BDACA6",
"4t    c #A4877B",
"4u    c #9A8176",
"4v    c #977F74",
"4w    c #988075",
"4x    c #9A8276",
"4y    c #9D8477",
"4z    c #A0877A",
"4A    c #A1877A",
"4B    c #997E71",
"4C    c #93796C",
"4D    c #8F7468",
"4E    c #8A7064",
"4F    c #886C60",
"4G    c #85695E",
"4H    c #82665B",
"4I    c #816359",
"4J    c #7F6156",
"4K    c #7D5D53",
"4L    c #7B5A50",
"4M    c #7A574D",
"4N    c #79544B",
"4O    c #7A534A",
"4P    c #7C4E45",
"4Q    c #8D5A52",
"4R    c #C1BAB9",
"4S    c #BBA9A3",
"4T    c #A08377",
"4U    c #977E72",
"4V    c #947C71",
"4W    c #947D72",
"4X    c #967E72",
"4Y    c #987F73",
"4Z    c #9A8173",
"4&    c #9B8174",
"5     c #9B8275",
"50    c #997F72",
"51    c #957B6E",
"52    c #8E7367",
"53    c #8B7064",
"54    c #876C60",
"55    c #846A5E",
"56    c #806459",
"57    c #7E6156",
"58    c #7D5E54",
"59    c #7A5B50",
"5a    c #78584E",
"5b    c #77554B",
"5c    c #765249",
"5d    c #785047",
"5e    c #794B41",
"5f    c #8E5B56",
"5g    c #C4BFC0",
"5h    c #B9AAA6",
"5i    c #9D8075",
"5j    c #957B70",
"5k    c #92796E",
"5l    c #91796E",
"5m    c #937A6F",
"5n    c #947B6F",
"5o    c #957B6F",
"5p    c #947A6D",
"5q    c #93796B",
"5r    c #907569",
"5s    c #8D7266",
"5t    c #8A6F64",
"5u    c #876C61",
"5v    c #84695E",
"5w    c #82675C",
"5x    c #7C5E54",
"5y    c #7A5B51",
"5z    c #77564C",
"5A    c #745249",
"5B    c #745046",
"5C    c #764E45",
"5D    c #75453D",
"5E    c #926661",
"5F    c #C6C6C6",
"5G    c #BBB0AD",
"5H    c #9C7F73",
"5I    c #93776D",
"5J    c #8F766B",
"5K    c #8E766B",
"5L    c #8F756B",
"5M    c #8F766A",
"5N    c #8F756A",
"5O    c #8F7569",
"5P    c #8E7468",
"5Q    c #8C7366",
"5R    c #886D62",
"5S    c #866B60",
"5T    c #83685E",
"5U    c #81665B",
"5V    c #7F6459",
"5W    c #7E6157",
"5X    c #7B5E54",
"5Y    c #78594F",
"5Z    c #76564C",
"5&    c #745349",
"6     c #734F47",
"60    c #724D44",
"61    c #744C43",
"62    c #714038",
"63    c #A07D79",
"64    c #C7CACB",
"65    c #BEBABA",
"66    c #9D8278",
"67    c #907469",
"68    c #8C7267",
"69    c #8B7267",
"6a    c #8A7267",
"6b    c #8B7266",
"6c    c #8B7065",
"6d    c #896F63",
"6e    c #876D61",
"6f    c #82675D",
"6g    c #80655A",
"6h    c #7E6358",
"6i    c #7C6056",
"6j    c #795B51",
"6k    c #77584F",
"6l    c #75564C",
"6m    c #725349",
"6n    c #714F47",
"6o    c #6F4D44",
"6p    c #6F4A41",
"6q    c #71473F",
"6r    c #734139",
"6s    c #B4A09E",
"6t    c #C5C8C9",
"6u    c #A0877F",
"6v    c #8D7166",
"6w    c #896F64",
"6x    c #886E63",
"6y    c #876E63",
"6z    c #866C61",
"6A    c #856B60",
"6B    c #836A5E",
"6C    c #80665B",
"6D    c #7E6359",
"6E    c #7D6257",
"6F    c #795D54",
"6G    c #76584E",
"6H    c #74564C",
"6I    c #735349",
"6J    c #705047",
"6K    c #6F4D43",
"6L    c #6D4B41",
"6M    c #6D473F",
"6N    c #6E433B",
"6O    c #794943",
"6P    c #C1B9B8",
"6Q    c #A8948E",
"6R    c #8C6D62",
"6S    c #886C62",
"6T    c #856A60",
"6U    c #846A60",
"6V    c #856B5F",
"6W    c #846A5F",
"6X    c #83695E",
"6Y    c #82685D",
"6Z    c #81675C",
"6&    c #7D6258",
"7     c #7C6156",
"70    c #7A5F54",
"71    c #795D53",
"72    c #775A50",
"73    c #73554B",
"74    c #705046",
"75    c #6E4D44",
"76    c #6C4941",
"77    c #6B473E",
"78    c #6C443C",
"79    c #693B33",
"7a    c #855C57",
"7b    c #C3C2C2",
"7c    c #B5ABA9",
"7d    c #8D6D64",
"7e    c #85695F",
"7f    c #83675D",
"7g    c #82665C",
"7h    c #81665C",
"7i    c #80655B",
"7j    c #7E6459",
"7k    c #7A5F55",
"7l    c #795E53",
"7m    c #775B51",
"7n    c #76594F",
"7o    c #75574D",
"7p    c #72554B",
"7q    c #705248",
"7r    c #6F5046",
"7s    c #6C4D43",
"7t    c #6A4940",
"7u    c #69463E",
"7v    c #68433B",
"7w    c #694039",
"7x    c #63322B",
"7y    c #95726E",
"7z    c #C4C7C7",
"7A    c #C1C1C0",
"7B    c #C3C4C5",
"7C    c #A28E89",
"7D    c #826359",
"7E    c #81645A",
"7F    c #7F6258",
"7G    c #7C6157",
"7H    c #7B6055",
"7I    c #7A5E54",
"7J    c #785D53",
"7K    c #765A50",
"7L    c #74574E",
"7M    c #72554C",
"7N    c #71534A",
"7O    c #6F5147",
"7P    c #6D4E44",
"7Q    c #6B4C42",
"7R    c #694940",
"7S    c #67463D",
"7T    c #66423A",
"7U    c #664038",
"7V    c #633932",
"7W    c #74463E",
"7X    c #BAAEAC",
"7Y    c #B6AFAE",
"7Z    c #84635B",
"7&    c #7E6056",
"8     c #7C5F55",
"80    c #785C53",
"81    c #785C52",
"82    c #765B50",
"83    c #75594F",
"84    c #74584D",
"85    c #73564B",
"86    c #6F5248",
"87    c #6E4F46",
"88    c #6A4A41",
"89    c #68473E",
"8a    c #66453D",
"8b    c #644139",
"8c    c #623F37",
"8d    c #623A35",
"8e    c #5D2D26",
"8f    c #9B817D",
"8g    c #C7CCCC",
"8h    c #A89A98",
"8i    c #7D5E56",
"8j    c #785A51",
"8k    c #775A51",
"8l    c #75584F",
"8m    c #74584E",
"8n    c #73574D",
"8o    c #72564C",
"8p    c #71544B",
"8q    c #705249",
"8r    c #6F5148",
"8s    c #6D4F46",
"8t    c #6B4E44",
"8u    c #694B42",
"8v    c #684840",
"8w    c #65453D",
"8x    c #63433B",
"8y    c #614039",
"8z    c #603D35",
"8A    c #5F3A33",
"8B    c #5A2D27",
"8C    c #7A5450",
"8D    c #BDBABB",
"8E    c #C6C9C9",
"8F    c #9E8E8A",
"8G    c #715047",
"8H    c #73554C",
"8I    c #73564D",
"8J    c #71554B",
"8K    c #70534A",
"8L    c #6F5249",
"8M    c #6E5147",
"8N    c #6C5046",
"8O    c #6B4E45",
"8P    c #6A4C44",
"8Q    c #674940",
"8R    c #65463E",
"8S    c #63443C",
"8T    c #614139",
"8U    c #5F3F36",
"8V    c #5E3C35",
"8W    c #5C3832",
"8X    c #552A24",
"8Y    c #704945",
"8Z    c #BAB5B5",
"8&    c #C4C6C6",
"9     c #9B8C89",
"90    c #6F4F47",
"91    c #6D4E46",
"92    c #6D5047",
"93    c #6C4F46",
"94    c #684A42",
"95    c #674941",
"96    c #66473F",
"97    c #64453D",
"98    c #62433B",
"99    c #61413A",
"9a    c #5F3E37",
"9b    c #5D3C35",
"9c    c #5B3933",
"9d    c #58342E",
"9e    c #522A24",
"9f    c #73514E",
"9g    c #B6B1B1",
"9h    c #C5C7C7",
"9i    c #C6C9CA",
"9j    c #978683",
"9k    c #694942",
"9l    c #65443C",
"9m    c #674840",
"9n    c #684941",
"9o    c #65473F",
"9p    c #61423A",
"9q    c #604039",
"9r    c #5E3E37",
"9s    c #5C3C35",
"9t    c #5A3933",
"9u    c #57352F",
"9v    c #502B25",
"9w    c #4E2621",
"9x    c #745551",
"9y    c #BFBEBE",
"9z    c #C4C6C7",
"9A    c #C1C1C1",
"9B    c #B3ADAD",
"9C    c #8D7A77",
"9D    c #63453F",
"9E    c #593730",
"9F    c #5D3D36",
"9G    c #5E3F38",
"9H    c #5D3E37",
"9I    c #5C3C36",
"9J    c #5B3B34",
"9K    c #593932",
"9L    c #563630",
"9M    c #52322C",
"9N    c #4C2823",
"9O    c #6B4E4B",
"9P    c #9E918F",
"9Q    c #AFAAA9",
"9R    c #7E6A67",
"9S    c #614541",
"9T    c #553630",
"9U    c #53332E",
"9V    c #51302B",
"9W    c #4F2F29",
"9X    c #4D2D28",
"9Y    c #4C2B26",
"9Z    c #4F2F2B",
"9&    c #664C49",
"a     c #9C9090",
"a0    c #C7C9C9",
"a1    c #C4C5C6",
"a2    c #BBB9B9",
"a3    c #ACA7A6",
"a4    c #A29A99",
"a5    c #9C9392",
"a6    c #9B9190",
"a7    c #9E9594",
"a8    c #A7A09F",
"a9    c #B2AEAE",
"aa    c #C6C8C8",
"                       0 1 2 3 4 5 6 7 8 8 9                    ",
"                   9 a b c d e f g h i j k l m n                ",
"               o p q r s t u v w x y z A B C D l E F            ",
"             G H I J K L M N O P Q R S T U V W X Y F m          ",
"           G Z &0 000102030405060708090a0b0c0d0e0f0g0h0i        ",
"         G0j0k0l0m0n0o0p0q0r0s060t0u0v0w0x0y0z0A0B0C0D0E p      ",
"       00F0G0H0I0J0K0L0M0N0O0P0Q0R0u0S0T0U0V0W0X0Y0Z0&1 10 F    ",
"     o 4111213140L0K15161718190P1a1b0S1c1d1e1f1g1h1i1j1k1l1m    ",
"    1n1o K131p1q1r1s1t1u1v1t1w191x1b1y1z1A1B1C1D1E1F1G1H1I1J1K  ",
"   o1L1M1N1O1P1Q1R1t1S1T1U1V1W1X1Y1Z1&2 202122232425262728292a  ",
"   92b2c2d2e2f2g2h2i2j2k2l2m2n2o2p1Z2q2r2s2t2u2v2w2x2y2z2A2B2C F",
"  2D2E2F2G2H2I0q162J2K2L2M2N2O2P2p2Q2R1A2S2T2U2V2W2X2Y2Z2&3 3031",
"32333435363738393a3b3c3d3e3f3g3h3i3j3k3l3m3n3o3p3q3r3s3t3u3v3w3x",
" 93y3z3A3B3C3D3E3F3G0H3H3I3J3K3L3M0T3N3O3P3Q3R3S3T3U3V3W3X3Y3Z3&",
"0i4 404142434445464748494a4b4c4d4e4f212T4g4h4i4j4k4l4m4n4o4p4q4r",
"0i4s4t4u4v4v4w4x4y4z0s4c0P4A3M4B4C4D4E4F4G4H4I4J4K4L4M4N4O4P4Q4R",
" 84S4T4U4V4V4W4X4Y4Z4&5 4&50514f525354554H565758595a5b5c5d5e5f5g",
" 85h5i5j5k5l5k5m5m5n5o5o5p5q5r5s5t5u5v5w56575x5y5a5z5A5B5C5D5E5F",
" 85G5H5I5J5K5K5J5L5M5N5O5P5Q4E5R5S5T5U5V5W5X5y5Y5Z5&6 6061626364",
" m656667686969696a6b6c4E6d6e5S5v6f6g6h6i5X6j6k6l6m6n6o6p6q6r6s6t",
" F2C6u6v6w6x6x6x6y6x5u6z6A6B6f6C6D6E6i6F6j6G6H6I6J6K6L6M6N6O6P0i",
"32316Q6R6S6T6U6V6U6W6X6Y6Z6C5V6&7 7071726G736m7475767778797a7b F",
"  317c7d7e7f7g7h7h6C7i5V7j6&6i7k7l7m7n7o7p7q7r7s7t7u7v7w7x7y7z  ",
"  7A7B7C7D7E7F6E6&6E7G6i7H7I7J7m7K7L7M7N7O7P7Q7R7S7T7U7V7W7X E  ",
"    7B7Y7Z7&8 7I7I7180817m828384857N86877s88898a8b8c8d8e8f8g    ",
"      1K8h8i8j8k7n8l8m7L8n8o8p8q8r8s8t8u8v8w8x8y8z8A8B8C8D p    ",
"       F8E8F8G8H8I8J8K8L868M8N8O8P8u8Q8R8S8T8U8V8W8X8Y8Z8&      ",
"         m  9 909192938O8P8u9495969798999a9b9c9d9e9f9g9h        ",
"           m9i9j9k9l9m9n9m9o978S9p9q9r9s9t9u9v9w9x9y9z          ",
"            9A3&9B9C9D9E9F9G9H9I9J9K9L9M9N9N9O9P9y3&            ",
"                2a9i9Q9R9S9T9U9V9W9X9Y9Z9&a 3&a0 m              ",
"                    a19ha2a3a4a5a6a7a8a9 7aa m                  "};
