/* XPM */
static char * image_name[]={
"32 32 64 2",
"  	c #D21EE6",
". 	c #FF00FF",
"X 	c #4E125D",
"o 	c #1A1A1A",
"O 	c #171717",
"+ 	c #141414",
"@ 	c #000001",
"# 	c #000000",
"$ 	c #030303",
"% 	c #303030",
"& 	c #404040",
"* 	c #474747",
"= 	c #454545",
"- 	c #3B3B3B",
"; 	c #262626",
": 	c #0F0F0F",
"> 	c #616161",
", 	c #696969",
"< 	c #666666",
"1 	c #5C5C5C",
"2 	c #545454",
"3 	c #4A4A4A",
"4 	c #2E2E2E",
"5 	c #0D0D0D",
"6 	c #6E6E6E",
"7 	c #6B6B6B",
"8 	c #5E5E5E",
"9 	c #4D4D4D",
"0 	c #121212",
"q 	c #242424",
"w 	c #575757",
"e 	c #4F4F4F",
"r 	c #363636",
"t 	c #707070",
"y 	c #525252",
"u 	c #292929",
"i 	c #050505",
"p 	c #636363",
"a 	c #333333",
"s 	c #8C8C8C",
"d 	c #7D7D7D",
"f 	c #212121",
"g 	c #2B2B2B",
"h 	c #787878",
"j 	c #FFFFFF",
"k 	c #C2C2C2",
"l 	c #595959",
"z 	c #080808",
"x 	c #999999",
"c 	c #3D3D3D",
"v 	c #424242",
"b 	c #1F1F1F",
"n 	c #0A0A0A",
"m 	c #1C1C1C",
"M 	c #383838",
"N 	c #EDEDED",
"B 	c #C9C9C9",
"V 	c #BABABA",
"C 	c #757575",
"Z 	c #BDBDBD",
"A 	c #878787",
"S 	c #8A8A8A",
"D 	c #DCDCDC",
"F 	c #A8A8A8",
"  . . . . . . . . . . . . . . . . . . . . . . . . . . . . . .   ",
". . . . . . . . . . . . . . . . . . . . . . . . . . . . . . . . ",
". . X o o o O O O O o O O O o o O O o o O o O O O O o o o X . . ",
". . + @ # # # # # # # # # @ # # @ # # # # # # # # # # # @ + . . ",
". . o # @ # @ @ # @ # $ # # # # # # # # # # # # @ @ # @ # o . . ",
". . o @ # @ @ # @ # @ # @ # # @ @ # @ # # @ # @ # @ @ # @ o . . ",
". . O # @ # # # # # # # O % & * = - ; : @ # # # # # # @ # O . . ",
". . O # # @ # @ # # + * > , , < > 1 2 3 4 5 # # @ # @ # # O . . ",
". . O # # # # # # ; > 6 7 7 , , < 8 1 2 9 - 0 # # # # # # O . . ",
". . O # # # # # q < 6 6 6 6 7 , < > 1 w e * r : # # # # # O . . ",
". . o @ # $ # 0 1 6 6 t 6 6 6 , < > 8 w y * & u i # # # @ o . . ",
". . O # @ # # = 6 6 t t t , < , p > 8 w y 3 & a O # # # # o . . ",
". . o # # @ 0 8 7 6 6 6 7 s d < p > 1 w y * & r f $ # # # o . . ",
". . O # # # g < , 7 6 , h j k 1 p 8 l 2 e 3 & r ; z # # # O . . ",
". . O # @ # - < , , , , , x d 8 8 1 w 2 9 = c a q z # # # O . . ",
". . o # # # c > < < < < < 1 8 > 1 l 2 e 3 v - a q z # # # o . . ",
". . O # # @ - 8 > p p p > > 8 1 w 2 y 9 = c r 4 b $ # # # o . . ",
". . O # @ # % l 1 8 8 8 8 1 l w 2 y 9 * & - a u O $ # # # o . . ",
". . O # # @ f e w l l 1 l w w 2 e 9 * v - r g f 5 # # # # O . . ",
". . O # # # n v e 2 2 2 2 2 y 9 3 * v - r % ; O $ # # # # O . . ",
". . O # # # # ; * 3 e e 9 9 3 * = & - r 4 u m n # # # # # O . . ",
". . o # # # # z a v = = = = = & c M a 4 u b 5 # # # # # # O . . ",
". . O # @ # # # 5 4 - - c c - r r % g q m : $ # # # # # # o . . ",
". . o # # # # # # 5 q 4 % a % 4 u ; b + z # # @ # # # # # O . . ",
". . O # # @ # @ # # $ 0 m f f b o + n $ # # # # @ # # # @ o . . ",
". . O # @ # # # # @ # # @ i z i $ @ # # # # # # # # # # # o . . ",
". . o @ # @ @ # # @ # @ # # # # # # # a N B h V C Z x A S O . . ",
". . o # @ # @ @ # # # # # # # # # # @ = D Z C j p j x V F u . . ",
". . + @ # # # # # # @ # # # # # # # # # = a 0 = f = a f q + . . ",
". . X o o o O O O O O o O O O O O o O o O o O O o O o o o X . . ",
". . . . . . . . . . . . . . . . . . . . . . . . . . . . . . . . ",
"  . . . . . . . . . . . . . . . . . . . . . . . . . . . . . .   "
};
