/* XPM */
static char *magick[] = {
/* columns rows colors chars-per-pixel */
"32 32 188 2",
"   c Gray0",
".  c #010101",
"X  c #020202",
"o  c Gray1",
"O  c #040404",
"+  c Gray2",
"@  c #060606",
"#  c #070707",
"$  c Gray3",
"%  c Gray4",
"&  c #0b0b0b",
"*  c #0c0c0c",
"=  c Gray5",
"-  c #0e0e0e",
";  c Gray6",
":  c #101010",
">  c #111111",
",  c Gray7",
"<  c #131313",
"1  c #161616",
"2  c Gray9",
"3  c #191919",
"4  c Gray10",
"5  c #1d1d1d",
"6  c #1e1e1e",
"7  c Gray12",
"8  c #202020",
"9  c Gray13",
"0  c #222222",
"q  c #232323",
"w  c Gray14",
"e  c #272727",
"r  c #282828",
"t  c Gray16",
"y  c #2a2a2a",
"u  c Gray17",
"i  c #2c2c2c",
"p  c Gray18",
"a  c #2f2f2f",
"s  c Gray19",
"d  c #313131",
"f  c #323232",
"g  c Gray20",
"h  c #343434",
"j  c #353535",
"k  c Gray21",
"l  c #373737",
"z  c Gray22",
"x  c #393939",
"c  c Gray23",
"v  c Gray24",
"b  c #3e3e3e",
"n  c #3f3f3f",
"m  c Gray25",
"M  c #414141",
"N  c Gray26",
"B  c #434343",
"V  c #464646",
"C  c Gray28",
"Z  c #484848",
"A  c #494949",
"S  c #4b4b4b",
"D  c #4c4c4c",
"F  c Gray30",
"G  c #4e4e4e",
"H  c Gray31",
"J  c #565656",
"K  c Gray34",
"L  c #585858",
"P  c Gray35",
"I  c #5b5b5b",
"U  c Gray36",
"Y  c #5d5d5d",
"T  c Gray37",
"R  c #5f5f5f",
"E  c Gray38",
"W  c #626262",
"Q  c Gray39",
"!  c Gray41",
"~  c #6a6a6a",
"^  c Gray42",
"/  c #6c6c6c",
"(  c #6d6d6d",
")  c Gray43",
"_  c #6f6f6f",
"`  c #717171",
"'  c #727272",
"]  c #767676",
"[  c #777777",
"{  c Gray47",
"}  c Gray48",
"|  c #7b7b7b",
" . c #7c7c7c",
".. c Gray49",
"X. c Gray",
"o. c Gray50",
"O. c #808080",
"+. c #818181",
"@. c Gray51",
"#. c #848484",
"$. c Gray53",
"%. c #888888",
"&. c Gray54",
"*. c #8b8b8b",
"=. c #8d8d8d",
"-. c #8e8e8e",
";. c Gray56",
":. c #909090",
">. c Gray57",
",. c #929292",
"<. c #939393",
"1. c #989898",
"2. c #9a9a9a",
"3. c Gray61",
"4. c #9d9d9d",
"5. c Gray62",
"6. c #9f9f9f",
"7. c #a0a0a0",
"8. c Gray63",
"9. c #a2a2a2",
"0. c Gray64",
"q. c #a4a4a4",
"w. c #a7a7a7",
"e. c Gray67",
"r. c #aeaeae",
"t. c #afafaf",
"y. c #b1b1b1",
"u. c #b2b2b2",
"i. c Gray70",
"p. c Gray71",
"a. c #b6b6b6",
"s. c #b7b7b7",
"d. c Gray72",
"f. c #b9b9b9",
"g. c Gray73",
"h. c #bbbbbb",
"j. c #bcbcbc",
"k. c #bebebe",
"l. c #c1c1c1",
"z. c Gray76",
"x. c #c3c3c3",
"c. c Gray77",
"v. c #c5c5c5",
"b. c #c6c6c6",
"n. c Gray78",
"m. c #c8c8c8",
"M. c Gray80",
"N. c #cdcdcd",
"B. c #cecece",
"V. c Gray81",
"C. c #d0d0d0",
"Z. c Gray82",
"A. c #d2d2d2",
"S. c #d3d3d3",
"D. c Gray83",
"F. c #d5d5d5",
"G. c Gray84",
"H. c #d7d7d7",
"J. c #d8d8d8",
"K. c Gray85",
"L. c Gray86",
"P. c Gray87",
"I. c #dfdfdf",
"U. c #e1e1e1",
"Y. c Gray89",
"T. c #e4e4e4",
"R. c Gray91",
"E. c #e9e9e9",
"W. c #eaeaea",
"Q. c Gray92",
"!. c Gray93",
"~. c #eeeeee",
"^. c #efefef",
"/. c Gray94",
"(. c #f1f1f1",
"). c Gray95",
"_. c #f4f4f4",
"`. c Gray96",
"'. c #f6f6f6",
"]. c Gray97",
"[. c #f8f8f8",
"{. c #f9f9f9",
"}. c Gray98",
"|. c #fbfbfb",
" X c Gray99",
".X c #fdfdfd",
"XX c #fefefe",
"oX c Gray100",
/* pixels */
"X X X X X X X X X X X X X X X X X X X X X X X X X X X X X X X X ",
"X X X X X X X X X X X X X X X X X X X X X X X X X X X X X X X X ",
"u 7 X X X X + 8 u 7 X X X X & w f w + X X X + 8 u 7 X X X X + 8 ",
"}.).V. .f -.K.`.}.).S.} f -.H.!.`.!.V. .h -.K.`.}.).V.} f -.K.`.",
"oXoXoXK.D `.oXoXoXoXoXH.D `.oXoXoXoXoXH.D ).oXoXoXoXoXH.D `.oXoX",
"`.}.).i X S }.}.}.}.!.f X D oX`.`.`.).i X D }.}.}.}.!.i X D }.`.",
"oXoX>.X + X d.oX`.oX>.X + X d.oXoXoX>.X + X a.oX`.oX-.X + X d.oX",
"-.y.c X X X L `.!.!.c X X X Y 7.@.e.v X X X L `.!.!.c X X X L e.",
"X X V.` + X c oXoXE.8 + > 1.a.X X X V.] & + v oXoX!.8 + = >.y.X ",
"X & T.oXE X v oXoX!.8 X >.oXz.X X = T.oX~ X v oXoX).7 X #.oXz.X ",
"X = H.}./ X m }.}.E.w X 7.}.d.X X = H.}.} X m }.}.!.8 X >.}.d.X ",
"X X E.oX~ X h oXoX}.1 X 5.oXb.X X X E.oX] X c oXoXoX> X >.oXb.X ",
"r.1.%.H./ h ] Y S E ` u 7.b.#.5.r.1.%.H. .h ] Y D E ` u -.m.#.5.",
"oXoX= X -.oXb.X X X T.}.E X f oXoXoX= X @.oXz.X X X E.}./ X f oX",
"}.!.8 X >.oXd.X X > S.oXJ X m }.}.!.8 X  .oXa.X X = K.oX~ X m }.",
"oX).7 X >.oXj.X X = H.oXJ X v oXoX).7 X } oXa.X X & K.oX~ X v oX",
"oX!.8 X >.}.d.X X > S.oXJ X m }.oX!.8 X } }.a.X X = K.oX~ X v }.",
"oXoX> X >.oXb.X X X U.oXY X f oXoXoX> X @.oXz.X X X E.oX~ X h oX",
"S.d.~ y.` L %.c u m -.S 1.7./ z.S.d.~ y. .L %.c u m >.S %.q./ z.",
"X + E.oX~ X h oXoX).1 X 7.oXb.X X + E.oX] X c oX}.`.> X >.oXb.X ",
"X & K.}./ X m oXoX!.w X 5.}.d.X X & K.}.} X m oXoX).8 X >.}.d.X ",
"X = P.oX~ X v oXoX!.8 X 5.oXj.+ X = P.oX] X m oXoX).7 X >.oXj.+ ",
"X X P.5.> X c oXoX!.8 + 8 d.z.X X X U.7.1 X v oXoX!.7 X 7 a.z.X ",
"E %.V X X X D }.).).i X X X Y  .L #.D X X X D }.).).i X X X Y @.",
"oXoX} X + X q.oX`.oX@.X + X q.oXoXoX} X & X q.oX`.oX@.X + X q.oX",
"`.}.E.4 X h `.}.}.oXE.4 X h }.`.}.}.E.4 X c `.}.}.oXE.4 X h }.`.",
"}.}.oXb.c U.oX}.}.}.oXz.c T.oX}.}.}.oXb.c U.oX}.}.}.oXb.c T.oX}.",
"oXoXE.7.V a.).oXoXoXE.7.V a.).oXoXoXE.7.V a.).oXoXoXE.7.V a.).oX",
"S v 1 X X X 7 m D v 1 X X X 7 m D v 1 X X X 7 v D v 1 X X X 7 m ",
"X X X X X X X X X X X X X X X X X X X X X X X X X X X X X X X X ",
"X X X X X X X X X X X X X X X X X X X X X X X X X X X X X X X X ",
"X X X X X X X X X X X X X X X X X X X X X X X X X X X X X X X X "
};
