/* XPM */
static char * image_name[]={
"45 45 169 2",
"  	c #E8E8E8",
". 	c #F0F0F0",
"X 	c #F7F7F7",
"o 	c #D9D9D9",
"O 	c #C7C7C7",
"+ 	c #A1A1A1",
"@ 	c #787878",
"# 	c #616161",
"$ 	c #4F4F4F",
"% 	c #474747",
"& 	c #575757",
"* 	c #707070",
"= 	c #828282",
"- 	c #999999",
"; 	c #B8B8B8",
": 	c #A8A8A8",
"> 	c #303030",
", 	c #292929",
"< 	c #1F1F1F",
"1 	c #404040",
"2 	c #878787",
"3 	c #8F8F8F",
"4 	c #B0B0B0",
"5 	c #171717",
"6 	c #383838",
"7 	c #696969",
"8 	c #C2C2C2",
"9 	c #E0E0E0",
"0 	c #0F0F0F",
"q 	c #EBEBEB",
"w 	c #CFCFCF",
"e 	c #F5F5F5",
"r 	c #E0FFFF",
"t 	c #8A8A8A",
"y 	c #B0E2FF",
"u 	c #87CEFA",
"i 	c #72D5CD",
"p 	c #91D2DE",
"a 	c #B0E0E6",
"s 	c #F0F8FF",
"d 	c #9BEFF2",
"f 	c #729FFF",
"g 	c #7C98D3",
"h 	c #DBDBDB",
"j 	c #A0B0C0",
"k 	c #98A8C0",
"l 	c #A0B8D0",
"z 	c #5470AA",
"x 	c #A6A6A6",
"c 	c #949494",
"v 	c #98B0C0",
"b 	c #AFEEEE",
"n 	c #2F2F64",
"m 	c #ABABAB",
"M 	c #B8B8C0",
"N 	c #CCCCCC",
"B 	c #B6E2CE",
"V 	c #80B8E8",
"C 	c #98B8D8",
"Z 	c #8C8C8C",
"A 	c #9C9C9C",
"S 	c #666666",
"D 	c #1A1A1A",
"F 	c #969696",
"G 	c #49D4F0",
"H 	c #708090",
"J 	c #6A6A8D",
"K 	c #B0B8C0",
"L 	c #C4C4C4",
"P 	c #525252",
"I 	c #3870B0",
"U 	c #9E9E9E",
"Y 	c #778899",
"T 	c #205080",
"R 	c #545454",
"E 	c #B5B5B5",
"W 	c #B3B3B3",
"Q 	c #9B7071",
"! 	c #141414",
"~ 	c #4A4A4A",
"^ 	c #B8B8C8",
"/ 	c #D6D6D6",
"( 	c #A3A3A3",
") 	c #ADADAD",
"_ 	c #80B8E0",
"` 	c #6B6B6B",
"' 	c #2870B8",
"] 	c #384B66",
"[ 	c #5C5C5C",
"{ 	c #A8B8C8",
"} 	c #88B8E0",
"| 	c #509F69",
" .	c #2B2B2B",
"..	c #5F929E",
"X.	c #1E90FF",
"o.	c #EDEDED",
"O.	c #55562F",
"+.	c #E5E5E5",
"@.	c #757575",
"#.	c #B0B0C0",
"$.	c #B0B8C8",
"%.	c #80B0E0",
"&.	c #20B2AA",
"*.	c #2078D0",
"=.	c #232375",
"-.	c #A8B0C0",
";.	c #4955A5",
":.	c #E3E3E3",
">.	c #F2F2F2",
",.	c #4D4D4D",
"<.	c #2F4F4F",
"1.	c #3078A0",
"2.	c #1878D0",
"3.	c #636363",
"4.	c #1C1C1C",
"5.	c #307098",
"6.	c #1878D8",
"7.	c #A8B8C0",
"8.	c #286890",
"9.	c #454545",
"0.	c #333333",
"q.	c #1070C8",
"w.	c #1078D0",
"e.	c #1068C0",
"r.	c #347766",
"t.	c #424242",
"y.	c #1068B0",
"u.	c #1070D0",
"i.	c #1068A8",
"p.	c #105888",
"a.	c #0878D8",
"s.	c #0868D0",
"d.	c #7E88AB",
"f.	c #0860B8",
"g.	c #0868B8",
"h.	c #084888",
"j.	c #0878E0",
"k.	c #0068D0",
"l.	c #D4D4D4",
"z.	c #DEDEDE",
"x.	c #0870E0",
"c.	c #084880",
"v.	c #2E2E2E",
"b.	c #363636",
"n.	c #262626",
"m.	c #0058A8",
"M.	c #0058A0",
"N.	c #242424",
"B.	c #0068C8",
"V.	c #3068B0",
"C.	c #004898",
"Z.	c #004080",
"A.	c #0060C0",
"S.	c #1870B8",
"D.	c #0078E0",
"F.	c #005098",
"G.	c #306090",
"H.	c #004880",
"J.	c #0050A0",
"K.	c #0050A8",
"L.	c #0070D8",
"P.	c #0078E8",
"I.	c #004890",
"U.	c #004090",
"Y.	c #0078F0",
"T.	c #004888",
"R.	c #005088",
"E.	c #0060B8",
"W.	c #080808",
"                                  . . . . . . . . .                                       ",
"                              X X .   o O O O O o   . . .                                 ",
"                          X . O + @ # $ % $ & # * = - ; o . .                             ",
"                      .   : & > , , < > 1 % & * = 2 3 3 3 : O   .                         ",
"                  X . 4 $ < 5 5 5 , 6 % # 7 7 7 # # * 3 4 8 ; ; o .                       ",
"                X 9 @ , < 0 5 1 @ : o . X X X X q w + = # @ 4 o O O 9                     ",
"              X 8 $ < < 0 1 + 9 X X X e r r r r e X X X o - # 2 o o O o .                 ",
"            X 8 6 < 5 < t   X X r y y u u i u u p a r r e X 9 t # ;   O 9                 ",
"          X O 6 < 0 6 8 X s r d u f f f g g h j - k l u d r r e ; # 4   O o               ",
"        X o 1 < 0 % o s r d i f f f f f z 4 X x c x v u f i d r r O 7 :   O 9             ",
"        . 7 5 5 1 o r b u f f f f f f g n m X O M N N u f f f u b r N 7 ; 9 O             ",
"      X + 5 < , B b d i f f g V a p p C 3 N X 2 7 Z A u f f f f u d b B S o w w           ",
"    . 9 6 < D F b d G f f g a e B H N J B 3 H 8 K L B f f f f f f i d b 3 = 9 ;           ",
"    X 3 5 5 P d u i f f I J . X 8 H w H L + U Y J Z U f f f f f f f i u p 7 ; 8 O .       ",
"  . 9 % 5 < U u G f f f T R . X E # L 7 W Z H 8 M O N p p p p f f f f G i F Q w :         ",
"  X : < ! ~ p G f f f f T t X   ^ 3 / Z O : - X X Z ( ( ) + v _ f f f f G g ` ; + O .     ",
"  X @ 5 D H G f f f f ' F X t ] ] K   [ W Z J e . - x : 4 : { } f f f f f f | 3 + : .     ",
".   $ 0  ...f f f f X.] 4 X ) Y Y O o.t N 4 U X q Z : J # U : g f f f f f f ..Q m 2   .   ",
"X w > 5 O.g f f f f X.n : X - [ R 4 +.R E t J X   Z ) J S ( ) g f X.f f f f ..7 ( = o .   ",
"X ; , D ~ g X.X.X.X.X.n : X m J J B . U / B 4 X   H ( z ] 3 U g X.X.X.X.X.X...[ A @.O .   ",
"X + 5 < P g X.X.X.X.X.n : X c ] ] ) +.R #.Y J . . + $.c J 4 $.%.X.X.X.X.X.X...R 3 * ; X   ",
"X 3 5 < R &.X.X.X.X.*.=.: X -.Y H L . t N 4 ( X q H + J ] Z U g X.X.X.X.X.X.&.R 2 * : .   ",
"X 2 5 < $ &.X.X.X.X.*.=.: X U ;.[ K :.P 4 Y J >.. ( $.c H 4 $.g X.X.X.X.X.X.&.,.@.# : .   ",
"X 3 5 < <.1.X.X.X.X.2.=.: X + J 3.K . F N K : X q H U J ] 3 U g X.X.X.X.X.X.1.~ 7 & : .   ",
"X 4 < 4.<.5.6.X.X.X.2.=.: X + J J B +.$ 4 H J >.. U { Y H 4 7.g X.X.X.X.X.2.8.9.3.& 8 .   ",
"X 8 , 5 0.] q.X.X.X.w.=.: X + J S K . F w #.: X q J F ] ] t F g X.X.X.X.X.e.r.t.[ # O .   ",
". o 1 ! , <.y.X.X.X.u.=.: X x J J B +.& -.Y J e . : B A Y E B g X.X.X.X.X.i.<.9.& 7 9 .   ",
". . 7 5 < <.p.a.X.X.s.=.m X - ;.] 4 . c N -.x X q J c ;.] t d.g X.X.X.X.a.p.<.% $ = .     ",
"  X 3 5 4., <.f.X.X.s.=.: X : J J L :.,.#.Y J . . A -.Y J 4 { g X.X.X.X.g.<.> $ % 4 .     ",
"  X O , 5 < n h.j.X.k.=.m X Y ] ] ( 9 L l.N z.X   J F ] n Y d.g X.X.X.x.c.v.b.$ $ o .     ",
"    . # 5 < n.n m.X.k.=.: X j ..Y ) J n ] n 4 X . ) B : ( B B g X.X.X.M.n n.1 1 = .       ",
"    . ; < < < N.=.B.B.=.: X Y ] ] - V.C.Z.=.+ X   J H Y F H d.g X.X.A.n N. .% % O .       ",
"      . 7 5 < < N.] m.=.] O w $.B a X.X.B.=.] :   M B L N L N f X.k.=.< < 6 > = .         ",
"      . w > 5 < n.< =.=.=.n ] ] ] S.X.X.D.F.=.n ] ] ] ] ] ] G.X.k.=.< 4.> 6 % o .         ",
"        X + 5 5 < N.< =.H.F.J.J.K.L.X.X.X.P.A.F.I.U.U.U.I.I.m.m.=.N.4., > > : X           ",
"        . X @ 5 < < n.N.n I.L.X.X.X.X.X.X.X.X.X.X.X.X.X.Y.k.T.n 4.4.< > , 2 .             ",
"          .   7 5 < < < < < =.F.k.Y.X.X.X.X.X.X.X.X.Y.B.F.=.4.< 4.< , < @ .               ",
"            .   @ < 5 < < N.4.4.n =.R.m.A.A.B.E.m.I.=.n 4.< 4.< < 5 < =   .               ",
"              . . + > 0 < < < n.N.4.4.< < n n n 4.4.4.< < 4.< 5 W., + X .                 ",
"                . X O & 5 5 < < < < N.4.4.D 4.4.< 4.4.D 5 5 0 0 & O X .                   ",
"                    X . 4 $ < 5 5 5 4.< < D D 5 5 5 0 0 W.0 % : . .                       ",
"                      . X   ; @ % > < 0 0 0 0 0 0 0 , 1 * ; . X .                         ",
"                            X X   O + 2 @ 7 7 @ = + O   X X                               ",
"                                . X X X X . . X X X X .                                   ",
"                                          . .                                             "
};
