/* XPM */
static char * image_name[]={
"32 32 19 2",
"  	c #F7F7F7",
". 	c #DEB887",
"X 	c #FF6347",
"o 	c #DA322D",
"O 	c #D11619",
"+ 	c #F08080",
"@ 	c #D2691E",
"# 	c #D52079",
"$ 	c #FF7256",
"% 	c #FFE4C4",
"& 	c #FFE4E1",
"* 	c #F2F2F2",
"= 	c #FF0000",
"- 	c #DB7093",
"; 	c #FAF0E6",
": 	c #FFDAB9",
"> 	c #F5F5F5",
", 	c #D4D4D4",
"< 	c #E0E0E0",
"  . X o o o o o o o o o o o o o o o o o o o o o o o o o o X .   ",
". O X + + + + + + + + + + + + + + + + + + + + + + + + + + X O . ",
"X X + + + + + + + + + + + + + + + + + + + + + + + + + + + + o X ",
"o @ X X X X X X X X X X X X X X X X @ @ X X X X X X X X X X @ # ",
"o o o X o o o o o o o o o o o $ @ X $ X o o o o o o o o o o o # ",
"o o o o X o o o o o o o o @ o . . + .   . o o o o o o o o o o # ",
"o o o o o X o o o o o O X % + + + + $ .   % X O o o o o o o o o ",
"o o o o o o o o o O o $ + + + + $ X X $     & X O o o o o o o o ",
"o o o o o o o o O $ . + + + $ X $ & & $       * $ O o o o o o o ",
"o o o o o o o o o . . $ X X . *   & $ $         % O o o o o o o ",
"o o o o o o o $ . $ X $ %     . X O = $           . o o o o o o ",
"o o o o o O X + X + &   & - o O O X $ $             + O o o O o ",
"o o o o o O X + ; ; . X O O X + %   & $             . O o o O o ",
"o O O O O O X + $ O O X + &     & + X $             . O O O O o ",
"o O O O O O X $ o + &     % + X O = = $             . O O O O o ",
"o O O O O O X . * ; . $ X O O o X + + $             . O O O O o ",
"o o o o o O X + X O O o X + : ;     % $             . O o o O o ",
"o o o o o O X + X + % >     & . - X o $             . O o o o o ",
"o o o o o O X . * & . + X o o O O O O $             . O o o o o ",
"o o o o o O X + o O O O o X $ + . % . $             . O o o o o ",
"o o o o o o X + $ + % & *       * & . $             . O o o o o ",
"o o o o o o X . & & , . + $ X X o o O $             . O o o o o ",
"o o o o o o X + O O o # X X o o o X X $             . O o o o # ",
"o o o o o o X + + + + *   ; + ; *   < +             . O o o o # ",
"o o o o o O $ . % % +     ; $ . + + $ $             ; X O o o # ",
"o o o o o X * . X X +     * $ X X X X +               % o o o # ",
"o o o o O +                                             X o o # ",
"o o o o o X $ $ $ $ $ $ $ $ $ $ $ $ $ $ $ $ $ $ $ $ $ $ X o o # ",
"o o o o o o o o o o o o o o o o o o o o o o o X o o o o o o o # ",
"X @ X X X X X X X X X X X X X X X X X X X X X X X X X X X X @ X ",
". o X X X X X X X X X X X X X X X X X X X X X X X X X X X X o . ",
"  . X X X X X X X X X X X X X X X X X X X X X X X X X X X X .   "
};
