/* XPM */
static char * sky_xpm[] = {
"32 32 874 2",
"  	c None",
". 	c #A9C8FA",
"+ 	c #C6DDFE",
"@ 	c #CFE4FE",
"# 	c #D3E7FE",
"$ 	c #D8EBFE",
"% 	c #DCEDFE",
"& 	c #DAEDFE",
"* 	c #DFF0FE",
"= 	c #EEFAFE",
"- 	c #F9FDFE",
"; 	c #AFC4F5",
"> 	c #5F84E8",
", 	c #6886E9",
"' 	c #768DEA",
") 	c #7486E8",
"! 	c #6572E4",
"~ 	c #5A66E1",
"{ 	c #5865E1",
"] 	c #5866E1",
"^ 	c #5966E1",
"/ 	c #5765E1",
"( 	c #5765E0",
"_ 	c #5462DF",
": 	c #5361DE",
"< 	c #5563DF",
"[ 	c #5766E1",
"} 	c #5768E2",
"| 	c #566AE3",
"1 	c #556CE4",
"2 	c #BED8FE",
"3 	c #C1D9FE",
"4 	c #C3DAFE",
"5 	c #C3DBFE",
"6 	c #CAE0FE",
"7 	c #D4E7FE",
"8 	c #D5E9FE",
"9 	c #E6F4FE",
"0 	c #F1FAFE",
"a 	c #9DBBF3",
"b 	c #7DA2EF",
"c 	c #C3D4F8",
"d 	c #DAE4FA",
"e 	c #C6CFF6",
"f 	c #949FED",
"g 	c #5E6BE3",
"h 	c #5867E2",
"i 	c #5868E2",
"j 	c #5666E1",
"k 	c #5362DF",
"l 	c #5669E2",
"m 	c #566BE3",
"n 	c #546EE4",
"o 	c #5270E5",
"p 	c #BBD5FE",
"q 	c #B7D3FE",
"r 	c #B8D4FE",
"s 	c #C0D9FE",
"t 	c #CFE3FE",
"u 	c #D5E8FE",
"v 	c #E4F2FD",
"w 	c #ABC8F8",
"x 	c #CEE2FD",
"y 	c #E7F1FE",
"z 	c #F0F7FE",
"A 	c #EBF2FD",
"B 	c #CAD3F7",
"C 	c #6C7BE7",
"D 	c #576AE3",
"E 	c #5569E2",
"F 	c #5366E0",
"G 	c #5164DE",
"H 	c #5464DE",
"I 	c #5668E1",
"J 	c #556DE4",
"K 	c #5471E5",
"L 	c #5274E6",
"M 	c #5176E7",
"N 	c #B4D0FE",
"O 	c #B2CEFE",
"P 	c #B4D1FE",
"Q 	c #C9DFFE",
"R 	c #D6E9FE",
"S 	c #E3F3FE",
"T 	c #D9EAFE",
"U 	c #D2E4FE",
"V 	c #CCE0FE",
"W 	c #D8E8FE",
"X 	c #E1EFFE",
"Y 	c #E3EDFC",
"Z 	c #778BEB",
"` 	c #5F75E6",
" .	c #586EE5",
"..	c #566CE4",
"+.	c #566EE5",
"@.	c #546DE3",
"#.	c #536AE1",
"$.	c #5369DF",
"%.	c #5469E1",
"&.	c #556CE3",
"*.	c #556FE5",
"=.	c #5473E6",
"-.	c #5276E6",
";.	c #527AE7",
">.	c #517DE7",
",.	c #AFCCFE",
"'.	c #B1CDFE",
").	c #B6D2FE",
"!.	c #C8DFFE",
"~.	c #D7EAFE",
"{.	c #CEE2FE",
"].	c #C7DDFE",
"^.	c #BFD8FE",
"/.	c #BFD9FE",
"(.	c #C2DBFE",
"_.	c #DAEAFE",
":.	c #C4D4F9",
"<.	c #99ADF3",
"[.	c #6881E9",
"}.	c #5670E5",
"|.	c #5572E5",
"1.	c #5472E2",
"2.	c #5471E1",
"3.	c #5470E1",
"4.	c #5471E2",
"5.	c #5571E4",
"6.	c #5475E6",
"7.	c #5278E6",
"8.	c #527CE7",
"9.	c #5382E9",
"0.	c #5487EA",
"a.	c #B3CFFE",
"b.	c #B2CFFE",
"c.	c #B8D3FE",
"d.	c #C5DCFE",
"e.	c #CCE1FE",
"f.	c #C5DDFE",
"g.	c #BBD8FE",
"h.	c #B8D6FE",
"i.	c #B8D5FE",
"j.	c #BAD5FE",
"k.	c #D1E5FE",
"l.	c #DAEBFD",
"m.	c #94AEF2",
"n.	c #5878E6",
"o.	c #5676E4",
"p.	c #5677E4",
"q.	c #5778E4",
"r.	c #5678E4",
"s.	c #5676E5",
"t.	c #5576E5",
"u.	c #5378E5",
"v.	c #537BE5",
"w.	c #547FE7",
"x.	c #5689EA",
"y.	c #5890EB",
"z.	c #B0CDFE",
"A.	c #ADCCFE",
"B.	c #ACCBFE",
"C.	c #B1CEFE",
"D.	c #BBD6FE",
"E.	c #A6CAFD",
"F.	c #A1C9FC",
"G.	c #B3D6FE",
"H.	c #B4D6FE",
"I.	c #B5D7FE",
"J.	c #B9D5FE",
"K.	c #BED6FE",
"L.	c #C0DAFE",
"M.	c #C4DCFE",
"N.	c #C8DEFE",
"O.	c #ACC7FA",
"P.	c #668DEB",
"Q.	c #6A8EEB",
"R.	c #84A0EE",
"S.	c #7493EB",
"T.	c #6687E8",
"U.	c #5F83E7",
"V.	c #577CE5",
"W.	c #557AE5",
"X.	c #567EE7",
"Y.	c #5682E8",
"Z.	c #5788E9",
"`.	c #5990EB",
" +	c #5B95ED",
".+	c #AECBFE",
"++	c #ADCBFE",
"@+	c #ABCAFE",
"#+	c #A9C8FE",
"$+	c #A7C7FE",
"%+	c #A8C8FE",
"&+	c #A4C5FD",
"*+	c #6FA4F6",
"=+	c #73A9F7",
"-+	c #94C1FB",
";+	c #B1D5FE",
">+	c #B6D4FE",
",+	c #BAD4FE",
"'+	c #B9D4FE",
")+	c #BCD6FE",
"!+	c #B8D2FC",
"~+	c #C5DBFD",
"{+	c #D5E6FD",
"]+	c #CDE0FC",
"^+	c #C6DBFA",
"/+	c #87A9F2",
"(+	c #628DEB",
"_+	c #5D8AEA",
":+	c #769FF0",
"<+	c #6A99EF",
"[+	c #5990EE",
"}+	c #5A92ED",
"|+	c #5B95EE",
"1+	c #A8C7FE",
"2+	c #A6C6FE",
"3+	c #A3C4FE",
"4+	c #A1C2FE",
"5+	c #A4C5FE",
"6+	c #A3C7FE",
"7+	c #71A3F6",
"8+	c #5F97F3",
"9+	c #669EF5",
"0+	c #72A8F7",
"a+	c #A4C9FD",
"b+	c #B2D1FE",
"c+	c #B3D1FE",
"d+	c #B2D0FE",
"e+	c #B3D2FE",
"f+	c #B6D3FE",
"g+	c #B7D4FE",
"h+	c #CFE5FE",
"i+	c #CDE2FD",
"j+	c #C3DCFD",
"k+	c #BDD7FE",
"l+	c #A1C3FA",
"m+	c #6398F2",
"n+	c #5B93EE",
"o+	c #639AEF",
"p+	c #A5C5FE",
"q+	c #A2C3FE",
"r+	c #A0C3FE",
"s+	c #A3C6FE",
"t+	c #9FC5FD",
"u+	c #7EB0F9",
"v+	c #649CF5",
"w+	c #5D95F2",
"x+	c #5E96F2",
"y+	c #659CF3",
"z+	c #90BBFB",
"A+	c #ABCDFE",
"B+	c #B0D1FE",
"C+	c #ADCFFE",
"D+	c #A6CAFE",
"E+	c #98C0FD",
"F+	c #86B2FA",
"G+	c #9BC1FD",
"H+	c #9FC3FD",
"I+	c #9ABEFB",
"J+	c #A1C3FB",
"K+	c #A5C5FB",
"L+	c #6D9DF2",
"M+	c #7DA9F4",
"N+	c #8DB5F6",
"O+	c #A7C7F8",
"P+	c #C8DEFA",
"Q+	c #9DC5FD",
"R+	c #9FC5FE",
"S+	c #9FC6FE",
"T+	c #9BC5FD",
"U+	c #8EBDFC",
"V+	c #74AAF8",
"W+	c #669EF6",
"X+	c #639BF5",
"Y+	c #5E97F2",
"Z+	c #6199F3",
"`+	c #6CA1F5",
" @	c #88B7FB",
".@	c #9AC4FD",
"+@	c #A2CBFD",
"@@	c #A0CAFD",
"#@	c #9AC5FD",
"$@	c #8BB8FC",
"%@	c #7CAFFA",
"&@	c #6DA3F7",
"*@	c #659DF5",
"=@	c #679FF5",
"-@	c #639BF4",
";@	c #5E95F1",
">@	c #9DC0FA",
",@	c #E6F2FD",
"'@	c #B8D3FA",
")@	c #AFCDFC",
"!@	c #DEEDFE",
"~@	c #EAF3FD",
"{@	c #EAF4FE",
"]@	c #84B6FB",
"^@	c #86B6FB",
"/@	c #7DB1FA",
"(@	c #72A8F8",
"_@	c #6DA4F8",
":@	c #68A1F8",
"<@	c #669FF8",
"[@	c #639CF6",
"}@	c #619AF5",
"|@	c #639CF5",
"1@	c #649DF6",
"2@	c #669FF7",
"3@	c #6DA6F8",
"4@	c #79AEFA",
"5@	c #7CB0FA",
"6@	c #78ADFA",
"7@	c #76ACFA",
"8@	c #6FA6F8",
"9@	c #6AA2F7",
"0@	c #679FF7",
"a@	c #679EF6",
"b@	c #79A9F8",
"c@	c #699EF5",
"d@	c #7EABF9",
"e@	c #A0C2FE",
"f@	c #ADCAFA",
"g@	c #93B8F6",
"h@	c #8AB2F5",
"i@	c #6FA7F9",
"j@	c #6FA6F9",
"k@	c #6BA4F8",
"l@	c #6AA3F9",
"m@	c #6BA3F9",
"n@	c #6AA3FA",
"o@	c #6AA4FA",
"p@	c #68A2F8",
"q@	c #67A0F8",
"r@	c #68A3F9",
"s@	c #68A4F9",
"t@	c #6BA6F9",
"u@	c #6BA7F9",
"v@	c #6AA6F9",
"w@	c #69A7F9",
"x@	c #67A4F8",
"y@	c #66A0F7",
"z@	c #669DF7",
"A@	c #87B1FC",
"B@	c #90B7FD",
"C@	c #8AB3FC",
"D@	c #82AEFB",
"E@	c #83AFFB",
"F@	c #9BBFFE",
"G@	c #A1C3FD",
"H@	c #94BAFB",
"I@	c #84B0F9",
"J@	c #6197F2",
"K@	c #5C93F1",
"L@	c #5991F0",
"M@	c #6CA5F9",
"N@	c #6BA5F9",
"O@	c #6CA6FA",
"P@	c #6CA7FA",
"Q@	c #6BA5FA",
"R@	c #6AA7F9",
"S@	c #6AA7FA",
"T@	c #6AA8FA",
"U@	c #69A7FA",
"V@	c #68A8FA",
"W@	c #68A7FA",
"X@	c #67A7FA",
"Y@	c #66A8FA",
"Z@	c #7FAFFC",
"`@	c #7FACFB",
" #	c #5D95F4",
".#	c #558FF3",
"+#	c #5691F3",
"@#	c #5894F3",
"##	c #6099F5",
"$#	c #5F99F4",
"%#	c #5E98F3",
"&#	c #639CF4",
"*#	c #629BF4",
"=#	c #6099F3",
"-#	c #72AAFA",
";#	c #6DA7FA",
">#	c #6DA7FB",
",#	c #6CA7FB",
"'#	c #67AAFB",
")#	c #65A8FA",
"!#	c #65A7FA",
"~#	c #64A5F9",
"{#	c #66A5F8",
"]#	c #7DB0FB",
"^#	c #8AB4FD",
"/#	c #6DA1F8",
"(#	c #5691F4",
"_#	c #5591F3",
":#	c #5792F4",
"<#	c #5A95F4",
"[#	c #5D98F4",
"}#	c #5F9AF5",
"|#	c #629DF5",
"1#	c #68A3F6",
"2#	c #6EA7F7",
"3#	c #73ADF9",
"4#	c #79B3F9",
"5#	c #79B2F9",
"6#	c #7BAFFA",
"7#	c #70A9FA",
"8#	c #6EA8FA",
"9#	c #6CA6FB",
"0#	c #69A5FA",
"a#	c #68A4FA",
"b#	c #65A3F9",
"c#	c #65A2F8",
"d#	c #609EF6",
"e#	c #63A1F6",
"f#	c #73ABF8",
"g#	c #82B2FB",
"h#	c #7DAEFB",
"i#	c #5C97F5",
"j#	c #5693F4",
"k#	c #5794F5",
"l#	c #5995F5",
"m#	c #5D99F5",
"n#	c #639FF7",
"o#	c #67A2F8",
"p#	c #6AA5F8",
"q#	c #6FA9F8",
"r#	c #76AFFA",
"s#	c #79B3FA",
"t#	c #81BBFB",
"u#	c #83BCFB",
"v#	c #7EB9FB",
"w#	c #8BBAFC",
"x#	c #79AFFB",
"y#	c #73ACFB",
"z#	c #78AEFB",
"A#	c #7DB1FC",
"B#	c #7DB1FB",
"C#	c #7CB0FC",
"D#	c #6EA8FB",
"E#	c #6AA5FB",
"F#	c #68A5FA",
"G#	c #67A6FA",
"H#	c #67A3F7",
"I#	c #6DA5F6",
"J#	c #6CA5F6",
"K#	c #76ACF8",
"L#	c #77ADF8",
"M#	c #64A0F6",
"N#	c #5998F5",
"O#	c #5796F6",
"P#	c #5999F6",
"Q#	c #5C9BF7",
"R#	c #64A2F8",
"S#	c #6CA9FA",
"T#	c #73AEFB",
"U#	c #78B2FB",
"V#	c #78B2FC",
"W#	c #77B1FB",
"X#	c #7AB5FC",
"Y#	c #7BB6FC",
"Z#	c #7EB9FC",
"`#	c #7DB9FB",
" $	c #B6D5FD",
".$	c #A3C9FD",
"+$	c #A9CDFD",
"@$	c #C9E1FD",
"#$	c #DCEBFE",
"$$	c #D7E8FD",
"%$	c #C5DDFD",
"&$	c #85B7FB",
"*$	c #6CA8FA",
"=$	c #65A6FA",
"-$	c #5E9FF7",
";$	c #5B9AF5",
">$	c #5998F4",
",$	c #5797F3",
"'$	c #5798F4",
")$	c #5899F5",
"!$	c #5A9AF6",
"~$	c #5C9DF7",
"{$	c #62A2F8",
"]$	c #6CAAFA",
"^$	c #71AFFA",
"/$	c #73B1FB",
"($	c #7CB8FC",
"_$	c #7EBAFC",
":$	c #75B2FC",
"<$	c #70AEFB",
"[$	c #6FADFB",
"}$	c #72B0FB",
"|$	c #75B2FB",
"1$	c #77B3FB",
"2$	c #ECF6FE",
"3$	c #E9F3FE",
"4$	c #EBF5FE",
"5$	c #EEF6FE",
"6$	c #EDF6FE",
"7$	c #EFF8FE",
"8$	c #D7E9FE",
"9$	c #83B9FB",
"0$	c #6AAAFB",
"a$	c #68AAFB",
"b$	c #66A7FB",
"c$	c #63A4FA",
"d$	c #5FA2F8",
"e$	c #5A9DF7",
"f$	c #5699F6",
"g$	c #599CF7",
"h$	c #5D9FF8",
"i$	c #60A2F9",
"j$	c #64A5FA",
"k$	c #6DADFB",
"l$	c #72B2FB",
"m$	c #73B2FC",
"n$	c #73B2FB",
"o$	c #78B7FC",
"p$	c #79B7FC",
"q$	c #72B1FB",
"r$	c #6DACFB",
"s$	c #6CACFB",
"t$	c #6EADFB",
"u$	c #73B1FA",
"v$	c #E0EEFE",
"w$	c #D3E6FE",
"x$	c #BEDAFE",
"y$	c #A2C9FC",
"z$	c #72AFFB",
"A$	c #68ABFB",
"B$	c #68ABFC",
"C$	c #67AAFC",
"D$	c #60A3F9",
"E$	c #5DA1F8",
"F$	c #64A6FA",
"G$	c #66A8FB",
"H$	c #6DAEFB",
"I$	c #71B1FC",
"J$	c #70B1FB",
"K$	c #6FB0FC",
"L$	c #72B3FB",
"M$	c #6EAEFC",
"N$	c #69ABFB",
"O$	c #69AAFB",
"P$	c #6AABFB",
"Q$	c #71AFFB",
"R$	c #B0CBEE",
"S$	c #96B1D3",
"T$	c #88B6EF",
"U$	c #74AFFB",
"V$	c #63A5F9",
"W$	c #67ABFC",
"X$	c #69ACFC",
"Y$	c #6CA6ED",
"Z$	c #739BCF",
"`$	c #7790B4",
" %	c #719AD3",
".%	c #66A8FC",
"+%	c #67A9FC",
"@%	c #68AAFC",
"#%	c #6CADFD",
"$%	c #70B0FD",
"%%	c #6FB0FD",
"&%	c #6EB0FD",
"*%	c #6EAFFD",
"=%	c #6DAFFD",
"-%	c #6AABFD",
";%	c #67A9FD",
">%	c #68A9FB",
",%	c #6CABFB",
"'%	c #6FADFC",
")%	c #79B3FC",
"!%	c #7891B2",
"~%	c #80756F",
"{%	c #808187",
"]%	c #67A3EE",
"^%	c #65A5F6",
"/%	c #64A7FB",
"(%	c #6CAFFD",
"_%	c #6CB0FD",
":%	c #6AAEFD",
"<%	c #68ABFD",
"[%	c #7591B7",
"}%	c #7D726F",
"|%	c #796E66",
"1%	c #807C82",
"2%	c #6BA7F2",
"3%	c #6BA8F5",
"4%	c #67AAFD",
"5%	c #68AAFD",
"6%	c #6AACFD",
"7%	c #66A8FD",
"8%	c #70AEFD",
"9%	c #87BBFD",
"0%	c #9AC6FD",
"a%	c #ACD1FE",
"b%	c #807269",
"c%	c #826C5D",
"d%	c #826F62",
"e%	c #827B7B",
"f%	c #7F8794",
"g%	c #6FA7EA",
"h%	c #6FB3FE",
"i%	c #6FB2FE",
"j%	c #6CAAF5",
"k%	c #798495",
"l%	c #7B6A5F",
"m%	c #7C6B5E",
"n%	c #816F65",
"o%	c #7892B7",
"p%	c #729BCF",
"q%	c #6BAEFE",
"r%	c #6BAEFD",
"s%	c #6CAEFE",
"t%	c #66A9FE",
"u%	c #65A9FE",
"v%	c #68A7F7",
"w%	c #93C1FC",
"x%	c #BDD9FE",
"y%	c #93826A",
"z%	c #928069",
"A%	c #927F6A",
"B%	c #8D7A69",
"C%	c #877164",
"D%	c #7F8CA0",
"E%	c #72ABEC",
"F%	c #6EB1FE",
"G%	c #6DB0FD",
"H%	c #7B8491",
"I%	c #706B63",
"J%	c #7A695D",
"K%	c #79685C",
"L%	c #7B6B5E",
"M%	c #7C7068",
"N%	c #757D89",
"O%	c #6DA5E5",
"P%	c #6CAEFD",
"Q%	c #6BADFD",
"R%	c #6BADFC",
"S%	c #64A7FD",
"T%	c #66A7F9",
"U%	c #68A3EC",
"V%	c #68A4F0",
"W%	c #7C8598",
"X%	c #8B9FBE",
"Y%	c #A4C4FE",
"Z%	c #8F8A6A",
"`%	c #938A6A",
" &	c #958968",
".&	c #938568",
"+&	c #908268",
"@&	c #8F836F",
"#&	c #888A89",
"$&	c #7CA4CE",
"%&	c #70A4DD",
"&&	c #696964",
"*&	c #656257",
"=&	c #70665A",
"-&	c #606055",
";&	c #616256",
">&	c #626257",
",&	c #60635A",
"'&	c #667276",
")&	c #7596BF",
"!&	c #6FAAF4",
"~&	c #69ABFC",
"{&	c #6AABFC",
"]&	c #6AAAFD",
"^&	c #69A4EE",
"/&	c #6791BD",
"(&	c #677F92",
"_&	c #70787C",
":&	c #6E6A61",
"<&	c #777270",
"[&	c #7F96B6",
"}&	c #90B3EE",
"|&	c #92B9FD",
"1&	c #7E886A",
"2&	c #81896A",
"3&	c #85886A",
"4&	c #858569",
"5&	c #848568",
"6&	c #848668",
"7&	c #83876A",
"8&	c #808B75",
"9&	c #7D8B7C",
"0&	c #787262",
"a&	c #786D5F",
"b&	c #7A7362",
"c&	c #5F6155",
"d&	c #575E53",
"e&	c #5F6256",
"f&	c #6E725F",
"g&	c #787E6D",
"h&	c #808C8F",
"i&	c #789CC2",
"j&	c #6E9ED0",
"k&	c #7CA0C0",
"l&	c #7C8988",
"m&	c #78786B",
"n&	c #797766",
"o&	c #817B66",
"p&	c #827968",
"q&	c #837A6A",
"r&	c #787364",
"s&	c #717268",
"t&	c #727B7C",
"u&	c #748D9A",
"v&	c #7B846C",
"w&	c #7A846C",
"x&	c #7B866B",
"y&	c #7F846A",
"z&	c #7E8667",
"A&	c #7F8568",
"B&	c #808568",
"C&	c #7F8368",
"D&	c #7C8265",
"E&	c #868369",
"F&	c #837E67",
"G&	c #71745F",
"H&	c #767C62",
"I&	c #656E5A",
"J&	c #576055",
"K&	c #5E6958",
"L&	c #717E61",
"M&	c #7B886A",
"N&	c #667664",
"O&	c #566761",
"P&	c #56655E",
"Q&	c #656F5B",
"R&	c #7C8165",
"S&	c #828667",
"T&	c #818667",
"U&	c #828567",
"V&	c #838567",
"W&	c #828669",
"X&	c #7D8569",
"Y&	c #868C66",
"Z&	c #848867",
"`&	c #828767",
" *	c #818567",
".*	c #818568",
"+*	c #808667",
"@*	c #818468",
"#*	c #838865",
"$*	c #848A63",
"%*	c #818863",
"&*	c #798160",
"**	c #72795E",
"=*	c #787F61",
"-*	c #818666",
";*	c #797F63",
">*	c #6A735A",
",*	c #636D57",
"'*	c #5F6B55",
")*	c #6D795E",
"!*	c #7E8666",
"~*	c #808666",
"{*	c #808865",
"]*	c #91A062",
"^*	c #8A9465",
"/*	c #8A9365",
"(*	c #899165",
"_*	c #848A67",
":*	c #858D66",
"<*	c #868D66",
"[*	c #858C65",
"}*	c #878E63",
"|*	c #898F64",
"1*	c #888D66",
"2*	c #878C66",
"3*	c #888F65",
"4*	c #868D65",
"5*	c #828966",
"6*	c #828866",
"7*	c #838965",
"8*	c #838866",
"9*	c #848B62",
"0*	c #848B5F",
"a*	c #838C5C",
"b*	c #808561",
"c*	c #848964",
"d*	c #848A64",
"e*	c #848B63",
"f*	c #838864",
"g*	c #828865",
"h*	c #A3BB5F",
"i*	c #A2B960",
"j*	c #9FB461",
"k*	c #9EB55E",
"l*	c #98AA60",
"m*	c #99AC60",
"n*	c #9AB05D",
"o*	c #99AF5B",
"p*	c #91A45A",
"q*	c #8D9C5C",
"r*	c #8B975F",
"s*	c #8A965F",
"t*	c #899361",
"u*	c #879162",
"v*	c #879161",
"w*	c #869062",
"x*	c #868F62",
"y*	c #868F61",
"z*	c #858E61",
"A*	c #86905E",
"B*	c #858F59",
"C*	c #849350",
"D*	c #858D59",
"E*	c #89915D",
"F*	c #89915E",
"G*	c #8B955E",
"H*	c #8C985D",
"I*	c #88945C",
"J*	c #86945A",
"K*	c #879656",
"L*	c #85935A",
"M*	c #A9C85B",
"N*	c #A7C55B",
"O*	c #A4C15A",
"P*	c #A3BD5A",
"Q*	c #A4C05A",
"R*	c #A5C15A",
"S*	c #A3C05A",
"T*	c #9CBC58",
"U*	c #99B857",
"V*	c #97B657",
"W*	c #94B257",
"X*	c #91AD57",
"Y*	c #91AB58",
"Z*	c #90A759",
"`*	c #8CA258",
" =	c #8AA058",
".=	c #889D5B",
"+=	c #87985D",
"@=	c #869361",
"#=	c #859162",
"$=	c #86935F",
"%=	c #84925A",
"&=	c #7E914A",
"*=	c #849352",
"==	c #889557",
"-=	c #899558",
";=	c #899658",
">=	c #889657",
",=	c #889656",
"'=	c #889755",
")=	c #889956",
"!=	c #869857",
"~=	c #A0C159",
"{=	c #A4C55A",
"]=	c #A6C65A",
"^=	c #A7C55A",
"/=	c #A5C25A",
"(=	c #A4C259",
"_=	c #A3C159",
":=	c #A2C059",
"<=	c #A0BE59",
"[=	c #9DBA58",
"}=	c #97B257",
"|=	c #8EAB56",
"1=	c #8AA953",
"2=	c #8AAA53",
"3=	c #8AA855",
"4=	c #8AA753",
"5=	c #89A752",
"6=	c #88A553",
"7=	c #87A255",
"8=	c #869B5B",
"9=	c #86985C",
"0=	c #85955B",
"a=	c #839557",
"b=	c #879857",
"c=	c #899957",
"d=	c #8A9958",
"e=	c #8A9957",
"f=	c #899956",
"g=	c #889856",
". + @ # $ % & * = - ; > , ' ) ! ~ { ] ^ ] ] / ( _ : < ( [ } | 1 ",
"2 3 4 5 6 7 8 $ 9 0 a b c d e f g h h i i h } j k : / } l m n o ",
"p q r p s 6 t u 9 v w x y z A B C D | | | | E F G H I | J K L M ",
"N O N P p 3 Q R S T U + V W X Y Z `  ...+.@.#.$.$.%.&.*.=.-.;.>.",
",.'.O N ).p !.R ~.{.].^./.(.t _.:.<.[.}.|.1.2.3.4.5.|.6.7.8.9.0.",
"O a.a.b.O c.d.e.f.g.h.i.j.^.f.k.~.l.m.n.o.p.q.o.r.s.t.u.v.w.x.y.",
"b.a.z.A.B.C.c.D.E.F.G.H.I.J.K.L.M.N.O.P.Q.R.S.T.U.V.W.X.Y.Z.`. +",
".+++@+#+$+%+B.&+*+=+-+;+H.>+,+p '+)+3 !+~+{+]+^+/+(+_+:+<+[+}+|+",
"1+1+2+3+4+5+6+7+8+9+0+a+b+c+d+e+e+P f+g+N ).D.M.h+i+j+k+l+m+n+o+",
"2+p+q+r+s+t+u+v+w+x+y+z+A+B+B+;+;+C+D+E+F+G+H+I+J+2 K+L+M+N+O+P+",
"Q+R+S+T+U+V+W+X+x+Y+Z+`+ @.@+@@@#@$@%@&@*@=@-@;@>@R ,@'@)@!@~@{@",
"]@^@/@(@_@:@<@[@}@|@1@2@3@4@5@6@7@8@9@0@a@b@c@d@e@@+^.)+a.f@g@h@",
"i@j@k@l@m@n@o@p@q@r@n@r@s@t@u@v@w@x@y@z@A@B@C@D@E@F@G@H@I@J@K@L@",
"M@M@N@O@O@O@P@Q@Q@R@S@T@U@V@W@X@Y@U@Z@B@`@ #.#+#@###$#%#&#*#Z+=#",
"-#;#;#>#>#>#>#>#,#S@V@'#V@)#!#~#{#]#^#/#(#_#:#<#[#}#|#1#2#3#4#5#",
"6#7#P@>#>#>#8#>#9#0#a#b#c#d#e#f#g#h#i#j#k#l#m#n#o#p#q#r#s#t#u#v#",
"w#x#y#z#A#B#C#D#E#F#G#H#I#J#K#L#M#N#O#P#Q#R#S#T#U#V#W#X#Y#Z#`#v#",
" $.$+$@$#$$$%$&$*$W@=$-$;$>$,$'$)$!$~${$]$^$/$($_$:$<$[$}$|$1$1$",
"2$3$4$5$6$7$8$9$0$a$b$c$d$e$f$g$h$i$j$k$l$m$n$o$p$q$r$s$t$<$}$u$",
"4$v$#$w$x$y$z$'#A$a$B$C$C$D$E$D$F$G$'#H$I$J$K$L$l$M$N$O$P$s$t$Q$",
"R$S$T$U$V$D$W$X$B$a$Y$Z$`$ %.%.%+%@%B$#%$%%%&%*%=%-%;%;%>%,%'%)%",
"!%~%{%]%^%/%(%_%:%<%[%}%|%1%2%3%4%5%6%=%*%=%=%#%5%7%7%7%8%9%0%a%",
"b%c%d%e%f%g%h%i%(%j%k%l%m%n%o%p%<%q%r%(%s%s%6%t%u%u%u%v%w%x%+ w$",
"y%z%A%B%C%D%E%F%G%H%I%J%K%L%M%N%O%P%Q%Q%R%<%S%S%T%U%V%W%X%Y%3+#+",
"Z%`% &.&+&@&#&$&%&&&*&=&-&;&>&,&'&)&!&~&{&]&^&/&(&'&_&:&<&[&}&|&",
"1&2&3&4&5&6&7&8&9&0&a&b&;&c&d&e&f&g&h&i&j&k&l&m&n&o&p&q&r&s&t&u&",
"v&w&x&v&y&z&A&B&C&D&E&F&G&H&I&J&K&L&M&N&O&P&Q&R&S&T&U&U&V&V&W&X&",
"Y&Z&`& *T&T& *.*+* *@* *#*$*%*&***=*-*;*>*,*'*)*!* * * * *-*~*{*",
"]*^*/*(*_*:*<*[*}*|*1*2*3*4*5*6*6*7*8*#*9*0*a*b*c*d*e*d*$*f*g*7*",
"h*i*j*k*l*m*n*o*p*q*r*s*t*u*v*w*x*y*z*z*A*B*C*D*E*F*G*H*I*J*K*L*",
"M*N*O*P*Q*R*S*T*U*V*W*X*Y*Z*`* =.=+=@=#=$=%=&=*===-=;=>=,='=)=!=",
"~={=]=^=/=(=_=:=<=[=}=|=1=2=3=4=5=6=7=8=9=0=a=!=b=b=c=d=e=f=e=g="};
