/* XPM */
static char * smooth_xpm[] = {
"32 32 153 2",
"  	c #00297D",
". 	c #002B80",
"+ 	c #0D71CD",
"@ 	c #0F80D5",
"# 	c #012F87",
"$ 	c #002A7F",
"% 	c #002C84",
"& 	c #002E89",
"* 	c #002D86",
"= 	c #023189",
"- 	c #1863B6",
"; 	c #0E52AD",
"> 	c #0D469B",
", 	c #002B82",
"' 	c #013089",
") 	c #155EB4",
"! 	c #3280C6",
"~ 	c #90C2E2",
"{ 	c #A7CFE7",
"] 	c #BAD8ED",
"^ 	c #F5F8FB",
"/ 	c #78AED4",
"( 	c #5CA4D3",
"_ 	c #073D95",
": 	c #2F7DC2",
"< 	c #86B8DA",
"[ 	c #A7C9E2",
"} 	c #C2D9EA",
"| 	c #DFEAF4",
"1 	c #E2EDF4",
"2 	c #E7F0F6",
"3 	c #F4F7FA",
"4 	c #B2D0E6",
"5 	c #BDD6E9",
"6 	c #A6C9E2",
"7 	c #93BEDE",
"8 	c #67A7D3",
"9 	c #67AAD6",
"0 	c #0849A4",
"a 	c #4990C9",
"b 	c #619ECD",
"c 	c #D9E7F2",
"d 	c #C9DEED",
"e 	c #E8F0F6",
"f 	c #F8FAFC",
"g 	c #FCFDFE",
"h 	c #B6D3E8",
"i 	c #0E479C",
"j 	c #0546A6",
"k 	c #3E8BC8",
"l 	c #95BEDD",
"m 	c #6FA9D2",
"n 	c #F1F5F9",
"o 	c #EAF2F7",
"p 	c #FDFEFE",
"q 	c #D4E4F0",
"r 	c #93BEDC",
"s 	c #0754B4",
"t 	c #3280C4",
"u 	c #C7DCEC",
"v 	c #73AAD3",
"w 	c #D2E3EF",
"x 	c #E3EDF5",
"y 	c #EEF4F8",
"z 	c #ABCBE3",
"A 	c #1259B1",
"B 	c #0B6AC7",
"C 	c #1D6AB9",
"D 	c #A0C6E0",
"E 	c #F9FBFC",
"F 	c #D0E2EF",
"G 	c #02328B",
"H 	c #4F98CD",
"I 	c #2876C0",
"J 	c #4791CB",
"K 	c #86B6D8",
"L 	c #4991CA",
"M 	c #9CC3DF",
"N 	c #002E87",
"O 	c #FAFCFD",
"P 	c #B5D2E7",
"Q 	c #90BCDB",
"R 	c #EBF2F7",
"S 	c #F7FAFC",
"T 	c #BCD5E8",
"U 	c #0747A6",
"V 	c #3584C7",
"W 	c #7BB6DC",
"X 	c #519CD1",
"Y 	c #012E87",
"Z 	c #002A80",
"` 	c #4D95CB",
" .	c #F2F6FA",
"..	c #67A3CF",
"+.	c #8CBADA",
"@.	c #4A8BC3",
"#.	c #5293C7",
"$.	c #6EAED7",
"%.	c #98C1DE",
"&.	c #4586C1",
"*.	c #3F80BE",
"=.	c #2D6CB4",
"-.	c #3273B6",
";.	c #0A4198",
">.	c #3D86C3",
",.	c #0E4699",
"'.	c #4687C2",
").	c #1D59A9",
"!.	c #AECEE4",
"~.	c #9CC6E2",
"{.	c #3C87C7",
"].	c #6FB1DA",
"^.	c #003698",
"/.	c #7DB1D6",
"(.	c #07388E",
"_.	c #C1D8EA",
":.	c #6AA6D0",
"<.	c #03348C",
"[.	c #89B8D9",
"}.	c #053991",
"|.	c #033EA0",
"1.	c #2766B0",
"2.	c #A3C7E1",
"3.	c #2E79C1",
"4.	c #1B56A6",
"5.	c #0B4299",
"6.	c #05368B",
"7.	c #4D8EC4",
"8.	c #2A69B1",
"9.	c #1852A3",
"0.	c #124A9C",
"a.	c #114BA0",
"b.	c #2061AE",
"c.	c #5696C9",
"d.	c #3071B5",
"e.	c #154FA1",
"f.	c #033E9E",
"g.	c #FFFFFF",
"h.	c #000000",
"i.	c #1C1C1C",
"j.	c #E3E3E3",
"k.	c #3F3F3F",
"l.	c #8E8E8E",
"m.	c #717171",
"n.	c #D3D3D3",
"o.	c #2C2C2C",
"p.	c #A9A9A9",
"q.	c #F9F9F9",
"r.	c #565656",
"s.	c #F0F0F0",
"t.	c #C0C0C0",
"u.	c #060606",
"v.	c #0F0F0F",
"                                                                ",
"                                                                ",
"                . + @ #                                         ",
"  $ % % & & * * = - ; > * * ,                                   ",
"# ' ) ) ! ! ~ { ] ^ ^ / / ( _ * * $                             ",
": < [ } | 1 2 2 3 3 3 4 5 6 7 8 9 *                             ",
"0 a b / | 3 3 3 3 c d 4 e 3 f g h i *                           ",
"j k l m / d n ^ o g p o | c q q r ! %                           ",
"s t 4 u v w | | x 2 y 4 c 2 2 1 z A $                           ",
"B C z w l D 2 E E E E F q 2 2 2 z A $                           ",
", G H u u r | E E E E F q 2 2 2 z I ,                           ",
"  * J u 4 K | E E E E F q 2 2 e z A $                           ",
"  * L 5 w r d E E E n u c e e e M A $                           ",
"  N k 6 w K } e O O o 1 P q e e M A % % % * * *                 ",
"  * C r q Q 4 o y R S S R F T 1 M U V ! ! W X X Y * * Z         ",
"  N _ ` M K z  .S S S S S n q z M ..+.b @.#.v K v < $.Y *       ",
"    N _ a l %.2 S S S S S S 2 &.*.=.=.-./ @.K K } } / m Y *     ",
"      & ;.>.r 2 S S S 2 n g ^ ,.b '.-./ M ).+.-.v v d !.~.Y $   ",
"        * {./ d 2 ^ ].X t ^./.(.#.b 4 M +.).T M =.z _.:.4 W *   ",
"        % <.[.].X }.Y & & |.(.  1.../.M /.*.5 | m -.r b D 2.*   ",
"          * <.# & *     N 3.).  4.,.1.*.&./ M z 6 v !.4 6 v *   ",
"            %           # 5.6.  7.8.9.0.4.K [ 4 4 !.K +.n 7.a.# ",
"                        * b.6.4.c.d.-.-.e.@./.6 _.2.-.%.n _.2.f.",
"g.g.g.g.g.g.g.g.g.g.g.g.g.g.g.g.g.g.g.g.g.g.g.g.g.g.g.g.g.g.g.g.",
"g.g.g.g.g.g.g.g.g.g.g.g.g.g.g.g.g.g.g.g.g.g.g.g.g.g.h.g.g.g.g.g.",
"g.g.g.g.g.g.g.g.g.g.g.g.g.g.g.g.g.g.g.g.g.g.g.i.g.g.h.g.g.g.g.g.",
"g.g.j.k.l.g.m.m.k.n.o.p.g.q.r.k.n.g.j.k.r.s.p.h.o.g.h.l.o.j.g.g.",
"g.g.k.l.n.g.h.p.o.o.t.u.g.k.l.t.u.q.u.t.l.o.s.h.n.g.h.p.m.k.g.g.",
"g.g.p.v.p.g.h.g.l.l.g.h.g.h.g.g.o.n.o.g.g.h.g.h.g.g.h.g.n.o.g.g.",
"g.g.q.q.h.g.h.g.l.l.g.h.g.i.n.q.u.q.u.q.n.i.g.h.g.g.h.g.n.o.g.g.",
"g.g.r.h.l.g.h.g.l.l.g.h.g.n.v.u.p.g.l.u.v.j.g.k.h.g.h.g.n.o.g.g.",
"g.g.g.g.g.g.g.g.g.g.g.g.g.g.g.g.g.g.g.g.g.g.g.g.g.g.g.g.g.g.g.g."};
