/* XPM */
static char * space_LT_xpm[] = {
"32 32 633 2",
"  	c #A08906",
". 	c #5D5942",
"+ 	c #8D8E9A",
"@ 	c #C3C3C4",
"# 	c #C5C5C5",
"$ 	c #C1C1C1",
"% 	c #C0C0C2",
"& 	c #7A7B7D",
"* 	c #564B13",
"= 	c #A98E00",
"- 	c #645509",
"; 	c #626262",
"> 	c #ADAEB3",
", 	c #BEBDBE",
"' 	c #B8B8B8",
") 	c #BABABA",
"! 	c #BDBDBD",
"~ 	c #BFBFBF",
"{ 	c #C2C2C2",
"] 	c #C8A900",
"^ 	c #99840D",
"/ 	c #5F5D50",
"( 	c #9496A1",
"_ 	c #C6C6C6",
": 	c #C6C6C5",
"< 	c #C3C3C3",
"[ 	c #B3B4B5",
"} 	c #676664",
"| 	c #4D420E",
"1 	c #9E8600",
"2 	c #635713",
"3 	c #5F5F62",
"4 	c #A2A3A8",
"5 	c #B1B1B1",
"6 	c #B0AFAF",
"7 	c #AFAFAF",
"8 	c #B5B5B5",
"9 	c #403708",
"0 	c #B19500",
"a 	c #9B8408",
"b 	c #545244",
"c 	c #81838F",
"d 	c #C7C6C6",
"e 	c #BCBCBC",
"f 	c #B7B7B6",
"g 	c #B7B7B7",
"h 	c #A2A3A9",
"i 	c #57585E",
"j 	c #4E430D",
"k 	c #A48900",
"l 	c #5B4F0C",
"m 	c #575758",
"n 	c #909195",
"o 	c #95969A",
"p 	c #9F9FA0",
"q 	c #A2A2A2",
"r 	c #A5A5A5",
"s 	c #ABABAB",
"t 	c #B3B3B3",
"u 	c #B9B9B9",
"v 	c #555862",
"w 	c #3A3313",
"x 	c #9F8703",
"y 	c #272419",
"z 	c #71737F",
"A 	c #BBBBBC",
"B 	c #A8A8A8",
"C 	c #A1A1A1",
"D 	c #A1A1A0",
"E 	c #8E8E94",
"F 	c #4A4B50",
"G 	c #594C0B",
"H 	c #A38800",
"I 	c #36373D",
"J 	c #464645",
"K 	c #6B6C6E",
"L 	c #929293",
"M 	c #979797",
"N 	c #9C9C9C",
"O 	c #A4A4A4",
"P 	c #ACACAC",
"Q 	c #C0C0C0",
"R 	c #B9BABD",
"S 	c #626470",
"T 	c #342E10",
"U 	c #AE9200",
"V 	c #9E8500",
"W 	c #262316",
"X 	c #6C6F7A",
"Y 	c #A8A8AA",
"Z 	c #9F9F9E",
"` 	c #929292",
" .	c #8B8B8B",
"..	c #8B8A8A",
"+.	c #7B7B80",
"@.	c #484747",
"#.	c #53480C",
"$.	c #675700",
"%.	c #322B03",
"&.	c #705D03",
"*.	c #282517",
"=.	c #686A70",
"-.	c #8E8F8F",
";.	c #8E8E8E",
">.	c #959595",
",.	c #9E9E9E",
"'.	c #B2B2B2",
").	c #BBBBBB",
"!.	c #C9C9C9",
"~.	c #BFBFC1",
"{.	c #636672",
"].	c #2C2712",
"^.	c #AB8F00",
"/.	c #A48B01",
"(.	c #45422F",
"_.	c #5C5E6B",
":.	c #8D8E8E",
"<.	c #898888",
"[.	c #7E7D7D",
"}.	c #7A7A79",
"|.	c #7C7D7D",
"1.	c #6F7175",
"2.	c #33343B",
"3.	c #2F2805",
"4.	c #B19900",
"5.	c #EDD001",
"6.	c #776500",
"7.	c #323333",
"8.	c #717277",
"9.	c #868584",
"0.	c #878787",
"a.	c #909090",
"b.	c #9B9B9B",
"c.	c #A6A6A6",
"d.	c #626371",
"e.	c #2F2A10",
"f.	c #B49900",
"g.	c #A78F03",
"h.	c #242110",
"i.	c #464854",
"j.	c #7C7C7D",
"k.	c #797A7B",
"l.	c #707478",
"m.	c #6F777D",
"n.	c #687381",
"o.	c #3C444F",
"p.	c #594A04",
"q.	c #E8C900",
"r.	c #FFF504",
"s.	c #E5CC02",
"t.	c #4B3F07",
"u.	c #343740",
"v.	c #747477",
"w.	c #7F7F7E",
"x.	c #848484",
"y.	c #999999",
"z.	c #A7A7A7",
"A.	c #C3C3C2",
"B.	c #B0B0B1",
"C.	c #545660",
"D.	c #2E290D",
"E.	c #AD9200",
"F.	c #A38A00",
"G.	c #221E0D",
"H.	c #3B3F4D",
"I.	c #6B737D",
"J.	c #697785",
"K.	c #607386",
"L.	c #5E7791",
"M.	c #4A637D",
"N.	c #1D1F1E",
"O.	c #6C5A03",
"P.	c #DBBF00",
"Q.	c #FFEB04",
"R.	c #C8AD00",
"S.	c #26210C",
"T.	c #444A58",
"U.	c #77797C",
"V.	c #7D7D7C",
"W.	c #838383",
"X.	c #ADADAD",
"Y.	c #98989A",
"Z.	c #474955",
"`.	c #25210C",
" +	c #A78D00",
".+	c #A58B00",
"++	c #231F0C",
"@+	c #2D3B52",
"#+	c #57738F",
"$+	c #527698",
"%+	c #4A7298",
"&+	c #47749E",
"*+	c #36618E",
"=+	c #1C3349",
"-+	c #37300B",
";+	c #F9D701",
">+	c #A18800",
",+	c #2B2E29",
"'+	c #5D6676",
")+	c #787B7C",
"!+	c #7B7B7A",
"~+	c #BDBDC0",
"{+	c #BEBEBE",
"]+	c #AEAEAE",
"^+	c #9F9F9F",
"/+	c #838485",
"(+	c #3F414E",
"_+	c #AB9100",
":+	c #B59800",
"<+	c #27240F",
"[+	c #213C62",
"}+	c #4071A1",
"|+	c #3C74A8",
"1+	c #3771A7",
"2+	c #3976AF",
"3+	c #306AA4",
"4+	c #173B66",
"5+	c #141618",
"6+	c #7D6802",
"7+	c #E3BF00",
"8+	c #7A6908",
"9+	c #3D454B",
"0+	c #67717E",
"a+	c #78797A",
"b+	c #888888",
"c+	c #969696",
"d+	c #6D6E70",
"e+	c #ABABAD",
"f+	c #989897",
"g+	c #888989",
"h+	c #828281",
"i+	c #757779",
"j+	c #363E4F",
"k+	c #29240C",
"l+	c #B79800",
"m+	c #AC9000",
"n+	c #211F11",
"o+	c #123A6B",
"p+	c #2C6EAD",
"q+	c #2B72B4",
"r+	c #276EB1",
"s+	c #2A72B4",
"t+	c #2B70B2",
"u+	c #1F5796",
"v+	c #142C42",
"w+	c #50450B",
"x+	c #997D00",
"y+	c #42380D",
"z+	c #454E57",
"A+	c #6D737A",
"B+	c #797879",
"C+	c #818181",
"D+	c #9D9D9D",
"E+	c #564C0F",
"F+	c #61615D",
"G+	c #96979F",
"H+	c #989898",
"I+	c #848483",
"J+	c #787878",
"K+	c #74787C",
"L+	c #637384",
"M+	c #273955",
"N+	c #221F0F",
"O+	c #A88C00",
"P+	c #272311",
"Q+	c #083368",
"R+	c #1E6BB4",
"S+	c #2170BC",
"T+	c #1F6CB5",
"U+	c #2270B8",
"V+	c #2874BC",
"W+	c #2466AA",
"X+	c #1A4069",
"Y+	c #292919",
"Z+	c #3C3107",
"`+	c #27281D",
" @	c #5A646E",
".@	c #76787C",
"+@	c #7D7C7B",
"@@	c #B6B6B6",
"#@	c #B59900",
"$@	c #63550B",
"%@	c #50514F",
"&@	c #82838A",
"*@	c #858484",
"=@	c #757576",
"-@	c #6B737C",
";@	c #60778C",
">@	c #4D7296",
",@	c #1B3C68",
"'@	c #1F1D13",
")@	c #A88B00",
"!@	c #BC9900",
"~@	c #2E290F",
"{@	c #053369",
"]@	c #1C6BB6",
"^@	c #2071BD",
"/@	c #1E6CB5",
"(@	c #1F6CB6",
"_@	c #2672B9",
":@	c #2A6EAF",
"<@	c #285A8E",
"[@	c #34526C",
"}@	c #465F74",
"|@	c #607181",
"1@	c #6F7579",
"2@	c #787877",
"3@	c #5B4E06",
"4@	c #B89B00",
"5@	c #786709",
"6@	c #474745",
"7@	c #727279",
"8@	c #777A7C",
"9@	c #677380",
"0@	c #58738D",
"a@	c #4A769E",
"b@	c #3871A8",
"c@	c #103E73",
"d@	c #1C1C18",
"e@	c #A08703",
"f@	c #BD9C00",
"g@	c #2E280F",
"h@	c #05346B",
"i@	c #1C6AB5",
"j@	c #2071BC",
"k@	c #266FB5",
"l@	c #3272B1",
"m@	c #3C70A4",
"n@	c #4F759A",
"o@	c #5F7489",
"p@	c #6B737B",
"q@	c #757676",
"r@	c #80807F",
"s@	c #4D4E51",
"t@	c #564B0F",
"u@	c #B89A00",
"v@	c #6C5D08",
"w@	c #414141",
"x@	c #656B77",
"y@	c #687989",
"z@	c #557695",
"A@	c #4575A3",
"B@	c #3574AE",
"C@	c #276EB2",
"D@	c #094588",
"E@	c #1E343D",
"F@	c #A68E06",
"G@	c #B89800",
"H@	c #2C250F",
"I@	c #053166",
"J@	c #1D6AB5",
"K@	c #1E6CB6",
"L@	c #216DB5",
"M@	c #2C70B0",
"N@	c #3A71A5",
"O@	c #487298",
"P@	c #5A738B",
"Q@	c #69747E",
"R@	c #737576",
"S@	c #A6A7AB",
"T@	c #4D4F56",
"U@	c #4C400A",
"V@	c #B19400",
"W@	c #6F5F08",
"X@	c #434642",
"Y@	c #566779",
"Z@	c #405B78",
"`@	c #38648E",
" #	c #3171AA",
".#	c #2671B7",
"+#	c #1E6FBA",
"@#	c #09478C",
"##	c #203339",
"$#	c #A98C00",
"%#	c #BE9B00",
"&#	c #302A0E",
"*#	c #053267",
"=#	c #1B6AB5",
"-#	c #2173C0",
";#	c #2070BB",
">#	c #286FB2",
",#	c #3772A9",
"'#	c #46729A",
")#	c #57728C",
"!#	c #667380",
"~#	c #727476",
"{#	c #7D7C7C",
"]#	c #8A8A8A",
"^#	c #9A9A9A",
"/#	c #B8B8B7",
"(#	c #8B8B8F",
"_#	c #333439",
":#	c #2D2605",
"<#	c #766400",
"[#	c #5C5008",
"}#	c #1C2022",
"|#	c #1C190D",
"1#	c #090F18",
"2#	c #1D4469",
"3#	c #1D5385",
"4#	c #1B609F",
"5#	c #1C65AA",
"6#	c #073364",
"7#	c #111110",
"8#	c #5D4E02",
"9#	c #7F6800",
"0#	c #08325F",
"a#	c #16528C",
"b#	c #0D3761",
"c#	c #102F4F",
"d#	c #275177",
"e#	c #426A91",
"f#	c #536D85",
"g#	c #535D68",
"h#	c #4A4C4D",
"i#	c #4D4D4D",
"j#	c #696969",
"k#	c #8F8F8F",
"l#	c #444444",
"m#	c #000000",
"n#	c #040300",
"o#	c #040400",
"p#	c #092036",
"q#	c #0E3355",
"r#	c #040E18",
"s#	c #312800",
"t#	c #181608",
"u#	c #00050B",
"v#	c #020305",
"w#	c #22384D",
"x#	c #384757",
"y#	c #16181A",
"z#	c #0B0B0B",
"A#	c #5B5B5B",
"B#	c #5D5D5D",
"C#	c #000407",
"D#	c #005593",
"E#	c #0084E4",
"F#	c #0071C3",
"G#	c #001524",
"H#	c #001321",
"I#	c #0069B5",
"J#	c #003E6A",
"K#	c #006BB8",
"L#	c #005D9F",
"M#	c #000102",
"N#	c #00365C",
"O#	c #007BD4",
"P#	c #0081DF",
"Q#	c #0066B0",
"R#	c #00111D",
"S#	c #001C30",
"T#	c #0070C2",
"U#	c #0081DE",
"V#	c #00487C",
"W#	c #001B2F",
"X#	c #004475",
"Y#	c #767676",
"Z#	c #212121",
"`#	c #003256",
" $	c #0090F8",
".$	c #008EF5",
"+$	c #00599A",
"@$	c #001E34",
"#$	c #008DF3",
"$$	c #0087E8",
"%$	c #008FF7",
"&$	c #002540",
"*$	c #000A12",
"=$	c #0085E5",
"-$	c #004A7F",
";$	c #006DBC",
">$	c #002946",
",$	c #008EF4",
"'$	c #00223A",
")$	c #363636",
"!$	c #00192C",
"~$	c #005491",
"{$	c #004C82",
"]$	c #008AED",
"^$	c #0077CD",
"/$	c #00477A",
"($	c #001C31",
"_$	c #005DA0",
":$	c #002037",
"<$	c #0065AD",
"[$	c #007BD3",
"}$	c #00518C",
"|$	c #001727",
"1$	c #0063AA",
"2$	c #003B66",
"3$	c #004D85",
"4$	c #00528E",
"5$	c #001F35",
"6$	c #005EA2",
"7$	c #005FA4",
"8$	c #000B13",
"9$	c #003358",
"0$	c #006AB7",
"a$	c #003861",
"b$	c #004374",
"c$	c #004B80",
"d$	c #002138",
"e$	c #003459",
"f$	c #003860",
"g$	c #000306",
"h$	c #008DF2",
"i$	c #808080",
"j$	c #323232",
"k$	c #002C4C",
"l$	c #004271",
"m$	c #004E87",
"n$	c #006AB6",
"o$	c #00355B",
"p$	c #007ED9",
"q$	c #0067B2",
"r$	c #004373",
"s$	c #00406F",
"t$	c #0089EB",
"u$	c #006FBF",
"v$	c #7E7E7E",
"w$	c #565656",
"x$	c #003D69",
"y$	c #0080DC",
"z$	c #007AD2",
"A$	c #002844",
"B$	c #00518B",
"C$	c #0065AE",
"D$	c #002036",
"E$	c #008FF6",
"F$	c #007EDA",
"G$	c #004272",
"H$	c #003E6B",
"I$	c #0078CE",
"J$	c #0068B3",
"K$	c #005089",
"L$	c #919191",
"M$	c #272727",
"N$	c #002B4B",
"O$	c #00080F",
"P$	c #008BF0",
"Q$	c #003154",
"R$	c #002845",
"S$	c #005694",
"T$	c #003A63",
"U$	c #0084E3",
"V$	c #006CBA",
"W$	c #00365D",
"X$	c #00497D",
"Y$	c #00060A",
"Z$	c #00528D",
"`$	c #003053",
" %	c #003C67",
".%	c #008CF1",
"+%	c #004170",
"@%	c #00355A",
"#%	c #005A9B",
"$%	c #006BB9",
"%%	c #001B2E",
"&%	c #0086E7",
"*%	c #0072C3",
"=%	c #004D84",
"-%	c #000F1A",
";%	c #1C1C1C",
">%	c #003155",
",%	c #008BEF",
"'%	c #001D32",
")%	c #001A2D",
"!%	c #0082E1",
"~%	c #000204",
"{%	c #0089EC",
"]%	c #0061A7",
"^%	c #686868",
"/%	c #000101",
"(%	c #003B65",
"_%	c #00070C",
":%	c #004B81",
"<%	c #003F6D",
"[%	c #002D4D",
"}%	c #004578",
"|%	c #000C14",
"1%	c #050506",
"2%	c #00101C",
"3%	c #0060A5",
"4%	c #002A49",
"5%	c #050505",
"6%	c #828387",
"7%	c #A9A9A9",
"8%	c #656565",
"9%	c #191919",
"0%	c #131313",
"a%	c #4F4F4F",
"b%	c #4B4B4B",
"c%	c #171717",
"d%	c #010101",
"e%	c #2B2B2B",
"f%	c #282828",
"g%	c #6E6F6E",
"h%	c #818283",
"i%	c #39393D",
"j%	c #251E00",
"k%	c #39320D",
"l%	c #BEBEC0",
"m%	c #2A2A2A",
"n%	c #666666",
"o%	c #7C7C7C",
"p%	c #727272",
"q%	c #7B7B7B",
"r%	c #7D7D7D",
"s%	c #7F7F7F",
"t%	c #8C8C8C",
"u%	c #8D8D8D",
"v%	c #BEBDBD",
"w%	c #B5B5B4",
"x%	c #8A8B8E",
"y%	c #525256",
"z%	c #2B2717",
"A%	c #2D2400",
"B%	c #24221A",
"C%	c #9E9F9F",
"D%	c #4C4C4C",
"E%	c #151515",
"F%	c #AAAAAA",
"G%	c #C9C9C8",
"H%	c #C7C7CA",
"I%	c #999B9F",
"J%	c #262624",
"K%	c #252524",
"L%	c #A4A4A3",
"M%	c #0E0E0E",
"N%	c #C7C7C7",
"O%	c #C6C7C7",
"P%	c #A6A6A8",
"  . + @ # $ $ # % & * = - ; > , ' ' ) ! ~ $ $ $ $ $ $ $ $ $ $ { ",
"] ^ / ( _ : $ $ < [ } | 1 2 3 4 5 6 7 5 8 ) ! $ { $ $ $ $ $ $ $ ",
"9 0 a b c @ d e f g h i j k l m n o p q r s t u ~ { $ $ $ $ $ $ ",
"v w 0 x y z A f B C D E F G H j I J K L M N O P 8 e Q $ $ $ $ $ ",
"R S T U V W X Y Z `  ...+.@.#.$.%.&.*.=.-.;.>.,.B '.).Q $ $ $ $ ",
"!.~.{.].^./.(._.:.<.[.}.|.1.2.3.4.5.6.7.8.9.0.a.b.c.5 ) $ $ $ $ ",
"{ !.~.d.e.f.g.h.i.j.k.l.m.n.o.p.q.r.s.t.u.v.w.x.;.y.z.'.! { $ $ ",
"$ { A.B.C.D.E.F.G.H.I.J.K.L.M.N.O.P.Q.R.S.T.U.V.W.;.b.B 8 ~ { $ ",
"# Q 8 X.Y.Z.`. +.+++@+#+$+%+&+*+=+-+0 ;+>+,+'+)+!+x.a.,.P ) { { ",
"~+{+]+^+>./+(+++_+:+<+[+}+|+1+2+3+4+5+6+7+8+9+0+a+V.b+c+O t ~ { ",
"d+e+6 f+g+h+i+j+k+l+m+n+o+p+q+r+s+t+u+v+w+x+y+z+A+B+C+;.D+X.).$ ",
"E+F+G+H+I+J+K+L+M+N+O+m+P+Q+R+S+T+U+V+W+X+Y+Z+`+ @.@+@b+M B @@~ ",
"#@$@%@&@*@=@-@;@>@,@'@)@!@~@{@]@^@/@(@_@:@<@[@}@|@1@2@W.` q '.! ",
"3@4@5@6@7@8@9@0@a@b@c@d@e@f@g@h@i@j@/@/@k@l@m@n@o@p@q@r@;.,.7 e ",
"s@t@u@v@w@x@y@z@A@B@C@D@E@F@G@H@I@J@^@K@L@M@N@O@P@Q@R@[. .N X.) ",
"S@T@U@V@W@X@Y@Z@`@ #.#+#@###$#%#&#*#=#-#;#>#,#'#)#!#~#{#]#^#P u ",
"/#(#_#:#<#[#}#|#1#2#3#4#5#6#7#8#9#k+0#a#b#c#d#e#f#g#h#i#j#k#s u ",
"M l#m#m#m#n#o#m#m#m#m#p#q#r#m#m#m#s#t#u#m#m#v#w#x#y#m#m#z#A#^+) ",
"B#C#D#E#F#G#H#I#J#K#L#M#m#N#O#P#Q#R#m#S#T#U#V#m#m#W#T#P#X#m#Y#g ",
"Z#`# $.$ $+$@$#$$$%$ $&$*$=$ $ $ $-$m#;$ $ $ $>$m#;$ $ $,$'$)$c.",
"m#D# $!$~${$'$.$]$^$ $/$($ $_$:$]$<$@$ $[$~$ $}$|$ $1$2$ $3$m#k#",
"m#4$ $+$>$m#5$ $6$!$ $7$m#8$R#9$#$0$a$ $b$m#c$d$e$ $f$g$h$Q#m#i$",
"j$k$ $ $ $l$W# $m$M##$n$m#o$p$ $ $q$r$ $`#m#m#m#s$ $t$=$ $u$m#v$",
"w$m#x$y$ $z$A$ $B$g$,$C$D$E$P#x$F$K#G$ $9$m#*$m#H$ $I$J$q$K$m#L$",
"M$5$N$O$1$P$Q$ $I#R$ $S$T$ $N#m#U$V$W$ $X$Y$y$Z$`$ $ %m#W#O$Z#C ",
"m#V$ $s$n$U#R$.% $]$ $+%@% $S$#% $$%%%P$&%*% $=%-%.$F#B$ $X$Z#C ",
";%>% $ $ $}$($.$,%%$,$'%)%#$ $E#!%I$~%6$ $ ${%S#m#]% $ $]$($l#X.",
"^%/%(%1$m$_%@$ $#%:%H$m#m#<%6$S#[%}%M#|%m$]%[%m#1%2%4$3%4%5%6%A.",
"7%8%9%m#m#m#:$ $Z$m#0%a%b%c%d%0%c%c%e%f%5%m#M$g%h%i%d%m#j%k%}.l%",
"$ g D+]#C+m%:$ $4$m#n%H+` o%p%q%r%s%t%u%r%o%>.5 v%w%x%y%z%A%B%C%",
"$ $ $ $ '.D%@$.$3$E%;.5 X.s 7%z.B F%P 7 t ' ! $ $ { G%H%I%J%K%L%",
"{ $ $ $ e x.M%m#m#^%P ! ).' @@@@@@g ) e {+Q $ $ $ $ Q N%O%P%z.{+"};
