/* XPM */
static char * unlock_xpm[] = {
"32 32 125 2",
"  	c #00297D",
". 	c #022463",
"+ 	c #454545",
"@ 	c #878787",
"# 	c #C3C3C3",
"$ 	c #E2E2E2",
"% 	c #EEEEEE",
"& 	c #939393",
"* 	c #4D4D4D",
"= 	c #002774",
"- 	c #1D3F69",
"; 	c #BDBDBD",
"> 	c #EFEFEF",
", 	c #C1C1C1",
"' 	c #214167",
") 	c #01256A",
"! 	c #022769",
"~ 	c #617990",
"{ 	c #D8D8D8",
"] 	c #909090",
"^ 	c #252525",
"/ 	c #1D1D1D",
"( 	c #868686",
"_ 	c #D3D3D3",
": 	c #04255E",
"< 	c #8695A1",
"[ 	c #EDEDED",
"} 	c #CDCDCD",
"| 	c #787878",
"1 	c #2C2C2C",
"2 	c #011D4E",
"3 	c #012467",
"4 	c #012469",
"5 	c #02266A",
"6 	c #323232",
"7 	c #676767",
"8 	c #C7C7C7",
"9 	c #ECECEC",
"0 	c #EAEAEA",
"a 	c #DBDBDB",
"b 	c #1F1F1F",
"c 	c #050505",
"d 	c #012876",
"e 	c #002878",
"f 	c #1B1B1B",
"g 	c #171717",
"h 	c #A4A4A4",
"i 	c #E9E9E9",
"j 	c #D6D6D6",
"k 	c #020202",
"l 	c #E6E6E6",
"m 	c #01215E",
"n 	c #03235C",
"o 	c #919BA4",
"p 	c #01266E",
"q 	c #C9C9C9",
"r 	c #CECECE",
"s 	c #062555",
"t 	c #193963",
"u 	c #294564",
"v 	c #012569",
"w 	c #021C47",
"x 	c #E8E8E8",
"y 	c #D0D0D0",
"z 	c #667D93",
"A 	c #747474",
"B 	c #042358",
"C 	c #001C51",
"D 	c #011D55",
"E 	c #092755",
"F 	c #012466",
"G 	c #202020",
"H 	c #3E3E3E",
"I 	c #DADADA",
"J 	c #313131",
"K 	c #5B5B5B",
"L 	c #FFFFFF",
"M 	c #414141",
"N 	c #FEFEFE",
"O 	c #2A2A2A",
"P 	c #E7E7E7",
"Q 	c #090909",
"R 	c #0B0B0B",
"S 	c #494949",
"T 	c #0A0A0A",
"U 	c #585858",
"V 	c #A7A7A7",
"W 	c #9C9C9C",
"X 	c #F6F6F6",
"Y 	c #DDDDDD",
"Z 	c #040404",
"` 	c #292929",
" .	c #4F4F4F",
"..	c #0E0E0E",
"+.	c #030303",
"@.	c #515151",
"#.	c #CACACA",
"$.	c #042663",
"%.	c #02276C",
"&.	c #5F7890",
"*.	c #242424",
"=.	c #101010",
"-.	c #697F95",
";.	c #143766",
">.	c #1F3E66",
",.	c #B5B9BC",
"'.	c #153B6C",
").	c #012364",
"!.	c #161616",
"~.	c #647B91",
"{.	c #153866",
"].	c #012878",
"^.	c #E3E3E3",
"/.	c #717171",
"(.	c #8E8E8E",
"_.	c #565656",
":.	c #3F3F3F",
"<.	c #F9F9F9",
"[.	c #F0F0F0",
"}.	c #000000",
"|.	c #060606",
"1.	c #A9A9A9",
"2.	c #C0C0C0",
"3.	c #1C1C1C",
"4.	c #0F0F0F",
"                      . + @ # $ % $ # & * .                     ",
"                  = - ; > > > > > > > > > , ' )                 ",
"                ! ~ % > { ] + ^ / ^ + ( _ > % ~ :               ",
"              ! < % [ } | 1 2 3 4 5 / 6 7 8 9 > < :             ",
"            = ~ > 0 [ a b c d     e ) , f g h i > ~ )           ",
"            - % [ 8 9 [ j k d       ) 9 l m n o [ % '           ",
"          p , > q 1 l [ [ r 4 d     ) 9 0 )   s q > , .         ",
"          t > j u v w x [ [ y 4 d   ) 9 0 )   v u j > t         ",
"        = z > A B   C 1 x [ [ r C D ) 9 0 )     B A > z )       ",
"        = q > E F   ) G H x [ [ I J K L 9 )     F E > q )       ",
"        = $ > .     ) L J M x [ [ I J K N )       . > $ )       ",
"        = % > )     ) L L J O P [ [ I J K )       ) > % )       ",
"        = $ > .     ) L L L Q R l [ [ I J D       . > $ )       ",
"        = q > E F   ) L L L S c R P [ [ I C d   F E > q )       ",
"        = z > A B   ) L L L $ T k O x [ [ r 4 d B A > z )       ",
"          t > j u 3 4 L L L L T T J M x [ [ y R U j > t         ",
"          p , > q / c L L L L T T L J M x [ [ { q > , .         ",
"            - % [ V T V L L L L L L L J J l [ [ [ % '           ",
"            = ~ > i W f ^ X L L L L L Y Z ` 0 % % ~ )           ",
"              ! < > 9 8  ...+.Q Q Q +...@.#.9 % l $.            ",
"                %.&.% > j A *.=.Q =.*.A j > % -.;.              ",
"                  e >.; > > > > > > > > % ,.'.                  ",
"                    ).!.M & q $ % $ q ~.{.].                    ",
"L L L L L L L L L L L L L L L L L L L L L L L L L L L L L L L L ",
"L L L L L L L L L L L L L _ 1 L L L L L L L L L _ 1 L L L L L L ",
"L L L L L L L L L L L L L _ 1 L L L L L L L L L _ 1 L L L L L L ",
"L L L L 1 L ^./.^.(._.:.<._ 1 L ^.:._.[.L ^.:._._ 1 [.:.<.L L L ",
"L L L L }.L _ 1 _ |._ 1 1._ 1 L |.2.(.1 L |.2.^._ 1 1 2.L L L L ",
"L L L L }.L _ 1 _ 1 L (.(._ 1 _ 1 L L }._ 1 L L _ |.|.<.L L L L ",
"L L L L }.[.1.1 _ 1 L (.(._ 1 <.|.<._ 3.[.|.<.L _ 3././.L L L L ",
"L L L L /.}./.1 _ 1 L (.(._ 1 L (.|.4.^.L (.}.3._ 1 <.|._ L L L ",
"L L L L L L L L L L L L L L L L L L L L L L L L L L L L L L L L "};
