/* XPM */
static char * UVcopy_xpm[] = {
"32 32 176 2",
"  	c #FFFFFF",
". 	c #9D9D9D",
"+ 	c #797979",
"@ 	c #D6D6D6",
"# 	c #CBCBCB",
"$ 	c #ABABAB",
"% 	c #D0D0D0",
"& 	c #777777",
"* 	c #9A9A9A",
"= 	c #FAFAFA",
"- 	c #8B8B8B",
"; 	c #7A7A7A",
"> 	c #7C7C7C",
", 	c #E9E9E9",
"' 	c #353535",
") 	c #000000",
"! 	c #AAAAAA",
"~ 	c #959595",
"{ 	c #4A4A4A",
"] 	c #DBDBDB",
"^ 	c #090909",
"/ 	c #E7E7E7",
"( 	c #CACACA",
"_ 	c #1F1F1F",
": 	c #F4F4F4",
"< 	c #414141",
"[ 	c #AFAFAF",
"} 	c #9B9B9B",
"| 	c #4E4E4E",
"1 	c #A5A5A5",
"2 	c #848484",
"3 	c #838383",
"4 	c #A4A4A4",
"5 	c #5C5C5C",
"6 	c #3D3D3D",
"7 	c #080808",
"8 	c #D9D9D9",
"9 	c #EFEFEF",
"0 	c #1A1A1A",
"a 	c #1D1D1D",
"b 	c #F8F8F8",
"c 	c #E1E1E1",
"d 	c #0B0B0B",
"e 	c #424242",
"f 	c #676767",
"g 	c #C9C9C9",
"h 	c #404040",
"i 	c #B3B3B3",
"j 	c #9E9E9E",
"k 	c #4D4D4D",
"l 	c #BFBFBF",
"m 	c #010101",
"n 	c #787878",
"o 	c #5D5D5D",
"p 	c #131313",
"q 	c #E8E8E8",
"r 	c #575757",
"s 	c #949494",
"t 	c #858585",
"u 	c #606060",
"v 	c #2F2F2F",
"w 	c #1B1B1B",
"x 	c #161616",
"y 	c #5A5A5A",
"z 	c #A2A2A2",
"A 	c #191919",
"B 	c #909090",
"C 	c #8D8D8D",
"D 	c #141414",
"E 	c #ACACAC",
"F 	c #808080",
"G 	c #B0B0B0",
"H 	c #F9F9F9",
"I 	c #5F5F5F",
"J 	c #FDFDFD",
"K 	c #D4D4D4",
"L 	c #F3F3F3",
"M 	c #525252",
"N 	c #333333",
"O 	c #323232",
"P 	c #4B4B4B",
"Q 	c #FBFBFB",
"R 	c #969696",
"S 	c #EDEDED",
"T 	c #E5E5E5",
"U 	c #F7F7F7",
"V 	c #ECECEC",
"W 	c #F0F0F0",
"X 	c #656565",
"Y 	c #171717",
"Z 	c #060606",
"` 	c #2A2A2A",
" .	c #919191",
"..	c #616161",
"+.	c #0A0A0A",
"@.	c #444444",
"#.	c #1E1E1E",
"$.	c #A9A9A9",
"%.	c #828282",
"&.	c #4C4C4C",
"*.	c #7D7D7D",
"=.	c #C2C2C2",
"-.	c #FEFEFE",
";.	c #595959",
">.	c #A3A3A3",
",.	c #454545",
"'.	c #181818",
").	c #040404",
"!.	c #0F0F0F",
"~.	c #0E0E0E",
"{.	c #8F8F8F",
"].	c #F6F6F6",
"^.	c #D2D2D2",
"/.	c #020202",
"(.	c #F5F5F5",
"_.	c #6D6D6D",
":.	c #474747",
"<.	c #C7C7C7",
"[.	c #030303",
"}.	c #B8B8B8",
"|.	c #E3E3E3",
"1.	c #939393",
"2.	c #9F9F9F",
"3.	c #DCDCDC",
"4.	c #A6A6A6",
"5.	c #EEEEEE",
"6.	c #CDCDCD",
"7.	c #A0A0A0",
"8.	c #3F3F3F",
"9.	c #B9B9B9",
"0.	c #070707",
"a.	c #DFDFDF",
"b.	c #C8C8C8",
"c.	c #DEDEDE",
"d.	c #313131",
"e.	c #686868",
"f.	c #888888",
"g.	c #929292",
"h.	c #494949",
"i.	c #696969",
"j.	c #050505",
"k.	c #767676",
"l.	c #383838",
"m.	c #282828",
"n.	c #D8D8D8",
"o.	c #666666",
"p.	c #878787",
"q.	c #ADADAD",
"r.	c #FCFCFC",
"s.	c #111111",
"t.	c #505050",
"u.	c #252525",
"v.	c #F1F1F1",
"w.	c #C1C1C1",
"x.	c #0D0D0D",
"y.	c #7B7B7B",
"z.	c #747474",
"A.	c #343434",
"B.	c #979797",
"C.	c #707070",
"D.	c #222222",
"E.	c #565656",
"F.	c #DADADA",
"G.	c #BCBCBC",
"H.	c #626262",
"I.	c #B1B1B1",
"J.	c #C3C3C3",
"K.	c #F2F2F2",
"L.	c #E0E0E0",
"M.	c #232323",
"N.	c #D5D5D5",
"O.	c #DDDDDD",
"P.	c #7F7F7F",
"Q.	c #EBEBEB",
"R.	c #393939",
"S.	c #757575",
"                                                                ",
"                                                                ",
"                                                                ",
"  . + + @     # + + $ % & + *       = - ; > ,                   ",
"  ' ) ) !     ~ ) ) { ] ) ) ^ /     ( ) ) _ :                   ",
"  < ) ) [     } ) ) |   { ) ) 1     2 ) ) 3                     ",
"  < ) ) [     } ) ) |   4 ) ) 5     6 ) 7 8                     ",
"  < ) ) [     } ) ) |   9 0 ) a b c d ) e                       ",
"  < ) ) [     } ) ) |     f ) ) g 4 ) ) }                       ",
"  h ) ) i     j ) ) k     l m ) n o ) p q                       ",
"  r ) ) s     t ) ) u     = v ) w x ) y                         ",
"  z ) ) A B C D ) ) E       F ) ) ) ) G                         ",
"  H | ) ) ) ) ) ) I J       K ) ) ) w L                         ",
"    b s M N O P * Q           R + n E                           ",
"                                                                ",
"                                                                ",
"                                                                ",
"      S T U           V /               S W                     ",
"  9 X Y Z `  .    , ..p +.@.(   % | f 2 D #.$.  %.&.*.  U ..P =.",
"-.;.) ) _ ) ) >.  ,.) 7 p ) '.V l ) ) ).!.) ~.V {.) !.].^.) ) 8 ",
"8 /.) C (._.:.>.<.) [.}.|.0 ) 1.# ) ) 2.3.!.) 4.5.d ) 6.7.) 8.  ",
"9.) 0.a.         .) a (.  &.) f b.) Z c.  d.) n   | ) - e.) f.  ",
"9.) 0.a.        g.) w (.  h.) i.b.) j.c.  d.) k.  4.) l.m./.%   ",
"n./.) t S o.' p.<.) /.q.n.x ) j ( ) ) g.^.~.) R   S x ) ) O r.  ",
"J I ) ) s.) ) g.  t.) ) 0.) u.v.w.) ) ) j.) x.c.    ..) ) y.    ",
"  : z.m.x A.B.    v.C.D.0 E.F.  G.) d H.D.v G       I.) ) J.    ",
"      H K.J           U :       G.) 0.c U Q     L.@ u ) M.U     ",
"                                }.) ) N.        {.) ) ) F       ",
"                                O.P.2 Q.        b.R.N S.].      ",
"                                                                ",
"                                                                ",
"                                                                "};
